<?xml version="1.0" encoding="utf-8"?>
<!-- Generator: Adobe Illustrator 22.1.0, SVG Export Plug-In . SVG Version: 6.00 Build 0)  -->
<svg version="1.1" id="Layer_1" xmlns="http://www.w3.org/2000/svg" xmlns:xlink="http://www.w3.org/1999/xlink" x="0px" y="0px"
	 viewBox="0 0 800 800" style="enable-background:new 0 0 800 800;" xml:space="preserve">
<style type="text/css">
	.st0{enable-background:new    ;}
	.st1{fill:#858585;}
	.st2{fill:#8F8F8F;}
	.st3{fill:#7D7D7D;}
	.st4{fill:#9B9B9B;}
	.st5{fill:#949494;}
	.st6{fill:#898989;}
	.st7{fill:#828282;}
	.st8{fill:#8E8E8E;}
	.st9{fill:#1C59A0;}
	.st10{fill:#959595;}
	.st11{fill:#1C589E;}
	.st12{fill:#9C9C9C;}
	.st13{fill:#1D5AA2;}
	.st14{fill:#9F9F9F;}
	.st15{fill:#7F7F7F;}
	.st16{fill:#1D5AA1;}
	.st17{fill:#838383;}
	.st18{fill:#808080;}
	.st19{fill:#818181;}
	.st20{fill:#1D5BA3;}
	.st21{fill:#A0A0A0;}
	.st22{fill:#9E9E9E;}
	.st23{fill:#A1A1A1;}
	.st24{fill:#17477F;}
	.st25{fill:#1C579C;}
	.st26{fill:#9A9A9A;}
	.st27{fill:#1D59A0;}
	.st28{fill:#194F8D;}
	.st29{fill:#999999;}
	.st30{fill:#1C579D;}
	.st31{fill:#277ADA;}
	.st32{fill:#D7D7D7;}
	
		.st33{fill-rule:evenodd;clip-rule:evenodd;fill:#BFC0C2;stroke:#F9F9F9;stroke-width:0.25;stroke-linecap:round;stroke-linejoin:round;}
	.st34{fill:#BFC0C2;stroke:#F9F9F9;stroke-width:0.25;stroke-linecap:round;stroke-linejoin:round;}
</style>
<g>
	<g>
		<g class="st0">
			<g>
				<polygon class="st1" points="358.9,433.8 362.3,437.3 361.9,438 358.4,434.5 				"/>
			</g>
			<g>
				<polygon class="st2" points="358.4,434.5 361.9,438 361.7,438.8 358.2,435.3 				"/>
			</g>
			<g>
				<polygon class="st3" points="360.4,433.2 363.9,436.7 362.3,437.3 358.9,433.8 				"/>
			</g>
			<g>
				<polygon class="st4" points="358.2,435.3 361.7,438.8 361.8,440.6 358.3,437.1 				"/>
			</g>
			<g>
				<polygon class="st5" points="358.3,437.1 361.8,440.6 361.6,442 358.1,438.5 				"/>
			</g>
			<g>
				<polygon class="st6" points="358.1,438.5 361.6,442 360.9,443.3 357.4,439.8 				"/>
			</g>
			<g>
				<polygon class="st3" points="364.7,433.8 368.2,437.3 363.9,436.7 360.4,433.2 				"/>
			</g>
			<g>
				<polygon class="st1" points="357.4,439.8 360.9,443.3 357.2,448.7 353.7,445.2 				"/>
			</g>
			<g>
				<polygon class="st7" points="353.7,445.2 357.2,448.7 356.1,450 352.6,446.5 				"/>
			</g>
			<g>
				<polygon class="st3" points="365.4,433.8 368.9,437.3 368.2,437.3 364.7,433.8 				"/>
			</g>
			<g>
				<polygon class="st3" points="365.9,433.7 369.3,437.2 368.9,437.3 365.4,433.8 				"/>
			</g>
			<g>
				<polygon class="st8" points="352.6,446.5 356.1,450 355.8,450.6 352.4,447.1 				"/>
			</g>
			<g>
				<polygon class="st3" points="366.2,433.5 369.7,437 369.3,437.2 365.9,433.7 				"/>
			</g>
			<g>
				<polygon class="st3" points="366.6,433.5 370,437 369.7,437 366.2,433.5 				"/>
			</g>
			<g>
				<polygon class="st9" points="366.6,433.5 370,437 370.3,437.3 366.8,433.8 				"/>
			</g>
			<g>
				<polygon class="st10" points="352.4,447.1 355.8,450.6 355.6,452.3 352.1,448.8 				"/>
			</g>
			<g>
				<polygon class="st11" points="366.8,433.8 370.3,437.3 370.5,439.1 367,435.7 				"/>
			</g>
			<g>
				<polygon class="st12" points="367,433.7 370.5,437.2 370.7,439.1 367.3,435.6 				"/>
			</g>
			<g>
				<polygon class="st13" points="367,435.7 370.5,439.1 370.7,439.8 367.2,436.3 				"/>
			</g>
			<g>
				<polygon class="st14" points="367.3,435.6 370.7,439.1 370.9,439.7 367.4,436.2 				"/>
			</g>
			<g>
				<polygon class="st15" points="370.7,433.3 374.1,436.8 373.1,437.6 369.7,434.2 				"/>
			</g>
			<g>
				<polygon class="st3" points="367.6,436.6 371.1,440.1 370.7,439.8 367.2,436.3 				"/>
			</g>
			<g>
				<polygon class="st16" points="367.2,436.3 370.7,439.8 370.9,440.1 367.4,436.6 				"/>
			</g>
			<g>
				<polygon class="st17" points="369.7,434.2 373.1,437.6 371.7,439.4 368.2,435.9 				"/>
			</g>
			<g>
				<polygon class="st18" points="368.2,435.9 371.7,439.4 371.1,440.1 367.6,436.6 				"/>
			</g>
			<g>
				<polygon class="st3" points="378.6,427.6 382.1,431.1 374.1,436.8 370.7,433.3 				"/>
			</g>
			<g>
				<polygon class="st19" points="380.4,425.7 383.8,429.1 382.1,431.1 378.6,427.6 				"/>
			</g>
			<g>
				<polygon class="st20" points="380.4,425.7 383.8,429.1 384,429.6 380.5,426.1 				"/>
			</g>
			<g>
				<polygon class="st21" points="380.3,425.3 383.8,428.8 384.2,429.5 380.8,426 				"/>
			</g>
			<g>
				<polygon class="st16" points="380.5,426.1 384,429.6 386.3,440.3 382.9,436.9 				"/>
			</g>
			<g>
				<polygon class="st22" points="380.8,426 384.2,429.5 386.6,440.3 383.1,436.8 				"/>
			</g>
			<g>
				<polygon class="st20" points="382.9,436.9 386.3,440.3 387.5,443 384,439.5 				"/>
			</g>
			<g>
				<polygon class="st23" points="383.1,436.8 386.6,440.3 387.7,442.9 384.2,439.4 				"/>
			</g>
			<g>
				<polygon class="st20" points="384,439.5 387.5,443 388.6,444.9 385.1,441.4 				"/>
			</g>
			<g>
				<polygon class="st21" points="384.2,439.4 387.7,442.9 388.8,444.7 385.4,441.2 				"/>
			</g>
			<g>
				<polygon class="st24" points="369.5,457.7 373,461.2 355.6,452.3 352.1,448.8 				"/>
			</g>
			<g>
				<polygon class="st3" points="369.5,457.9 372.9,461.4 355.4,452.4 351.9,449 				"/>
			</g>
			<g>
				<polygon class="st24" points="371.8,458 375.3,461.4 373,461.2 369.5,457.7 				"/>
			</g>
			<g>
				<polygon class="st3" points="371.7,458.2 375.2,461.7 372.9,461.4 369.5,457.9 				"/>
			</g>
			<g>
				<polygon class="st24" points="372.5,458.2 376,461.6 375.3,461.4 371.8,458 				"/>
			</g>
			<g>
				<polygon class="st3" points="387.4,443.3 390.9,446.8 388.7,444.9 385.2,441.4 				"/>
			</g>
			<g>
				<polygon class="st3" points="372.3,458.4 375.8,461.9 375.2,461.7 371.7,458.2 				"/>
			</g>
			<g>
				<polygon class="st24" points="373.8,459.4 377.3,462.9 376,461.6 372.5,458.2 				"/>
			</g>
			<g>
				<polygon class="st3" points="373.7,459.6 377.2,463.1 375.8,461.9 372.3,458.4 				"/>
			</g>
			<g>
				<polygon class="st24" points="374.2,459.6 377.7,463.1 377.3,462.9 373.8,459.4 				"/>
			</g>
			<g>
				<polygon class="st3" points="374,459.8 377.5,463.3 377.2,463.1 373.7,459.6 				"/>
			</g>
			<g>
				<polygon class="st3" points="390.4,444.1 393.9,447.6 390.9,446.8 387.4,443.3 				"/>
			</g>
			<g>
				<polygon class="st23" points="375.9,461.4 379.4,464.9 379.7,465.3 376.2,461.8 				"/>
			</g>
			<g>
				<polygon class="st3" points="394.3,444.1 397.8,447.6 393.9,447.6 390.4,444.1 				"/>
			</g>
			<g>
				<polygon class="st24" points="376.8,461.9 380.2,465.4 379.7,465.3 376.2,461.8 				"/>
			</g>
			<g>
				<polygon class="st3" points="376.8,462.2 380.2,465.7 379.6,465.6 376.1,462.1 				"/>
			</g>
			<g>
				<polygon class="st24" points="377.6,461.9 381.1,465.4 380.2,465.4 376.8,461.9 				"/>
			</g>
			<g>
				<polygon class="st3" points="377.5,462.2 381,465.7 380.2,465.7 376.8,462.2 				"/>
			</g>
			<g>
				<polygon class="st3" points="395.8,444.3 399.3,447.7 397.8,447.6 394.3,444.1 				"/>
			</g>
			<g>
				<polygon class="st24" points="378.4,462 381.8,465.5 381.1,465.4 377.6,461.9 				"/>
			</g>
			<g>
				<polygon class="st3" points="378.3,462.3 381.7,465.8 381,465.7 377.5,462.2 				"/>
			</g>
			<g>
				<polygon class="st3" points="398.3,444 401.8,447.5 399.3,447.7 395.8,444.3 				"/>
			</g>
			<g>
				<polygon class="st3" points="399.5,444.4 402.9,447.9 401.8,447.5 398.3,444 				"/>
			</g>
			<g>
				<polygon class="st24" points="383.1,464.6 386.5,468.1 381.8,465.5 378.4,462 				"/>
			</g>
			<g>
				<polygon class="st3" points="402.9,444.9 406.4,448.4 402.9,447.9 399.5,444.4 				"/>
			</g>
			<g>
				<polygon class="st3" points="383,464.8 386.4,468.3 381.7,465.8 378.3,462.3 				"/>
			</g>
			<g>
				<polygon class="st24" points="384.4,465 387.9,468.5 386.5,468.1 383.1,464.6 				"/>
			</g>
			<g>
				<polygon class="st3" points="384.4,465.2 387.9,468.7 386.4,468.3 383,464.8 				"/>
			</g>
			<g>
				<polygon class="st3" points="404.2,445.7 407.7,449.2 406.4,448.4 402.9,444.9 				"/>
			</g>
			<g>
				<polygon class="st13" points="404.2,445.7 407.7,449.2 408.3,449.9 404.8,446.4 				"/>
			</g>
			<g>
				<polygon class="st14" points="404.4,445.5 407.9,449 408.5,449.8 405,446.3 				"/>
			</g>
			<g>
				<polygon class="st24" points="386.2,465.2 389.7,468.7 387.9,468.5 384.4,465 				"/>
			</g>
			<g>
				<polygon class="st3" points="386.2,465.4 389.6,468.9 387.9,468.7 384.4,465.2 				"/>
			</g>
			<g>
				<polygon class="st20" points="404.8,446.4 408.3,449.9 408.5,450.5 405,447 				"/>
			</g>
			<g>
				<polygon class="st21" points="405,446.3 408.5,449.8 408.7,450.4 405.3,446.9 				"/>
			</g>
			<g>
				<polygon class="st9" points="405,447 408.5,450.5 408.6,451.2 405.2,447.8 				"/>
			</g>
			<g>
				<polygon class="st22" points="405.3,446.9 408.7,450.4 408.9,451.2 405.4,447.7 				"/>
			</g>
			<g>
				<polygon class="st24" points="388.2,465.7 391.7,469.2 389.7,468.7 386.2,465.2 				"/>
			</g>
			<g>
				<polygon class="st3" points="388.1,466 391.6,469.4 389.6,468.9 386.2,465.4 				"/>
			</g>
			<g>
				<polygon class="st25" points="405.2,447.8 408.6,451.2 408.7,454.6 405.2,451.1 				"/>
			</g>
			<g>
				<polygon class="st26" points="405.4,447.7 408.9,451.2 408.9,454.5 405.5,451 				"/>
			</g>
			<g>
				<polygon class="st27" points="405.2,451.1 408.7,454.6 409.1,456.5 405.6,453 				"/>
			</g>
			<g>
				<polygon class="st22" points="405.5,451 408.9,454.5 409.3,456.4 405.8,453 				"/>
			</g>
			<g>
				<polygon class="st24" points="391.9,467.3 395.4,470.8 391.7,469.2 388.2,465.7 				"/>
			</g>
			<g>
				<polygon class="st28" points="392.1,466.9 395.6,470.4 395.4,470.8 391.9,467.3 				"/>
			</g>
			<g>
				<polygon class="st3" points="392.1,467.5 395.6,471 391.6,469.4 388.1,466 				"/>
			</g>
			<g>
				<polygon class="st29" points="392.1,467.3 395.6,470.7 395.6,471 392.1,467.5 				"/>
			</g>
			<g>
				<polygon class="st24" points="394.7,468.2 398.2,471.7 395.6,470.4 392.1,466.9 				"/>
			</g>
			<g>
				<polygon class="st3" points="394.6,468.5 398.1,471.9 395.6,470.7 392.1,467.3 				"/>
			</g>
			<g>
				<polygon class="st24" points="396.2,468.7 399.7,472.2 398.2,471.7 394.7,468.2 				"/>
			</g>
			<g>
				<polygon class="st3" points="396.1,469 399.6,472.5 398.1,471.9 394.6,468.5 				"/>
			</g>
			<g>
				<polygon class="st24" points="397.7,468.9 401.2,472.4 399.7,472.2 396.2,468.7 				"/>
			</g>
			<g>
				<polygon class="st3" points="397.6,469.2 401.1,472.6 399.6,472.5 396.1,469 				"/>
			</g>
			<g>
				<polygon class="st24" points="398.4,469.2 401.9,472.7 401.2,472.4 397.7,468.9 				"/>
			</g>
			<g>
				<polygon class="st3" points="398.3,469.4 401.8,472.9 401.1,472.6 397.6,469.2 				"/>
			</g>
			<g>
				<polygon class="st24" points="399.4,470.2 402.9,473.7 401.9,472.7 398.4,469.2 				"/>
			</g>
			<g>
				<polygon class="st3" points="399.3,470.4 402.8,473.9 401.8,472.9 398.3,469.4 				"/>
			</g>
			<g>
				<polygon class="st24" points="400.1,470.4 403.6,473.9 402.9,473.7 399.4,470.2 				"/>
			</g>
			<g>
				<polygon class="st3" points="400.1,470.6 403.5,474.1 402.8,473.9 399.3,470.4 				"/>
			</g>
			<g>
				<polygon class="st30" points="405.6,453 409.1,456.5 409.4,468.9 405.9,465.4 				"/>
			</g>
			<g>
				<polygon class="st26" points="405.8,453 409.3,456.4 409.7,468.9 406.2,465.4 				"/>
			</g>
			<g>
				<polygon class="st20" points="405.9,465.4 409.4,468.9 409.7,469.7 406.2,466.2 				"/>
			</g>
			<g>
				<polygon class="st21" points="406.2,465.4 409.7,468.9 409.9,469.6 406.4,466.1 				"/>
			</g>
			<g>
				<polygon class="st3" points="406.9,466.8 410.4,470.2 409.7,469.7 406.3,466.3 				"/>
			</g>
			<g>
				<polygon class="st3" points="407.5,466.7 411,470.1 410.4,470.2 406.9,466.8 				"/>
			</g>
			<g>
				<polygon class="st3" points="408,466.3 411.5,469.8 411,470.1 407.5,466.7 				"/>
			</g>
			<g>
				<polygon class="st3" points="408.4,466.3 411.9,469.8 411.5,469.8 408,466.3 				"/>
			</g>
			<g>
				<polygon class="st3" points="408.7,466.3 412.2,469.8 411.9,469.8 408.4,466.3 				"/>
			</g>
			<g>
				<polygon class="st31" points="380.4,425.7 380.5,426.1 382.9,436.9 384,439.5 385.1,441.4 387.3,443.3 390.4,444.1 394.3,444.1 
					395.8,444.3 398.3,444 399.4,444.4 402.9,444.9 404.2,445.7 404.8,446.4 405,447 405.2,447.8 405.2,451.1 405.6,453 
					405.9,465.4 406.2,466.2 406.8,466.7 407.5,466.7 408,466.3 408.4,466.3 408.7,466.3 409.1,470.9 400.1,470.4 399.4,470.2 
					398.4,469.2 397.7,468.9 396.2,468.7 394.7,468.2 392.1,466.9 391.9,467.3 388.2,465.7 386.2,465.2 384.4,465 383.1,464.6 
					378.4,462 377.6,461.9 376.8,461.9 376.2,461.8 376,461.4 374.2,459.6 373.8,459.4 372.5,458.2 371.8,458 369.5,457.7 
					352.1,448.8 352.4,447.1 352.6,446.5 353.7,445.2 357.4,439.8 358.1,438.6 358.3,437.1 358.2,435.3 358.4,434.5 358.9,433.8 
					360.4,433.2 364.7,433.8 365.4,433.8 365.8,433.7 366.2,433.5 366.6,433.5 366.8,433.8 367,435.7 367.2,436.3 367.4,436.6 
					368.2,436 369.7,434.2 370.7,433.3 378.6,427.7 				"/>
			</g>
			<g>
				<polygon class="st24" points="409.1,470.9 412.6,474.4 403.6,473.9 400.1,470.4 				"/>
			</g>
			<g>
				<polygon class="st11" points="408.7,466.3 412.2,469.8 412.6,474.4 409.1,470.9 				"/>
			</g>
			<g>
				<polygon class="st12" points="408.8,466.1 412.3,469.6 412.8,474.5 409.4,471 				"/>
			</g>
			<g>
				<path class="st32" d="M409.4,471l-9.3-0.4l-0.7-0.2l-1-1l-0.7-0.2l-1.5-0.2l-1.5-0.5l-2.5-1.2l0,0.3l-4-1.6l-2-0.5l-1.8-0.2
					l-1.4-0.4l-4.7-2.6l-0.7-0.1l-0.8,0l-0.7-0.1l-0.3-0.5l-1.7-1.7l-0.3-0.2l-1.4-1.2l-0.6-0.2l-2.3-0.3l-17.5-9l0.2-1.9l0.2-0.7
					l1.2-1.3l3.7-5.4l0.6-1.2l0.2-1.4l-0.1-1.8l0.3-0.9l0.5-0.7l1.7-0.7l4.4,0.5l0.6,0l0.4-0.1l0.4-0.2l0.5,0l0.4,0.4l0.2,1.9
					l0.2,0.6l0.6-0.4l1.4-1.8l1-0.9l7.9-5.6l1.9-2.1l0.5,0.7l2.3,10.8l1.1,2.6l1.1,1.8l2.1,1.9l3,0.8h3.9l1.5,0.1l2.5-0.2l1.2,0.4
					l3.4,0.5l1.5,0.8l0.6,0.8l0.3,0.7l0.1,0.8l0,3.3l0.4,1.9l0.4,12.4l0.2,0.7l0.5,0.4l0.4-0.1l0.5-0.3l0.5-0.1l0.4,0.1L409.4,471z
					 M400.1,470.4l9,0.5l-0.4-4.6l-0.3,0l-0.4,0l-0.5,0.3l-0.6,0.1l-0.7-0.5l-0.3-0.8l-0.4-12.5l-0.4-1.9l-0.1-3.3L405,447l-0.2-0.6
					l-0.6-0.7l-1.4-0.8l-3.4-0.5l-1.1-0.4l-2.5,0.2l-1.5-0.1h-3.9l-3-0.8l-2.2-1.9l-1.2-1.9l-1.1-2.6l-2.3-10.8l-0.2-0.4l-1.8,2
					l-7.9,5.6l-1,0.9l-1.4,1.8l-0.6,0.6l-0.4-0.2l-0.2-0.7l-0.2-1.9l-0.3-0.3l-0.3,0l-0.4,0.2l-0.5,0.1l-0.6,0l-4.3-0.6l-1.6,0.6
					l-0.4,0.6l-0.2,0.8l0.1,1.8l-0.2,1.4l-0.6,1.3l-3.7,5.4l-1.1,1.3l-0.2,0.6l-0.2,1.6l17.4,8.9l2.3,0.3l0.7,0.2l1.4,1.3l0.3,0.2
					l1.8,1.8l0.3,0.5l0.6,0.1l0.8,0l0.8,0.1l4.7,2.6l1.4,0.4l1.8,0.2l2,0.5l3.7,1.6l0-0.3l2.8,1.2l1.5,0.5l1.5,0.2l0.7,0.2l1,1
					L400.1,470.4"/>
			</g>
			<g>
				<polygon class="st3" points="409.4,471 412.8,474.5 403.5,474.1 400.1,470.6 				"/>
			</g>
		</g>
	</g>
</g>
<polygon class="st33" points="270.9,373.6 269.9,373.3 268.6,373.1 267.5,372.8 266.9,372.1 263.9,373.8 260.7,373.8 257.6,372.7 
	254.6,370.6 250.5,370.2 248.2,363.7 245.7,350.7 242,348.5 241.1,348.2 239.7,347.5 233.7,340.3 233.2,335.4 232.8,333.6 
	231.3,333.9 230.8,334.7 229.3,333.8 224.8,333.6 222.5,333 221.2,332.3 220.4,332.5 221.2,333.2 221.7,333.8 221.8,334.7 
	221.6,335.7 221,336.5 220.4,337 220.2,337.2 218.4,338.2 217.2,339 216.3,339.2 215.1,339.3 213.7,339.3 212.3,338.7 210.5,338.1 
	206.3,336 203.2,334.8 199.5,332.5 199.5,331 198.7,329.3 198.2,329.6 197.2,330.7 196.2,330.7 196,329.7 194.5,329.2 193.4,329.5 
	193.6,330.4 193.4,331.1 192.8,331.1 192.1,330.8 191.4,330.7 190.7,330.8 190.3,331.2 188.7,331.9 187.7,332.6 186.5,332.8 
	185.4,332.2 183.9,333 182.2,332.1 179.8,329.4 175.6,329.2 171.8,327.7 168.9,326.4 167.2,323.5 164.8,320.6 162.4,316.7 
	160.6,314.4 158.2,313.4 155.3,312.8 149.9,314.4 148.6,314.6 147.4,314.6 145.9,314.1 145,313.3 144.2,312.4 143.4,311.7 
	140.9,310.5 138.4,310 136.7,310.7 137,313.1 135.5,315.2 135.1,316.3 135.5,317 136.2,318.1 136.2,318.9 135.8,319.8 135.5,321.2 
	134.7,321.6 134.3,321.7 134.4,321.9 134.3,326.4 134.1,330.3 134.1,332.8 134,333.8 133.7,334.7 133.1,335.8 131.8,340.7 
	130.9,342.6 129.7,343.2 126.9,341 124.7,339.9 123.2,340.8 122.6,341 121.8,340.9 121,340.2 120.2,339.7 119.7,339.2 119.4,338.6 
	119.1,338.1 118.1,337.5 118.1,341.2 118.4,342.4 116.4,343.5 108.7,343.4 106.5,342.8 105.1,341.9 103.6,341.3 101.5,341.2 
	100.4,341.7 99.4,342.4 98.5,342.8 97.8,342.6 97.3,341.6 97,340.7 96.6,340.1 95.8,340.1 95.3,340.3 94.3,341 93.6,342.4 94,343.6 
	94.4,345.4 94.5,347.3 93.8,349 92.8,351 92.5,353.3 94,365.6 94.6,367.3 95.2,368.3 97.5,369 98.5,369.5 99.9,370.7 99.7,371.8 
	95.7,375.5 93,380.4 92.3,382.3 91.9,383.9 91.9,384.9 92.1,385.6 92.4,386.6 93.8,384.6 95.8,384 97.9,384.9 100,384.6 101.9,386 
	102.3,388.4 102.2,391.1 100.3,392.9 97.4,396.3 96.1,397.5 97.3,399.1 96.9,399.8 95.7,400 94.4,399.9 93.2,400.6 92,402 
	91.1,403.6 90.7,404.8 90.9,406.3 90.3,409.3 92,411.1 92,412.9 91.9,414.2 92.6,413.9 94.5,413 96.3,413.3 97.9,414 100.9,416.5 
	107,417 120.2,418.2 125.9,418.4 142.9,419.7 145.6,420.5 148.1,421.1 150.4,421.8 152.9,422.1 156.6,422.6 161.1,423.1 
	164.7,422.5 165.3,423.2 165.8,423.4 166.2,423.3 167.6,423.7 169,424 169.7,425.6 173.1,426.3 175.1,427.2 177.6,427.9 
	180.1,429.8 182.6,431 183.9,432.8 184.5,434.4 186.5,435.1 191.1,435.7 193.1,436.1 194.6,437.1 194.8,439.2 197.2,440.3 
	200.2,439.9 203.6,439.9 216.9,443.3 230.4,445.5 239.6,445.6 242.5,443.7 243.2,441.7 243.4,438.5 245.7,436.6 247.1,436.2 
	251.9,436.1 252.9,436.2 253.4,436.6 253.8,438.3 255.3,438.6 255.6,438.4 255.8,437.8 255.3,436.4 255.9,435.8 256.6,435.1 
	257.5,434.6 258.2,434.7 258.8,435 259.3,435.4 259.8,435.6 261.6,436.6 263.6,435.2 264.4,434.6 260.2,431.2 259.9,430.8 
	259.7,430.3 259.7,429.3 259.8,428.6 260.2,427.4 260.3,426.5 260.2,425.4 258.8,420.3 258.4,417.2 258.2,416.2 257.9,415.6 
	257.6,415.1 256.7,414.7 256,414.5 255.5,414.3 255.1,412.7 255,411.7 254.5,411.5 253.7,411.5 252,412 251.2,411.9 250.8,411.3 
	250.2,410.2 248.5,409.8 246.7,409.3 246.2,407.1 248,401.5 248.1,399.9 248.3,398.8 248.9,398 249.7,397.3 251,396.9 252.3,396.9 
	255.1,397.3 256.9,397.2 257.8,396.9 258.5,396.5 260.4,395.1 261.3,394.2 262.2,393.1 263.1,392.4 263.6,391.6 263.9,390.6 
	263.7,389.3 263.7,387.2 264.1,383.7 264.5,382.6 266.1,379.8 271.1,374.1 271.3,374 "/>
<polygon class="st33" points="134.4,321.9 134.3,321.7 134.3,321.7 123.5,323.4 120.3,323.5 117.4,322.9 116.3,322 116,320.8 
	115.9,320.2 115.5,320.4 113.2,322.2 112.5,323.3 113.8,331 115.8,333.3 116.6,336.3 117.5,337.3 118.1,337.5 119.1,338.1 
	119.4,338.6 119.7,339.2 120.2,339.7 121,340.2 121.8,340.9 122.6,341 123.2,340.8 124.7,339.9 126.9,341 129.7,343.2 130.9,342.6 
	131.8,340.7 133.1,335.8 133.7,334.7 134,333.8 134.1,332.8 134.1,330.3 134.3,326.4 "/>
<path class="st34" d="M537,304.4l0.6,0.8l1.9,0.1l1.1-0.7l0.6-0.2l0.3,0.6l0.4,0.2l2,0.1l0.7-0.1l1.3-0.5l0.9-0.9l0.5-1.3l0.1-1.6
	l-0.3-1.7l-0.7-1.1l-0.9-0.8l-1-0.7l-1.2,0.1l-1,0.4l-0.9,0.2l-0.8-0.3l-1.7,1.8l-0.2,0.4l-2,1.6l-0.5,0.6l0.8,1.6L537,304.4z
	 M619.7,402.5l0.1,0.3l2.1,0.9l1.2,0l0.7-0.6v-0.4l-1.7-0.3l-2.1-0.3L619.7,402.5z M681.2,507.7l-0.4-0.9l-0.6-0.8l-3.8-1.4
	l-1.8-1.2l-0.9-0.2l-1.4,0l-1.2-0.4l-1.1-1.1l-0.9-1.4l-0.5-1.4l0.1-4.7l-0.3-2.3l-1.3-1.3l0,3.2l-0.3,1.8l-0.9,0.8l-0.9-0.6
	l-0.2-1.5l-0.1-3.2l-0.8-1.6l-0.2-0.8l0.1-0.7l0.4-1.6l0.2-2.1l2.8-14.2l3-10.3l0-3.4l-0.1-0.5l-0.2-0.5l-0.2-0.6l0-0.8l0.3-0.8
	l0.9-1.3l0.2-0.5l0.5-3l0.1-1.6l-0.5-1.5l-1-1.1l-2.8-1.5l-1.3-1.1l-0.6-0.3l-0.8-0.1l-1.6,0.1l-0.9-0.1l-0.7-0.2l-1.1-0.7l-2.6-2.5
	l-1.1-0.4l-1.6,0.2l-2.9,0.8l-1.7,0l-2.3-0.9l-1.7-1.4l-2.8-3.6l-2.3-1.3l-2.1,0.4l-5.1,4.3l-1,0.4l-1.5,0.2l-1.7-0.2l-1.2-0.4
	l-1.1-0.1l-1.3,0.7l-1.5,1.7l-0.9,0.8l-1.3,0.3l-1.6-0.2l-2.9-1l-1.7-0.1l-0.6,0.2l-1.4,0.6l-0.9,0.2l-9.4-1.4l-1.7,0.2l-2.3,1.3
	l-1.1,0.3l-1.5,0.2l-1.6,0.5l-2.6,1.3l-2.5,1.7l-1.4,0.6l-1.7,0.2l-1-0.5l-1.7-2.2l-1.4-0.7l-0.8,0l-1.5,0.4l-0.6,0.1l-0.9-0.2
	l-1.6-0.7l-2.3-0.6l-1.5-1l-2.5-2.5l-1.4-1.1l-1.4-0.6l-1.5-0.2l-1.9,0l-1.3-0.3l-9.1-3.9l-6-4.4v-5.9l0.6-1.2l2.7-1.8l0.6-1.4
	l0-2.9l0.1-1.2l0.6-2.6l0-1.1l-0.2-1.1l-1.1-2l-0.8-1.1l-1-1l-1.2-0.4l-1.7,0.4l-1.1,1.1l-0.9,1.3l-1.1,1.1l-4-1.7l-1.8-1.1
	l-1.2-1.6l4.3,0.4l1.1-0.4l0.4-1.3l-0.7-1.5l-1.2-1.2l-1.2-0.5l-0.6-0.5l-0.7-1.1l-0.6-1.2l-0.3-0.8l0.5-0.6l1.2-0.5l2.3-0.6
	l-0.6-1.2l-1,0.1l-1.1,0.4l-0.8-0.3l-0.6-0.6l-1.6-2.4l-0.3-0.7l0.3-1.7l1.1-2.8l0.1-1.5l-0.2-0.6L537,379l-0.5-0.6l-0.5-0.4
	l-1.1-0.4l-0.4,0.1l0,0.5l0,0.9l-0.4,1.5l-1,0.7l-1.4,0l-1.6-0.5l-1.1-0.7l-1.1-1l-1.2-0.8l-1.4-0.3l-0.4,0.2l-0.5,0.4l-0.5,0.3
	l-1.1-0.4l-2.6-0.4l-1.7,0.2l-2.9,1l-1.5,0.2h-3l-0.8,0.1l-2.4,0.8l-3,0.4l-3.1,0.1l-1.6-0.3l-1.2-0.9l-4.2-5.3l-2.4-2.4l-1.3-0.4
	l-1.6,0.4l-2.3,1.2l-1.6,0.5l-1.2-0.1l-1.2-0.3l-3-0.3l-4.8-1.3l-1.7-0.8l-1.6-1.1l-1.6-1.5l-0.3,0.3l-2.8,4.5l-0.6,1.8l0,1.3
	l-1.3,6.4l-0.4,1.9l0.2,6.1l-0.3,2.5l0.1,0.8l0.7,3l0.1,0.8l-0.1,0.5l-1.2,0.7l-2.9,2.5l-1.1,1.3l-1,0.9l-2,1.5l-1.5,0.9l-0.6,0.4
	l-0.4,0.3l-0.4,0.4l-0.6,0.8l-0.2,0.5l0,0.9l-2.9-0.5l-4.5-1.6l-1.1-0.6l-0.9-0.6l-0.5-0.1l-0.6,0.1l-0.6,0.2l-0.8,0l-1-0.3
	l-1.3-0.6l-1.8-0.3l-1.2,1.1l-0.4,3l0,3.3l0.3,2.1l0,1.4l-1.2,8.8l0.9,3.8l0.6,1.3l0.8,0.9l-0.4,0.8l-1.8,1.4l-0.3,0.6l0,0.4
	l0.3,0.5l0.1,0.6l0,1.3l0.2,1.2l1.2,0.6l2.5,0.2l0.8,0.3l0.8,0.6l1.9,2l0.7,0.9l0.5,0.8l0.2,1l-0.2,2.8l-0.5,1.6l-1.2,3.1l-0.3,2.5
	l-0.5,0.4l-0.7,0.4l-0.7,0l-0.6-0.3l-0.6-0.4l-0.5-0.2l-0.8,0.1l-1.8,1.3l-1.1,0.6l-2,0.8l-3.6,2.2l-4.5,3.7l-2.6,1.7l-1.4,1.2
	l-1.1,1.2l-0.3,0.7l-0.1,0.6l0.1,1.6l0,0.6l0,0.4l-1,3.5l-0.1,0.5l0,0l3.9,1.7l1.4,0.3h2.9l0.6-0.2l0.4-0.4l0.7-1l0.3-0.6l0.3-0.7
	l0.3-0.5l0.5-0.1l0.5,0.6l0.1,1l0.3,0.9l0.9,0.4l0.8,0.1l0.7,0.3l0.5,0.5l0.2,0.8l0.3,0.7l0.7,0.1l5.9-1.8l0.3-0.4l0.6-0.3l0.7-0.1
	l0.6,0.2l0.8,0.7l0.4,0.2l0.8-0.1h3.7l0.7,0.2l0.8,0.6l0.5,0.2l0.7-0.1l1.3-0.4l0.5,0l1.2,0.5l0.1,0.6l-0.1,0.9l0.5,1.2l5,1.2
	l1.1-0.2l1.1-0.8l1,0.1l2.5,1.3l1.2,0.2l0.8-1h0.5l0.6,1.4l1.1,1.1l1.4,0.7l1.6,0.2l0.8-0.2l0.3-0.5l-0.1-0.5l-1-0.6l0.1-0.7
	l0.4-0.7l0.2-0.3l0.4-1.5l0.4-0.7l0.6-0.3l0.7,0.4l0.5,0.9l0.3,0.9l0.3,0.4l1.4-0.4l0.1-1.1l-0.1-1.4l0.7-1.4l0.8-0.3l0.7,0.2
	l0.7,0.4l0.8,0.3l0.8,0.1l1.9-0.1l1.1,0.4l1.7,1.6l1.4,0.5l0.6,0l0.3-0.2l0.3-0.3l1.8-1.2l0.7,0l2.3,1.4l1.6,0.5l13.2,1.3l1.3,0.4
	l0.4,0.3l0.3,0.3l0.5,0.3l1,0.1l1.9-0.8l0.8-0.2l1.5-0.1l1.8,0.3l1.8,0.7l1.3,1.1l-0.2,0.3l-0.3,0.7l1.6,0l1.1,0.5l0.9,0.6l1.1,0.3
	h5.6l3.8,1.3l2.8,0.5l3.2,1.4l1.2,0.8l1.3-1.2l0.8-0.5l1.1-0.2l1.2-0.1l1.1-0.3l0.5-0.3l1-0.9l1.1-0.6l0.4,0.1l0.7,0.5l0.6,0.3
	l0.7-0.2l0.6-0.5l0.2-0.6l0.3-0.4l1.7,1.2l0.9-0.1l2.3,0.9l2.4-1.6l3.6-4.1l2.8-1.5l3.1-0.8l9.2-1.1l3.1,0.3l3,0.8l3,1.2l1.6,1.1
	l3.5,4.1l1.3,0.6l1.1-0.4l1.2-0.6l1.5,0.1l0.4,0.3l0.5,0.9l0.4,0.5l0.5,0.5l2.6,1.5l1,0.1l2.3-0.3l0.4,0.2l0.8,0.9l0.5,0.4l2.2,0.4
	l0.9,0.4l1.3,1.9l1,0.7l1.2,0.1l0.7-0.2l0.6-0.1l0.9,0.6l0.1,0.5l-0.2,1.2l0.3,0.3l1.3,0.1l0.6-0.1l0.3-0.2l0.4-0.7l1-0.6l1.2-0.4
	l1.1-0.1l0.5,0.5l0.4,2.4l0.3,1l0.2-0.4l0.2-0.2l0.3-0.2l0.4-0.3l1.2,0.9l1.9,0.8l1.9,0.6l1.2,0.2l0.8-0.2l1.5-0.7l0.7-0.2l0.7,0.4
	l-0.1,0.9l-0.3,1l-0.1,0.8l0.9,1.2l1.1-0.1l1.3-0.6l1.4-0.4l0.7,0.3l0.7,1.3l0.6,0.3l2.6,0.5l0.7,0l3.2-1.1l1.9-0.2l0.8,1.1l0.8,0.8
	l1.7-0.7l2.9-1.8l2.9,0.1l3.4,1.5l2.6,2.3l0.5,2.5l-1.6,1.9l-0.2,1.1l1.6,0.5l4-0.3l1.6,0.3l6.3,2.1l3-0.2l2-2.5l0.1-1.8l-0.7-1.1
	L681.2,507.7z M595.2,490.9l-0.8-0.4l-4-0.2l-3.6-0.8l0.2,0.5l0.3,0.5l-1,0.7l-0.3,1.2l0.3,1.1l0.8,0.5l5.7,0l1.8-0.5l0.9-0.1
	l0.3-0.4l-0.1-1L595.2,490.9z M632.4,400.2l-0.6-0.3l-1.5,0.5l-0.9,0.9l0.1,0.9l0.9,0.2l1.9-0.5l0.5,0.3l0.3,0.4l0.7,0.7l0.5,0.2
	l-0.7-1L632.4,400.2z M650,387.6l0.5,0.1l0.2-0.2l0.2-1.3l0-1l-0.9-0.5l-0.8,1.9l0.1,0.9L650,387.6z M674.5,398.6l1.5-0.1l6.2,0.6
	l0.3-0.3l0.1-1.1l-0.2-0.8l-0.5-0.4l-0.7-0.1l-0.8,0l-0.9-0.2l-1.6-0.7l-0.6-0.2l-0.6,0.1l-2.6,1.1l-0.4,0.2l-0.2,0.4l-0.1,0.8
	l0.3,0.3L674.5,398.6z M641.8,395.3l0.3-0.8l-0.6-1.3l-1-0.6l-5.4-0.6l-0.7-0.3l-0.2-0.2l-0.6,0.3l-0.5,0.8l0.5,0.8l0.6,0.5l3.1,1.1
	L641.8,395.3z M545.5,389.5l-0.9,0.1l-0.5,0.4l-0.1,1.4l0.2,1.3l0.5,1.1l0.6,0.4l0.7-1l0.5,0.5l-0.6,1l-0.1,1l0.2,2.2l0.5,0.8
	l1.2,0.2l2.6-0.2l2.9,0.2l22.2,5l1.2-0.3l0.3-0.9l-1-0.9l-1.4-0.9l-0.9-0.8l0.5-0.5l0-1.4l0.3-0.7l0.6-0.1l1.7,0.7l0.9,0.1v0.5
	l-0.9,0.5l0,0.4l0.5,0.4l0.4,0.6l0.5,2.5l1.5,0.2l3.4-1.1l1.2,0.1l1.3,0.6l11,0.7l3.6-0.3l1.6,0.6l0.9,0.7l0.5,0.5l1.5-0.5l1.1-0.5
	l0.8-1.5l0.5-1.3l0.3-0.8l0.5-1l0.4-1.1l0.8-1l1.2-0.7l2.5,0.1l1.4-1.5l1.5,0.2l1.4,0.1l5.1,0.8l4,0.5l2.9-0.2l1.6-0.6l0-0.8
	l-0.6-0.7l-1.1-0.3l1.5-2.6l1.3-0.8l1.8,0.1l1.4-0.4l1.8-1.7l5-0.7l3.3-2l2-0.1l-1.1-2.5l-1.2-1l-2-0.7l-1.4-0.6l-1.3-1.1l-1.3-0.9
	l-1.4-0.6l-1.6-0.5l-3.2-0.4l-9.4,1.3l-8.7-0.2l-10.5,1.2l-5.8-1l-12.4,0.8l-9.1,0.1l-5.6-0.9l-6.2,0.7l-2.7,0l-2.1,0.1l-3,0.4
	l-2.2,0.8l0.1,1.2l-3.7,4.2L549,388l-2.1,1.2L545.5,389.5z M658.3,396.2l0.6,1.2l1,0.4l1.3-0.1l0.5,0.8l1.8,0.6l1.5,0.8l1,0.1
	l0.2-1.5l0.2-1.9l-1-1.3l-1-1.7l-0.8-1.5l-1.1-1l-1.5-0.4l-2,0.3l-1.8,1.9l0.3,1.5L658.3,396.2z M774.3,384.6l1.7,0l-2.4-0.8
	L774.3,384.6z M773.6,394.8l-0.1,0.5l-0.1,0.9l-0.1,0.2l-0.2-0.4l-0.4,0l-0.6,0.4l-0.2,0.6l0.2,0.7l0.4,0.5l0.4,0l0.2,0l-0.3,0.4
	l-0.7,0.1l-2-0.2l-1.4-0.6l-1.1,0l-0.5-0.2l-0.4-0.6l-0.3-0.9l-0.4-0.7l-0.6,0l-0.6,1.9l-0.3,0.1l-0.3-0.3l-0.7,0.1l-0.7,0.7l1,1.4
	l2.8,1.4l3,0.5l2.7-0.8l1.3-1.5l0.1-2.8l-0.1-1L773.6,394.8z M799.7,382.5l-1.2,0.3l-0.5,0.4l1.1,0.6l0.7-0.4l0.3-0.2L799.7,382.5z
	 M757.6,386.7l-0.6-0.5l-5.3-3l-0.7-0.1l-0.5,0.2l-0.2,0.3l0,0.7l-0.3,0.1l-0.2,0.2l0.3,0.6l1.3,0.7l0.4,0.6l2.1,0.9l1.2,0l0.2-0.2
	l0.5-0.1l1.9,0.8l0.5-0.2l-0.1-0.5L757.6,386.7z M692.3,396.3l0.1,0.2l-0.1,0.1l0.7,0.6l0.2-0.1l0.5-0.3l0.1-0.5l0-0.7l-0.8,0.3
	L692.3,396.3z M743.2,386.7l0-0.7l-0.1-0.6l-0.3-0.1l-0.1,0.4l-0.6-0.1l-0.7,0.2l-0.6,0l-0.6,0.7l1.3,1.1l1.5,0.3l0.6,0l0.4-0.3
	l-0.3-0.1L743.2,386.7z M747.8,387l0.2-0.4l0.4-0.1l-0.1-0.5l-0.5,0.1l-0.4,0.2l-0.4,0.4l-0.5,0.2l-0.7,0.8l0,0.6l1.6,1.2l0.1-0.5
	l0.6-0.1l0.6-0.3l-0.1-0.8L747.8,387z M753.8,390.2l-1.1-0.2l-0.7-0.1l0.3,0.7l-0.1,0.2l0,0.2l0.4-0.1l0.7,0.1l-0.1,0.6l1.3,0.4
	l0.2-1.2l-0.3-1.1L753.8,390.2z M750.6,380.4l-1.2-1.1l-5-2.7l-1.6-0.6l-5.9-0.6l-6.1,0.1l-1.4,0l-1.5,0.2l-0.8,0.6l0.8,1.2l-1,1.3
	l-1,0.8l-0.7,0.9l-0.3,1.7l0.5,0.8l1.2,0.2l2.7-0.3l-0.8,2.7l0,0.5l1.5,1.4l0.3,0.1l0.2,0.3l0.4,0l0.5-0.2l0.3-0.2l0.1-0.4l-0.6-0.7
	l0-0.4l-0.1,0.1l-0.1-0.2l0-0.4l0.2-0.4l1-1l2.7,2.1l1.6,0.4l1.6-1l-0.3-0.5l-0.4-0.3l-0.9-0.6l-0.8-0.3l-0.8-0.2l-0.6-0.3l-0.2-0.9
	l0.4,0l2.3-1.2l0.9,0.1l0.4,0.3l0.3,0.3l0.6,0.2h0.4l0.5-0.4l0.6-0.1l0.4-0.5l0.4-0.1l0.5,0.3l0.3,0.2l0.9,0.5l1.2,0.2l1.4,0.7
	l0.7,0.2l3.2,0.1l1.1-0.7L750.6,380.4z"/>
<path class="st34" d="M384.1,302.9l0.2,0.2l0.3-0.3l0-0.4l0.1,0.2l0.1,0.6l-0.7,0.7l0.2,0.4l0.6,0.2l0.2-0.1l0.1-0.4l0.7-0.5v-0.2
	l-0.2-0.6l-0.1-0.2l-0.7-0.4v-0.9l0.2-0.9l-0.8,0.7l-1.1,1.5L383,303l0.6-0.3L384.1,302.9z M380.1,297.7l-0.5-0.4l-0.1,0.4l0.2,0.5
	L380.1,297.7z M381.2,306.2l0.3,0.9l0.5,0.5l0.9-0.5l1-1.2l0.1-1.2l-0.5-0.6l-2,0.4l-0.8,0.5l0.1,0.5L381.2,306.2z M393.5,306.8
	l0.5-1.2l-0.1-0.4l-0.6,0.3l0,0.6l0.1,0.2l-0.1,0.3L393.5,306.8z M470.7,368.2l-1.3-1.2l-2.4-3l-0.8-0.7l-2.4-1l-4.1-0.8l-1.9-1.2
	l-1.1,1.2l-2.4,3.5l-1.1,0.7l-1.5,0.2l-3,0.7l-1.7,0.1l-13.3-1.5l-0.5,0.1l-0.4-0.1l-0.5-0.5l-1.3-2.5l-2.7-7.5l-1.2-2.5l-0.4-2.8
	l-0.5-0.9l-0.8-0.7l-0.9-0.6l-0.1-0.2l-0.5-0.6l-0.6-0.4l-0.3,0.5l-0.3,0.2l-0.7,0.1l-1.4,0l-0.8-0.3l-2-1.2l-0.7-0.5l-1.6,0.5
	l-4.4,0.5l-0.6,0.2l-1.1,0.5l-0.7,0.3l-1.9,0.3l-3.6,1.5l-0.8,0.6l-1.2,1.6l-0.7,0.5l-1.5,0.3l0.8,1.6l-0.2,0.9l-0.6,0.8l-0.4,1.4
	l-0.1,2.9l-0.4,2.7l-0.9,3.1l-5.3,10.5l-3.2,4.2l-2.9,3l-1,0.6l-1.2,0.3l-1.5,0.1l-1.4,0.4l-1.1,0.7l-1.3,0.6l-1.8-0.2l-1.5-0.8
	l-3-2.1l-2.5-0.7l-3.3-1.5l-1-0.6l-0.3-0.7l-0.1-0.8l-0.3-0.7l-0.8-0.3l-0.6,0.3l-1.2,1.5l-0.2,0.4l-0.8,0.7l-1.8,0.5l-9.4,1.3
	l-3.1,0.1l-3.2-0.4l-12.3-3.9l-13.9-2l-2.8-2.4l-3.9,4.2l-6.2,1.1l-12.6-1.4l-1.9,0.1L289,377l-2-1.3l-1.7-0.5l-2.8-2.1l-0.9-0.4
	l-1.5-0.5l-1.4,0l-0.6,1.2l-0.1,1.6l-0.5,1l-1,0.5l-1.7,0.1l-1.6-0.3l-0.8-0.7l-0.6-0.9l-0.6-0.6l0,0l-0.2,0.1l-5,5.7l-1.6,2.8
	l-0.3,1.1l-0.5,3.5l0.1,2.1l0.2,1.3l-0.3,1l-0.6,0.8l-0.8,0.8l-0.9,1l-1,0.9l-1.9,1.3l-0.7,0.4l-0.8,0.3l-1.9,0.1l-2.7-0.4l-1.3,0.1
	l-1.3,0.4l-0.9,0.6l-0.6,0.9l-0.2,1.1l-0.1,1.6l-1.7,5.5l0.4,2.2l1.9,0.5l1.7,0.4l0.6,1.1l0.4,0.5l0.8,0.2l1.7-0.6l0.8,0l0.5,0.3
	l0.2,1l0.3,1.6l0.5,0.2l0.7,0.2l0.8,0.3l0.4,0.5l0.2,0.6l0.3,1.1l0.4,3l1.4,5.2l0.1,1.1l-0.1,0.9l-0.4,1.2l-0.2,0.7l0,1l0.2,0.5
	l0.3,0.4l4.1,3.4l0.6-0.5l1-1.4l0.5-0.5l1.8-0.9l0.5-0.3l1-0.2l0.6,1.6l0.6,3.3l0.9,0.8l1.2,0.5l1.5,0.2l1.6,0.1l0.9,0.1l0.7,0.4
	l2.2,1.8l0.5,0l0.8-0.8l1-1.3l3.7-1.1l7.1,0.7l12.3,1.2l2.1,0.7l0.4,0.2l0.1,0.3l-0.5,0.8l0,0.4l0.4,0.4l0.5,0.2l0.4,0.2l0.2,0.5
	l0.6,0.7l1.5-0.2l2.8-0.7l12.3,1.4l6.9,2.2l4.3,0.8l2.6,0.9l2.6,0.6l1.6-0.5l1.9,1.2l7.3,2.1l0.6,0.3l0,0l0.2-1.7l0.2-0.7l1.1-1.3
	l3.7-5.4l0.6-1.2l0.2-1.4l-0.1-1.9l0.2-0.8l0.5-0.7l1.6-0.7l4.3,0.6l0.6,0l0.5-0.1l0.4-0.2l0.4,0l0.3,0.3l0.2,1.9l0.2,0.6l0.2,0.2
	l0.6-0.6l1.4-1.8l1-0.9l7.9-5.6l1.9-2.1l0.3,0.6l2.4,10.8l1.1,2.6l1.2,1.9l2.2,1.9l3,0.8h3.9l1.5,0.1l2.6-0.2l1.1,0.4l3.5,0.5
	l1.4,0.8l0.6,0.8l0.2,0.6l0.1,0.8l0.1,3.3l0.4,1.9l0.4,12.5l0.3,0.8l0.6,0.5l0.5-0.1l0.5-0.3l0.5,0l0.4,0.1l0.5,4.8l0,0l0.3,0l6,1.4
	l1,0.4l0,0l0.1-0.5l1-3.5l0-0.4l0-0.6l-0.1-1.6l0.1-0.6l0.3-0.7l1.1-1.2l1.4-1.2l2.6-1.7l4.5-3.7l3.6-2.2l2-0.8l1.1-0.6l1.8-1.3
	l0.8-0.1l0.5,0.2l0.6,0.4l0.6,0.3l0.7,0l0.7-0.4l0.5-0.4l0.3-2.5l1.2-3.1l0.5-1.6l0.2-2.8l-0.2-1l-0.5-0.8l-0.7-0.9l-1.9-2l-0.8-0.6
	l-0.8-0.3l-2.5-0.2l-1.2-0.6l-0.2-1.2l0-1.3l-0.1-0.6l-0.3-0.5l0-0.4l0.3-0.6l1.8-1.4l0.4-0.8l-0.8-0.9l-0.6-1.3l-0.9-3.8l1.2-8.8
	l0-1.4l-0.3-2.1l0-3.3l0.4-3l1.2-1.1l1.8,0.3l1.3,0.6l1,0.3l0.8,0l0.6-0.2l0.6-0.1l0.5,0.1l0.9,0.6l1.1,0.6l4.5,1.6l2.9,0.5l0-0.9
	l0.2-0.5l0.6-0.8l0.4-0.4l0.4-0.3l0.6-0.4l1.5-0.9l2-1.5l1-0.9l1.1-1.3l2.9-2.5l1.2-0.7l0.1-0.5l-0.1-0.8l-0.7-3l-0.1-0.8l0.3-2.5
	l-0.2-6.1l0.4-1.9l1.3-6.4l0-1.3l0.6-1.8l2.8-4.5L470.7,368.2L470.7,368.2z M367.7,298.6l0.5,0.8l0.5-0.4l0.1-0.2l-0.4-0.5l0.1-0.9
	l0-0.4l-0.5-0.1l-0.4,0.1l-0.3,0.3l0,0.7L367.7,298.6z M280.5,441.6l-0.3-0.3l-0.6-0.6l-3.8-2.1l-2.3-0.7l-3.7-0.5l-3.8-1.8
	l-1.1,0.5l-0.7,1.1l-0.2,1.3l0.4,1l1.1,0.3l3-0.4l1.1,0.4l1,0.5l4.2,0.7l3.9,1.3l1.9,0.3l0.7,0.2l0.5-0.1l0.3-0.8l-0.3-0.5
	L280.5,441.6z M364.4,303.2l-0.2-0.5l-0.5,0.2l0.4,0.4L364.4,303.2z"/>
<path class="st34" d="M51.4,313h0.3l0.7,0.8l0.1,0.9l0.2-0.4l0.5-0.2l0.1-1l-0.2-1.1l-1.5,0.2l-0.5,0.4l0.3,0.2L51.4,313z
	 M74.7,311.7l0.2-0.1l-0.2-0.6l-0.5-0.2l-0.8,0.4L74,312L74.7,311.7z M8.8,361.9l1.2-1.1l0.6-2.5l0.1-2.8l-0.1-1.8l-0.8,0l-0.8,0.1
	l-0.6,0.2l-0.3,0.5l-0.3-0.1L7,354.4l-0.8,0.5l-0.6,0.7L5.1,355l-3.6,2.8L0,359.6l0.2,1.3l0.9-0.3l3.1-3.1l0.5,1.7l0.5,0.7l0.9,0.4
	l-0.6,0.9l-0.6,1.3l-0.2,1.2l0.7,0.5l0.8-0.4l1.3-1.7L8.8,361.9z M83.5,303l0.3-0.1l0-0.3l-0.3-0.2l-1.6,0.1l0.2,0.3L83.5,303z
	 M118.1,341.2l0-3.8l-0.7-0.2l-0.8-1l-0.8-2.9l-2.1-2.3l-1.3-7.7l0.7-1.1l2.3-1.8l0.3-0.2l-0.1-0.8l-0.6-1.2l-1.1-0.8l-1.5-0.5
	l-1.6-0.3l-8.2-0.1l-1.6,0.4l-1.1,0.9l-1.2,0.7l-1.8,0l-4.4-2.1l-1.8-0.3l-1.7-0.5l-4.5-3.4l-3-0.2l-1.8,1.8l-1.6,2.2L76,317
	l-1.2-0.3l-2.2-1.4l-0.8-0.3l-0.5-0.8l-0.3-4.6l-1.6-1.8l-2.3-0.3l-2.3,0.9l-1.6,1.7l-1.4,4.7l-0.8,0.7l-0.7,0.4l-5,5.1l-1.5,2.8
	l-2,5.8l-0.5,2.6l-0.8,12.3l0.2,2.4l-1.1,3l-1.9,2.5l-3.1,1.3l-2,0.3l-0.9-1l-1.2-0.7l-0.3-2.6l-1.5-0.1l-0.9,0.6l-1.8,3.6l0.6,5.9
	l-0.4,1.1l-1.1,1.4l-5.7,5.1l-0.8,1.5l-1.1,3.3l-0.9,1.3l-1.4,0.5l-1.3-0.5l-0.9-1l-0.4-1.1l-1.7-2.8l-0.1-0.7l0-0.7l-0.2-0.9
	l-0.5-0.8l-0.8-1l-1-0.8l-0.9-0.4l-1.2,0.4l-0.7,1l-0.5,1.3l-0.7,1.2l-2,2l-1.2,1l-1,0.4l-2.4-0.3l-0.5,0.1L7.1,371l0.4,0.5l1,0.7
	l0.8,2.7l0.6,1.2l1.3,0.5l0.6-0.2l0.5-0.4l0.4-0.6l0.3-1.4l0.7-0.3l3.3,0.2l3,1.2l0.4,0.2l0.4,0.4l0.3,0.5l0.1,0.5l0.3,0.3l0.7-0.3
	l0.7-0.5l0.2-0.2l1.3,0.2l0.8,0.6l1.1,1l0.9-0.5l2.6,0.8l1.4-1.2l3-0.5l7.6-1l1.5,0.2l2.3,0.4l1.4,0.4l1.3-0.3l2.2-0.5l2.3-0.1
	l1.4-0.2l0.8,0.9l1-0.3l0.2-1l1.2-0.4l1.5-0.2l1.4-0.2l1.4,0l2.1,0.3l3.2,1.1l5.2,4.2l3.1,1.4l2.4-0.2l2.6,1.9l0.5,0.4l0.4,0.5
	l0.1,0.5l0.3,0.3l1,0.1L83,385l0.7,1l0.4,0.2l1,0.1l0.6,0.2l0.6,0.3l1,0.3l1.5,0.1l1.8-0.2l1.6-0.5l0.2-0.1l-0.3-0.9l-0.2-0.8l0-1
	l0.4-1.6l0.7-1.9l2.7-4.9l4-3.8l0.2-1.1l-1.4-1.2l-1-0.4l-2.3-0.7l-0.6-1l-0.6-1.7l-1.5-12.3l0.3-2.3l1-2l0.7-1.8l-0.1-1.9l-0.4-1.7
	l-0.4-1.2l0.7-1.4l1-0.6l0.6-0.3l0.7,0l0.4,0.6l0.3,1l0.5,0.9l0.7,0.3l0.9-0.4l1-0.7l1.2-0.5l2.1,0.1l1.5,0.6l1.5,0.9l2.1,0.6
	l7.8,0.2l1.9-1.2L118.1,341.2z M48.5,383.9l-0.5,0.4l-0.9,0.2l-0.8,0.2l0.4,0.6l0.7-0.2L48,385l0.6-0.2l0.7-0.2l0.8-0.7l-0.5-0.2
	L48.5,383.9z M29.9,387l-0.4,0l-0.1,0.1l-0.5,0.2l-0.1,0.6l2.1,0.5l1.3-0.4l-0.5-0.6L29.9,387z"/>
</svg>
