<?xml version="1.0" encoding="utf-8"?>
<!-- Generator: Adobe Illustrator 22.1.0, SVG Export Plug-In . SVG Version: 6.00 Build 0)  -->
<svg version="1.1" id="Layer_1" xmlns="http://www.w3.org/2000/svg" xmlns:xlink="http://www.w3.org/1999/xlink" x="0px" y="0px"
	 viewBox="0 0 800 800" style="enable-background:new 0 0 800 800;" xml:space="preserve">
<style type="text/css">
	
		.st0{fill-rule:evenodd;clip-rule:evenodd;fill:#BFC0C2;stroke:#F9F9F9;stroke-width:0.25;stroke-linecap:round;stroke-linejoin:round;}
	.st1{enable-background:new    ;}
	.st2{fill:#858585;}
	.st3{fill:#7E7E7E;}
	.st4{fill:#7D7D7D;}
	.st5{fill:#A4A4A4;}
	.st6{fill:#1D5BA3;}
	.st7{fill:#A1A1A1;}
	.st8{fill:#1D5CA6;}
	.st9{fill:#A3A3A3;}
	.st10{fill:#1D5AA2;}
	.st11{fill:#9F9F9F;}
	.st12{fill:#A0A0A0;}
	.st13{fill:#17477F;}
	.st14{fill:#9A9A9A;}
	.st15{fill:#A5A5A5;}
	.st16{fill:#1E5DA6;}
	.st17{fill:#1C589D;}
	.st18{fill:#9B9B9B;}
	.st19{fill:#1C579C;}
	.st20{fill:#1C589E;}
	.st21{fill:#9C9C9C;}
	.st22{fill:#1B5699;}
	.st23{fill:#979797;}
	.st24{fill:#1A5294;}
	.st25{fill:#194D8A;}
	.st26{fill:#919191;}
	.st27{fill:#888888;}
	.st28{fill:#9E9E9E;}
	.st29{fill:#929292;}
	.st30{fill:#194F8E;}
	.st31{fill:#D5D5D5;}
	.st32{fill:#2779D9;}
	.st33{fill:#808080;}
	.st34{fill:#8C8C8C;}
	.st35{fill:#BFC0C2;stroke:#F9F9F9;stroke-width:0.25;stroke-linecap:round;stroke-linejoin:round;}
</style>
<polygon class="st0" points="411.2,472.8 410.7,468 410.3,468 409.8,468 409.3,468.3 408.8,468.4 408.2,468 408,467.2 407.5,454.7 
	407.1,452.8 407.1,449.5 406.9,448.7 406.7,448.1 406.1,447.3 404.7,446.6 401.2,446 400.1,445.6 397.5,445.9 396.1,445.7 
	392.1,445.7 389.1,444.9 387,443 385.8,441.2 384.7,438.5 382.3,427.8 382,427.1 380.1,429.2 372.2,434.9 371.2,435.8 369.8,437.6 
	369.2,438.2 369,438 368.8,437.4 368.6,435.5 368.3,435.1 367.9,435.1 367.4,435.3 367,435.4 366.4,435.3 362,434.8 360.4,435.4 
	359.9,436.1 359.7,437 359.8,438.8 359.6,440.2 359,441.5 355.3,446.9 354.1,448.2 353.9,448.9 353.7,450.6 353.7,450.6 
	371.2,459.6 373.5,459.8 374.2,460 375.5,461.3 375.9,461.5 377.6,463.2 377.9,463.7 378.6,463.9 379.4,463.8 380.1,463.9 
	384.8,466.5 386.2,466.9 388,467.1 390,467.6 393.9,469.3 393.9,468.8 396.5,470.1 398,470.6 399.5,470.8 400.2,471.1 401.3,472.1 
	402,472.3 411.2,472.8 "/>
<polygon class="st0" points="270.9,373.6 269.9,373.3 268.6,373.1 267.5,372.8 266.9,372.1 263.9,373.8 260.7,373.8 257.6,372.7 
	254.6,370.6 250.5,370.2 248.2,363.7 245.7,350.7 242,348.5 241.1,348.2 239.7,347.5 233.7,340.3 233.2,335.4 232.8,333.6 
	231.3,333.9 230.8,334.7 229.3,333.8 224.8,333.6 222.5,333 221.2,332.3 220.4,332.5 221.2,333.2 221.7,333.8 221.8,334.7 
	221.6,335.7 221,336.5 220.4,337 220.2,337.2 218.4,338.2 217.2,339 216.3,339.2 215.1,339.3 213.7,339.3 212.3,338.7 210.5,338.1 
	206.3,336 203.2,334.8 199.5,332.5 199.5,331 198.7,329.3 198.2,329.6 197.2,330.7 196.2,330.7 196,329.7 194.5,329.2 193.4,329.5 
	193.6,330.4 193.4,331.1 192.8,331.1 192.1,330.8 191.4,330.7 190.7,330.8 190.3,331.2 188.7,331.9 187.7,332.6 186.5,332.8 
	185.4,332.2 183.9,333 182.2,332.1 179.8,329.4 175.6,329.2 171.8,327.7 168.9,326.4 167.2,323.5 164.8,320.6 162.4,316.7 
	160.6,314.4 158.2,313.4 155.3,312.8 149.9,314.4 148.6,314.6 147.4,314.6 145.9,314.1 145,313.3 144.2,312.4 143.4,311.7 
	140.9,310.5 138.4,310 136.7,310.7 137,313.1 135.5,315.2 135.1,316.3 135.5,317 136.2,318.1 136.2,318.9 135.8,319.8 135.5,321.2 
	134.7,321.6 134.3,321.7 134.4,321.9 134.3,326.4 134.1,330.3 134.1,332.8 134,333.8 133.7,334.7 133.1,335.8 131.8,340.7 
	130.9,342.6 129.7,343.2 126.9,341 124.7,339.9 123.2,340.8 122.6,341 121.8,340.9 121,340.2 120.2,339.7 119.7,339.2 119.4,338.6 
	119.1,338.1 118.1,337.5 118.1,341.2 118.4,342.4 116.4,343.5 108.7,343.4 106.5,342.8 105.1,341.9 103.6,341.3 101.5,341.2 
	100.4,341.7 99.4,342.4 98.5,342.8 97.8,342.6 97.3,341.6 97,340.7 96.6,340.1 95.8,340.1 95.3,340.3 94.3,341 93.6,342.4 94,343.6 
	94.4,345.4 94.5,347.3 93.8,349 92.8,351 92.5,353.3 94,365.6 94.6,367.3 95.2,368.3 97.5,369 98.5,369.5 99.9,370.7 99.7,371.8 
	95.7,375.5 93,380.4 92.3,382.3 91.9,383.9 91.9,384.9 92.1,385.6 92.4,386.6 93.8,384.6 95.8,384 97.9,384.9 100,384.6 101.9,386 
	102.3,388.4 102.2,391.1 100.3,392.9 97.4,396.3 96.1,397.5 97.3,399.1 96.9,399.8 95.7,400 94.4,399.9 93.2,400.6 92,402 
	91.1,403.6 90.7,404.8 90.9,406.3 90.3,409.3 92,411.1 92,412.9 91.9,414.2 92.6,413.9 94.5,413 96.3,413.3 97.9,414 100.9,416.5 
	107,417 120.2,418.2 125.9,418.4 142.9,419.7 145.6,420.5 148.1,421.1 150.4,421.8 152.9,422.1 156.6,422.6 161.1,423.1 
	164.7,422.5 165.3,423.2 165.8,423.4 166.2,423.3 167.6,423.7 169,424 169.7,425.6 173.1,426.3 175.1,427.2 177.6,427.9 
	180.1,429.8 182.6,431 183.9,432.8 184.5,434.4 186.5,435.1 191.1,435.7 193.1,436.1 194.6,437.1 194.8,439.2 197.2,440.3 
	200.2,439.9 203.6,439.9 216.9,443.3 230.4,445.5 239.6,445.6 242.5,443.7 243.2,441.7 243.4,438.5 245.7,436.6 247.1,436.2 
	251.9,436.1 252.9,436.2 253.4,436.6 253.8,438.3 255.3,438.6 255.6,438.4 255.8,437.8 255.3,436.4 255.9,435.8 256.6,435.1 
	257.5,434.6 258.2,434.7 258.8,435 259.3,435.4 259.8,435.6 261.6,436.6 263.6,435.2 264.4,434.6 260.2,431.2 259.9,430.8 
	259.7,430.3 259.7,429.3 259.8,428.6 260.2,427.4 260.3,426.5 260.2,425.4 258.8,420.3 258.4,417.2 258.2,416.2 257.9,415.6 
	257.6,415.1 256.7,414.7 256,414.5 255.5,414.3 255.1,412.7 255,411.7 254.5,411.5 253.7,411.5 252,412 251.2,411.9 250.8,411.3 
	250.2,410.2 248.5,409.8 246.7,409.3 246.2,407.1 248,401.5 248.1,399.9 248.3,398.8 248.9,398 249.7,397.3 251,396.9 252.3,396.9 
	255.1,397.3 256.9,397.2 257.8,396.9 258.5,396.5 260.4,395.1 261.3,394.2 262.2,393.1 263.1,392.4 263.6,391.6 263.9,390.6 
	263.7,389.3 263.7,387.2 264.1,383.7 264.5,382.6 266.1,379.8 271.1,374.1 271.3,374 "/>
<g>
	<g>
		<g class="st1">
			<g>
				<polygon class="st2" points="111.2,321 115.6,323.6 114.9,324.7 110.5,322 				"/>
			</g>
			<g>
				<polygon class="st3" points="113.5,319.2 117.9,321.8 115.6,323.6 111.2,321 				"/>
			</g>
			<g>
				<polygon class="st4" points="113.7,319.1 118,321.8 117.9,321.8 113.5,319.2 				"/>
			</g>
			<g>
				<polygon class="st5" points="113.8,318.8 118.2,321.5 118.2,321.5 113.9,318.9 				"/>
			</g>
			<g>
				<polygon class="st6" points="113.7,319.1 118,321.8 118.1,322.1 113.7,319.5 				"/>
			</g>
			<g>
				<polygon class="st7" points="113.9,318.9 118.2,321.5 118.3,322.1 114,319.5 				"/>
			</g>
			<g>
				<polygon class="st8" points="113.7,319.5 118.1,322.1 118.5,323.4 114.1,320.8 				"/>
			</g>
			<g>
				<polygon class="st8" points="114.1,320.8 118.5,323.4 118.5,323.4 114.2,320.8 				"/>
			</g>
			<g>
				<polygon class="st9" points="114,319.5 118.3,322.1 118.7,323.3 114.3,320.7 				"/>
			</g>
			<g>
				<polygon class="st10" points="114.2,320.8 118.5,323.4 119.5,324.3 115.2,321.7 				"/>
			</g>
			<g>
				<polygon class="st11" points="114.3,320.7 118.7,323.3 119.7,324.1 115.3,321.5 				"/>
			</g>
			<g>
				<polygon class="st12" points="110.5,322 114.9,324.7 116.1,332.2 111.7,329.6 				"/>
			</g>
			<g>
				<polygon class="st4" points="118.2,322.3 122.5,324.9 119.6,324.3 115.2,321.7 				"/>
			</g>
			<g>
				<polygon class="st9" points="111.7,329.6 116.1,332.2 118.1,334.6 113.8,332 				"/>
			</g>
			<g>
				<polygon class="st4" points="121.4,322.2 125.7,324.8 122.5,324.9 118.2,322.3 				"/>
			</g>
			<g>
				<polygon class="st9" points="113.8,332 118.1,334.6 118.9,337.5 114.6,334.9 				"/>
			</g>
			<g>
				<polygon class="st5" points="114.6,334.9 118.9,337.5 119.7,338.5 115.4,335.9 				"/>
			</g>
			<g>
				<polygon class="st13" points="116,336.1 120.4,338.7 119.7,338.5 115.4,335.9 				"/>
			</g>
			<g>
				<polygon class="st4" points="115.9,336.3 120.3,338.9 119.6,338.8 115.3,336.1 				"/>
			</g>
			<g>
				<polygon class="st14" points="116,336 120.3,338.7 121.4,339.3 117,336.7 				"/>
			</g>
			<g>
				<polygon class="st9" points="117,336.7 121.4,339.3 121.4,339.3 117.1,336.7 				"/>
			</g>
			<g>
				<polygon class="st5" points="117.1,336.7 121.4,339.3 121.6,339.9 117.3,337.2 				"/>
			</g>
			<g>
				<polygon class="st15" points="117.3,337.2 121.6,339.9 121.9,340.4 117.6,337.8 				"/>
			</g>
			<g>
				<polygon class="st7" points="117.6,337.8 121.9,340.4 122.4,340.9 118,338.3 				"/>
			</g>
			<g>
				<polygon class="st14" points="118,338.3 122.4,340.9 123.2,341.4 118.9,338.8 				"/>
			</g>
			<g>
				<polygon class="st11" points="118.9,338.8 123.2,341.4 124,342.1 119.7,339.5 				"/>
			</g>
			<g>
				<polygon class="st13" points="120.3,339.6 124.7,342.2 124,342.1 119.7,339.5 				"/>
			</g>
			<g>
				<polygon class="st4" points="120.4,339.8 124.7,342.4 124,342.4 119.6,339.7 				"/>
			</g>
			<g>
				<polygon class="st4" points="132.1,320.5 136.4,323.2 125.7,324.8 121.4,322.2 				"/>
			</g>
			<g>
				<polygon class="st16" points="132.1,320.5 136.4,323.2 136.5,323.2 132.1,320.6 				"/>
			</g>
			<g>
				<polygon class="st13" points="121,339.4 125.3,342 124.7,342.2 120.3,339.6 				"/>
			</g>
			<g>
				<polygon class="st9" points="132.3,320.4 136.6,323 136.7,323.2 132.3,320.6 				"/>
			</g>
			<g>
				<polygon class="st4" points="121.1,339.6 125.4,342.2 124.7,342.4 120.4,339.8 				"/>
			</g>
			<g>
				<polygon class="st13" points="122.4,338.5 126.7,341.1 125.3,342 121,339.4 				"/>
			</g>
			<g>
				<polygon class="st13" points="122.5,338.5 126.9,341.1 126.7,341.1 122.4,338.5 				"/>
			</g>
			<g>
				<polygon class="st4" points="122.4,338.8 126.8,341.4 125.4,342.2 121.1,339.6 				"/>
			</g>
			<g>
				<polygon class="st17" points="132.1,320.6 136.5,323.2 136.3,327.7 132,325.1 				"/>
			</g>
			<g>
				<polygon class="st18" points="132.3,320.6 136.7,323.2 136.6,327.7 132.2,325.1 				"/>
			</g>
			<g>
				<polygon class="st4" points="124.6,339.8 128.9,342.4 126.8,341.4 122.4,338.8 				"/>
			</g>
			<g>
				<polygon class="st13" points="124.7,339.6 129.1,342.2 126.9,341.1 122.5,338.5 				"/>
			</g>
			<g>
				<polygon class="st19" points="132,325.1 136.3,327.7 136.1,331.6 131.7,329 				"/>
			</g>
			<g>
				<polygon class="st14" points="132.2,325.1 136.6,327.7 136.3,331.7 132,329 				"/>
			</g>
			<g>
				<polygon class="st20" points="131.7,329 136.1,331.6 136.1,334.1 131.7,331.5 				"/>
			</g>
			<g>
				<polygon class="st21" points="132,329 136.3,331.7 136.3,334.1 132,331.5 				"/>
			</g>
			<g>
				<polygon class="st22" points="131.7,331.5 136.1,334.1 136,335.1 131.6,332.5 				"/>
			</g>
			<g>
				<polygon class="st23" points="132,331.5 136.3,334.1 136.2,335.1 131.9,332.5 				"/>
			</g>
			<g>
				<polygon class="st24" points="131.6,332.5 136,335.1 135.7,336 131.4,333.4 				"/>
			</g>
			<g>
				<polygon class="st25" points="131.4,333.4 135.7,336 135.1,337.1 130.7,334.4 				"/>
			</g>
			<g>
				<polygon class="st26" points="131.9,332.5 136.2,335.1 136,336.1 131.6,333.4 				"/>
			</g>
			<g>
				<polygon class="st27" points="131.6,333.4 136,336.1 135.3,337.2 131,334.5 				"/>
			</g>
			<g>
				<polygon class="st28" points="124.7,339.6 129.1,342.2 131.8,344.3 127.5,341.7 				"/>
			</g>
			<g>
				<polygon class="st4" points="127.5,342 131.9,344.6 131.7,344.6 127.4,342 				"/>
			</g>
			<g>
				<polygon class="st24" points="130.7,334.4 135.1,337.1 133.8,341.9 129.4,339.3 				"/>
			</g>
			<g>
				<polygon class="st29" points="131,334.5 135.3,337.2 134,342 129.6,339.4 				"/>
			</g>
			<g>
				<polygon class="st30" points="129.4,339.3 133.8,341.9 132.9,343.8 128.6,341.2 				"/>
			</g>
			<g>
				<polygon class="st13" points="128.6,341.2 132.9,343.8 131.8,344.3 127.5,341.7 				"/>
			</g>
			<g>
				<path class="st31" d="M132.3,320.6l-0.1,4.5L132,329l0,2.4l-0.1,1l-0.3,0.9l-0.6,1.1l-1.3,4.8l-0.9,2l-0.1,0.1l-1.2,0.6l-0.1,0
					l-2.8-2.1l-2.1-1.1l-1.4,0.9l-0.7,0.2l-0.8-0.1l-0.9-0.7l-0.8-0.5l-0.5-0.5l-0.3-0.6l-0.2-0.5l-0.9-0.6l-0.7-0.2l-0.1,0l-0.8-1
					l-0.8-3l-2-2.3l-1.3-7.7l0-0.1l0.7-1.1l2.3-1.8l0.3-0.2h0.1l0.1,0.1l0.1,0.5l0.4,1.2l1,0.8l2.9,0.6l3.2-0.1l10.8-1.7l0.1,0.1
					L132.3,320.6z M132,325.1l0.1-4.5l0-0.1l-10.7,1.6l-3.2,0.1l-3-0.6l-1.1-0.9l0-0.1l-0.4-1.2l-0.1-0.4l-0.1,0.1l-2.3,1.8
					l-0.7,1.1l1.2,7.6l2,2.3l0.8,3l0.8,1l0.6,0.1l1,0.6l0.1,0.1l0.2,0.5l0.3,0.6l0.5,0.5l0.8,0.5l0.8,0.7l0.7,0.1l0.6-0.2l1.4-0.9
					l0.1,0l2.2,1.1l2.8,2.1l1.1-0.5l0.8-1.9l1.3-4.8l0.6-1.1l0.2-0.9l0.1-1l0-2.4L132,325.1"/>
			</g>
			<g>
				<polygon class="st32" points="113.7,319.1 113.7,319.5 114.1,320.8 114.2,320.8 115.2,321.7 118.2,322.3 121.4,322.2 
					132.1,320.5 132.1,320.6 132,325.1 131.7,329 131.7,331.5 131.6,332.5 131.4,333.4 130.7,334.4 129.4,339.3 128.6,341.2 
					127.5,341.7 124.7,339.6 122.5,338.5 122.4,338.5 121,339.4 120.3,339.6 119.7,339.5 118.9,338.8 118,338.3 117.6,337.8 
					117.3,337.2 117.1,336.7 117,336.7 116,336.1 115.4,335.9 114.6,334.9 113.8,332 111.7,329.6 110.5,322 111.2,321 113.5,319.2 
									"/>
			</g>
			<g>
				<polygon class="st4" points="128.7,341.4 133.1,344 131.9,344.6 127.5,342 				"/>
			</g>
			<g>
				<polygon class="st33" points="128.8,341.4 133.1,344 133.1,344 128.7,341.4 				"/>
			</g>
			<g>
				<polygon class="st34" points="129.6,339.4 134,342 133.1,344 128.8,341.4 				"/>
			</g>
		</g>
	</g>
</g>
<path class="st35" d="M537,304.4l0.6,0.8l1.9,0.1l1.1-0.7l0.6-0.2l0.3,0.6l0.4,0.2l2,0.1l0.7-0.1l1.3-0.5l0.9-0.9l0.5-1.3l0.1-1.6
	l-0.3-1.7l-0.7-1.1l-0.9-0.8l-1-0.7l-1.2,0.1l-1,0.4l-0.9,0.2l-0.8-0.3l-1.7,1.8l-0.2,0.4l-2,1.6l-0.5,0.6l0.8,1.6L537,304.4z
	 M619.7,402.5l0.1,0.3l2.1,0.9l1.2,0l0.7-0.6v-0.4l-1.7-0.3l-2.1-0.3L619.7,402.5z M681.2,507.7l-0.4-0.9l-0.6-0.8l-3.8-1.4
	l-1.8-1.2l-0.9-0.2l-1.4,0l-1.2-0.4l-1.1-1.1l-0.9-1.4l-0.5-1.4l0.1-4.7l-0.3-2.3l-1.3-1.3l0,3.2l-0.3,1.8l-0.9,0.8l-0.9-0.6
	l-0.2-1.5l-0.1-3.2l-0.8-1.6l-0.2-0.8l0.1-0.7l0.4-1.6l0.2-2.1l2.8-14.2l3-10.3l0-3.4l-0.1-0.5l-0.2-0.5l-0.2-0.6l0-0.8l0.3-0.8
	l0.9-1.3l0.2-0.5l0.5-3l0.1-1.6l-0.5-1.5l-1-1.1l-2.8-1.5l-1.3-1.1l-0.6-0.3l-0.8-0.1l-1.6,0.1l-0.9-0.1l-0.7-0.2l-1.1-0.7l-2.6-2.5
	l-1.1-0.4l-1.6,0.2l-2.9,0.8l-1.7,0l-2.3-0.9l-1.7-1.4l-2.8-3.6l-2.3-1.3l-2.1,0.4l-5.1,4.3l-1,0.4l-1.5,0.2l-1.7-0.2l-1.2-0.4
	l-1.1-0.1l-1.3,0.7l-1.5,1.7l-0.9,0.8l-1.3,0.3l-1.6-0.2l-2.9-1l-1.7-0.1l-0.6,0.2l-1.4,0.6l-0.9,0.2l-9.4-1.4l-1.7,0.2l-2.3,1.3
	l-1.1,0.3l-1.5,0.2l-1.6,0.5l-2.6,1.3l-2.5,1.7l-1.4,0.6l-1.7,0.2l-1-0.5l-1.7-2.2l-1.4-0.7l-0.8,0l-1.5,0.4l-0.6,0.1l-0.9-0.2
	l-1.6-0.7l-2.3-0.6l-1.5-1l-2.5-2.5l-1.4-1.1l-1.4-0.6l-1.5-0.2l-1.9,0l-1.3-0.3l-9.1-3.9l-6-4.4v-5.9l0.6-1.2l2.7-1.8l0.6-1.4
	l0-2.9l0.1-1.2l0.6-2.6l0-1.1l-0.2-1.1l-1.1-2l-0.8-1.1l-1-1l-1.2-0.4l-1.7,0.4l-1.1,1.1l-0.9,1.3l-1.1,1.1l-4-1.7l-1.8-1.1
	l-1.2-1.6l4.3,0.4l1.1-0.4l0.4-1.3l-0.7-1.5l-1.2-1.2l-1.2-0.5l-0.6-0.5l-0.7-1.1l-0.6-1.2l-0.3-0.8l0.5-0.6l1.2-0.5l2.3-0.6
	l-0.6-1.2l-1,0.1l-1.1,0.4l-0.8-0.3l-0.6-0.6l-1.6-2.4l-0.3-0.7l0.3-1.7l1.1-2.8l0.1-1.5l-0.2-0.6L537,379l-0.5-0.6l-0.5-0.4
	l-1.1-0.4l-0.4,0.1l0,0.5l0,0.9l-0.4,1.5l-1,0.7l-1.4,0l-1.6-0.5l-1.1-0.7l-1.1-1l-1.2-0.8l-1.4-0.3l-0.4,0.2l-0.5,0.4l-0.5,0.3
	l-1.1-0.4l-2.6-0.4l-1.7,0.2l-2.9,1l-1.5,0.2h-3l-0.8,0.1l-2.4,0.8l-3,0.4l-3.1,0.1l-1.6-0.3l-1.2-0.9l-4.2-5.3l-2.4-2.4l-1.3-0.4
	l-1.6,0.4l-2.3,1.2l-1.6,0.5l-1.2-0.1l-1.2-0.3l-3-0.3l-4.8-1.3l-1.7-0.8l-1.6-1.1l-1.6-1.5l-0.3,0.3l-2.8,4.5l-0.6,1.8l0,1.3
	l-1.3,6.4l-0.4,1.9l0.2,6.1l-0.3,2.5l0.1,0.8l0.7,3l0.1,0.8l-0.1,0.5l-1.2,0.7l-2.9,2.5l-1.1,1.3l-1,0.9l-2,1.5l-1.5,0.9l-0.6,0.4
	l-0.4,0.3l-0.4,0.4l-0.6,0.8l-0.2,0.5l0,0.9l-2.9-0.5l-4.5-1.6l-1.1-0.6l-0.9-0.6l-0.5-0.1l-0.6,0.1l-0.6,0.2l-0.8,0l-1-0.3
	l-1.3-0.6l-1.8-0.3l-1.2,1.1l-0.4,3l0,3.3l0.3,2.1l0,1.4l-1.2,8.8l0.9,3.8l0.6,1.3l0.8,0.9l-0.4,0.8l-1.8,1.4l-0.3,0.6l0,0.4
	l0.3,0.5l0.1,0.6l0,1.3l0.2,1.2l1.2,0.6l2.5,0.2l0.8,0.3l0.8,0.6l1.9,2l0.7,0.9l0.5,0.8l0.2,1l-0.2,2.8l-0.5,1.6l-1.2,3.1l-0.3,2.5
	l-0.5,0.4l-0.7,0.4l-0.7,0l-0.6-0.3l-0.6-0.4l-0.5-0.2l-0.8,0.1l-1.8,1.3l-1.1,0.6l-2,0.8l-3.6,2.2l-4.5,3.7l-2.6,1.7l-1.4,1.2
	l-1.1,1.2l-0.3,0.7l-0.1,0.6l0.1,1.6l0,0.6l0,0.4l-1,3.5l-0.1,0.5l0,0l3.9,1.7l1.4,0.3h2.9l0.6-0.2l0.4-0.4l0.7-1l0.3-0.6l0.3-0.7
	l0.3-0.5l0.5-0.1l0.5,0.6l0.1,1l0.3,0.9l0.9,0.4l0.8,0.1l0.7,0.3l0.5,0.5l0.2,0.8l0.3,0.7l0.7,0.1l5.9-1.8l0.3-0.4l0.6-0.3l0.7-0.1
	l0.6,0.2l0.8,0.7l0.4,0.2l0.8-0.1h3.7l0.7,0.2l0.8,0.6l0.5,0.2l0.7-0.1l1.3-0.4l0.5,0l1.2,0.5l0.1,0.6l-0.1,0.9l0.5,1.2l5,1.2
	l1.1-0.2l1.1-0.8l1,0.1l2.5,1.3l1.2,0.2l0.8-1h0.5l0.6,1.4l1.1,1.1l1.4,0.7l1.6,0.2l0.8-0.2l0.3-0.5l-0.1-0.5l-1-0.6l0.1-0.7
	l0.4-0.7l0.2-0.3l0.4-1.5l0.4-0.7l0.6-0.3l0.7,0.4l0.5,0.9l0.3,0.9l0.3,0.4l1.4-0.4l0.1-1.1l-0.1-1.4l0.7-1.4l0.8-0.3l0.7,0.2
	l0.7,0.4l0.8,0.3l0.8,0.1l1.9-0.1l1.1,0.4l1.7,1.6l1.4,0.5l0.6,0l0.3-0.2l0.3-0.3l1.8-1.2l0.7,0l2.3,1.4l1.6,0.5l13.2,1.3l1.3,0.4
	l0.4,0.3l0.3,0.3l0.5,0.3l1,0.1l1.9-0.8l0.8-0.2l1.5-0.1l1.8,0.3l1.8,0.7l1.3,1.1l-0.2,0.3l-0.3,0.7l1.6,0l1.1,0.5l0.9,0.6l1.1,0.3
	h5.6l3.8,1.3l2.8,0.5l3.2,1.4l1.2,0.8l1.3-1.2l0.8-0.5l1.1-0.2l1.2-0.1l1.1-0.3l0.5-0.3l1-0.9l1.1-0.6l0.4,0.1l0.7,0.5l0.6,0.3
	l0.7-0.2l0.6-0.5l0.2-0.6l0.3-0.4l1.7,1.2l0.9-0.1l2.3,0.9l2.4-1.6l3.6-4.1l2.8-1.5l3.1-0.8l9.2-1.1l3.1,0.3l3,0.8l3,1.2l1.6,1.1
	l3.5,4.1l1.3,0.6l1.1-0.4l1.2-0.6l1.5,0.1l0.4,0.3l0.5,0.9l0.4,0.5l0.5,0.5l2.6,1.5l1,0.1l2.3-0.3l0.4,0.2l0.8,0.9l0.5,0.4l2.2,0.4
	l0.9,0.4l1.3,1.9l1,0.7l1.2,0.1l0.7-0.2l0.6-0.1l0.9,0.6l0.1,0.5l-0.2,1.2l0.3,0.3l1.3,0.1l0.6-0.1l0.3-0.2l0.4-0.7l1-0.6l1.2-0.4
	l1.1-0.1l0.5,0.5l0.4,2.4l0.3,1l0.2-0.4l0.2-0.2l0.3-0.2l0.4-0.3l1.2,0.9l1.9,0.8l1.9,0.6l1.2,0.2l0.8-0.2l1.5-0.7l0.7-0.2l0.7,0.4
	l-0.1,0.9l-0.3,1l-0.1,0.8l0.9,1.2l1.1-0.1l1.3-0.6l1.4-0.4l0.7,0.3l0.7,1.3l0.6,0.3l2.6,0.5l0.7,0l3.2-1.1l1.9-0.2l0.8,1.1l0.8,0.8
	l1.7-0.7l2.9-1.8l2.9,0.1l3.4,1.5l2.6,2.3l0.5,2.5l-1.6,1.9l-0.2,1.1l1.6,0.5l4-0.3l1.6,0.3l6.3,2.1l3-0.2l2-2.5l0.1-1.8l-0.7-1.1
	L681.2,507.7z M595.2,490.9l-0.8-0.4l-4-0.2l-3.6-0.8l0.2,0.5l0.3,0.5l-1,0.7l-0.3,1.2l0.3,1.1l0.8,0.5l5.7,0l1.8-0.5l0.9-0.1
	l0.3-0.4l-0.1-1L595.2,490.9z M632.4,400.2l-0.6-0.3l-1.5,0.5l-0.9,0.9l0.1,0.9l0.9,0.2l1.9-0.5l0.5,0.3l0.3,0.4l0.7,0.7l0.5,0.2
	l-0.7-1L632.4,400.2z M650,387.6l0.5,0.1l0.2-0.2l0.2-1.3l0-1l-0.9-0.5l-0.8,1.9l0.1,0.9L650,387.6z M674.5,398.6l1.5-0.1l6.2,0.6
	l0.3-0.3l0.1-1.1l-0.2-0.8l-0.5-0.4l-0.7-0.1l-0.8,0l-0.9-0.2l-1.6-0.7l-0.6-0.2l-0.6,0.1l-2.6,1.1l-0.4,0.2l-0.2,0.4l-0.1,0.8
	l0.3,0.3L674.5,398.6z M641.8,395.3l0.3-0.8l-0.6-1.3l-1-0.6l-5.4-0.6l-0.7-0.3l-0.2-0.2l-0.6,0.3l-0.5,0.8l0.5,0.8l0.6,0.5l3.1,1.1
	L641.8,395.3z M545.5,389.5l-0.9,0.1l-0.5,0.4l-0.1,1.4l0.2,1.3l0.5,1.1l0.6,0.4l0.7-1l0.5,0.5l-0.6,1l-0.1,1l0.2,2.2l0.5,0.8
	l1.2,0.2l2.6-0.2l2.9,0.2l22.2,5l1.2-0.3l0.3-0.9l-1-0.9l-1.4-0.9l-0.9-0.8l0.5-0.5l0-1.4l0.3-0.7l0.6-0.1l1.7,0.7l0.9,0.1v0.5
	l-0.9,0.5l0,0.4l0.5,0.4l0.4,0.6l0.5,2.5l1.5,0.2l3.4-1.1l1.2,0.1l1.3,0.6l11,0.7l3.6-0.3l1.6,0.6l0.9,0.7l0.5,0.5l1.5-0.5l1.1-0.5
	l0.8-1.5l0.5-1.3l0.3-0.8l0.5-1l0.4-1.1l0.8-1l1.2-0.7l2.5,0.1l1.4-1.5l1.5,0.2l1.4,0.1l5.1,0.8l4,0.5l2.9-0.2l1.6-0.6l0-0.8
	l-0.6-0.7l-1.1-0.3l1.5-2.6l1.3-0.8l1.8,0.1l1.4-0.4l1.8-1.7l5-0.7l3.3-2l2-0.1l-1.1-2.5l-1.2-1l-2-0.7l-1.4-0.6l-1.3-1.1l-1.3-0.9
	l-1.4-0.6l-1.6-0.5l-3.2-0.4l-9.4,1.3l-8.7-0.2l-10.5,1.2l-5.8-1l-12.4,0.8l-9.1,0.1l-5.6-0.9l-6.2,0.7l-2.7,0l-2.1,0.1l-3,0.4
	l-2.2,0.8l0.1,1.2l-3.7,4.2L549,388l-2.1,1.2L545.5,389.5z M658.3,396.2l0.6,1.2l1,0.4l1.3-0.1l0.5,0.8l1.8,0.6l1.5,0.8l1,0.1
	l0.2-1.5l0.2-1.9l-1-1.3l-1-1.7l-0.8-1.5l-1.1-1l-1.5-0.4l-2,0.3l-1.8,1.9l0.3,1.5L658.3,396.2z M774.3,384.6l1.7,0l-2.4-0.8
	L774.3,384.6z M773.6,394.8l-0.1,0.5l-0.1,0.9l-0.1,0.2l-0.2-0.4l-0.4,0l-0.6,0.4l-0.2,0.6l0.2,0.7l0.4,0.5l0.4,0l0.2,0l-0.3,0.4
	l-0.7,0.1l-2-0.2l-1.4-0.6l-1.1,0l-0.5-0.2l-0.4-0.6l-0.3-0.9l-0.4-0.7l-0.6,0l-0.6,1.9l-0.3,0.1l-0.3-0.3l-0.7,0.1l-0.7,0.7l1,1.4
	l2.8,1.4l3,0.5l2.7-0.8l1.3-1.5l0.1-2.8l-0.1-1L773.6,394.8z M799.7,382.5l-1.2,0.3l-0.5,0.4l1.1,0.6l0.7-0.4l0.3-0.2L799.7,382.5z
	 M757.6,386.7l-0.6-0.5l-5.3-3l-0.7-0.1l-0.5,0.2l-0.2,0.3l0,0.7l-0.3,0.1l-0.2,0.2l0.3,0.6l1.3,0.7l0.4,0.6l2.1,0.9l1.2,0l0.2-0.2
	l0.5-0.1l1.9,0.8l0.5-0.2l-0.1-0.5L757.6,386.7z M692.3,396.3l0.1,0.2l-0.1,0.1l0.7,0.6l0.2-0.1l0.5-0.3l0.1-0.5l0-0.7l-0.8,0.3
	L692.3,396.3z M743.2,386.7l0-0.7l-0.1-0.6l-0.3-0.1l-0.1,0.4l-0.6-0.1l-0.7,0.2l-0.6,0l-0.6,0.7l1.3,1.1l1.5,0.3l0.6,0l0.4-0.3
	l-0.3-0.1L743.2,386.7z M747.8,387l0.2-0.4l0.4-0.1l-0.1-0.5l-0.5,0.1l-0.4,0.2l-0.4,0.4l-0.5,0.2l-0.7,0.8l0,0.6l1.6,1.2l0.1-0.5
	l0.6-0.1l0.6-0.3l-0.1-0.8L747.8,387z M753.8,390.2l-1.1-0.2l-0.7-0.1l0.3,0.7l-0.1,0.2l0,0.2l0.4-0.1l0.7,0.1l-0.1,0.6l1.3,0.4
	l0.2-1.2l-0.3-1.1L753.8,390.2z M750.6,380.4l-1.2-1.1l-5-2.7l-1.6-0.6l-5.9-0.6l-6.1,0.1l-1.4,0l-1.5,0.2l-0.8,0.6l0.8,1.2l-1,1.3
	l-1,0.8l-0.7,0.9l-0.3,1.7l0.5,0.8l1.2,0.2l2.7-0.3l-0.8,2.7l0,0.5l1.5,1.4l0.3,0.1l0.2,0.3l0.4,0l0.5-0.2l0.3-0.2l0.1-0.4l-0.6-0.7
	l0-0.4l-0.1,0.1l-0.1-0.2l0-0.4l0.2-0.4l1-1l2.7,2.1l1.6,0.4l1.6-1l-0.3-0.5l-0.4-0.3l-0.9-0.6l-0.8-0.3l-0.8-0.2l-0.6-0.3l-0.2-0.9
	l0.4,0l2.3-1.2l0.9,0.1l0.4,0.3l0.3,0.3l0.6,0.2h0.4l0.5-0.4l0.6-0.1l0.4-0.5l0.4-0.1l0.5,0.3l0.3,0.2l0.9,0.5l1.2,0.2l1.4,0.7
	l0.7,0.2l3.2,0.1l1.1-0.7L750.6,380.4z"/>
<path class="st35" d="M384.1,302.9l0.2,0.2l0.3-0.3l0-0.4l0.1,0.2l0.1,0.6l-0.7,0.7l0.2,0.4l0.6,0.2l0.2-0.1l0.1-0.4l0.7-0.5v-0.2
	l-0.2-0.6l-0.1-0.2l-0.7-0.4v-0.9l0.2-0.9l-0.8,0.7l-1.1,1.5L383,303l0.6-0.3L384.1,302.9z M380.1,297.7l-0.5-0.4l-0.1,0.4l0.2,0.5
	L380.1,297.7z M381.2,306.2l0.3,0.9l0.5,0.5l0.9-0.5l1-1.2l0.1-1.2l-0.5-0.6l-2,0.4l-0.8,0.5l0.1,0.5L381.2,306.2z M393.5,306.8
	l0.5-1.2l-0.1-0.4l-0.6,0.3l0,0.6l0.1,0.2l-0.1,0.3L393.5,306.8z M470.7,368.2l-1.3-1.2l-2.4-3l-0.8-0.7l-2.4-1l-4.1-0.8l-1.9-1.2
	l-1.1,1.2l-2.4,3.5l-1.1,0.7l-1.5,0.2l-3,0.7l-1.7,0.1l-13.3-1.5l-0.5,0.1l-0.4-0.1l-0.5-0.5l-1.3-2.5l-2.7-7.5l-1.2-2.5l-0.4-2.8
	l-0.5-0.9l-0.8-0.7l-0.9-0.6l-0.1-0.2l-0.5-0.6l-0.6-0.4l-0.3,0.5l-0.3,0.2l-0.7,0.1l-1.4,0l-0.8-0.3l-2-1.2l-0.7-0.5l-1.6,0.5
	l-4.4,0.5l-0.6,0.2l-1.1,0.5l-0.7,0.3l-1.9,0.3l-3.6,1.5l-0.8,0.6l-1.2,1.6l-0.7,0.5l-1.5,0.3l0.8,1.6l-0.2,0.9l-0.6,0.8l-0.4,1.4
	l-0.1,2.9l-0.4,2.7l-0.9,3.1l-5.3,10.5l-3.2,4.2l-2.9,3l-1,0.6l-1.2,0.3l-1.5,0.1l-1.4,0.4l-1.1,0.7l-1.3,0.6l-1.8-0.2l-1.5-0.8
	l-3-2.1l-2.5-0.7l-3.3-1.5l-1-0.6l-0.3-0.7l-0.1-0.8l-0.3-0.7l-0.8-0.3l-0.6,0.3l-1.2,1.5l-0.2,0.4l-0.8,0.7l-1.8,0.5l-9.4,1.3
	l-3.1,0.1l-3.2-0.4l-12.3-3.9l-13.9-2l-2.8-2.4l-3.9,4.2l-6.2,1.1l-12.6-1.4l-1.9,0.1L289,377l-2-1.3l-1.7-0.5l-2.8-2.1l-0.9-0.4
	l-1.5-0.5l-1.4,0l-0.6,1.2l-0.1,1.6l-0.5,1l-1,0.5l-1.7,0.1l-1.6-0.3l-0.8-0.7l-0.6-0.9l-0.6-0.6l0,0l-0.2,0.1l-5,5.7l-1.6,2.8
	l-0.3,1.1l-0.5,3.5l0.1,2.1l0.2,1.3l-0.3,1l-0.6,0.8l-0.8,0.8l-0.9,1l-1,0.9l-1.9,1.3l-0.7,0.4l-0.8,0.3l-1.9,0.1l-2.7-0.4l-1.3,0.1
	l-1.3,0.4l-0.9,0.6l-0.6,0.9l-0.2,1.1l-0.1,1.6l-1.7,5.5l0.4,2.2l1.9,0.5l1.7,0.4l0.6,1.1l0.4,0.5l0.8,0.2l1.7-0.6l0.8,0l0.5,0.3
	l0.2,1l0.3,1.6l0.5,0.2l0.7,0.2l0.8,0.3l0.4,0.5l0.2,0.6l0.3,1.1l0.4,3l1.4,5.2l0.1,1.1l-0.1,0.9l-0.4,1.2l-0.2,0.7l0,1l0.2,0.5
	l0.3,0.4l4.1,3.4l0.6-0.5l1-1.4l0.5-0.5l1.8-0.9l0.5-0.3l1-0.2l0.6,1.6l0.6,3.3l0.9,0.8l1.2,0.5l1.5,0.2l1.6,0.1l0.9,0.1l0.7,0.4
	l2.2,1.8l0.5,0l0.8-0.8l1-1.3l3.7-1.1l7.1,0.7l12.3,1.2l2.1,0.7l0.4,0.2l0.1,0.3l-0.5,0.8l0,0.4l0.4,0.4l0.5,0.2l0.4,0.2l0.2,0.5
	l0.6,0.7l1.5-0.2l2.8-0.7l12.3,1.4l6.9,2.2l4.3,0.8l2.6,0.9l2.6,0.6l1.6-0.5l1.9,1.2l7.3,2.1l0.6,0.3l0,0l0.2-1.7l0.2-0.7l1.1-1.3
	l3.7-5.4l0.6-1.2l0.2-1.4l-0.1-1.9l0.2-0.8l0.5-0.7l1.6-0.7l4.3,0.6l0.6,0l0.5-0.1l0.4-0.2l0.4,0l0.3,0.3l0.2,1.9l0.2,0.6l0.2,0.2
	l0.6-0.6l1.4-1.8l1-0.9l7.9-5.6l1.9-2.1l0.3,0.6l2.4,10.8l1.1,2.6l1.2,1.9l2.2,1.9l3,0.8h3.9l1.5,0.1l2.6-0.2l1.1,0.4l3.5,0.5
	l1.4,0.8l0.6,0.8l0.2,0.6l0.1,0.8l0.1,3.3l0.4,1.9l0.4,12.5l0.3,0.8l0.6,0.5l0.5-0.1l0.5-0.3l0.5,0l0.4,0.1l0.5,4.8l0,0l0.3,0l6,1.4
	l1,0.4l0,0l0.1-0.5l1-3.5l0-0.4l0-0.6l-0.1-1.6l0.1-0.6l0.3-0.7l1.1-1.2l1.4-1.2l2.6-1.7l4.5-3.7l3.6-2.2l2-0.8l1.1-0.6l1.8-1.3
	l0.8-0.1l0.5,0.2l0.6,0.4l0.6,0.3l0.7,0l0.7-0.4l0.5-0.4l0.3-2.5l1.2-3.1l0.5-1.6l0.2-2.8l-0.2-1l-0.5-0.8l-0.7-0.9l-1.9-2l-0.8-0.6
	l-0.8-0.3l-2.5-0.2l-1.2-0.6l-0.2-1.2l0-1.3l-0.1-0.6l-0.3-0.5l0-0.4l0.3-0.6l1.8-1.4l0.4-0.8l-0.8-0.9l-0.6-1.3l-0.9-3.8l1.2-8.8
	l0-1.4l-0.3-2.1l0-3.3l0.4-3l1.2-1.1l1.8,0.3l1.3,0.6l1,0.3l0.8,0l0.6-0.2l0.6-0.1l0.5,0.1l0.9,0.6l1.1,0.6l4.5,1.6l2.9,0.5l0-0.9
	l0.2-0.5l0.6-0.8l0.4-0.4l0.4-0.3l0.6-0.4l1.5-0.9l2-1.5l1-0.9l1.1-1.3l2.9-2.5l1.2-0.7l0.1-0.5l-0.1-0.8l-0.7-3l-0.1-0.8l0.3-2.5
	l-0.2-6.1l0.4-1.9l1.3-6.4l0-1.3l0.6-1.8l2.8-4.5L470.7,368.2L470.7,368.2z M367.7,298.6l0.5,0.8l0.5-0.4l0.1-0.2l-0.4-0.5l0.1-0.9
	l0-0.4l-0.5-0.1l-0.4,0.1l-0.3,0.3l0,0.7L367.7,298.6z M280.5,441.6l-0.3-0.3l-0.6-0.6l-3.8-2.1l-2.3-0.7l-3.7-0.5l-3.8-1.8
	l-1.1,0.5l-0.7,1.1l-0.2,1.3l0.4,1l1.1,0.3l3-0.4l1.1,0.4l1,0.5l4.2,0.7l3.9,1.3l1.9,0.3l0.7,0.2l0.5-0.1l0.3-0.8l-0.3-0.5
	L280.5,441.6z M364.4,303.2l-0.2-0.5l-0.5,0.2l0.4,0.4L364.4,303.2z"/>
<path class="st35" d="M51.4,313h0.3l0.7,0.8l0.1,0.9l0.2-0.4l0.5-0.2l0.1-1l-0.2-1.1l-1.5,0.2l-0.5,0.4l0.3,0.2L51.4,313z
	 M74.7,311.7l0.2-0.1l-0.2-0.6l-0.5-0.2l-0.8,0.4L74,312L74.7,311.7z M8.8,361.9l1.2-1.1l0.6-2.5l0.1-2.8l-0.1-1.8l-0.8,0l-0.8,0.1
	l-0.6,0.2l-0.3,0.5l-0.3-0.1L7,354.4l-0.8,0.5l-0.6,0.7L5.1,355l-3.6,2.8L0,359.6l0.2,1.3l0.9-0.3l3.1-3.1l0.5,1.7l0.5,0.7l0.9,0.4
	l-0.6,0.9l-0.6,1.3l-0.2,1.2l0.7,0.5l0.8-0.4l1.3-1.7L8.8,361.9z M83.5,303l0.3-0.1l0-0.3l-0.3-0.2l-1.6,0.1l0.2,0.3L83.5,303z
	 M118.1,341.2l0-3.8l-0.7-0.2l-0.8-1l-0.8-2.9l-2.1-2.3l-1.3-7.7l0.7-1.1l2.3-1.8l0.3-0.2l-0.1-0.8l-0.6-1.2l-1.1-0.8l-1.5-0.5
	l-1.6-0.3l-8.2-0.1l-1.6,0.4l-1.1,0.9l-1.2,0.7l-1.8,0l-4.4-2.1l-1.8-0.3l-1.7-0.5l-4.5-3.4l-3-0.2l-1.8,1.8l-1.6,2.2L76,317
	l-1.2-0.3l-2.2-1.4l-0.8-0.3l-0.5-0.8l-0.3-4.6l-1.6-1.8l-2.3-0.3l-2.3,0.9l-1.6,1.7l-1.4,4.7l-0.8,0.7l-0.7,0.4l-5,5.1l-1.5,2.8
	l-2,5.8l-0.5,2.6l-0.8,12.3l0.2,2.4l-1.1,3l-1.9,2.5l-3.1,1.3l-2,0.3l-0.9-1l-1.2-0.7l-0.3-2.6l-1.5-0.1l-0.9,0.6l-1.8,3.6l0.6,5.9
	l-0.4,1.1l-1.1,1.4l-5.7,5.1l-0.8,1.5l-1.1,3.3l-0.9,1.3l-1.4,0.5l-1.3-0.5l-0.9-1l-0.4-1.1l-1.7-2.8l-0.1-0.7l0-0.7l-0.2-0.9
	l-0.5-0.8l-0.8-1l-1-0.8l-0.9-0.4l-1.2,0.4l-0.7,1l-0.5,1.3l-0.7,1.2l-2,2l-1.2,1l-1,0.4l-2.4-0.3l-0.5,0.1L7.1,371l0.4,0.5l1,0.7
	l0.8,2.7l0.6,1.2l1.3,0.5l0.6-0.2l0.5-0.4l0.4-0.6l0.3-1.4l0.7-0.3l3.3,0.2l3,1.2l0.4,0.2l0.4,0.4l0.3,0.5l0.1,0.5l0.3,0.3l0.7-0.3
	l0.7-0.5l0.2-0.2l1.3,0.2l0.8,0.6l1.1,1l0.9-0.5l2.6,0.8l1.4-1.2l3-0.5l7.6-1l1.5,0.2l2.3,0.4l1.4,0.4l1.3-0.3l2.2-0.5l2.3-0.1
	l1.4-0.2l0.8,0.9l1-0.3l0.2-1l1.2-0.4l1.5-0.2l1.4-0.2l1.4,0l2.1,0.3l3.2,1.1l5.2,4.2l3.1,1.4l2.4-0.2l2.6,1.9l0.5,0.4l0.4,0.5
	l0.1,0.5l0.3,0.3l1,0.1L83,385l0.7,1l0.4,0.2l1,0.1l0.6,0.2l0.6,0.3l1,0.3l1.5,0.1l1.8-0.2l1.6-0.5l0.2-0.1l-0.3-0.9l-0.2-0.8l0-1
	l0.4-1.6l0.7-1.9l2.7-4.9l4-3.8l0.2-1.1l-1.4-1.2l-1-0.4l-2.3-0.7l-0.6-1l-0.6-1.7l-1.5-12.3l0.3-2.3l1-2l0.7-1.8l-0.1-1.9l-0.4-1.7
	l-0.4-1.2l0.7-1.4l1-0.6l0.6-0.3l0.7,0l0.4,0.6l0.3,1l0.5,0.9l0.7,0.3l0.9-0.4l1-0.7l1.2-0.5l2.1,0.1l1.5,0.6l1.5,0.9l2.1,0.6
	l7.8,0.2l1.9-1.2L118.1,341.2z M48.5,383.9l-0.5,0.4l-0.9,0.2l-0.8,0.2l0.4,0.6l0.7-0.2L48,385l0.6-0.2l0.7-0.2l0.8-0.7l-0.5-0.2
	L48.5,383.9z M29.9,387l-0.4,0l-0.1,0.1l-0.5,0.2l-0.1,0.6l2.1,0.5l1.3-0.4l-0.5-0.6L29.9,387z"/>
</svg>
