<?xml version="1.0" encoding="utf-8"?>
<!-- Generator: Adobe Illustrator 22.1.0, SVG Export Plug-In . SVG Version: 6.00 Build 0)  -->
<svg version="1.1" id="Layer_1" xmlns="http://www.w3.org/2000/svg" xmlns:xlink="http://www.w3.org/1999/xlink" x="0px" y="0px"
	 viewBox="0 0 800 800" style="enable-background:new 0 0 800 800;" xml:space="preserve">
<style type="text/css">
	
		.st0{fill-rule:evenodd;clip-rule:evenodd;fill:#BFC0C2;stroke:#F9F9F9;stroke-width:0.25;stroke-linecap:round;stroke-linejoin:round;}
	.st1{enable-background:new    ;}
	.st2{fill:#7D7D7D;}
	.st3{fill:#898989;}
	.st4{fill:#1D5AA2;}
	.st5{fill:#A0A0A0;}
	.st6{fill:#9F9F9F;}
	.st7{fill:#9E9E9E;}
	.st8{fill:#1D5BA3;}
	.st9{fill:#A1A1A1;}
	.st10{fill:#9B9B9B;}
	.st11{fill:#7E7E7E;}
	.st12{fill:#8C8C8C;}
	.st13{fill:#959595;}
	.st14{fill:#9C9C9C;}
	.st15{fill:#848484;}
	.st16{fill:#8D8D8D;}
	.st17{fill:#979797;}
	.st18{fill:#8B8B8B;}
	.st19{fill:#939393;}
	.st20{fill:#1D5AA1;}
	.st21{fill:#999999;}
	.st22{fill:#9D9D9D;}
	.st23{fill:#1C59A0;}
	.st24{fill:#17477F;}
	.st25{fill:#909090;}
	.st26{fill:#878787;}
	.st27{fill:#7F7F7F;}
	.st28{fill:#969696;}
	.st29{fill:#9A9A9A;}
	.st30{fill:#184B86;}
	.st31{fill:#858585;}
	.st32{fill:#989898;}
	.st33{fill:#828282;}
	.st34{fill:#888888;}
	.st35{fill:#8E8E8E;}
	.st36{fill:#8A8A8A;}
	.st37{fill:#8F8F8F;}
	.st38{fill:#1C599F;}
	.st39{fill:#1C579C;}
	.st40{fill:#919191;}
	.st41{fill:#838383;}
	.st42{fill:#868686;}
	.st43{fill:#1C589F;}
	.st44{fill:#1D5BA2;}
	.st45{fill:#1D59A0;}
	.st46{fill:#184A85;}
	.st47{fill:#1A5191;}
	.st48{fill:#1B5599;}
	.st49{fill:#1C569B;}
	.st50{fill:#277ADA;}
	.st51{fill:#184C89;}
	.st52{fill:#174780;}
	.st53{fill:#184B87;}
	.st54{fill:#1A5192;}
	.st55{fill:#1A5395;}
	.st56{fill:#1B5497;}
	.st57{fill:#1C579D;}
	.st58{fill:#174881;}
	.st59{fill:#174882;}
	.st60{fill:#174984;}
	.st61{fill:#808080;}
	.st62{fill:#174880;}
	.st63{fill:#1B5598;}
	.st64{fill:#1B569A;}
	.st65{fill:#1A5394;}
	.st66{fill:#929292;}
	.st67{fill:#949494;}
	.st68{fill:#D7D7D7;}
	.st69{fill:#818181;}
	.st70{fill:#BFC0C2;stroke:#F9F9F9;stroke-width:0.25;stroke-linecap:round;stroke-linejoin:round;}
</style>
<polygon class="st0" points="411.2,472.8 410.7,468 410.3,468 409.8,468 409.3,468.3 408.8,468.4 408.2,468 408,467.2 407.5,454.7 
	407.1,452.8 407.1,449.5 406.9,448.7 406.7,448.1 406.1,447.3 404.7,446.6 401.2,446 400.1,445.6 397.5,445.9 396.1,445.7 
	392.1,445.7 389.1,444.9 387,443 385.8,441.2 384.7,438.5 382.3,427.8 382,427.1 380.1,429.2 372.2,434.9 371.2,435.8 369.8,437.6 
	369.2,438.2 369,438 368.8,437.4 368.6,435.5 368.3,435.1 367.9,435.1 367.4,435.3 367,435.4 366.4,435.3 362,434.8 360.4,435.4 
	359.9,436.1 359.7,437 359.8,438.8 359.6,440.2 359,441.5 355.3,446.9 354.1,448.2 353.9,448.9 353.7,450.6 353.7,450.6 
	371.2,459.6 373.5,459.8 374.2,460 375.5,461.3 375.9,461.5 377.6,463.2 377.9,463.7 378.6,463.9 379.4,463.8 380.1,463.9 
	384.8,466.5 386.2,466.9 388,467.1 390,467.6 393.9,469.3 393.9,468.8 396.5,470.1 398,470.6 399.5,470.8 400.2,471.1 401.3,472.1 
	402,472.3 411.2,472.8 "/>
<g>
	<g>
		<g class="st1">
			<g>
				<polygon class="st2" points="94,338.8 97.4,342.3 96.5,342.9 93,339.4 				"/>
			</g>
			<g>
				<polygon class="st2" points="94.5,338.5 98,342 97.4,342.3 94,338.8 				"/>
			</g>
			<g>
				<polygon class="st3" points="93,339.4 96.5,342.9 95.8,344.2 92.4,340.7 				"/>
			</g>
			<g>
				<polygon class="st2" points="95.1,338.6 98.6,342 98,342 94.5,338.5 				"/>
			</g>
			<g>
				<polygon class="st4" points="95.1,338.6 98.6,342 99,342.5 95.5,339.1 				"/>
			</g>
			<g>
				<polygon class="st5" points="92.4,340.7 95.8,344.2 96.2,345.4 92.7,341.9 				"/>
			</g>
			<g>
				<polygon class="st6" points="95.2,338.3 98.7,341.8 99.2,342.4 95.8,338.9 				"/>
			</g>
			<g>
				<polygon class="st4" points="95.5,339.1 99,342.5 99.3,343.5 95.8,340 				"/>
			</g>
			<g>
				<polygon class="st5" points="95.8,338.9 99.2,342.4 99.5,343.4 96.1,339.9 				"/>
			</g>
			<g>
				<polygon class="st7" points="92.7,341.9 96.2,345.4 96.6,347.2 93.1,343.7 				"/>
			</g>
			<g>
				<polygon class="st8" points="95.8,340 99.3,343.5 99.8,344.5 96.4,341 				"/>
			</g>
			<g>
				<polygon class="st9" points="96.1,339.9 99.5,343.4 100,344.3 96.6,340.8 				"/>
			</g>
			<g>
				<polygon class="st2" points="97.2,341.3 100.7,344.8 99.9,344.5 96.4,341 				"/>
			</g>
			<g>
				<polygon class="st10" points="93.1,343.7 96.6,347.2 96.7,349.1 93.2,345.6 				"/>
			</g>
			<g>
				<polygon class="st2" points="98.1,340.9 101.6,344.4 100.7,344.8 97.2,341.3 				"/>
			</g>
			<g>
				<polygon class="st11" points="99.1,340.2 102.5,343.6 101.6,344.4 98.1,340.9 				"/>
			</g>
			<g>
				<polygon class="st2" points="100.2,339.7 103.7,343.2 102.5,343.6 99.1,340.2 				"/>
			</g>
			<g>
				<polygon class="st12" points="93.2,345.6 96.7,349.1 96,350.9 92.5,347.4 				"/>
			</g>
			<g>
				<polygon class="st3" points="92.5,347.4 96,350.9 95,352.9 91.5,349.4 				"/>
			</g>
			<g>
				<polygon class="st2" points="102.2,339.8 105.7,343.3 103.7,343.2 100.2,339.7 				"/>
			</g>
			<g>
				<polygon class="st13" points="91.5,349.4 95,352.9 94.7,355.1 91.2,351.6 				"/>
			</g>
			<g>
				<polygon class="st2" points="103.6,340.4 107.1,343.9 105.7,343.3 102.2,339.8 				"/>
			</g>
			<g>
				<polygon class="st2" points="137.1,308.5 140.5,312 139,312.7 135.5,309.2 				"/>
			</g>
			<g>
				<polygon class="st2" points="105.1,341.3 108.6,344.8 107.1,343.9 103.6,340.4 				"/>
			</g>
			<g>
				<polygon class="st14" points="135.5,309.2 139,312.7 139.3,315 135.8,311.5 				"/>
			</g>
			<g>
				<polygon class="st15" points="135.8,311.5 139.3,315 137.8,317.2 134.3,313.7 				"/>
			</g>
			<g>
				<polygon class="st2" points="139.6,309 143.1,312.5 140.5,312 137.1,308.5 				"/>
			</g>
			<g>
				<polygon class="st16" points="134.3,313.7 137.8,317.2 137.4,318.2 133.9,314.7 				"/>
			</g>
			<g>
				<polygon class="st2" points="107.3,341.9 110.7,345.3 108.6,344.8 105.1,341.3 				"/>
			</g>
			<g>
				<polygon class="st9" points="133.9,314.7 137.4,318.2 137.8,318.9 134.3,315.4 				"/>
			</g>
			<g>
				<polygon class="st5" points="134.3,315.4 137.8,318.9 138.5,319.9 135,316.5 				"/>
			</g>
			<g>
				<polygon class="st2" points="142,310.2 145.5,313.7 143.1,312.5 139.6,309 				"/>
			</g>
			<g>
				<polygon class="st17" points="135,316.5 138.5,319.9 138.4,320.8 134.9,317.4 				"/>
			</g>
			<g>
				<polygon class="st18" points="134.9,317.4 138.4,320.8 138,321.8 134.6,318.3 				"/>
			</g>
			<g>
				<polygon class="st2" points="142.8,310.9 146.3,314.4 145.5,313.7 142,310.2 				"/>
			</g>
			<g>
				<polygon class="st2" points="134.3,319.6 137.8,323.1 136.9,323.6 133.4,320.1 				"/>
			</g>
			<g>
				<polygon class="st19" points="134.6,318.3 138,321.8 137.8,323.1 134.3,319.6 				"/>
			</g>
			<g>
				<polygon class="st2" points="117.6,336.5 121.1,340 120.4,339.6 116.9,336.1 				"/>
			</g>
			<g>
				<polygon class="st8" points="117.6,336.5 121.1,340 121.3,340.5 117.8,337 				"/>
			</g>
			<g>
				<polygon class="st9" points="117.8,336.3 121.3,339.8 121.5,340.4 118.1,336.9 				"/>
			</g>
			<g>
				<polygon class="st20" points="142.8,310.9 146.3,314.4 147,315.3 143.5,311.8 				"/>
			</g>
			<g>
				<polygon class="st6" points="142.9,310.8 146.4,314.2 147.2,315.1 143.7,311.7 				"/>
			</g>
			<g>
				<polygon class="st21" points="116.9,336.1 120.4,339.6 120.3,343.1 116.8,339.6 				"/>
			</g>
			<g>
				<polygon class="st8" points="117.8,337 121.3,340.5 121.7,341.1 118.2,337.6 				"/>
			</g>
			<g>
				<polygon class="st9" points="118.1,336.9 121.5,340.4 121.9,341 118.4,337.5 				"/>
			</g>
			<g>
				<polygon class="st14" points="91.2,351.6 94.7,355.1 96.1,367.4 92.6,363.9 				"/>
			</g>
			<g>
				<polygon class="st22" points="118.4,337.5 121.9,341 122.3,341.4 118.8,338 				"/>
			</g>
			<g>
				<polygon class="st23" points="118.2,337.6 121.7,341.1 122.2,341.6 118.7,338.1 				"/>
			</g>
			<g>
				<polygon class="st2" points="115.1,342 118.6,345.5 110.7,345.3 107.3,341.9 				"/>
			</g>
			<g>
				<polygon class="st2" points="144.6,312.7 148,316.2 147,315.3 143.6,311.8 				"/>
			</g>
			<g>
				<polygon class="st2" points="117.1,340.7 120.6,344.2 118.6,345.5 115.1,342 				"/>
			</g>
			<g>
				<polygon class="st7" points="116.8,339.6 120.3,343.1 120.6,344.2 117.1,340.7 				"/>
			</g>
			<g>
				<polygon class="st17" points="133.4,320.1 136.9,323.6 136.5,328.3 133,324.8 				"/>
			</g>
			<g>
				<polygon class="st2" points="119.5,338.7 123,342.2 122.2,341.6 118.7,338.2 				"/>
			</g>
			<g>
				<polygon class="st5" points="92.6,363.9 96.1,367.4 96.7,369 93.2,365.5 				"/>
			</g>
			<g>
				<polygon class="st2" points="146,313.2 149.5,316.6 148,316.2 144.6,312.7 				"/>
			</g>
			<g>
				<polygon class="st2" points="120.4,339.4 123.9,342.9 123,342.2 119.5,338.7 				"/>
			</g>
			<g>
				<polygon class="st9" points="93.2,365.5 96.7,369 97.3,370 93.8,366.5 				"/>
			</g>
			<g>
				<polygon class="st2" points="147.3,313.2 150.8,316.7 149.5,316.6 146,313.2 				"/>
			</g>
			<g>
				<polygon class="st2" points="121.2,339.5 124.7,343 123.9,342.9 120.4,339.4 				"/>
			</g>
			<g>
				<polygon class="st2" points="121.9,339.3 125.3,342.8 124.7,343 121.2,339.5 				"/>
			</g>
			<g>
				<polygon class="st17" points="133,324.8 136.5,328.3 136.3,332.2 132.8,328.7 				"/>
			</g>
			<g>
				<polygon class="st2" points="148.6,313 152.1,316.5 150.8,316.7 147.3,313.2 				"/>
			</g>
			<g>
				<polygon class="st2" points="123.2,338.4 126.7,341.9 125.3,342.8 121.9,339.3 				"/>
			</g>
			<g>
				<polygon class="st24" points="96.1,367.2 99.6,370.7 97.3,370 93.8,366.5 				"/>
			</g>
			<g>
				<polygon class="st2" points="96,367.4 99.5,370.9 97.2,370.2 93.7,366.7 				"/>
			</g>
			<g>
				<polygon class="st21" points="132.8,328.7 136.3,332.2 136.3,334.6 132.8,331.2 				"/>
			</g>
			<g>
				<polygon class="st24" points="97.1,367.7 100.5,371.1 99.6,370.7 96.1,367.2 				"/>
			</g>
			<g>
				<polygon class="st2" points="96.9,367.9 100.4,371.3 99.5,370.9 96,367.4 				"/>
			</g>
			<g>
				<polygon class="st13" points="132.8,331.2 136.3,334.6 136.2,335.7 132.7,332.2 				"/>
			</g>
			<g>
				<polygon class="st2" points="125.4,339.5 128.9,343 126.7,341.9 123.2,338.4 				"/>
			</g>
			<g>
				<polygon class="st2" points="154,311.4 157.5,314.9 152.1,316.5 148.6,313 				"/>
			</g>
			<g>
				<polygon class="st25" points="132.7,332.2 136.2,335.7 135.9,336.6 132.4,333.1 				"/>
			</g>
			<g>
				<polygon class="st26" points="132.4,333.1 135.9,336.6 135.3,337.7 131.8,334.2 				"/>
			</g>
			<g>
				<polygon class="st2" points="98.2,369 101.7,372.5 100.4,371.3 96.9,367.9 				"/>
			</g>
			<g>
				<polygon class="st24" points="98.5,369 102,372.5 100.5,371.1 97.1,367.7 				"/>
			</g>
			<g>
				<polygon class="st27" points="98.3,370.1 101.8,373.6 97.8,377.4 94.3,373.9 				"/>
			</g>
			<g>
				<polygon class="st28" points="98.4,368.9 101.9,372.4 101.8,373.6 98.3,370.1 				"/>
			</g>
			<g>
				<polygon class="st2" points="156.8,311.9 160.3,315.4 157.5,314.9 154,311.4 				"/>
			</g>
			<g>
				<polygon class="st25" points="131.8,334.2 135.3,337.7 133.9,342.5 130.5,339 				"/>
			</g>
			<g>
				<polygon class="st2" points="128.3,341.6 131.8,345.1 128.9,343 125.4,339.5 				"/>
			</g>
			<g>
				<polygon class="st26" points="94.3,373.9 97.8,377.4 95,382.2 91.6,378.7 				"/>
			</g>
			<g>
				<polygon class="st2" points="129.6,341 133.1,344.5 131.8,345.1 128.3,341.6 				"/>
			</g>
			<g>
				<polygon class="st18" points="130.5,339 133.9,342.5 133.1,344.5 129.6,341 				"/>
			</g>
			<g>
				<polygon class="st16" points="91.6,378.7 95,382.2 94.3,384.1 90.9,380.6 				"/>
			</g>
			<g>
				<polygon class="st2" points="159.1,312.9 162.6,316.4 160.3,315.4 156.8,311.9 				"/>
			</g>
			<g>
				<polygon class="st25" points="90.9,380.6 94.3,384.1 93.9,385.6 90.4,382.1 				"/>
			</g>
			<g>
				<polygon class="st29" points="90.4,382.1 93.9,385.6 93.9,386.6 90.5,383.1 				"/>
			</g>
			<g>
				<polygon class="st6" points="90.5,383.1 93.9,386.6 94.1,387.3 90.6,383.8 				"/>
			</g>
			<g>
				<polygon class="st5" points="90.6,383.8 94.1,387.3 94.4,388 90.9,384.6 				"/>
			</g>
			<g>
				<polygon class="st30" points="92.2,382.7 95.7,386.2 94.4,388 90.9,384.6 				"/>
			</g>
			<g>
				<polygon class="st31" points="92.3,382.9 95.8,386.4 94.4,388.4 91,384.9 				"/>
			</g>
			<g>
				<polygon class="st4" points="159.1,312.9 162.6,316.4 164.4,318.6 160.9,315.1 				"/>
			</g>
			<g>
				<polygon class="st6" points="159.3,312.6 162.7,316.1 164.6,318.5 161.1,315 				"/>
			</g>
			<g>
				<polygon class="st24" points="94.3,382.1 97.8,385.6 95.7,386.2 92.2,382.7 				"/>
			</g>
			<g>
				<polygon class="st2" points="94.2,382.4 97.7,385.9 95.8,386.4 92.3,382.9 				"/>
			</g>
			<g>
				<polygon class="st24" points="96.4,383 99.9,386.5 97.8,385.6 94.3,382.1 				"/>
			</g>
			<g>
				<polygon class="st2" points="96.4,383.2 99.9,386.7 97.7,385.9 94.2,382.4 				"/>
			</g>
			<g>
				<polygon class="st24" points="98.5,382.8 102,386.3 99.9,386.5 96.4,383 				"/>
			</g>
			<g>
				<polygon class="st2" points="98.4,383 101.9,386.5 99.9,386.7 96.4,383.2 				"/>
			</g>
			<g>
				<polygon class="st8" points="160.9,315.1 164.4,318.6 166.8,322.5 163.3,319 				"/>
			</g>
			<g>
				<polygon class="st9" points="161.1,315 164.6,318.5 167,322.4 163.5,318.9 				"/>
			</g>
			<g>
				<polygon class="st24" points="100.5,384.2 103.9,387.7 102,386.3 98.5,382.8 				"/>
			</g>
			<g>
				<polygon class="st2" points="100.2,384.3 103.7,387.8 101.9,386.5 98.4,383 				"/>
			</g>
			<g>
				<polygon class="st4" points="163.3,319 166.8,322.5 169.1,325.4 165.6,321.9 				"/>
			</g>
			<g>
				<polygon class="st22" points="100.4,384.1 103.9,387.6 104.3,390.1 100.8,386.6 				"/>
			</g>
			<g>
				<polygon class="st6" points="163.5,318.9 167,322.4 169.3,325.3 165.8,321.8 				"/>
			</g>
			<g>
				<polygon class="st32" points="100.8,386.6 104.3,390.1 104.2,392.8 100.7,389.3 				"/>
			</g>
			<g>
				<polygon class="st27" points="100.7,389.3 104.2,392.8 102.2,394.7 98.7,391.2 				"/>
			</g>
			<g>
				<polygon class="st33" points="98.7,391.2 102.2,394.7 99.4,398.1 95.9,394.6 				"/>
			</g>
			<g>
				<polygon class="st27" points="95.9,394.6 99.4,398.1 98.2,399.2 94.7,395.7 				"/>
			</g>
			<g>
				<polygon class="st33" points="91.6,398.9 95.1,402.4 93.9,403.8 90.4,400.3 				"/>
			</g>
			<g>
				<polygon class="st2" points="92.8,398.3 96.3,401.8 95.1,402.4 91.6,398.9 				"/>
			</g>
			<g>
				<polygon class="st34" points="90.4,400.3 93.9,403.8 93,405.4 89.5,401.9 				"/>
			</g>
			<g>
				<polygon class="st8" points="165.6,321.9 169.1,325.4 170.8,328.3 167.4,324.8 				"/>
			</g>
			<g>
				<polygon class="st9" points="165.8,321.8 169.3,325.3 171,328.2 167.6,324.7 				"/>
			</g>
			<g>
				<polygon class="st35" points="89.5,401.9 93,405.4 92.6,406.5 89.2,403 				"/>
			</g>
			<g>
				<polygon class="st2" points="94.1,398.3 97.5,401.8 96.3,401.8 92.8,398.3 				"/>
			</g>
			<g>
				<polygon class="st5" points="94.7,395.7 98.2,399.2 99.3,400.7 95.8,397.2 				"/>
			</g>
			<g>
				<polygon class="st36" points="95.8,397.2 99.3,400.7 98.9,401.5 95.4,398 				"/>
			</g>
			<g>
				<polygon class="st2" points="95.4,398 98.9,401.5 97.5,401.8 94.1,398.3 				"/>
			</g>
			<g>
				<polygon class="st14" points="89.2,403 92.6,406.5 92.8,407.9 89.3,404.4 				"/>
			</g>
			<g>
				<polygon class="st19" points="89.3,404.4 92.8,407.9 92.3,410.9 88.8,407.4 				"/>
			</g>
			<g>
				<polygon class="st2" points="170.3,326.2 173.8,329.7 170.9,328.4 167.4,324.9 				"/>
			</g>
			<g>
				<polygon class="st7" points="88.8,407.4 92.3,410.9 93.9,412.6 90.4,409.2 				"/>
			</g>
			<g>
				<polygon class="st21" points="90.4,409.2 93.9,412.6 93.9,414.5 90.4,411.1 				"/>
			</g>
			<g>
				<polygon class="st2" points="174.1,327.7 177.6,331.1 173.8,329.7 170.3,326.2 				"/>
			</g>
			<g>
				<polygon class="st17" points="90.4,411.1 93.9,414.5 93.8,415.7 90.4,412.2 				"/>
			</g>
			<g>
				<polygon class="st24" points="90.9,412 94.4,415.5 93.8,415.7 90.4,412.2 				"/>
			</g>
			<g>
				<polygon class="st2" points="91,412.2 94.5,415.7 93.7,415.9 90.3,412.5 				"/>
			</g>
			<g>
				<polygon class="st24" points="92.8,411 96.3,414.5 94.4,415.5 90.9,412 				"/>
			</g>
			<g>
				<polygon class="st2" points="92.8,411.3 96.3,414.8 94.5,415.7 91,412.2 				"/>
			</g>
			<g>
				<polygon class="st2" points="178.2,327.9 181.7,331.4 177.6,331.1 174.1,327.7 				"/>
			</g>
			<g>
				<polygon class="st24" points="94.7,411.3 98.2,414.8 96.3,414.5 92.8,411 				"/>
			</g>
			<g>
				<polygon class="st2" points="94.6,411.6 98.1,415.1 96.3,414.8 92.8,411.3 				"/>
			</g>
			<g>
				<polygon class="st24" points="96.3,412 99.7,415.5 98.2,414.8 94.7,411.3 				"/>
			</g>
			<g>
				<polygon class="st2" points="96.1,412.2 99.6,415.7 98.1,415.1 94.6,411.6 				"/>
			</g>
			<g>
				<polygon class="st7" points="178.3,327.6 181.8,331.1 184.3,333.8 180.8,330.4 				"/>
			</g>
			<g>
				<polygon class="st20" points="178.2,327.9 181.7,331.4 184.1,334 180.6,330.5 				"/>
			</g>
			<g>
				<polygon class="st2" points="182.4,331.5 185.9,334.9 184.1,334 180.6,330.6 				"/>
			</g>
			<g>
				<polygon class="st24" points="99.2,414.5 102.7,418 99.7,415.5 96.3,412 				"/>
			</g>
			<g>
				<polygon class="st2" points="99.1,414.8 102.6,418.3 99.6,415.7 96.1,412.2 				"/>
			</g>
			<g>
				<polygon class="st2" points="183.9,330.7 187.4,334.2 185.9,334.9 182.4,331.5 				"/>
			</g>
			<g>
				<polygon class="st2" points="185,331.3 188.5,334.8 187.4,334.2 183.9,330.7 				"/>
			</g>
			<g>
				<polygon class="st2" points="186.3,331.1 189.8,334.5 188.5,334.8 185,331.3 				"/>
			</g>
			<g>
				<polygon class="st2" points="187.2,330.4 190.7,333.9 189.8,334.5 186.3,331.1 				"/>
			</g>
			<g>
				<polygon class="st2" points="188.9,329.7 192.3,333.2 190.7,333.9 187.2,330.4 				"/>
			</g>
			<g>
				<polygon class="st27" points="189.3,329.3 192.7,332.8 192.3,333.2 188.9,329.7 				"/>
			</g>
			<g>
				<polygon class="st2" points="189.9,329.2 193.3,332.7 192.7,332.8 189.3,329.3 				"/>
			</g>
			<g>
				<polygon class="st2" points="190.5,329.3 194,332.8 193.3,332.7 189.9,329.2 				"/>
			</g>
			<g>
				<polygon class="st24" points="105.3,415 108.8,418.5 102.7,418 99.2,414.5 				"/>
			</g>
			<g>
				<polygon class="st2" points="193,327.7 196.4,331.2 195.5,331.5 192,328 				"/>
			</g>
			<g>
				<polygon class="st2" points="105.2,415.3 108.7,418.8 102.6,418.3 99.1,414.8 				"/>
			</g>
			<g>
				<polygon class="st2" points="191.3,329.6 194.8,333.1 194,332.8 190.5,329.3 				"/>
			</g>
			<g>
				<polygon class="st7" points="192,328 195.5,331.5 195.6,332.3 192.1,328.8 				"/>
			</g>
			<g>
				<polygon class="st37" points="192.1,328.8 195.6,332.3 195.4,333 191.9,329.5 				"/>
			</g>
			<g>
				<polygon class="st2" points="191.9,329.5 195.4,333 194.8,333.1 191.3,329.6 				"/>
			</g>
			<g>
				<polygon class="st2" points="194.4,328.2 197.9,331.7 196.4,331.2 193,327.7 				"/>
			</g>
			<g>
				<polygon class="st38" points="194.4,328.2 197.9,331.7 198,332.5 194.5,329.1 				"/>
			</g>
			<g>
				<polygon class="st7" points="194.5,328 198,331.5 198.2,332.4 194.7,328.9 				"/>
			</g>
			<g>
				<polygon class="st2" points="195.7,329.2 199.2,332.7 198.1,332.7 194.6,329.2 				"/>
			</g>
			<g>
				<polygon class="st27" points="197.1,327.9 200.6,331.4 199.2,332.7 195.7,329.2 				"/>
			</g>
			<g>
				<polygon class="st20" points="196.7,328.1 200.2,331.6 201.3,332.9 197.8,329.4 				"/>
			</g>
			<g>
				<polygon class="st9" points="197.1,327.6 200.6,331.1 201.5,332.8 198,329.3 				"/>
			</g>
			<g>
				<polygon class="st39" points="197.8,329.4 201.3,332.9 201.3,334.3 197.8,330.9 				"/>
			</g>
			<g>
				<polygon class="st21" points="198,329.3 201.5,332.8 201.5,334.3 198,330.8 				"/>
			</g>
			<g>
				<polygon class="st2" points="201.6,333.2 205,336.7 201.3,334.4 197.8,331 				"/>
			</g>
			<g>
				<polygon class="st24" points="118.4,416.3 121.9,419.7 108.8,418.5 105.3,415 				"/>
			</g>
			<g>
				<polygon class="st2" points="118.4,416.5 121.8,420 108.7,418.8 105.2,415.3 				"/>
			</g>
			<g>
				<polygon class="st2" points="204.6,334.5 208.1,338 205,336.7 201.6,333.2 				"/>
			</g>
			<g>
				<polygon class="st24" points="124.1,416.4 127.6,419.9 121.9,419.7 118.4,416.3 				"/>
			</g>
			<g>
				<polygon class="st2" points="124.1,416.7 127.6,420.2 121.8,420 118.4,416.5 				"/>
			</g>
			<g>
				<polygon class="st2" points="208.9,336.6 212.3,340.1 208.1,338 204.6,334.5 				"/>
			</g>
			<g>
				<polygon class="st2" points="210.6,337.2 214.1,340.7 212.3,340.1 208.9,336.6 				"/>
			</g>
			<g>
				<polygon class="st2" points="212.1,337.8 215.6,341.3 214.1,340.7 210.6,337.2 				"/>
			</g>
			<g>
				<polygon class="st2" points="219.6,330.8 223.1,334.2 222.5,334.4 219,330.9 				"/>
			</g>
			<g>
				<polygon class="st2" points="219.5,331.6 223,335.1 222.2,334.4 218.7,331 				"/>
			</g>
			<g>
				<polygon class="st24" points="219.7,331.4 223.2,334.9 222.5,334.4 219,330.9 				"/>
			</g>
			<g>
				<polygon class="st2" points="213.5,337.8 217,341.3 215.6,341.3 212.1,337.8 				"/>
			</g>
			<g>
				<polygon class="st5" points="219.7,331.4 223.2,334.9 223.7,335.6 220.2,332.1 				"/>
			</g>
			<g>
				<polygon class="st2" points="220.9,331.5 224.3,335 223.1,334.2 219.6,330.8 				"/>
			</g>
			<g>
				<polygon class="st2" points="214.7,337.7 218.1,341.2 217,341.3 213.5,337.8 				"/>
			</g>
			<g>
				<polygon class="st2" points="215.6,337.5 219.1,340.9 218.1,341.2 214.7,337.7 				"/>
			</g>
			<g>
				<polygon class="st22" points="220.2,332.1 223.7,335.6 223.8,336.6 220.3,333.1 				"/>
			</g>
			<g>
				<polygon class="st2" points="216.8,336.7 220.3,340.2 219.1,340.9 215.6,337.5 				"/>
			</g>
			<g>
				<polygon class="st40" points="220.3,333.1 223.8,336.6 223.6,337.6 220.1,334.1 				"/>
			</g>
			<g>
				<polygon class="st2" points="218.9,335.5 222.3,338.9 220.3,340.2 216.8,336.7 				"/>
			</g>
			<g>
				<polygon class="st27" points="219.4,334.9 222.9,338.4 222.3,338.9 218.9,335.5 				"/>
			</g>
			<g>
				<polygon class="st41" points="220.1,334.1 223.6,337.6 222.9,338.4 219.4,334.9 				"/>
			</g>
			<g>
				<polygon class="st2" points="223.2,332.1 226.7,335.6 224.3,335 220.9,331.5 				"/>
			</g>
			<g>
				<polygon class="st24" points="141,417.8 144.5,421.2 127.6,419.9 124.1,416.4 				"/>
			</g>
			<g>
				<polygon class="st2" points="141,418 144.5,421.5 127.6,420.2 124.1,416.7 				"/>
			</g>
			<g>
				<polygon class="st2" points="227.6,332.2 231.1,335.7 226.7,335.6 223.2,332.1 				"/>
			</g>
			<g>
				<polygon class="st42" points="229.7,332.4 233.2,335.8 232.8,336.6 229.3,333.1 				"/>
			</g>
			<g>
				<polygon class="st2" points="229.3,333.1 232.8,336.6 231.1,335.7 227.6,332.2 				"/>
			</g>
			<g>
				<polygon class="st24" points="143.8,418.5 147.3,422 144.5,421.2 141,417.8 				"/>
			</g>
			<g>
				<polygon class="st2" points="143.7,418.8 147.2,422.3 144.5,421.5 141,418 				"/>
			</g>
			<g>
				<polygon class="st2" points="231.1,332.1 234.6,335.6 233.2,335.8 229.7,332.4 				"/>
			</g>
			<g>
				<polygon class="st23" points="231.1,332.1 234.6,335.6 234.8,337.3 231.4,333.8 				"/>
			</g>
			<g>
				<polygon class="st6" points="231.2,331.8 234.6,335.3 235.1,337.3 231.6,333.8 				"/>
			</g>
			<g>
				<polygon class="st24" points="146.3,419.1 149.7,422.6 147.3,422 143.8,418.5 				"/>
			</g>
			<g>
				<polygon class="st2" points="146.2,419.4 149.7,422.9 147.2,422.3 143.7,418.8 				"/>
			</g>
			<g>
				<polygon class="st24" points="148.5,419.8 152,423.3 149.7,422.6 146.3,419.1 				"/>
			</g>
			<g>
				<polygon class="st2" points="148.5,420.1 152,423.5 149.7,422.9 146.2,419.4 				"/>
			</g>
			<g>
				<polygon class="st43" points="231.4,333.8 234.8,337.3 235.4,342.1 231.9,338.6 				"/>
			</g>
			<g>
				<polygon class="st14" points="231.6,333.8 235.1,337.3 235.6,342 232.1,338.6 				"/>
			</g>
			<g>
				<polygon class="st24" points="151,420.1 154.5,423.6 152,423.3 148.5,419.8 				"/>
			</g>
			<g>
				<polygon class="st2" points="150.9,420.4 154.4,423.9 152,423.5 148.5,420.1 				"/>
			</g>
			<g>
				<polygon class="st24" points="154.7,420.6 158.1,424.1 154.5,423.6 151,420.1 				"/>
			</g>
			<g>
				<polygon class="st2" points="154.6,420.8 158.1,424.3 154.4,423.9 150.9,420.4 				"/>
			</g>
			<g>
				<polygon class="st24" points="159.2,421.1 162.7,424.6 158.1,424.1 154.7,420.6 				"/>
			</g>
			<g>
				<polygon class="st2" points="159.2,421.4 162.7,424.9 158.1,424.3 154.6,420.8 				"/>
			</g>
			<g>
				<polygon class="st24" points="162.9,420.6 166.4,424.1 162.7,424.6 159.2,421.1 				"/>
			</g>
			<g>
				<polygon class="st4" points="231.9,338.6 235.4,342.1 241.3,349.4 237.8,345.9 				"/>
			</g>
			<g>
				<polygon class="st6" points="232.1,338.6 235.6,342 241.5,349.2 238,345.7 				"/>
			</g>
			<g>
				<polygon class="st2" points="162.7,420.8 166.2,424.3 162.7,424.9 159.2,421.4 				"/>
			</g>
			<g>
				<polygon class="st24" points="164.3,421.3 167.8,424.8 166.4,424.1 162.9,420.6 				"/>
			</g>
			<g>
				<polygon class="st2" points="164.2,421.6 167.7,425.1 166.2,424.3 162.7,420.8 				"/>
			</g>
			<g>
				<polygon class="st2" points="239.3,346.7 242.8,350.1 241.4,349.4 237.9,345.9 				"/>
			</g>
			<g>
				<polygon class="st2" points="240.2,347 243.7,350.5 242.8,350.1 239.3,346.7 				"/>
			</g>
			<g>
				<polygon class="st24" points="165.7,421.8 169.2,425.2 167.8,424.8 164.3,421.3 				"/>
			</g>
			<g>
				<polygon class="st24" points="167.1,422.1 170.6,425.6 169.2,425.2 165.7,421.8 				"/>
			</g>
			<g>
				<polygon class="st2" points="166.9,422.3 170.4,425.8 169.1,425.5 165.7,422 				"/>
			</g>
			<g>
				<polygon class="st9" points="167,422.1 170.5,425.5 171.3,427.1 167.9,423.6 				"/>
			</g>
			<g>
				<polygon class="st2" points="243.8,349.1 247.3,352.6 243.7,350.5 240.2,347 				"/>
			</g>
			<g>
				<polygon class="st24" points="178.2,427.9 181.6,431.3 179.2,429.4 175.7,425.9 				"/>
			</g>
			<g>
				<polygon class="st24" points="180.7,429 184.2,432.5 181.6,431.3 178.2,427.9 				"/>
			</g>
			<g>
				<polygon class="st2" points="180.5,429.2 184,432.7 181.5,431.6 178,428.1 				"/>
			</g>
			<g>
				<polygon class="st5" points="180.7,429 184.1,432.5 185.4,434.3 181.9,430.9 				"/>
			</g>
			<g>
				<polygon class="st5" points="181.9,430.9 185.4,434.3 186,435.9 182.5,432.4 				"/>
			</g>
			<g>
				<polygon class="st44" points="246.3,362 249.8,365.5 251.9,372 248.5,368.6 				"/>
			</g>
			<g>
				<polygon class="st45" points="243.8,349.1 247.3,352.6 249.8,365.5 246.3,362 				"/>
			</g>
			<g>
				<polygon class="st5" points="246.5,361.9 250,365.4 252.2,371.9 248.7,368.4 				"/>
			</g>
			<g>
				<polygon class="st2" points="252.7,369 256.1,372.5 252,372.1 248.6,368.6 				"/>
			</g>
			<g>
				<polygon class="st24" points="191.1,434.2 194.6,437.6 192.6,437.2 189.1,433.7 				"/>
			</g>
			<g>
				<polygon class="st24" points="189.1,433.7 192.6,437.2 187.9,436.6 184.5,433.1 				"/>
			</g>
			<g>
				<polygon class="st2" points="191,434.4 194.5,437.9 192.5,437.4 189,433.9 				"/>
			</g>
			<g>
				<polygon class="st2" points="255.7,371.1 259.2,374.6 256.1,372.5 252.7,369 				"/>
			</g>
			<g>
				<polygon class="st24" points="192.7,435.2 196.2,438.7 194.6,437.6 191.1,434.2 				"/>
			</g>
			<g>
				<polygon class="st2" points="192.5,435.3 195.9,438.8 194.5,437.9 191,434.4 				"/>
			</g>
			<g>
				<polygon class="st14" points="192.6,435.1 196.1,438.6 196.3,440.7 192.8,437.2 				"/>
			</g>
			<g>
				<polygon class="st2" points="258.8,372.2 262.3,375.7 259.2,374.6 255.7,371.1 				"/>
			</g>
			<g>
				<polygon class="st2" points="262,372.1 265.5,375.6 262.3,375.7 258.8,372.2 				"/>
			</g>
			<g>
				<polygon class="st2" points="265,370.5 268.5,374 265.5,375.6 262,372.1 				"/>
			</g>
			<g>
				<polygon class="st4" points="265,370.5 268.5,374 269,374.7 265.5,371.2 				"/>
			</g>
			<g>
				<polygon class="st2" points="266.7,371.5 270.2,375 269,374.7 265.6,371.2 				"/>
			</g>
			<g>
				<polygon class="st2" points="267.9,371.7 271.4,375.2 270.2,375 266.7,371.5 				"/>
			</g>
			<g>
				<polygon class="st46" points="268.9,372 272.3,375.5 267.5,381.4 264,377.9 				"/>
			</g>
			<g>
				<polygon class="st2" points="269.1,372.3 272.5,375.8 271.4,375.2 267.9,371.7 				"/>
			</g>
			<g>
				<polygon class="st47" points="245.8,399.7 249.3,403.2 247.6,408.7 244.1,405.2 				"/>
			</g>
			<g>
				<polygon class="st48" points="246,398.1 249.4,401.6 249.3,403.2 245.8,399.7 				"/>
			</g>
			<g>
				<polygon class="st37" points="246.1,399.8 249.5,403.2 247.8,408.7 244.3,405.3 				"/>
			</g>
			<g>
				<polygon class="st45" points="244.1,405.2 247.6,408.7 248,411 244.5,407.5 				"/>
			</g>
			<g>
				<polygon class="st7" points="244.3,405.3 247.8,408.7 248.2,410.9 244.7,407.4 				"/>
			</g>
			<g>
				<polygon class="st2" points="246.5,408.1 249.9,411.6 248.1,411.1 244.6,407.6 				"/>
			</g>
			<g>
				<polygon class="st2" points="248.1,408.5 251.6,412 249.9,411.6 246.5,408.1 				"/>
			</g>
			<g>
				<polygon class="st8" points="248.1,408.5 251.6,412 252.1,413.1 248.6,409.6 				"/>
			</g>
			<g>
				<polygon class="st9" points="248.2,408.3 251.7,411.8 252.3,412.9 248.9,409.4 				"/>
			</g>
			<g>
				<polygon class="st5" points="248.9,409.4 252.3,412.9 252.7,413.4 249.2,409.9 				"/>
			</g>
			<g>
				<polygon class="st44" points="248.6,409.6 252.1,413.1 252.5,413.6 249,410.1 				"/>
			</g>
			<g>
				<polygon class="st2" points="249.9,410.3 253.4,413.8 252.6,413.6 249.1,410.1 				"/>
			</g>
			<g>
				<polygon class="st2" points="251.6,409.8 255.1,413.3 253.4,413.8 249.9,410.3 				"/>
			</g>
			<g>
				<polygon class="st2" points="252.8,410 256.2,413.5 255.1,413.3 251.6,409.8 				"/>
			</g>
			<g>
				<polygon class="st8" points="252.4,409.8 255.9,413.2 256.4,414.4 252.9,410.9 				"/>
			</g>
			<g>
				<polygon class="st20" points="252.9,410.9 256.4,414.4 256.7,415.9 253.3,412.4 				"/>
			</g>
			<g>
				<polygon class="st7" points="253.2,410.8 256.7,414.3 257,415.8 253.5,412.3 				"/>
			</g>
			<g>
				<polygon class="st2" points="253.9,412.8 257.3,416.3 256.8,416 253.3,412.5 				"/>
			</g>
			<g>
				<polygon class="st2" points="254.6,413 258.1,416.5 257.3,416.3 253.9,412.8 				"/>
			</g>
			<g>
				<polygon class="st2" points="255.4,413.3 258.9,416.8 258.1,416.5 254.6,413 				"/>
			</g>
			<g>
				<polygon class="st24" points="249.7,434.1 253.2,437.6 248.4,437.7 245,434.2 				"/>
			</g>
			<g>
				<polygon class="st24" points="250.7,434.2 254.2,437.7 253.2,437.6 249.7,434.1 				"/>
			</g>
			<g>
				<polygon class="st2" points="250.6,434.5 254.1,438 253.2,437.8 249.7,434.4 				"/>
			</g>
			<g>
				<polygon class="st49" points="257.4,427.4 260.8,430.9 260.8,431.9 257.3,428.4 				"/>
			</g>
			<g>
				<polygon class="st2" points="251.1,434.8 254.6,438.3 254.1,438 250.6,434.5 				"/>
			</g>
			<g>
				<polygon class="st24" points="251.3,434.7 254.8,438.2 254.2,437.7 250.7,434.2 				"/>
			</g>
			<g>
				<polygon class="st8" points="257.3,428.4 260.8,431.9 261.1,432.5 257.6,429 				"/>
			</g>
			<g>
				<polygon class="st9" points="257.6,428.4 261.1,431.9 261.3,432.4 257.8,428.9 				"/>
			</g>
			<g>
				<polygon class="st20" points="257.6,429 261.1,432.5 261.4,432.9 257.9,429.4 				"/>
			</g>
			<g>
				<polygon class="st6" points="251.3,434.6 254.7,438.1 255.1,439.8 251.7,436.3 				"/>
			</g>
			<g>
				<polygon class="st2" points="261.9,432.7 265.4,436.2 261.4,432.9 258,429.5 				"/>
			</g>
			<g>
				<polygon class="st50" points="137.1,308.5 139.6,309 142,310.2 142.8,310.9 143.5,311.8 144.5,312.7 146,313.1 147.3,313.2 
					148.6,313 154,311.4 156.8,311.9 159.1,312.9 160.9,315.1 163.3,319 165.6,321.9 167.4,324.8 170.3,326.2 174.1,327.6 
					178.2,327.9 180.6,330.5 182.3,331.5 183.9,330.7 185,331.3 186.2,331.1 187.2,330.4 188.8,329.7 189.3,329.3 189.9,329.2 
					190.5,329.3 191.2,329.6 191.8,329.6 192.1,328.9 192,328 193,327.7 194.4,328.2 194.5,329.1 195.6,329.2 196.7,328.1 
					197.8,329.4 197.8,330.9 201.5,333.2 204.6,334.5 208.8,336.6 210.6,337.2 212,337.8 213.5,337.8 214.6,337.7 215.6,337.5 
					216.8,336.7 218.6,335.6 219.4,334.9 220.1,334.1 220.3,333.1 220.2,332.2 219.7,331.4 219,330.9 219.6,330.8 220.8,331.5 
					223.2,332.1 227.6,332.2 229.1,333.1 229.7,332.4 231.1,332.1 231.4,333.8 231.9,338.6 237.8,345.9 239.3,346.6 240.2,347 
					243.8,349.1 246.3,362 248.5,368.6 252.7,369 255.7,371 258.8,372.2 261.9,372.2 265,370.5 265.5,371.2 266.7,371.5 
					267.9,371.7 268.9,372 264,377.9 262.4,380.7 262.1,381.9 261.6,385.4 261.6,387.5 261.8,388.8 261.5,389.7 261,390.5 
					260.1,391.3 259.2,392.3 258.3,393.3 256.4,394.6 255.7,394.9 254.9,395.3 253,395.3 250.3,395 249,395 247.7,395.4 
					246.8,396.1 246.2,397 246,398.1 245.8,399.7 244.1,405.2 244.5,407.5 246.4,408.1 248.1,408.5 248.6,409.6 249,410.1 
					249.8,410.3 251.6,409.8 252.4,409.8 252.9,410.9 253.3,412.4 253.8,412.8 254.6,413 255.4,413.3 255.7,413.8 255.9,414.3 
					256.2,415.4 256.5,418.4 257.9,423.6 258,424.7 257.9,425.5 257.5,426.7 257.4,427.4 257.3,428.4 257.6,429 257.9,429.4 
					261.9,432.7 261.3,433.2 259.4,434.6 257.6,433.6 256.7,433 256.1,432.7 255.3,432.6 254.4,433.1 253.6,433.9 253,434.5 
					253.4,436 253.3,436.5 251.7,436.3 251.3,434.7 250.7,434.2 249.7,434.1 245,434.2 243.5,434.5 241.2,436.5 240.8,439.8 
					240.2,441.7 237.3,443.5 228.3,443.4 214.8,441.3 201.6,437.9 198.1,437.8 195.2,438.3 192.8,437.2 192.7,435.2 191.1,434.2 
					189.1,433.7 184.5,433.1 182.5,432.4 182,430.9 180.7,429 178.2,427.9 175.7,425.9 173.1,425.3 171.2,424.4 167.9,423.6 
					167.1,422.1 165.7,421.8 164.3,421.3 162.9,420.6 159.2,421.1 154.7,420.6 151,420.1 148.5,419.8 146.3,419.1 143.8,418.5 
					141,417.8 124.1,416.4 118.4,416.3 105.3,415 99.2,414.5 96.3,412 94.7,411.3 92.8,411 90.9,412 90.4,412.2 90.4,411.1 
					90.5,409.2 88.8,407.4 89.3,404.5 89.2,403 89.5,401.9 90.4,400.3 91.6,398.9 92.8,398.3 94,398.3 95.3,398.1 95.8,397.3 
					94.7,395.7 95.9,394.6 98.7,391.2 100.6,389.4 100.8,386.6 100.5,384.2 98.5,382.8 96.4,383 94.3,382.1 92.2,382.7 90.9,384.6 
					90.6,383.8 90.5,383.1 90.4,382.1 90.9,380.6 91.6,378.7 94.3,373.9 98.3,370.2 98.5,369 97.1,367.7 96.1,367.2 93.8,366.5 
					93.2,365.5 92.6,363.9 91.2,351.6 91.5,349.4 92.5,347.4 93.2,345.6 93.1,343.7 92.7,341.9 92.4,340.7 93,339.4 94,338.8 
					94.5,338.5 95.1,338.6 95.5,339.1 95.8,340 96.4,341 97.1,341.3 98.1,340.9 99.1,340.2 100.2,339.7 102.2,339.8 103.6,340.4 
					105.1,341.2 107.2,341.9 115,342 117,340.8 116.8,339.6 116.9,336.1 117.6,336.5 117.8,337 118.2,337.6 118.7,338.1 
					119.5,338.7 120.3,339.4 121.1,339.5 121.8,339.3 123.2,338.4 125.4,339.5 128.2,341.6 129.5,341.1 130.4,339.1 131.8,334.2 
					132.4,333.1 132.7,332.2 132.8,331.2 132.8,328.7 133,324.8 133.2,320.3 134.2,319.7 134.6,318.3 134.9,317.4 135,316.5 
					134.3,315.4 133.9,314.7 134.3,313.7 135.8,311.6 135.5,309.2 				"/>
			</g>
			<g>
				<polygon class="st22" points="162.8,420.6 166.3,424 167,424.8 163.5,421.3 				"/>
			</g>
			<g>
				<polygon class="st2" points="165.7,422 169.1,425.5 167.7,425.1 164.2,421.6 				"/>
			</g>
			<g>
				<polygon class="st24" points="171.2,424.4 174.7,427.8 171.3,427.1 167.9,423.6 				"/>
			</g>
			<g>
				<polygon class="st2" points="171.1,424.6 174.6,428.1 171.2,427.3 167.7,423.8 				"/>
			</g>
			<g>
				<polygon class="st24" points="173.1,425.3 176.6,428.8 174.7,427.8 171.2,424.4 				"/>
			</g>
			<g>
				<polygon class="st2" points="173.1,425.5 176.5,429 174.6,428.1 171.1,424.6 				"/>
			</g>
			<g>
				<polygon class="st24" points="175.7,425.9 179.2,429.4 176.6,428.8 173.1,425.3 				"/>
			</g>
			<g>
				<polygon class="st2" points="175.6,426.1 179,429.6 176.5,429 173.1,425.5 				"/>
			</g>
			<g>
				<polygon class="st2" points="178,428.1 181.5,431.6 179,429.6 175.6,426.1 				"/>
			</g>
			<g>
				<polygon class="st7" points="244,348.9 247.5,352.4 250,365.4 246.5,361.9 				"/>
			</g>
			<g>
				<polygon class="st24" points="184.5,433.1 187.9,436.6 186,435.9 182.5,432.4 				"/>
			</g>
			<g>
				<polygon class="st2" points="184.4,433.3 187.9,436.8 185.9,436.1 182.4,432.6 				"/>
			</g>
			<g>
				<polygon class="st2" points="189,433.9 192.5,437.4 187.9,436.8 184.4,433.3 				"/>
			</g>
			<g>
				<polygon class="st24" points="195.2,438.3 198.7,441.8 196.3,440.7 192.8,437.2 				"/>
			</g>
			<g>
				<polygon class="st2" points="195.2,438.5 198.7,442 196.1,440.9 192.7,437.4 				"/>
			</g>
			<g>
				<polygon class="st24" points="198.1,437.8 201.6,441.3 198.7,441.8 195.2,438.3 				"/>
			</g>
			<g>
				<polygon class="st2" points="198.1,438.1 201.6,441.6 198.7,442 195.2,438.5 				"/>
			</g>
			<g>
				<polygon class="st24" points="201.6,437.9 205.1,441.4 201.6,441.3 198.1,437.8 				"/>
			</g>
			<g>
				<polygon class="st2" points="201.5,438.2 205,441.7 201.6,441.6 198.1,438.1 				"/>
			</g>
			<g>
				<polygon class="st33" points="269.4,372.1 272.9,375.6 267.7,381.6 264.2,378.1 				"/>
			</g>
			<g>
				<polygon class="st51" points="264,377.9 267.5,381.4 265.9,384.2 262.4,380.7 				"/>
			</g>
			<g>
				<polygon class="st52" points="247.7,395.4 251.2,398.9 250.3,399.6 246.8,396.1 				"/>
			</g>
			<g>
				<polygon class="st53" points="246.8,396.1 250.3,399.6 249.7,400.5 246.2,397 				"/>
			</g>
			<g>
				<polygon class="st11" points="247.8,395.6 251.3,399.1 250.5,399.8 247,396.3 				"/>
			</g>
			<g>
				<polygon class="st26" points="264.2,378.1 267.7,381.6 266.1,384.3 262.6,380.9 				"/>
			</g>
			<g>
				<polygon class="st31" points="247,396.3 250.5,399.8 249.9,400.6 246.4,397.1 				"/>
			</g>
			<g>
				<polygon class="st54" points="262.4,380.7 265.9,384.2 265.5,385.4 262.1,381.9 				"/>
			</g>
			<g>
				<polygon class="st24" points="249,395 252.5,398.5 251.2,398.9 247.7,395.4 				"/>
			</g>
			<g>
				<polygon class="st55" points="246.2,397 249.7,400.5 249.4,401.6 246,398.1 				"/>
			</g>
			<g>
				<polygon class="st37" points="262.6,380.9 266.1,384.3 265.8,385.4 262.3,382 				"/>
			</g>
			<g>
				<polygon class="st2" points="249.1,395.3 252.5,398.8 251.3,399.1 247.8,395.6 				"/>
			</g>
			<g>
				<polygon class="st19" points="246.4,397.1 249.9,400.6 249.7,401.6 246.2,398.2 				"/>
			</g>
			<g>
				<polygon class="st24" points="250.3,395 253.8,398.5 252.5,398.5 249,395 				"/>
			</g>
			<g>
				<polygon class="st2" points="250.3,395.2 253.8,398.7 252.5,398.8 249.1,395.3 				"/>
			</g>
			<g>
				<polygon class="st28" points="246.2,398.2 249.7,401.6 249.5,403.2 246.1,399.8 				"/>
			</g>
			<g>
				<polygon class="st56" points="262.1,381.9 265.5,385.4 265,388.9 261.6,385.4 				"/>
			</g>
			<g>
				<polygon class="st13" points="262.3,382 265.8,385.4 265.3,388.9 261.8,385.4 				"/>
			</g>
			<g>
				<polygon class="st24" points="253,395.3 256.5,398.8 253.8,398.5 250.3,395 				"/>
			</g>
			<g>
				<polygon class="st2" points="253,395.6 256.5,399.1 253.8,398.7 250.3,395.2 				"/>
			</g>
			<g>
				<polygon class="st57" points="261.6,385.4 265,388.9 265.1,391 261.6,387.5 				"/>
			</g>
			<g>
				<polygon class="st29" points="261.8,385.4 265.3,388.9 265.4,391 261.9,387.5 				"/>
			</g>
			<g>
				<polygon class="st24" points="254.9,395.3 258.3,398.7 256.5,398.8 253,395.3 				"/>
			</g>
			<g>
				<polygon class="st2" points="254.9,395.5 258.4,399 256.5,399.1 253,395.6 				"/>
			</g>
			<g>
				<polygon class="st38" points="261.6,387.5 265.1,391 265.3,392.3 261.8,388.8 				"/>
			</g>
			<g>
				<polygon class="st24" points="255.7,394.9 259.2,398.4 258.3,398.7 254.9,395.3 				"/>
			</g>
			<g>
				<polygon class="st22" points="261.9,387.5 265.4,391 265.5,392.3 262.1,388.8 				"/>
			</g>
			<g>
				<polygon class="st2" points="255.8,395.2 259.3,398.7 258.4,399 254.9,395.5 				"/>
			</g>
			<g>
				<polygon class="st24" points="256.4,394.6 259.9,398.1 259.2,398.4 255.7,394.9 				"/>
			</g>
			<g>
				<polygon class="st47" points="261.8,388.8 265.3,392.3 265,393.2 261.5,389.7 				"/>
			</g>
			<g>
				<polygon class="st2" points="256.5,394.8 260,398.3 259.3,398.7 255.8,395.2 				"/>
			</g>
			<g>
				<polygon class="st30" points="261.5,389.7 265,393.2 264.4,394 261,390.5 				"/>
			</g>
			<g>
				<polygon class="st58" points="261,390.5 264.4,394 263.6,394.8 260.1,391.3 				"/>
			</g>
			<g>
				<polygon class="st24" points="258.3,393.3 261.8,396.7 259.9,398.1 256.4,394.6 				"/>
			</g>
			<g>
				<polygon class="st59" points="259.2,392.3 262.7,395.8 261.8,396.7 258.3,393.3 				"/>
			</g>
			<g>
				<polygon class="st60" points="260.1,391.3 263.6,394.8 262.7,395.8 259.2,392.3 				"/>
			</g>
			<g>
				<polygon class="st37" points="262.1,388.8 265.5,392.3 265.2,393.3 261.7,389.8 				"/>
			</g>
			<g>
				<polygon class="st31" points="261.7,389.8 265.2,393.3 264.6,394.2 261.2,390.7 				"/>
			</g>
			<g>
				<polygon class="st27" points="261.2,390.7 264.6,394.2 263.8,394.9 260.3,391.5 				"/>
			</g>
			<g>
				<polygon class="st2" points="258.5,393.4 261.9,396.9 260,398.3 256.5,394.8 				"/>
			</g>
			<g>
				<polygon class="st61" points="259.4,392.5 262.9,396 261.9,396.9 258.5,393.4 				"/>
			</g>
			<g>
				<polygon class="st33" points="260.3,391.5 263.8,394.9 262.9,396 259.4,392.5 				"/>
			</g>
			<g>
				<polygon class="st24" points="214.8,441.3 218.2,444.7 205.1,441.4 201.6,437.9 				"/>
			</g>
			<g>
				<polygon class="st2" points="214.7,441.5 218.2,445 205,441.7 201.5,438.2 				"/>
			</g>
			<g>
				<polygon class="st6" points="252.9,409.8 256.4,413.3 256.7,414.3 253.2,410.8 				"/>
			</g>
			<g>
				<polygon class="st44" points="255.4,413.3 258.9,416.8 259.2,417.3 255.7,413.8 				"/>
			</g>
			<g>
				<polygon class="st5" points="255.5,413.1 259,416.6 259.4,417.1 255.9,413.7 				"/>
			</g>
			<g>
				<polygon class="st8" points="255.7,413.8 259.2,417.3 259.4,417.8 255.9,414.3 				"/>
			</g>
			<g>
				<polygon class="st5" points="255.9,413.7 259.4,417.1 259.6,417.8 256.2,414.3 				"/>
			</g>
			<g>
				<polygon class="st20" points="255.9,414.3 259.4,417.8 259.7,418.9 256.2,415.4 				"/>
			</g>
			<g>
				<polygon class="st24" points="228.3,443.4 231.7,446.9 218.2,444.7 214.8,441.3 				"/>
			</g>
			<g>
				<polygon class="st6" points="256.2,414.3 259.6,417.8 259.9,418.9 256.4,415.4 				"/>
			</g>
			<g>
				<polygon class="st2" points="228.3,443.7 231.7,447.2 218.2,445 214.7,441.5 				"/>
			</g>
			<g>
				<polygon class="st43" points="256.2,415.4 259.7,418.9 260,421.9 256.5,418.4 				"/>
			</g>
			<g>
				<polygon class="st14" points="256.4,415.4 259.9,418.9 260.2,421.9 256.8,418.4 				"/>
			</g>
			<g>
				<polygon class="st62" points="243.5,434.5 247,438 244.7,440 241.2,436.5 				"/>
			</g>
			<g>
				<polygon class="st11" points="243.6,434.8 247.1,438.3 244.8,440.1 241.4,436.7 				"/>
			</g>
			<g>
				<polygon class="st24" points="245,434.2 248.4,437.7 247,438 243.5,434.5 				"/>
			</g>
			<g>
				<polygon class="st2" points="245,434.4 248.5,437.9 247.1,438.3 243.6,434.8 				"/>
			</g>
			<g>
				<polygon class="st63" points="241.2,436.5 244.7,440 244.3,443.2 240.8,439.8 				"/>
			</g>
			<g>
				<polygon class="st24" points="237.3,443.5 240.8,447 231.7,446.9 228.3,443.4 				"/>
			</g>
			<g>
				<polygon class="st28" points="241.4,436.7 244.8,440.1 244.6,443.3 241.1,439.8 				"/>
			</g>
			<g>
				<polygon class="st2" points="237.4,443.8 240.9,447.2 231.7,447.2 228.3,443.7 				"/>
			</g>
			<g>
				<polygon class="st4" points="256.5,418.4 260,421.9 261.4,427.1 257.9,423.6 				"/>
			</g>
			<g>
				<polygon class="st6" points="256.8,418.4 260.2,421.9 261.7,427 258.2,423.6 				"/>
			</g>
			<g>
				<polygon class="st47" points="240.8,439.8 244.3,443.2 243.7,445.2 240.2,441.7 				"/>
			</g>
			<g>
				<polygon class="st24" points="240.2,441.7 243.7,445.2 240.8,447 237.3,443.5 				"/>
			</g>
			<g>
				<polygon class="st37" points="241.1,439.8 244.6,443.3 243.9,445.3 240.4,441.9 				"/>
			</g>
			<g>
				<polygon class="st2" points="240.4,441.9 243.9,445.3 240.9,447.2 237.4,443.8 				"/>
			</g>
			<g>
				<polygon class="st57" points="257.9,423.6 261.4,427.1 261.5,428.2 258,424.7 				"/>
			</g>
			<g>
				<polygon class="st10" points="258.2,423.6 261.7,427 261.7,428.2 258.2,424.7 				"/>
			</g>
			<g>
				<polygon class="st64" points="258,424.7 261.5,428.2 261.4,429 257.9,425.5 				"/>
			</g>
			<g>
				<polygon class="st17" points="258.2,424.7 261.7,428.2 261.7,429 258.2,425.5 				"/>
			</g>
			<g>
				<polygon class="st2" points="249.7,434.4 253.2,437.8 248.5,437.9 245,434.4 				"/>
			</g>
			<g>
				<polygon class="st47" points="257.9,425.5 261.4,429 261,430.2 257.5,426.7 				"/>
			</g>
			<g>
				<polygon class="st35" points="258.2,425.5 261.7,429 261.3,430.2 257.8,426.7 				"/>
			</g>
			<g>
				<polygon class="st65" points="257.5,426.7 261,430.2 260.8,430.9 257.4,427.4 				"/>
			</g>
			<g>
				<polygon class="st66" points="257.8,426.7 261.3,430.2 261.1,430.9 257.6,427.4 				"/>
			</g>
			<g>
				<polygon class="st21" points="257.6,427.4 261.1,430.9 261.1,431.9 257.6,428.4 				"/>
			</g>
			<g>
				<polygon class="st59" points="253.6,433.9 257.1,437.3 256.5,438 253,434.5 				"/>
			</g>
			<g>
				<polygon class="st59" points="254.4,433.1 257.9,436.6 257.1,437.3 253.6,433.9 				"/>
			</g>
			<g>
				<polygon class="st61" points="253.8,434 257.3,437.5 256.7,438.1 253.2,434.6 				"/>
			</g>
			<g>
				<polygon class="st61" points="254.5,433.3 258,436.8 257.3,437.5 253.8,434 				"/>
			</g>
			<g>
				<polygon class="st24" points="255.3,432.6 258.8,436.1 257.9,436.6 254.4,433.1 				"/>
			</g>
			<g>
				<polygon class="st2" points="255.3,432.9 258.8,436.4 258,436.8 254.5,433.3 				"/>
			</g>
			<g>
				<polygon class="st24" points="256.1,432.7 259.6,436.2 258.8,436.1 255.3,432.6 				"/>
			</g>
			<g>
				<polygon class="st2" points="256,432.9 259.5,436.4 258.8,436.4 255.3,432.9 				"/>
			</g>
			<g>
				<polygon class="st4" points="253,434.5 256.5,438 256.9,439.4 253.4,436 				"/>
			</g>
			<g>
				<polygon class="st5" points="253.2,434.6 256.7,438.1 257.2,439.4 253.7,435.9 				"/>
			</g>
			<g>
				<polygon class="st24" points="256.7,433 260.2,436.5 259.6,436.2 256.1,432.7 				"/>
			</g>
			<g>
				<polygon class="st2" points="256.5,433.2 260,436.7 259.5,436.4 256,432.9 				"/>
			</g>
			<g>
				<polygon class="st24" points="253.3,436.5 256.8,440 255.1,439.8 251.7,436.3 				"/>
			</g>
			<g>
				<polygon class="st55" points="253.4,436 256.9,439.4 256.8,440 253.3,436.5 				"/>
			</g>
			<g>
				<polygon class="st2" points="253.6,436.6 257,440.1 255,440 251.5,436.5 				"/>
			</g>
			<g>
				<polygon class="st67" points="253.7,435.9 257.2,439.4 257,440.1 253.6,436.6 				"/>
			</g>
			<g>
				<polygon class="st24" points="257.6,433.6 261.1,437.1 260.2,436.5 256.7,433 				"/>
			</g>
			<g>
				<polygon class="st2" points="257.5,433.8 261,437.3 260,436.7 256.5,433.2 				"/>
			</g>
			<g>
				<polygon class="st24" points="259.4,434.6 262.9,438 261.1,437.1 257.6,433.6 				"/>
			</g>
			<g>
				<polygon class="st2" points="259.5,434.8 263,438.3 261,437.3 257.5,433.8 				"/>
			</g>
			<g>
				<polygon class="st24" points="261.3,433.2 264.8,436.7 262.9,438 259.4,434.6 				"/>
			</g>
			<g>
				<polygon class="st52" points="261.9,432.7 265.4,436.2 264.8,436.7 261.3,433.2 				"/>
			</g>
			<g>
				<path class="st68" d="M269.4,372.1l-5.2,6l-1.6,2.8l-0.3,1.1l-0.5,3.5l0.1,2.1l0.2,1.3l-0.3,1l-0.6,0.8l-0.8,0.8l-0.9,1l-1,0.9
					l-1.9,1.4l-0.7,0.4l-0.9,0.3l-1.9,0.1l-2.7-0.4l-1.3,0.1l-1.3,0.4l-0.8,0.6l-0.5,0.8l-0.2,1.1l-0.1,1.6l-1.7,5.5l0.4,2.1
					l1.8,0.5l1.7,0.4l0.7,1.2l0.3,0.5l0.7,0.2l1.7-0.5l0.9,0l0.5,0.3l0.2,1l0.3,1.5l0.5,0.2l0.7,0.2l0.8,0.3l0.4,0.5l0.2,0.6
					l0.3,1.1l0.3,3l1.4,5.2l0.1,1.1l-0.1,0.9l-0.4,1.2l-0.2,0.7l0,1l0.2,0.5l4.4,3.7l-0.8,0.8l-2,1.4l-2-1l-1-0.6l-0.5-0.3l-0.6,0
					l-0.8,0.4l-0.7,0.7l-0.6,0.5l0.4,1.3l-0.1,0.7l-2-0.1l-0.5-1.7l-0.5-0.3l-0.9-0.1l-4.7,0.1l-1.4,0.3l-2.2,1.9l-0.3,3.1l-0.6,2.1
					l-3,1.9l-9.2-0.1l-13.5-2.2l-13.2-3.3l-3.4-0.1l-2.9,0.4l-2.5-1.1l-0.2-2.1l-1.5-0.9l-2-0.4l-4.6-0.6l-2-0.7l-0.7-1.6l-1.2-1.8
					l-2.5-1.1l-2.5-2l-2.5-0.6l-1.9-0.9l-3.4-0.8l-0.8-1.5l-1.3-0.3l-1.4-0.4l-1.5-0.8l-3.5,0.5l-4.6-0.5l-3.7-0.5l-2.5-0.3
					l-2.3-0.7l-2.4-0.6L141,418l-16.9-1.3l-5.8-0.2l-13.1-1.2l-6.1-0.5l-3-2.5l-1.5-0.7l-1.8-0.3l-1.9,0.9l-0.7,0.2l-0.1-1.4l0-1.8
					l-1.7-1.7l0.5-3.1l-0.2-1.4l0.4-1.2l0.9-1.6l1.2-1.4l1.3-0.7l1.3,0l1.2-0.2l0.3-0.6l-1.1-1.5l1.3-1.3l2.8-3.4l1.9-1.8l0.1-2.6
					l-0.3-2.3l-1.8-1.3l-2.1,0.2l-2.2-0.8l-1.9,0.6l-1.4,2l-0.6-1l-0.2-0.8l0-1l0.4-1.6l0.7-1.9l2.8-4.9l4-3.7l0.1-1l-1.3-1.2
					l-0.9-0.4l-2.3-0.7l-0.7-1.1l-0.6-1.7l-1.5-12.3l0.3-2.3l1.1-2l0.7-1.7l-0.1-1.9l-0.4-1.7l-0.4-1.2l0.7-1.5l1-0.7l0.6-0.3l0.8,0
					l0.5,0.6l0.3,1l0.5,0.9l0.6,0.2l0.8-0.4l0.9-0.7l1.2-0.5l2.1,0.1l1.5,0.6l1.5,0.9l2.1,0.6l7.7,0.2l1.8-1.1l-0.2-1.1l0-3.8
					l1.2,0.5l0.3,0.6l0.3,0.6l0.5,0.5l0.8,0.5l0.8,0.7l0.7,0.1l0.6-0.2l1.4-0.9l2.3,1.1l2.8,2.1l1.1-0.5l0.8-1.9l1.3-4.8l0.6-1.1
					l0.2-0.9l0.1-1l0-2.4l0.2-3.9l0.1-4.5l1.2-0.8l0.2-1.3l0.4-0.9l0.1-0.8l-0.7-1l-0.4-0.7l0.4-1.2l1.5-2.1l-0.3-2.4l1.7-0.8
					l2.6,0.5l2.5,1.2l0.8,0.8l0.8,0.9l0.9,0.8l1.4,0.5l1.3,0l1.2-0.2l5.4-1.6l2.9,0.5l2.4,1l1.9,2.3l2.4,3.9l2.3,2.9l1.7,2.9
					l2.9,1.3l3.7,1.4l4.1,0.2l2.5,2.7l1.6,0.9l1.5-0.8l1.2,0.6l1.1-0.2l0.9-0.7l1.7-0.7l0.4-0.4l0.7-0.2l0.8,0.2l0.7,0.3l0.6-0.5
					l-0.2-0.9l1.2-0.4l1.6,0.5l0.2,1l0.9,0.1l0.9-1l0.6-0.3l0.9,1.7l0,1.5l3.6,2.2l3.1,1.3l4.2,2l1.8,0.6l1.4,0.6h1.4l1.1-0.1
					l0.9-0.2l1.1-0.8l1.8-1l0.8-0.7l0.6-0.8l0.2-0.9l-0.1-0.8l-0.5-0.6l-0.8-0.6l0.9-0.5l1.4,0.7l2.3,0.6l4.4,0.1l1.5,0.9l0.4-0.7
					l1.6-0.4l0.4,2l0.5,4.8l5.9,7.2l1.3,0.7l0.9,0.3l3.7,2.1l2.5,13l2.2,6.4l4,0.4l3.1,2l3.1,1.1l3.1-0.1l3-1.6l0.7,0.7l1,0.3
					l1.2,0.2l1,0.3L269.4,372.1z M269.1,372.3l-1.1-0.6l-1.2-0.2l-1.1-0.3l-0.6-0.7l-3,1.6l-3.2,0.1l-3.2-1.2l-3-2l-4.1-0.4
					l-2.3-6.6l-2.4-12.9l-3.6-2.1l-0.9-0.3l-1.4-0.7l-6-7.3l-0.6-4.9l-0.3-1.7l-1.3,0.3l-0.5,0.7l-1.7-0.8l-4.4-0.1l-2.3-0.7
					l-1.3-0.7l-0.6,0.2l0.7,0.5l0.5,0.7l0.1,1l-0.3,1l-0.6,0.8l-0.6,0.5l-2.1,1.2l-1.2,0.8l-1,0.3l-1.2,0.1h-1.4l-1.5-0.6l-1.8-0.6
					l-4.2-2l-3.1-1.3l-3.7-2.3l0-1.6l-0.7-1.5l-1.4,1.3l-1.1,0l-0.2-1l-1.4-0.5l-1,0.3l0.1,0.8l-0.2,0.7l-0.6,0.1l-0.7-0.3l-0.7-0.2
					l-0.6,0.1l-0.4,0.4l-1.7,0.7l-0.9,0.7l-1.2,0.2l-1.2-0.6l-1.5,0.7l-1.8-0.9l-2.4-2.7l-4.1-0.2l-3.8-1.4l-2.9-1.4l-1.8-3
					l-2.3-2.9l-2.4-3.9l-1.8-2.3l-2.4-1l-2.8-0.5l-5.4,1.6l-1.3,0.2l-1.3,0l-1.4-0.5l-1-0.8l-0.8-0.9l-0.8-0.7l-2.4-1.2l-2.5-0.5
					l-1.5,0.6l0.3,2.4l-1.5,2.2l-0.4,1l0.4,0.7l0.7,1.1l-0.1,0.9l-0.4,0.9l-0.2,1.3l-0.9,0.5l-0.4,4.7l-0.2,3.9l0,2.4l-0.1,1
					l-0.3,0.9l-0.6,1.1l-1.3,4.8l-0.9,2l-1.3,0.6l-2.9-2.2l-2.1-1.1l-1.4,0.9l-0.7,0.2l-0.8-0.1l-0.9-0.7l-0.8-0.5l-0.5-0.5
					l-0.3-0.6l-0.2-0.5l-0.8-0.5l-0.1,3.5l0.3,1.1l-2,1.3l-7.8-0.1l-2.2-0.6l-1.5-0.9l-1.4-0.6l-2-0.1l-1.1,0.5l-0.9,0.7l-0.9,0.4
					l-0.8-0.3l-0.6-1l-0.3-1l-0.4-0.5l-0.6,0l-0.5,0.3l-0.9,0.6l-0.7,1.3l0.4,1.2l0.4,1.8l0.1,1.9l-0.7,1.8l-1,2l-0.3,2.2l1.5,12.2
					l0.6,1.7l0.6,1l2.2,0.7l1,0.4l1.4,1.2l-0.1,1.2l-4,3.8l-2.7,4.8l-0.7,1.9l-0.4,1.6l0,0.9l0.2,0.8l0.2,0.7l1.2-1.8l2.1-0.6
					l2.2,0.8l2.1-0.2l2,1.4l0.4,2.5l-0.1,2.7l-1.9,1.8l-2.9,3.4l-1.2,1.1l1.1,1.5l-0.4,0.8l-1.3,0.3l-1.2,0l-1.2,0.6l-1.2,1.4
					l-0.9,1.6l-0.4,1.1l0.2,1.4l-0.6,3l1.6,1.7l0,1.9l-0.1,1.1l0.5-0.2l1.9-0.9l1.9,0.3l1.6,0.7l3,2.5l6.1,0.5l13.1,1.2l5.8,0.2
					l16.9,1.3l2.8,0.8l2.4,0.6l2.3,0.7l2.4,0.3l3.7,0.5l4.5,0.5l3.6-0.6l0.7,0.7l2.2,0.5l1.3,0.3l0.8,1.5l3.3,0.8l1.9,0.9l2.5,0.6
					l2.5,2l2.5,1.1l1.3,1.9l0.6,1.6l1.9,0.7l4.6,0.6l2,0.5l1.6,1l0.2,2.1l2.4,1.1l2.9-0.4l3.5,0.1l13.2,3.3l13.5,2.2l9,0.1l2.9-1.8
					l0.6-2l0.3-3.2l2.3-2l1.5-0.4l4.8-0.1l1,0.1l0.6,0.4l0.4,1.7l1.4,0.3l0.4-0.6l-0.4-1.4l0.7-0.7l0.7-0.7l0.9-0.5l0.8,0l0.6,0.4
					l0.5,0.4l2.2,1.2l1.9-1.3l0.6-0.5l-4-3.3l-0.3-0.4l-0.2-0.6l0-1l0.2-0.7l0.4-1.2l0.1-0.8l0-1.1l-1.4-5.1l-0.3-3l-0.3-1.1
					l-0.2-0.6l-0.3-0.5l-0.8-0.3l-0.7-0.2l-0.5-0.3l-0.4-1.6l-0.2-0.9l-1.1-0.2l-1.7,0.5l-0.8-0.2l-0.4-0.6l-0.6-1.1l-1.6-0.4
					l-1.9-0.5l-0.5-2.3l1.7-5.6l0.1-1.6l0.2-1.1l0.6-0.9l0.9-0.7l1.3-0.4l1.3-0.1l2.7,0.4l1.8-0.1l0.8-0.3l0.7-0.4l1.9-1.3l0.9-0.9
					l0.9-1l0.8-0.8l0.6-0.8l0.3-0.9l-0.2-1.3l-0.1-2.1l0.5-3.5l0.3-1.1l1.6-2.8L269.1,372.3"/>
			</g>
			<g>
				<polygon class="st69" points="262.2,432.6 265.7,436.1 264.9,436.9 261.4,433.4 				"/>
			</g>
			<g>
				<polygon class="st2" points="261.4,433.4 264.9,436.9 263,438.3 259.5,434.8 				"/>
			</g>
		</g>
	</g>
</g>
<polygon class="st0" points="134.4,321.9 134.3,321.7 134.3,321.7 123.5,323.4 120.3,323.5 117.4,322.9 116.3,322 116,320.8 
	115.9,320.2 115.5,320.4 113.2,322.2 112.5,323.3 113.8,331 115.8,333.3 116.6,336.3 117.5,337.3 118.1,337.5 119.1,338.1 
	119.4,338.6 119.7,339.2 120.2,339.7 121,340.2 121.8,340.9 122.6,341 123.2,340.8 124.7,339.9 126.9,341 129.7,343.2 130.9,342.6 
	131.8,340.7 133.1,335.8 133.7,334.7 134,333.8 134.1,332.8 134.1,330.3 134.3,326.4 "/>
<path class="st70" d="M537,304.4l0.6,0.8l1.9,0.1l1.1-0.7l0.6-0.2l0.3,0.6l0.4,0.2l2,0.1l0.7-0.1l1.3-0.5l0.9-0.9l0.5-1.3l0.1-1.6
	l-0.3-1.7l-0.7-1.1l-0.9-0.8l-1-0.7l-1.2,0.1l-1,0.4l-0.9,0.2l-0.8-0.3l-1.7,1.8l-0.2,0.4l-2,1.6l-0.5,0.6l0.8,1.6L537,304.4z
	 M619.7,402.5l0.1,0.3l2.1,0.9l1.2,0l0.7-0.6v-0.4l-1.7-0.3l-2.1-0.3L619.7,402.5z M681.2,507.7l-0.4-0.9l-0.6-0.8l-3.8-1.4
	l-1.8-1.2l-0.9-0.2l-1.4,0l-1.2-0.4l-1.1-1.1l-0.9-1.4l-0.5-1.4l0.1-4.7l-0.3-2.3l-1.3-1.3l0,3.2l-0.3,1.8l-0.9,0.8l-0.9-0.6
	l-0.2-1.5l-0.1-3.2l-0.8-1.6l-0.2-0.8l0.1-0.7l0.4-1.6l0.2-2.1l2.8-14.2l3-10.3l0-3.4l-0.1-0.5l-0.2-0.5l-0.2-0.6l0-0.8l0.3-0.8
	l0.9-1.3l0.2-0.5l0.5-3l0.1-1.6l-0.5-1.5l-1-1.1l-2.8-1.5l-1.3-1.1l-0.6-0.3l-0.8-0.1l-1.6,0.1l-0.9-0.1l-0.7-0.2l-1.1-0.7l-2.6-2.5
	l-1.1-0.4l-1.6,0.2l-2.9,0.8l-1.7,0l-2.3-0.9l-1.7-1.4l-2.8-3.6l-2.3-1.3l-2.1,0.4l-5.1,4.3l-1,0.4l-1.5,0.2l-1.7-0.2l-1.2-0.4
	l-1.1-0.1l-1.3,0.7l-1.5,1.7l-0.9,0.8l-1.3,0.3l-1.6-0.2l-2.9-1l-1.7-0.1l-0.6,0.2l-1.4,0.6l-0.9,0.2l-9.4-1.4l-1.7,0.2l-2.3,1.3
	l-1.1,0.3l-1.5,0.2l-1.6,0.5l-2.6,1.3l-2.5,1.7l-1.4,0.6l-1.7,0.2l-1-0.5l-1.7-2.2l-1.4-0.7l-0.8,0l-1.5,0.4l-0.6,0.1l-0.9-0.2
	l-1.6-0.7l-2.3-0.6l-1.5-1l-2.5-2.5l-1.4-1.1l-1.4-0.6l-1.5-0.2l-1.9,0l-1.3-0.3l-9.1-3.9l-6-4.4v-5.9l0.6-1.2l2.7-1.8l0.6-1.4
	l0-2.9l0.1-1.2l0.6-2.6l0-1.1l-0.2-1.1l-1.1-2l-0.8-1.1l-1-1l-1.2-0.4l-1.7,0.4l-1.1,1.1l-0.9,1.3l-1.1,1.1l-4-1.7l-1.8-1.1
	l-1.2-1.6l4.3,0.4l1.1-0.4l0.4-1.3l-0.7-1.5l-1.2-1.2l-1.2-0.5l-0.6-0.5l-0.7-1.1l-0.6-1.2l-0.3-0.8l0.5-0.6l1.2-0.5l2.3-0.6
	l-0.6-1.2l-1,0.1l-1.1,0.4l-0.8-0.3l-0.6-0.6l-1.6-2.4l-0.3-0.7l0.3-1.7l1.1-2.8l0.1-1.5l-0.2-0.6L537,379l-0.5-0.6l-0.5-0.4
	l-1.1-0.4l-0.4,0.1l0,0.5l0,0.9l-0.4,1.5l-1,0.7l-1.4,0l-1.6-0.5l-1.1-0.7l-1.1-1l-1.2-0.8l-1.4-0.3l-0.4,0.2l-0.5,0.4l-0.5,0.3
	l-1.1-0.4l-2.6-0.4l-1.7,0.2l-2.9,1l-1.5,0.2h-3l-0.8,0.1l-2.4,0.8l-3,0.4l-3.1,0.1l-1.6-0.3l-1.2-0.9l-4.2-5.3l-2.4-2.4l-1.3-0.4
	l-1.6,0.4l-2.3,1.2l-1.6,0.5l-1.2-0.1l-1.2-0.3l-3-0.3l-4.8-1.3l-1.7-0.8l-1.6-1.1l-1.6-1.5l-0.3,0.3l-2.8,4.5l-0.6,1.8l0,1.3
	l-1.3,6.4l-0.4,1.9l0.2,6.1l-0.3,2.5l0.1,0.8l0.7,3l0.1,0.8l-0.1,0.5l-1.2,0.7l-2.9,2.5l-1.1,1.3l-1,0.9l-2,1.5l-1.5,0.9l-0.6,0.4
	l-0.4,0.3l-0.4,0.4l-0.6,0.8l-0.2,0.5l0,0.9l-2.9-0.5l-4.5-1.6l-1.1-0.6l-0.9-0.6l-0.5-0.1l-0.6,0.1l-0.6,0.2l-0.8,0l-1-0.3
	l-1.3-0.6l-1.8-0.3l-1.2,1.1l-0.4,3l0,3.3l0.3,2.1l0,1.4l-1.2,8.8l0.9,3.8l0.6,1.3l0.8,0.9l-0.4,0.8l-1.8,1.4l-0.3,0.6l0,0.4
	l0.3,0.5l0.1,0.6l0,1.3l0.2,1.2l1.2,0.6l2.5,0.2l0.8,0.3l0.8,0.6l1.9,2l0.7,0.9l0.5,0.8l0.2,1l-0.2,2.8l-0.5,1.6l-1.2,3.1l-0.3,2.5
	l-0.5,0.4l-0.7,0.4l-0.7,0l-0.6-0.3l-0.6-0.4l-0.5-0.2l-0.8,0.1l-1.8,1.3l-1.1,0.6l-2,0.8l-3.6,2.2l-4.5,3.7l-2.6,1.7l-1.4,1.2
	l-1.1,1.2l-0.3,0.7l-0.1,0.6l0.1,1.6l0,0.6l0,0.4l-1,3.5l-0.1,0.5l0,0l3.9,1.7l1.4,0.3h2.9l0.6-0.2l0.4-0.4l0.7-1l0.3-0.6l0.3-0.7
	l0.3-0.5l0.5-0.1l0.5,0.6l0.1,1l0.3,0.9l0.9,0.4l0.8,0.1l0.7,0.3l0.5,0.5l0.2,0.8l0.3,0.7l0.7,0.1l5.9-1.8l0.3-0.4l0.6-0.3l0.7-0.1
	l0.6,0.2l0.8,0.7l0.4,0.2l0.8-0.1h3.7l0.7,0.2l0.8,0.6l0.5,0.2l0.7-0.1l1.3-0.4l0.5,0l1.2,0.5l0.1,0.6l-0.1,0.9l0.5,1.2l5,1.2
	l1.1-0.2l1.1-0.8l1,0.1l2.5,1.3l1.2,0.2l0.8-1h0.5l0.6,1.4l1.1,1.1l1.4,0.7l1.6,0.2l0.8-0.2l0.3-0.5l-0.1-0.5l-1-0.6l0.1-0.7
	l0.4-0.7l0.2-0.3l0.4-1.5l0.4-0.7l0.6-0.3l0.7,0.4l0.5,0.9l0.3,0.9l0.3,0.4l1.4-0.4l0.1-1.1l-0.1-1.4l0.7-1.4l0.8-0.3l0.7,0.2
	l0.7,0.4l0.8,0.3l0.8,0.1l1.9-0.1l1.1,0.4l1.7,1.6l1.4,0.5l0.6,0l0.3-0.2l0.3-0.3l1.8-1.2l0.7,0l2.3,1.4l1.6,0.5l13.2,1.3l1.3,0.4
	l0.4,0.3l0.3,0.3l0.5,0.3l1,0.1l1.9-0.8l0.8-0.2l1.5-0.1l1.8,0.3l1.8,0.7l1.3,1.1l-0.2,0.3l-0.3,0.7l1.6,0l1.1,0.5l0.9,0.6l1.1,0.3
	h5.6l3.8,1.3l2.8,0.5l3.2,1.4l1.2,0.8l1.3-1.2l0.8-0.5l1.1-0.2l1.2-0.1l1.1-0.3l0.5-0.3l1-0.9l1.1-0.6l0.4,0.1l0.7,0.5l0.6,0.3
	l0.7-0.2l0.6-0.5l0.2-0.6l0.3-0.4l1.7,1.2l0.9-0.1l2.3,0.9l2.4-1.6l3.6-4.1l2.8-1.5l3.1-0.8l9.2-1.1l3.1,0.3l3,0.8l3,1.2l1.6,1.1
	l3.5,4.1l1.3,0.6l1.1-0.4l1.2-0.6l1.5,0.1l0.4,0.3l0.5,0.9l0.4,0.5l0.5,0.5l2.6,1.5l1,0.1l2.3-0.3l0.4,0.2l0.8,0.9l0.5,0.4l2.2,0.4
	l0.9,0.4l1.3,1.9l1,0.7l1.2,0.1l0.7-0.2l0.6-0.1l0.9,0.6l0.1,0.5l-0.2,1.2l0.3,0.3l1.3,0.1l0.6-0.1l0.3-0.2l0.4-0.7l1-0.6l1.2-0.4
	l1.1-0.1l0.5,0.5l0.4,2.4l0.3,1l0.2-0.4l0.2-0.2l0.3-0.2l0.4-0.3l1.2,0.9l1.9,0.8l1.9,0.6l1.2,0.2l0.8-0.2l1.5-0.7l0.7-0.2l0.7,0.4
	l-0.1,0.9l-0.3,1l-0.1,0.8l0.9,1.2l1.1-0.1l1.3-0.6l1.4-0.4l0.7,0.3l0.7,1.3l0.6,0.3l2.6,0.5l0.7,0l3.2-1.1l1.9-0.2l0.8,1.1l0.8,0.8
	l1.7-0.7l2.9-1.8l2.9,0.1l3.4,1.5l2.6,2.3l0.5,2.5l-1.6,1.9l-0.2,1.1l1.6,0.5l4-0.3l1.6,0.3l6.3,2.1l3-0.2l2-2.5l0.1-1.8l-0.7-1.1
	L681.2,507.7z M595.2,490.9l-0.8-0.4l-4-0.2l-3.6-0.8l0.2,0.5l0.3,0.5l-1,0.7l-0.3,1.2l0.3,1.1l0.8,0.5l5.7,0l1.8-0.5l0.9-0.1
	l0.3-0.4l-0.1-1L595.2,490.9z M632.4,400.2l-0.6-0.3l-1.5,0.5l-0.9,0.9l0.1,0.9l0.9,0.2l1.9-0.5l0.5,0.3l0.3,0.4l0.7,0.7l0.5,0.2
	l-0.7-1L632.4,400.2z M650,387.6l0.5,0.1l0.2-0.2l0.2-1.3l0-1l-0.9-0.5l-0.8,1.9l0.1,0.9L650,387.6z M674.5,398.6l1.5-0.1l6.2,0.6
	l0.3-0.3l0.1-1.1l-0.2-0.8l-0.5-0.4l-0.7-0.1l-0.8,0l-0.9-0.2l-1.6-0.7l-0.6-0.2l-0.6,0.1l-2.6,1.1l-0.4,0.2l-0.2,0.4l-0.1,0.8
	l0.3,0.3L674.5,398.6z M641.8,395.3l0.3-0.8l-0.6-1.3l-1-0.6l-5.4-0.6l-0.7-0.3l-0.2-0.2l-0.6,0.3l-0.5,0.8l0.5,0.8l0.6,0.5l3.1,1.1
	L641.8,395.3z M545.5,389.5l-0.9,0.1l-0.5,0.4l-0.1,1.4l0.2,1.3l0.5,1.1l0.6,0.4l0.7-1l0.5,0.5l-0.6,1l-0.1,1l0.2,2.2l0.5,0.8
	l1.2,0.2l2.6-0.2l2.9,0.2l22.2,5l1.2-0.3l0.3-0.9l-1-0.9l-1.4-0.9l-0.9-0.8l0.5-0.5l0-1.4l0.3-0.7l0.6-0.1l1.7,0.7l0.9,0.1v0.5
	l-0.9,0.5l0,0.4l0.5,0.4l0.4,0.6l0.5,2.5l1.5,0.2l3.4-1.1l1.2,0.1l1.3,0.6l11,0.7l3.6-0.3l1.6,0.6l0.9,0.7l0.5,0.5l1.5-0.5l1.1-0.5
	l0.8-1.5l0.5-1.3l0.3-0.8l0.5-1l0.4-1.1l0.8-1l1.2-0.7l2.5,0.1l1.4-1.5l1.5,0.2l1.4,0.1l5.1,0.8l4,0.5l2.9-0.2l1.6-0.6l0-0.8
	l-0.6-0.7l-1.1-0.3l1.5-2.6l1.3-0.8l1.8,0.1l1.4-0.4l1.8-1.7l5-0.7l3.3-2l2-0.1l-1.1-2.5l-1.2-1l-2-0.7l-1.4-0.6l-1.3-1.1l-1.3-0.9
	l-1.4-0.6l-1.6-0.5l-3.2-0.4l-9.4,1.3l-8.7-0.2l-10.5,1.2l-5.8-1l-12.4,0.8l-9.1,0.1l-5.6-0.9l-6.2,0.7l-2.7,0l-2.1,0.1l-3,0.4
	l-2.2,0.8l0.1,1.2l-3.7,4.2L549,388l-2.1,1.2L545.5,389.5z M658.3,396.2l0.6,1.2l1,0.4l1.3-0.1l0.5,0.8l1.8,0.6l1.5,0.8l1,0.1
	l0.2-1.5l0.2-1.9l-1-1.3l-1-1.7l-0.8-1.5l-1.1-1l-1.5-0.4l-2,0.3l-1.8,1.9l0.3,1.5L658.3,396.2z M774.3,384.6l1.7,0l-2.4-0.8
	L774.3,384.6z M773.6,394.8l-0.1,0.5l-0.1,0.9l-0.1,0.2l-0.2-0.4l-0.4,0l-0.6,0.4l-0.2,0.6l0.2,0.7l0.4,0.5l0.4,0l0.2,0l-0.3,0.4
	l-0.7,0.1l-2-0.2l-1.4-0.6l-1.1,0l-0.5-0.2l-0.4-0.6l-0.3-0.9l-0.4-0.7l-0.6,0l-0.6,1.9l-0.3,0.1l-0.3-0.3l-0.7,0.1l-0.7,0.7l1,1.4
	l2.8,1.4l3,0.5l2.7-0.8l1.3-1.5l0.1-2.8l-0.1-1L773.6,394.8z M799.7,382.5l-1.2,0.3l-0.5,0.4l1.1,0.6l0.7-0.4l0.3-0.2L799.7,382.5z
	 M757.6,386.7l-0.6-0.5l-5.3-3l-0.7-0.1l-0.5,0.2l-0.2,0.3l0,0.7l-0.3,0.1l-0.2,0.2l0.3,0.6l1.3,0.7l0.4,0.6l2.1,0.9l1.2,0l0.2-0.2
	l0.5-0.1l1.9,0.8l0.5-0.2l-0.1-0.5L757.6,386.7z M692.3,396.3l0.1,0.2l-0.1,0.1l0.7,0.6l0.2-0.1l0.5-0.3l0.1-0.5l0-0.7l-0.8,0.3
	L692.3,396.3z M743.2,386.7l0-0.7l-0.1-0.6l-0.3-0.1l-0.1,0.4l-0.6-0.1l-0.7,0.2l-0.6,0l-0.6,0.7l1.3,1.1l1.5,0.3l0.6,0l0.4-0.3
	l-0.3-0.1L743.2,386.7z M747.8,387l0.2-0.4l0.4-0.1l-0.1-0.5l-0.5,0.1l-0.4,0.2l-0.4,0.4l-0.5,0.2l-0.7,0.8l0,0.6l1.6,1.2l0.1-0.5
	l0.6-0.1l0.6-0.3l-0.1-0.8L747.8,387z M753.8,390.2l-1.1-0.2l-0.7-0.1l0.3,0.7l-0.1,0.2l0,0.2l0.4-0.1l0.7,0.1l-0.1,0.6l1.3,0.4
	l0.2-1.2l-0.3-1.1L753.8,390.2z M750.6,380.4l-1.2-1.1l-5-2.7l-1.6-0.6l-5.9-0.6l-6.1,0.1l-1.4,0l-1.5,0.2l-0.8,0.6l0.8,1.2l-1,1.3
	l-1,0.8l-0.7,0.9l-0.3,1.7l0.5,0.8l1.2,0.2l2.7-0.3l-0.8,2.7l0,0.5l1.5,1.4l0.3,0.1l0.2,0.3l0.4,0l0.5-0.2l0.3-0.2l0.1-0.4l-0.6-0.7
	l0-0.4l-0.1,0.1l-0.1-0.2l0-0.4l0.2-0.4l1-1l2.7,2.1l1.6,0.4l1.6-1l-0.3-0.5l-0.4-0.3l-0.9-0.6l-0.8-0.3l-0.8-0.2l-0.6-0.3l-0.2-0.9
	l0.4,0l2.3-1.2l0.9,0.1l0.4,0.3l0.3,0.3l0.6,0.2h0.4l0.5-0.4l0.6-0.1l0.4-0.5l0.4-0.1l0.5,0.3l0.3,0.2l0.9,0.5l1.2,0.2l1.4,0.7
	l0.7,0.2l3.2,0.1l1.1-0.7L750.6,380.4z"/>
<path class="st70" d="M384.1,302.9l0.2,0.2l0.3-0.3l0-0.4l0.1,0.2l0.1,0.6l-0.7,0.7l0.2,0.4l0.6,0.2l0.2-0.1l0.1-0.4l0.7-0.5v-0.2
	l-0.2-0.6l-0.1-0.2l-0.7-0.4v-0.9l0.2-0.9l-0.8,0.7l-1.1,1.5L383,303l0.6-0.3L384.1,302.9z M380.1,297.7l-0.5-0.4l-0.1,0.4l0.2,0.5
	L380.1,297.7z M381.2,306.2l0.3,0.9l0.5,0.5l0.9-0.5l1-1.2l0.1-1.2l-0.5-0.6l-2,0.4l-0.8,0.5l0.1,0.5L381.2,306.2z M393.5,306.8
	l0.5-1.2l-0.1-0.4l-0.6,0.3l0,0.6l0.1,0.2l-0.1,0.3L393.5,306.8z M470.7,368.2l-1.3-1.2l-2.4-3l-0.8-0.7l-2.4-1l-4.1-0.8l-1.9-1.2
	l-1.1,1.2l-2.4,3.5l-1.1,0.7l-1.5,0.2l-3,0.7l-1.7,0.1l-13.3-1.5l-0.5,0.1l-0.4-0.1l-0.5-0.5l-1.3-2.5l-2.7-7.5l-1.2-2.5l-0.4-2.8
	l-0.5-0.9l-0.8-0.7l-0.9-0.6l-0.1-0.2l-0.5-0.6l-0.6-0.4l-0.3,0.5l-0.3,0.2l-0.7,0.1l-1.4,0l-0.8-0.3l-2-1.2l-0.7-0.5l-1.6,0.5
	l-4.4,0.5l-0.6,0.2l-1.1,0.5l-0.7,0.3l-1.9,0.3l-3.6,1.5l-0.8,0.6l-1.2,1.6l-0.7,0.5l-1.5,0.3l0.8,1.6l-0.2,0.9l-0.6,0.8l-0.4,1.4
	l-0.1,2.9l-0.4,2.7l-0.9,3.1l-5.3,10.5l-3.2,4.2l-2.9,3l-1,0.6l-1.2,0.3l-1.5,0.1l-1.4,0.4l-1.1,0.7l-1.3,0.6l-1.8-0.2l-1.5-0.8
	l-3-2.1l-2.5-0.7l-3.3-1.5l-1-0.6l-0.3-0.7l-0.1-0.8l-0.3-0.7l-0.8-0.3l-0.6,0.3l-1.2,1.5l-0.2,0.4l-0.8,0.7l-1.8,0.5l-9.4,1.3
	l-3.1,0.1l-3.2-0.4l-12.3-3.9l-13.9-2l-2.8-2.4l-3.9,4.2l-6.2,1.1l-12.6-1.4l-1.9,0.1L289,377l-2-1.3l-1.7-0.5l-2.8-2.1l-0.9-0.4
	l-1.5-0.5l-1.4,0l-0.6,1.2l-0.1,1.6l-0.5,1l-1,0.5l-1.7,0.1l-1.6-0.3l-0.8-0.7l-0.6-0.9l-0.6-0.6l0,0l-0.2,0.1l-5,5.7l-1.6,2.8
	l-0.3,1.1l-0.5,3.5l0.1,2.1l0.2,1.3l-0.3,1l-0.6,0.8l-0.8,0.8l-0.9,1l-1,0.9l-1.9,1.3l-0.7,0.4l-0.8,0.3l-1.9,0.1l-2.7-0.4l-1.3,0.1
	l-1.3,0.4l-0.9,0.6l-0.6,0.9l-0.2,1.1l-0.1,1.6l-1.7,5.5l0.4,2.2l1.9,0.5l1.7,0.4l0.6,1.1l0.4,0.5l0.8,0.2l1.7-0.6l0.8,0l0.5,0.3
	l0.2,1l0.3,1.6l0.5,0.2l0.7,0.2l0.8,0.3l0.4,0.5l0.2,0.6l0.3,1.1l0.4,3l1.4,5.2l0.1,1.1l-0.1,0.9l-0.4,1.2l-0.2,0.7l0,1l0.2,0.5
	l0.3,0.4l4.1,3.4l0.6-0.5l1-1.4l0.5-0.5l1.8-0.9l0.5-0.3l1-0.2l0.6,1.6l0.6,3.3l0.9,0.8l1.2,0.5l1.5,0.2l1.6,0.1l0.9,0.1l0.7,0.4
	l2.2,1.8l0.5,0l0.8-0.8l1-1.3l3.7-1.1l7.1,0.7l12.3,1.2l2.1,0.7l0.4,0.2l0.1,0.3l-0.5,0.8l0,0.4l0.4,0.4l0.5,0.2l0.4,0.2l0.2,0.5
	l0.6,0.7l1.5-0.2l2.8-0.7l12.3,1.4l6.9,2.2l4.3,0.8l2.6,0.9l2.6,0.6l1.6-0.5l1.9,1.2l7.3,2.1l0.6,0.3l0,0l0.2-1.7l0.2-0.7l1.1-1.3
	l3.7-5.4l0.6-1.2l0.2-1.4l-0.1-1.9l0.2-0.8l0.5-0.7l1.6-0.7l4.3,0.6l0.6,0l0.5-0.1l0.4-0.2l0.4,0l0.3,0.3l0.2,1.9l0.2,0.6l0.2,0.2
	l0.6-0.6l1.4-1.8l1-0.9l7.9-5.6l1.9-2.1l0.3,0.6l2.4,10.8l1.1,2.6l1.2,1.9l2.2,1.9l3,0.8h3.9l1.5,0.1l2.6-0.2l1.1,0.4l3.5,0.5
	l1.4,0.8l0.6,0.8l0.2,0.6l0.1,0.8l0.1,3.3l0.4,1.9l0.4,12.5l0.3,0.8l0.6,0.5l0.5-0.1l0.5-0.3l0.5,0l0.4,0.1l0.5,4.8l0,0l0.3,0l6,1.4
	l1,0.4l0,0l0.1-0.5l1-3.5l0-0.4l0-0.6l-0.1-1.6l0.1-0.6l0.3-0.7l1.1-1.2l1.4-1.2l2.6-1.7l4.5-3.7l3.6-2.2l2-0.8l1.1-0.6l1.8-1.3
	l0.8-0.1l0.5,0.2l0.6,0.4l0.6,0.3l0.7,0l0.7-0.4l0.5-0.4l0.3-2.5l1.2-3.1l0.5-1.6l0.2-2.8l-0.2-1l-0.5-0.8l-0.7-0.9l-1.9-2l-0.8-0.6
	l-0.8-0.3l-2.5-0.2l-1.2-0.6l-0.2-1.2l0-1.3l-0.1-0.6l-0.3-0.5l0-0.4l0.3-0.6l1.8-1.4l0.4-0.8l-0.8-0.9l-0.6-1.3l-0.9-3.8l1.2-8.8
	l0-1.4l-0.3-2.1l0-3.3l0.4-3l1.2-1.1l1.8,0.3l1.3,0.6l1,0.3l0.8,0l0.6-0.2l0.6-0.1l0.5,0.1l0.9,0.6l1.1,0.6l4.5,1.6l2.9,0.5l0-0.9
	l0.2-0.5l0.6-0.8l0.4-0.4l0.4-0.3l0.6-0.4l1.5-0.9l2-1.5l1-0.9l1.1-1.3l2.9-2.5l1.2-0.7l0.1-0.5l-0.1-0.8l-0.7-3l-0.1-0.8l0.3-2.5
	l-0.2-6.1l0.4-1.9l1.3-6.4l0-1.3l0.6-1.8l2.8-4.5L470.7,368.2L470.7,368.2z M367.7,298.6l0.5,0.8l0.5-0.4l0.1-0.2l-0.4-0.5l0.1-0.9
	l0-0.4l-0.5-0.1l-0.4,0.1l-0.3,0.3l0,0.7L367.7,298.6z M280.5,441.6l-0.3-0.3l-0.6-0.6l-3.8-2.1l-2.3-0.7l-3.7-0.5l-3.8-1.8
	l-1.1,0.5l-0.7,1.1l-0.2,1.3l0.4,1l1.1,0.3l3-0.4l1.1,0.4l1,0.5l4.2,0.7l3.9,1.3l1.9,0.3l0.7,0.2l0.5-0.1l0.3-0.8l-0.3-0.5
	L280.5,441.6z M364.4,303.2l-0.2-0.5l-0.5,0.2l0.4,0.4L364.4,303.2z"/>
<path class="st70" d="M51.4,313h0.3l0.7,0.8l0.1,0.9l0.2-0.4l0.5-0.2l0.1-1l-0.2-1.1l-1.5,0.2l-0.5,0.4l0.3,0.2L51.4,313z
	 M74.7,311.7l0.2-0.1l-0.2-0.6l-0.5-0.2l-0.8,0.4L74,312L74.7,311.7z M8.8,361.9l1.2-1.1l0.6-2.5l0.1-2.8l-0.1-1.8l-0.8,0l-0.8,0.1
	l-0.6,0.2l-0.3,0.5l-0.3-0.1L7,354.4l-0.8,0.5l-0.6,0.7L5.1,355l-3.6,2.8L0,359.6l0.2,1.3l0.9-0.3l3.1-3.1l0.5,1.7l0.5,0.7l0.9,0.4
	l-0.6,0.9l-0.6,1.3l-0.2,1.2l0.7,0.5l0.8-0.4l1.3-1.7L8.8,361.9z M83.5,303l0.3-0.1l0-0.3l-0.3-0.2l-1.6,0.1l0.2,0.3L83.5,303z
	 M118.1,341.2l0-3.8l-0.7-0.2l-0.8-1l-0.8-2.9l-2.1-2.3l-1.3-7.7l0.7-1.1l2.3-1.8l0.3-0.2l-0.1-0.8l-0.6-1.2l-1.1-0.8l-1.5-0.5
	l-1.6-0.3l-8.2-0.1l-1.6,0.4l-1.1,0.9l-1.2,0.7l-1.8,0l-4.4-2.1l-1.8-0.3l-1.7-0.5l-4.5-3.4l-3-0.2l-1.8,1.8l-1.6,2.2L76,317
	l-1.2-0.3l-2.2-1.4l-0.8-0.3l-0.5-0.8l-0.3-4.6l-1.6-1.8l-2.3-0.3l-2.3,0.9l-1.6,1.7l-1.4,4.7l-0.8,0.7l-0.7,0.4l-5,5.1l-1.5,2.8
	l-2,5.8l-0.5,2.6l-0.8,12.3l0.2,2.4l-1.1,3l-1.9,2.5l-3.1,1.3l-2,0.3l-0.9-1l-1.2-0.7l-0.3-2.6l-1.5-0.1l-0.9,0.6l-1.8,3.6l0.6,5.9
	l-0.4,1.1l-1.1,1.4l-5.7,5.1l-0.8,1.5l-1.1,3.3l-0.9,1.3l-1.4,0.5l-1.3-0.5l-0.9-1l-0.4-1.1l-1.7-2.8l-0.1-0.7l0-0.7l-0.2-0.9
	l-0.5-0.8l-0.8-1l-1-0.8l-0.9-0.4l-1.2,0.4l-0.7,1l-0.5,1.3l-0.7,1.2l-2,2l-1.2,1l-1,0.4l-2.4-0.3l-0.5,0.1L7.1,371l0.4,0.5l1,0.7
	l0.8,2.7l0.6,1.2l1.3,0.5l0.6-0.2l0.5-0.4l0.4-0.6l0.3-1.4l0.7-0.3l3.3,0.2l3,1.2l0.4,0.2l0.4,0.4l0.3,0.5l0.1,0.5l0.3,0.3l0.7-0.3
	l0.7-0.5l0.2-0.2l1.3,0.2l0.8,0.6l1.1,1l0.9-0.5l2.6,0.8l1.4-1.2l3-0.5l7.6-1l1.5,0.2l2.3,0.4l1.4,0.4l1.3-0.3l2.2-0.5l2.3-0.1
	l1.4-0.2l0.8,0.9l1-0.3l0.2-1l1.2-0.4l1.5-0.2l1.4-0.2l1.4,0l2.1,0.3l3.2,1.1l5.2,4.2l3.1,1.4l2.4-0.2l2.6,1.9l0.5,0.4l0.4,0.5
	l0.1,0.5l0.3,0.3l1,0.1L83,385l0.7,1l0.4,0.2l1,0.1l0.6,0.2l0.6,0.3l1,0.3l1.5,0.1l1.8-0.2l1.6-0.5l0.2-0.1l-0.3-0.9l-0.2-0.8l0-1
	l0.4-1.6l0.7-1.9l2.7-4.9l4-3.8l0.2-1.1l-1.4-1.2l-1-0.4l-2.3-0.7l-0.6-1l-0.6-1.7l-1.5-12.3l0.3-2.3l1-2l0.7-1.8l-0.1-1.9l-0.4-1.7
	l-0.4-1.2l0.7-1.4l1-0.6l0.6-0.3l0.7,0l0.4,0.6l0.3,1l0.5,0.9l0.7,0.3l0.9-0.4l1-0.7l1.2-0.5l2.1,0.1l1.5,0.6l1.5,0.9l2.1,0.6
	l7.8,0.2l1.9-1.2L118.1,341.2z M48.5,383.9l-0.5,0.4l-0.9,0.2l-0.8,0.2l0.4,0.6l0.7-0.2L48,385l0.6-0.2l0.7-0.2l0.8-0.7l-0.5-0.2
	L48.5,383.9z M29.9,387l-0.4,0l-0.1,0.1l-0.5,0.2l-0.1,0.6l2.1,0.5l1.3-0.4l-0.5-0.6L29.9,387z"/>
</svg>
