<?xml version="1.0" encoding="utf-8"?>
<!-- Generator: Adobe Illustrator 22.1.0, SVG Export Plug-In . SVG Version: 6.00 Build 0)  -->
<svg version="1.1" id="Layer_1" xmlns="http://www.w3.org/2000/svg" xmlns:xlink="http://www.w3.org/1999/xlink" x="0px" y="0px"
	 viewBox="0 0 800 800" style="enable-background:new 0 0 800 800;" xml:space="preserve">
<style type="text/css">
	
		.st0{fill-rule:evenodd;clip-rule:evenodd;fill:#BFC0C2;stroke:#F9F9F9;stroke-width:0.25;stroke-linecap:round;stroke-linejoin:round;}
	.st1{fill:#BFC0C2;stroke:#F9F9F9;stroke-width:0.25;stroke-linecap:round;stroke-linejoin:round;}
	.st2{enable-background:new    ;}
	.st3{fill:#818181;}
	.st4{fill:#7D7D7D;}
	.st5{fill:#7E7E7E;}
	.st6{fill:#878787;}
	.st7{fill:#858585;}
	.st8{fill:#1D5BA3;}
	.st9{fill:#A0A0A0;}
	.st10{fill:#8F8F8F;}
	.st11{fill:#939393;}
	.st12{fill:#969696;}
	.st13{fill:#959595;}
	.st14{fill:#888888;}
	.st15{fill:#9A9A9A;}
	.st16{fill:#898989;}
	.st17{fill:#9D9D9D;}
	.st18{fill:#7F7F7F;}
	.st19{fill:#828282;}
	.st20{fill:#808080;}
	.st21{fill:#9E9E9E;}
	.st22{fill:#17477F;}
	.st23{fill:#A1A1A1;}
	.st24{fill:#9F9F9F;}
	.st25{fill:#9C9C9C;}
	.st26{fill:#9B9B9B;}
	.st27{fill:#979797;}
	.st28{fill:#8E8E8E;}
	.st29{fill:#929292;}
	.st30{fill:#999999;}
	.st31{fill:#174882;}
	.st32{fill:#184B87;}
	.st33{fill:#174780;}
	.st34{fill:#949494;}
	.st35{fill:#184A85;}
	.st36{fill:#838383;}
	.st37{fill:#277ADA;}
	.st38{fill:#1A5191;}
	.st39{fill:#D7D7D7;}
	.st40{fill:#1C599F;}
	.st41{fill:#848484;}
	.st42{fill:#919191;}
	.st43{fill:#989898;}
	.st44{fill:#909090;}
	.st45{fill:#1C59A0;}
	.st46{fill:#184B86;}
	.st47{fill:#1A5192;}
	.st48{fill:#1C589D;}
	.st49{fill:#1B5496;}
	.st50{fill:#194E8C;}
	.st51{fill:#174984;}
	.st52{fill:#1A5090;}
	.st53{fill:#1B5497;}
	.st54{fill:#174881;}
	.st55{fill:#174982;}
	.st56{fill:#1D5AA2;}
	.st57{fill:#184C87;}
	.st58{fill:#868686;}
	.st59{fill:#1B569B;}
	.st60{fill:#174880;}
	.st61{fill:#1B5395;}
	.st62{fill:#1C579C;}
	.st63{fill:#1C569B;}
	.st64{fill:#1C579D;}
	.st65{fill:#1B5598;}
	.st66{fill:#1C589F;}
	.st67{fill:#184A84;}
	.st68{fill:#1D5AA1;}
	.st69{fill:#174A84;}
	.st70{fill:#184D8A;}
	.st71{fill:#8C8C8C;}
	.st72{fill:#174983;}
	.st73{fill:#194F8D;}
	.st74{fill:#8B8B8B;}
	.st75{fill:#1A5395;}
	.st76{fill:#1C589E;}
	.st77{fill:#1B569A;}
	.st78{fill:#1A5293;}
	.st79{fill:#19508F;}
	.st80{fill:#1B5599;}
	.st81{fill:#184C88;}
	.st82{fill:#1B5498;}
	.st83{fill:#194F8E;}
</style>
<polygon class="st0" points="411.2,472.8 410.7,468 410.3,468 409.8,468 409.3,468.3 408.8,468.4 408.2,468 408,467.2 407.5,454.7 
	407.1,452.8 407.1,449.5 406.9,448.7 406.7,448.1 406.1,447.3 404.7,446.6 401.2,446 400.1,445.6 397.5,445.9 396.1,445.7 
	392.1,445.7 389.1,444.9 387,443 385.8,441.2 384.7,438.5 382.3,427.8 382,427.1 380.1,429.2 372.2,434.9 371.2,435.8 369.8,437.6 
	369.2,438.2 369,438 368.8,437.4 368.6,435.5 368.3,435.1 367.9,435.1 367.4,435.3 367,435.4 366.4,435.3 362,434.8 360.4,435.4 
	359.9,436.1 359.7,437 359.8,438.8 359.6,440.2 359,441.5 355.3,446.9 354.1,448.2 353.9,448.9 353.7,450.6 353.7,450.6 
	371.2,459.6 373.5,459.8 374.2,460 375.5,461.3 375.9,461.5 377.6,463.2 377.9,463.7 378.6,463.9 379.4,463.8 380.1,463.9 
	384.8,466.5 386.2,466.9 388,467.1 390,467.6 393.9,469.3 393.9,468.8 396.5,470.1 398,470.6 399.5,470.8 400.2,471.1 401.3,472.1 
	402,472.3 411.2,472.8 "/>
<polygon class="st0" points="270.9,373.6 269.9,373.3 268.6,373.1 267.5,372.8 266.9,372.1 263.9,373.8 260.7,373.8 257.6,372.7 
	254.6,370.6 250.5,370.2 248.2,363.7 245.7,350.7 242,348.5 241.1,348.2 239.7,347.5 233.7,340.3 233.2,335.4 232.8,333.6 
	231.3,333.9 230.8,334.7 229.3,333.8 224.8,333.6 222.5,333 221.2,332.3 220.4,332.5 221.2,333.2 221.7,333.8 221.8,334.7 
	221.6,335.7 221,336.5 220.4,337 220.2,337.2 218.4,338.2 217.2,339 216.3,339.2 215.1,339.3 213.7,339.3 212.3,338.7 210.5,338.1 
	206.3,336 203.2,334.8 199.5,332.5 199.5,331 198.7,329.3 198.2,329.6 197.2,330.7 196.2,330.7 196,329.7 194.5,329.2 193.4,329.5 
	193.6,330.4 193.4,331.1 192.8,331.1 192.1,330.8 191.4,330.7 190.7,330.8 190.3,331.2 188.7,331.9 187.7,332.6 186.5,332.8 
	185.4,332.2 183.9,333 182.2,332.1 179.8,329.4 175.6,329.2 171.8,327.7 168.9,326.4 167.2,323.5 164.8,320.6 162.4,316.7 
	160.6,314.4 158.2,313.4 155.3,312.8 149.9,314.4 148.6,314.6 147.4,314.6 145.9,314.1 145,313.3 144.2,312.4 143.4,311.7 
	140.9,310.5 138.4,310 136.7,310.7 137,313.1 135.5,315.2 135.1,316.3 135.5,317 136.2,318.1 136.2,318.9 135.8,319.8 135.5,321.2 
	134.7,321.6 134.3,321.7 134.4,321.9 134.3,326.4 134.1,330.3 134.1,332.8 134,333.8 133.7,334.7 133.1,335.8 131.8,340.7 
	130.9,342.6 129.7,343.2 126.9,341 124.7,339.9 123.2,340.8 122.6,341 121.8,340.9 121,340.2 120.2,339.7 119.7,339.2 119.4,338.6 
	119.1,338.1 118.1,337.5 118.1,341.2 118.4,342.4 116.4,343.5 108.7,343.4 106.5,342.8 105.1,341.9 103.6,341.3 101.5,341.2 
	100.4,341.7 99.4,342.4 98.5,342.8 97.8,342.6 97.3,341.6 97,340.7 96.6,340.1 95.8,340.1 95.3,340.3 94.3,341 93.6,342.4 94,343.6 
	94.4,345.4 94.5,347.3 93.8,349 92.8,351 92.5,353.3 94,365.6 94.6,367.3 95.2,368.3 97.5,369 98.5,369.5 99.9,370.7 99.7,371.8 
	95.7,375.5 93,380.4 92.3,382.3 91.9,383.9 91.9,384.9 92.1,385.6 92.4,386.6 93.8,384.6 95.8,384 97.9,384.9 100,384.6 101.9,386 
	102.3,388.4 102.2,391.1 100.3,392.9 97.4,396.3 96.1,397.5 97.3,399.1 96.9,399.8 95.7,400 94.4,399.9 93.2,400.6 92,402 
	91.1,403.6 90.7,404.8 90.9,406.3 90.3,409.3 92,411.1 92,412.9 91.9,414.2 92.6,413.9 94.5,413 96.3,413.3 97.9,414 100.9,416.5 
	107,417 120.2,418.2 125.9,418.4 142.9,419.7 145.6,420.5 148.1,421.1 150.4,421.8 152.9,422.1 156.6,422.6 161.1,423.1 
	164.7,422.5 165.3,423.2 165.8,423.4 166.2,423.3 167.6,423.7 169,424 169.7,425.6 173.1,426.3 175.1,427.2 177.6,427.9 
	180.1,429.8 182.6,431 183.9,432.8 184.5,434.4 186.5,435.1 191.1,435.7 193.1,436.1 194.6,437.1 194.8,439.2 197.2,440.3 
	200.2,439.9 203.6,439.9 216.9,443.3 230.4,445.5 239.6,445.6 242.5,443.7 243.2,441.7 243.4,438.5 245.7,436.6 247.1,436.2 
	251.9,436.1 252.9,436.2 253.4,436.6 253.8,438.3 255.3,438.6 255.6,438.4 255.8,437.8 255.3,436.4 255.9,435.8 256.6,435.1 
	257.5,434.6 258.2,434.7 258.8,435 259.3,435.4 259.8,435.6 261.6,436.6 263.6,435.2 264.4,434.6 260.2,431.2 259.9,430.8 
	259.7,430.3 259.7,429.3 259.8,428.6 260.2,427.4 260.3,426.5 260.2,425.4 258.8,420.3 258.4,417.2 258.2,416.2 257.9,415.6 
	257.6,415.1 256.7,414.7 256,414.5 255.5,414.3 255.1,412.7 255,411.7 254.5,411.5 253.7,411.5 252,412 251.2,411.9 250.8,411.3 
	250.2,410.2 248.5,409.8 246.7,409.3 246.2,407.1 248,401.5 248.1,399.9 248.3,398.8 248.9,398 249.7,397.3 251,396.9 252.3,396.9 
	255.1,397.3 256.9,397.2 257.8,396.9 258.5,396.5 260.4,395.1 261.3,394.2 262.2,393.1 263.1,392.4 263.6,391.6 263.9,390.6 
	263.7,389.3 263.7,387.2 264.1,383.7 264.5,382.6 266.1,379.8 271.1,374.1 271.3,374 "/>
<polygon class="st0" points="134.4,321.9 134.3,321.7 134.3,321.7 123.5,323.4 120.3,323.5 117.4,322.9 116.3,322 116,320.8 
	115.9,320.2 115.5,320.4 113.2,322.2 112.5,323.3 113.8,331 115.8,333.3 116.6,336.3 117.5,337.3 118.1,337.5 119.1,338.1 
	119.4,338.6 119.7,339.2 120.2,339.7 121,340.2 121.8,340.9 122.6,341 123.2,340.8 124.7,339.9 126.9,341 129.7,343.2 130.9,342.6 
	131.8,340.7 133.1,335.8 133.7,334.7 134,333.8 134.1,332.8 134.1,330.3 134.3,326.4 "/>
<path class="st1" d="M537,304.4l0.6,0.8l1.9,0.1l1.1-0.7l0.6-0.2l0.3,0.6l0.4,0.2l2,0.1l0.7-0.1l1.3-0.5l0.9-0.9l0.5-1.3l0.1-1.6
	l-0.3-1.7l-0.7-1.1l-0.9-0.8l-1-0.7l-1.2,0.1l-1,0.4l-0.9,0.2l-0.8-0.3l-1.7,1.8l-0.2,0.4l-2,1.6l-0.5,0.6l0.8,1.6L537,304.4z
	 M619.7,402.5l0.1,0.3l2.1,0.9l1.2,0l0.7-0.6v-0.4l-1.7-0.3l-2.1-0.3L619.7,402.5z M681.2,507.7l-0.4-0.9l-0.6-0.8l-3.8-1.4
	l-1.8-1.2l-0.9-0.2l-1.4,0l-1.2-0.4l-1.1-1.1l-0.9-1.4l-0.5-1.4l0.1-4.7l-0.3-2.3l-1.3-1.3l0,3.2l-0.3,1.8l-0.9,0.8l-0.9-0.6
	l-0.2-1.5l-0.1-3.2l-0.8-1.6l-0.2-0.8l0.1-0.7l0.4-1.6l0.2-2.1l2.8-14.2l3-10.3l0-3.4l-0.1-0.5l-0.2-0.5l-0.2-0.6l0-0.8l0.3-0.8
	l0.9-1.3l0.2-0.5l0.5-3l0.1-1.6l-0.5-1.5l-1-1.1l-2.8-1.5l-1.3-1.1l-0.6-0.3l-0.8-0.1l-1.6,0.1l-0.9-0.1l-0.7-0.2l-1.1-0.7l-2.6-2.5
	l-1.1-0.4l-1.6,0.2l-2.9,0.8l-1.7,0l-2.3-0.9l-1.7-1.4l-2.8-3.6l-2.3-1.3l-2.1,0.4l-5.1,4.3l-1,0.4l-1.5,0.2l-1.7-0.2l-1.2-0.4
	l-1.1-0.1l-1.3,0.7l-1.5,1.7l-0.9,0.8l-1.3,0.3l-1.6-0.2l-2.9-1l-1.7-0.1l-0.6,0.2l-1.4,0.6l-0.9,0.2l-9.4-1.4l-1.7,0.2l-2.3,1.3
	l-1.1,0.3l-1.5,0.2l-1.6,0.5l-2.6,1.3l-2.5,1.7l-1.4,0.6l-1.7,0.2l-1-0.5l-1.7-2.2l-1.4-0.7l-0.8,0l-1.5,0.4l-0.6,0.1l-0.9-0.2
	l-1.6-0.7l-2.3-0.6l-1.5-1l-2.5-2.5l-1.4-1.1l-1.4-0.6l-1.5-0.2l-1.9,0l-1.3-0.3l-9.1-3.9l-6-4.4v-5.9l0.6-1.2l2.7-1.8l0.6-1.4
	l0-2.9l0.1-1.2l0.6-2.6l0-1.1l-0.2-1.1l-1.1-2l-0.8-1.1l-1-1l-1.2-0.4l-1.7,0.4l-1.1,1.1l-0.9,1.3l-1.1,1.1l-4-1.7l-1.8-1.1
	l-1.2-1.6l4.3,0.4l1.1-0.4l0.4-1.3l-0.7-1.5l-1.2-1.2l-1.2-0.5l-0.6-0.5l-0.7-1.1l-0.6-1.2l-0.3-0.8l0.5-0.6l1.2-0.5l2.3-0.6
	l-0.6-1.2l-1,0.1l-1.1,0.4l-0.8-0.3l-0.6-0.6l-1.6-2.4l-0.3-0.7l0.3-1.7l1.1-2.8l0.1-1.5l-0.2-0.6L537,379l-0.5-0.6l-0.5-0.4
	l-1.1-0.4l-0.4,0.1l0,0.5l0,0.9l-0.4,1.5l-1,0.7l-1.4,0l-1.6-0.5l-1.1-0.7l-1.1-1l-1.2-0.8l-1.4-0.3l-0.4,0.2l-0.5,0.4l-0.5,0.3
	l-1.1-0.4l-2.6-0.4l-1.7,0.2l-2.9,1l-1.5,0.2h-3l-0.8,0.1l-2.4,0.8l-3,0.4l-3.1,0.1l-1.6-0.3l-1.2-0.9l-4.2-5.3l-2.4-2.4l-1.3-0.4
	l-1.6,0.4l-2.3,1.2l-1.6,0.5l-1.2-0.1l-1.2-0.3l-3-0.3l-4.8-1.3l-1.7-0.8l-1.6-1.1l-1.6-1.5l-0.3,0.3l-2.8,4.5l-0.6,1.8l0,1.3
	l-1.3,6.4l-0.4,1.9l0.2,6.1l-0.3,2.5l0.1,0.8l0.7,3l0.1,0.8l-0.1,0.5l-1.2,0.7l-2.9,2.5l-1.1,1.3l-1,0.9l-2,1.5l-1.5,0.9l-0.6,0.4
	l-0.4,0.3l-0.4,0.4l-0.6,0.8l-0.2,0.5l0,0.9l-2.9-0.5l-4.5-1.6l-1.1-0.6l-0.9-0.6l-0.5-0.1l-0.6,0.1l-0.6,0.2l-0.8,0l-1-0.3
	l-1.3-0.6l-1.8-0.3l-1.2,1.1l-0.4,3l0,3.3l0.3,2.1l0,1.4l-1.2,8.8l0.9,3.8l0.6,1.3l0.8,0.9l-0.4,0.8l-1.8,1.4l-0.3,0.6l0,0.4
	l0.3,0.5l0.1,0.6l0,1.3l0.2,1.2l1.2,0.6l2.5,0.2l0.8,0.3l0.8,0.6l1.9,2l0.7,0.9l0.5,0.8l0.2,1l-0.2,2.8l-0.5,1.6l-1.2,3.1l-0.3,2.5
	l-0.5,0.4l-0.7,0.4l-0.7,0l-0.6-0.3l-0.6-0.4l-0.5-0.2l-0.8,0.1l-1.8,1.3l-1.1,0.6l-2,0.8l-3.6,2.2l-4.5,3.7l-2.6,1.7l-1.4,1.2
	l-1.1,1.2l-0.3,0.7l-0.1,0.6l0.1,1.6l0,0.6l0,0.4l-1,3.5l-0.1,0.5l0,0l3.9,1.7l1.4,0.3h2.9l0.6-0.2l0.4-0.4l0.7-1l0.3-0.6l0.3-0.7
	l0.3-0.5l0.5-0.1l0.5,0.6l0.1,1l0.3,0.9l0.9,0.4l0.8,0.1l0.7,0.3l0.5,0.5l0.2,0.8l0.3,0.7l0.7,0.1l5.9-1.8l0.3-0.4l0.6-0.3l0.7-0.1
	l0.6,0.2l0.8,0.7l0.4,0.2l0.8-0.1h3.7l0.7,0.2l0.8,0.6l0.5,0.2l0.7-0.1l1.3-0.4l0.5,0l1.2,0.5l0.1,0.6l-0.1,0.9l0.5,1.2l5,1.2
	l1.1-0.2l1.1-0.8l1,0.1l2.5,1.3l1.2,0.2l0.8-1h0.5l0.6,1.4l1.1,1.1l1.4,0.7l1.6,0.2l0.8-0.2l0.3-0.5l-0.1-0.5l-1-0.6l0.1-0.7
	l0.4-0.7l0.2-0.3l0.4-1.5l0.4-0.7l0.6-0.3l0.7,0.4l0.5,0.9l0.3,0.9l0.3,0.4l1.4-0.4l0.1-1.1l-0.1-1.4l0.7-1.4l0.8-0.3l0.7,0.2
	l0.7,0.4l0.8,0.3l0.8,0.1l1.9-0.1l1.1,0.4l1.7,1.6l1.4,0.5l0.6,0l0.3-0.2l0.3-0.3l1.8-1.2l0.7,0l2.3,1.4l1.6,0.5l13.2,1.3l1.3,0.4
	l0.4,0.3l0.3,0.3l0.5,0.3l1,0.1l1.9-0.8l0.8-0.2l1.5-0.1l1.8,0.3l1.8,0.7l1.3,1.1l-0.2,0.3l-0.3,0.7l1.6,0l1.1,0.5l0.9,0.6l1.1,0.3
	h5.6l3.8,1.3l2.8,0.5l3.2,1.4l1.2,0.8l1.3-1.2l0.8-0.5l1.1-0.2l1.2-0.1l1.1-0.3l0.5-0.3l1-0.9l1.1-0.6l0.4,0.1l0.7,0.5l0.6,0.3
	l0.7-0.2l0.6-0.5l0.2-0.6l0.3-0.4l1.7,1.2l0.9-0.1l2.3,0.9l2.4-1.6l3.6-4.1l2.8-1.5l3.1-0.8l9.2-1.1l3.1,0.3l3,0.8l3,1.2l1.6,1.1
	l3.5,4.1l1.3,0.6l1.1-0.4l1.2-0.6l1.5,0.1l0.4,0.3l0.5,0.9l0.4,0.5l0.5,0.5l2.6,1.5l1,0.1l2.3-0.3l0.4,0.2l0.8,0.9l0.5,0.4l2.2,0.4
	l0.9,0.4l1.3,1.9l1,0.7l1.2,0.1l0.7-0.2l0.6-0.1l0.9,0.6l0.1,0.5l-0.2,1.2l0.3,0.3l1.3,0.1l0.6-0.1l0.3-0.2l0.4-0.7l1-0.6l1.2-0.4
	l1.1-0.1l0.5,0.5l0.4,2.4l0.3,1l0.2-0.4l0.2-0.2l0.3-0.2l0.4-0.3l1.2,0.9l1.9,0.8l1.9,0.6l1.2,0.2l0.8-0.2l1.5-0.7l0.7-0.2l0.7,0.4
	l-0.1,0.9l-0.3,1l-0.1,0.8l0.9,1.2l1.1-0.1l1.3-0.6l1.4-0.4l0.7,0.3l0.7,1.3l0.6,0.3l2.6,0.5l0.7,0l3.2-1.1l1.9-0.2l0.8,1.1l0.8,0.8
	l1.7-0.7l2.9-1.8l2.9,0.1l3.4,1.5l2.6,2.3l0.5,2.5l-1.6,1.9l-0.2,1.1l1.6,0.5l4-0.3l1.6,0.3l6.3,2.1l3-0.2l2-2.5l0.1-1.8l-0.7-1.1
	L681.2,507.7z M595.2,490.9l-0.8-0.4l-4-0.2l-3.6-0.8l0.2,0.5l0.3,0.5l-1,0.7l-0.3,1.2l0.3,1.1l0.8,0.5l5.7,0l1.8-0.5l0.9-0.1
	l0.3-0.4l-0.1-1L595.2,490.9z M632.4,400.2l-0.6-0.3l-1.5,0.5l-0.9,0.9l0.1,0.9l0.9,0.2l1.9-0.5l0.5,0.3l0.3,0.4l0.7,0.7l0.5,0.2
	l-0.7-1L632.4,400.2z M650,387.6l0.5,0.1l0.2-0.2l0.2-1.3l0-1l-0.9-0.5l-0.8,1.9l0.1,0.9L650,387.6z M674.5,398.6l1.5-0.1l6.2,0.6
	l0.3-0.3l0.1-1.1l-0.2-0.8l-0.5-0.4l-0.7-0.1l-0.8,0l-0.9-0.2l-1.6-0.7l-0.6-0.2l-0.6,0.1l-2.6,1.1l-0.4,0.2l-0.2,0.4l-0.1,0.8
	l0.3,0.3L674.5,398.6z M641.8,395.3l0.3-0.8l-0.6-1.3l-1-0.6l-5.4-0.6l-0.7-0.3l-0.2-0.2l-0.6,0.3l-0.5,0.8l0.5,0.8l0.6,0.5l3.1,1.1
	L641.8,395.3z M545.5,389.5l-0.9,0.1l-0.5,0.4l-0.1,1.4l0.2,1.3l0.5,1.1l0.6,0.4l0.7-1l0.5,0.5l-0.6,1l-0.1,1l0.2,2.2l0.5,0.8
	l1.2,0.2l2.6-0.2l2.9,0.2l22.2,5l1.2-0.3l0.3-0.9l-1-0.9l-1.4-0.9l-0.9-0.8l0.5-0.5l0-1.4l0.3-0.7l0.6-0.1l1.7,0.7l0.9,0.1v0.5
	l-0.9,0.5l0,0.4l0.5,0.4l0.4,0.6l0.5,2.5l1.5,0.2l3.4-1.1l1.2,0.1l1.3,0.6l11,0.7l3.6-0.3l1.6,0.6l0.9,0.7l0.5,0.5l1.5-0.5l1.1-0.5
	l0.8-1.5l0.5-1.3l0.3-0.8l0.5-1l0.4-1.1l0.8-1l1.2-0.7l2.5,0.1l1.4-1.5l1.5,0.2l1.4,0.1l5.1,0.8l4,0.5l2.9-0.2l1.6-0.6l0-0.8
	l-0.6-0.7l-1.1-0.3l1.5-2.6l1.3-0.8l1.8,0.1l1.4-0.4l1.8-1.7l5-0.7l3.3-2l2-0.1l-1.1-2.5l-1.2-1l-2-0.7l-1.4-0.6l-1.3-1.1l-1.3-0.9
	l-1.4-0.6l-1.6-0.5l-3.2-0.4l-9.4,1.3l-8.7-0.2l-10.5,1.2l-5.8-1l-12.4,0.8l-9.1,0.1l-5.6-0.9l-6.2,0.7l-2.7,0l-2.1,0.1l-3,0.4
	l-2.2,0.8l0.1,1.2l-3.7,4.2L549,388l-2.1,1.2L545.5,389.5z M658.3,396.2l0.6,1.2l1,0.4l1.3-0.1l0.5,0.8l1.8,0.6l1.5,0.8l1,0.1
	l0.2-1.5l0.2-1.9l-1-1.3l-1-1.7l-0.8-1.5l-1.1-1l-1.5-0.4l-2,0.3l-1.8,1.9l0.3,1.5L658.3,396.2z M774.3,384.6l1.7,0l-2.4-0.8
	L774.3,384.6z M773.6,394.8l-0.1,0.5l-0.1,0.9l-0.1,0.2l-0.2-0.4l-0.4,0l-0.6,0.4l-0.2,0.6l0.2,0.7l0.4,0.5l0.4,0l0.2,0l-0.3,0.4
	l-0.7,0.1l-2-0.2l-1.4-0.6l-1.1,0l-0.5-0.2l-0.4-0.6l-0.3-0.9l-0.4-0.7l-0.6,0l-0.6,1.9l-0.3,0.1l-0.3-0.3l-0.7,0.1l-0.7,0.7l1,1.4
	l2.8,1.4l3,0.5l2.7-0.8l1.3-1.5l0.1-2.8l-0.1-1L773.6,394.8z M799.7,382.5l-1.2,0.3l-0.5,0.4l1.1,0.6l0.7-0.4l0.3-0.2L799.7,382.5z
	 M757.6,386.7l-0.6-0.5l-5.3-3l-0.7-0.1l-0.5,0.2l-0.2,0.3l0,0.7l-0.3,0.1l-0.2,0.2l0.3,0.6l1.3,0.7l0.4,0.6l2.1,0.9l1.2,0l0.2-0.2
	l0.5-0.1l1.9,0.8l0.5-0.2l-0.1-0.5L757.6,386.7z M692.3,396.3l0.1,0.2l-0.1,0.1l0.7,0.6l0.2-0.1l0.5-0.3l0.1-0.5l0-0.7l-0.8,0.3
	L692.3,396.3z M743.2,386.7l0-0.7l-0.1-0.6l-0.3-0.1l-0.1,0.4l-0.6-0.1l-0.7,0.2l-0.6,0l-0.6,0.7l1.3,1.1l1.5,0.3l0.6,0l0.4-0.3
	l-0.3-0.1L743.2,386.7z M747.8,387l0.2-0.4l0.4-0.1l-0.1-0.5l-0.5,0.1l-0.4,0.2l-0.4,0.4l-0.5,0.2l-0.7,0.8l0,0.6l1.6,1.2l0.1-0.5
	l0.6-0.1l0.6-0.3l-0.1-0.8L747.8,387z M753.8,390.2l-1.1-0.2l-0.7-0.1l0.3,0.7l-0.1,0.2l0,0.2l0.4-0.1l0.7,0.1l-0.1,0.6l1.3,0.4
	l0.2-1.2l-0.3-1.1L753.8,390.2z M750.6,380.4l-1.2-1.1l-5-2.7l-1.6-0.6l-5.9-0.6l-6.1,0.1l-1.4,0l-1.5,0.2l-0.8,0.6l0.8,1.2l-1,1.3
	l-1,0.8l-0.7,0.9l-0.3,1.7l0.5,0.8l1.2,0.2l2.7-0.3l-0.8,2.7l0,0.5l1.5,1.4l0.3,0.1l0.2,0.3l0.4,0l0.5-0.2l0.3-0.2l0.1-0.4l-0.6-0.7
	l0-0.4l-0.1,0.1l-0.1-0.2l0-0.4l0.2-0.4l1-1l2.7,2.1l1.6,0.4l1.6-1l-0.3-0.5l-0.4-0.3l-0.9-0.6l-0.8-0.3l-0.8-0.2l-0.6-0.3l-0.2-0.9
	l0.4,0l2.3-1.2l0.9,0.1l0.4,0.3l0.3,0.3l0.6,0.2h0.4l0.5-0.4l0.6-0.1l0.4-0.5l0.4-0.1l0.5,0.3l0.3,0.2l0.9,0.5l1.2,0.2l1.4,0.7
	l0.7,0.2l3.2,0.1l1.1-0.7L750.6,380.4z"/>
<g>
	<g>
		<g class="st2">
			<g>
				<polygon class="st3" points="269.8,372.4 273.3,375.9 268.2,381.6 264.7,378.1 				"/>
			</g>
			<g>
				<polygon class="st4" points="270.3,372.9 273.8,376.4 273.3,375.9 269.8,372.4 				"/>
			</g>
			<g>
				<polygon class="st5" points="248.3,395.7 251.7,399.2 250.9,399.8 247.4,396.3 				"/>
			</g>
			<g>
				<polygon class="st6" points="264.7,378.1 268.2,381.6 266.6,384.4 263.1,380.9 				"/>
			</g>
			<g>
				<polygon class="st7" points="247.4,396.3 250.9,399.8 250.4,400.6 246.9,397.1 				"/>
			</g>
			<g>
				<polygon class="st8" points="270.3,372.9 273.8,376.4 274.3,377.3 270.9,373.8 				"/>
			</g>
			<g>
				<polygon class="st9" points="270.5,372.7 273.9,376.2 274.6,377.1 271.1,373.6 				"/>
			</g>
			<g>
				<polygon class="st10" points="263.1,380.9 266.6,384.4 266.2,385.5 262.8,382 				"/>
			</g>
			<g>
				<polygon class="st4" points="249.5,395.3 253,398.8 251.7,399.2 248.3,395.7 				"/>
			</g>
			<g>
				<polygon class="st11" points="246.9,397.1 250.4,400.6 250.2,401.7 246.7,398.2 				"/>
			</g>
			<g>
				<polygon class="st4" points="250.8,395.2 254.3,398.7 253,398.8 249.5,395.3 				"/>
			</g>
			<g>
				<polygon class="st4" points="271.7,374.5 275.2,378 274.4,377.3 270.9,373.8 				"/>
			</g>
			<g>
				<polygon class="st12" points="246.7,398.2 250.2,401.7 250,403.3 246.5,399.8 				"/>
			</g>
			<g>
				<polygon class="st13" points="262.8,382 266.2,385.5 265.8,389 262.3,385.5 				"/>
			</g>
			<g>
				<polygon class="st4" points="273.3,374.9 276.8,378.4 275.2,378 271.7,374.5 				"/>
			</g>
			<g>
				<polygon class="st14" points="277.5,370.6 281,374.1 280.4,375.2 276.9,371.7 				"/>
			</g>
			<g>
				<polygon class="st4" points="253.5,395.6 257,399.1 254.3,398.7 250.8,395.2 				"/>
			</g>
			<g>
				<polygon class="st4" points="278.8,370.6 282.3,374.1 281,374.1 277.5,370.6 				"/>
			</g>
			<g>
				<polygon class="st4" points="275.1,374.8 278.6,378.3 276.8,378.4 273.3,374.9 				"/>
			</g>
			<g>
				<polygon class="st15" points="262.3,385.5 265.8,389 265.8,391 262.3,387.6 				"/>
			</g>
			<g>
				<polygon class="st12" points="276.9,371.7 280.4,375.2 280.2,376.7 276.8,373.2 				"/>
			</g>
			<g>
				<polygon class="st10" points="246.5,399.8 250,403.3 248.3,408.8 244.8,405.3 				"/>
			</g>
			<g>
				<polygon class="st16" points="276.8,373.2 280.2,376.7 279.7,377.8 276.2,374.3 				"/>
			</g>
			<g>
				<polygon class="st4" points="276.2,374.3 279.7,377.8 278.6,378.3 275.1,374.8 				"/>
			</g>
			<g>
				<polygon class="st4" points="255.4,395.5 258.9,399 257,399.1 253.5,395.6 				"/>
			</g>
			<g>
				<polygon class="st4" points="280.2,371.1 283.7,374.5 282.3,374.1 278.8,370.6 				"/>
			</g>
			<g>
				<polygon class="st17" points="262.3,387.6 265.8,391 266,392.3 262.5,388.8 				"/>
			</g>
			<g>
				<polygon class="st4" points="256.3,395.2 259.7,398.7 258.9,399 255.4,395.5 				"/>
			</g>
			<g>
				<polygon class="st4" points="257,394.8 260.5,398.3 259.7,398.7 256.3,395.2 				"/>
			</g>
			<g>
				<polygon class="st10" points="262.5,388.8 266,392.3 265.7,393.3 262.2,389.8 				"/>
			</g>
			<g>
				<polygon class="st7" points="262.2,389.8 265.7,393.3 265.1,394.2 261.6,390.7 				"/>
			</g>
			<g>
				<polygon class="st18" points="261.6,390.7 265.1,394.2 264.3,395 260.8,391.5 				"/>
			</g>
			<g>
				<polygon class="st4" points="258.9,393.5 262.4,396.9 260.5,398.3 257,394.8 				"/>
			</g>
			<g>
				<polygon class="st19" points="260.8,391.5 264.3,395 263.4,396 259.9,392.5 				"/>
			</g>
			<g>
				<polygon class="st20" points="259.9,392.5 263.4,396 262.4,396.9 258.9,393.5 				"/>
			</g>
			<g>
				<polygon class="st4" points="281.1,371.5 284.5,375 283.7,374.5 280.2,371.1 				"/>
			</g>
			<g>
				<polygon class="st21" points="244.8,405.3 248.3,408.8 248.7,410.9 245.2,407.4 				"/>
			</g>
			<g>
				<polygon class="st22" points="247,407.9 250.5,411.4 248.7,410.9 245.2,407.4 				"/>
			</g>
			<g>
				<polygon class="st4" points="246.9,408.1 250.4,411.6 248.6,411.1 245.1,407.6 				"/>
			</g>
			<g>
				<polygon class="st22" points="248.8,408.4 252.2,411.8 250.5,411.4 247,407.9 				"/>
			</g>
			<g>
				<polygon class="st4" points="248.6,408.5 252,412 250.4,411.6 246.9,408.1 				"/>
			</g>
			<g>
				<polygon class="st4" points="283.9,373.6 287.3,377.1 284.5,375 281.1,371.5 				"/>
			</g>
			<g>
				<polygon class="st23" points="248.7,408.3 252.2,411.8 252.8,412.9 249.3,409.5 				"/>
			</g>
			<g>
				<polygon class="st4" points="285.5,374.1 289,377.6 287.3,377.1 283.9,373.6 				"/>
			</g>
			<g>
				<polygon class="st9" points="249.3,409.5 252.8,412.9 253.2,413.4 249.7,409.9 				"/>
			</g>
			<g>
				<polygon class="st22" points="250.3,410.1 253.8,413.6 253.2,413.4 249.7,409.9 				"/>
			</g>
			<g>
				<polygon class="st4" points="250.4,410.3 253.9,413.8 253.1,413.7 249.6,410.2 				"/>
			</g>
			<g>
				<polygon class="st22" points="252.1,409.5 255.5,413 253.8,413.6 250.3,410.1 				"/>
			</g>
			<g>
				<polygon class="st4" points="252.1,409.8 255.6,413.3 253.9,413.8 250.4,410.3 				"/>
			</g>
			<g>
				<polygon class="st22" points="255.5,413 252.1,409.5 253,409.8 256.5,413.3 				"/>
			</g>
			<g>
				<polygon class="st23" points="252.9,409.5 256.4,413 257.1,414.3 253.6,410.9 				"/>
			</g>
			<g>
				<polygon class="st4" points="253.2,410 256.7,413.5 255.6,413.3 252.1,409.8 				"/>
			</g>
			<g>
				<polygon class="st22" points="253.5,409.9 256.9,413.4 256.5,413.3 253,409.8 				"/>
			</g>
			<g>
				<polygon class="st4" points="288.1,375.4 291.5,378.9 289,377.6 285.5,374.1 				"/>
			</g>
			<g>
				<polygon class="st4" points="289.9,375.4 293.4,378.9 291.5,378.9 288.1,375.4 				"/>
			</g>
			<g>
				<polygon class="st21" points="253.6,410.9 257.1,414.3 257.4,415.8 254,412.3 				"/>
			</g>
			<g>
				<polygon class="st4" points="254.3,412.8 257.8,416.3 257.3,416 253.8,412.6 				"/>
			</g>
			<g>
				<polygon class="st22" points="255.2,412.8 258.6,416.3 257.9,416.1 254.4,412.6 				"/>
			</g>
			<g>
				<polygon class="st4" points="255.1,413 258.5,416.5 257.8,416.3 254.3,412.8 				"/>
			</g>
			<g>
				<polygon class="st22" points="256,413.2 259.5,416.7 258.6,416.3 255.2,412.8 				"/>
			</g>
			<g>
				<polygon class="st4" points="256.2,413.8 259.7,417.3 258.5,416.5 255.1,413 				"/>
			</g>
			<g>
				<polygon class="st9" points="256,413.1 259.5,416.6 259.9,417.2 256.4,413.7 				"/>
			</g>
			<g>
				<polygon class="st9" points="256.4,413.7 259.9,417.2 260.1,417.8 256.6,414.3 				"/>
			</g>
			<g>
				<polygon class="st24" points="256.6,414.3 260.1,417.8 260.4,418.9 256.9,415.4 				"/>
			</g>
			<g>
				<polygon class="st25" points="256.9,415.4 260.4,418.9 260.7,421.9 257.2,418.4 				"/>
			</g>
			<g>
				<polygon class="st4" points="302.5,376.8 306,380.2 293.4,378.9 289.9,375.4 				"/>
			</g>
			<g>
				<polygon class="st24" points="257.2,418.4 260.7,421.9 262.1,427.1 258.6,423.6 				"/>
			</g>
			<g>
				<polygon class="st26" points="258.6,423.6 262.1,427.1 262.2,428.2 258.7,424.7 				"/>
			</g>
			<g>
				<polygon class="st27" points="258.7,424.7 262.2,428.2 262.1,429 258.6,425.6 				"/>
			</g>
			<g>
				<polygon class="st3" points="312.6,371.5 316.1,375 312.2,379.1 308.8,375.6 				"/>
			</g>
			<g>
				<polygon class="st4" points="308.8,375.6 312.2,379.1 306,380.2 302.5,376.8 				"/>
			</g>
			<g>
				<polygon class="st28" points="258.6,425.6 262.1,429 261.7,430.3 258.2,426.8 				"/>
			</g>
			<g>
				<polygon class="st29" points="258.2,426.8 261.7,430.3 261.6,431 258.1,427.5 				"/>
			</g>
			<g>
				<polygon class="st30" points="258.1,427.5 261.6,431 261.5,431.9 258.1,428.4 				"/>
			</g>
			<g>
				<polygon class="st4" points="315.4,373.9 318.9,377.4 316.1,375 312.6,371.5 				"/>
			</g>
			<g>
				<polygon class="st31" points="264.6,430.2 268.1,433.7 267.5,434.2 264.1,430.7 				"/>
			</g>
			<g>
				<polygon class="st20" points="264.7,430.4 268.2,433.9 267.7,434.4 264.3,430.9 				"/>
			</g>
			<g>
				<polygon class="st22" points="262.6,432.6 266.1,436 262.1,432.8 258.6,429.3 				"/>
			</g>
			<g>
				<polygon class="st32" points="264.1,430.7 267.5,434.2 266.6,435.7 263.1,432.2 				"/>
			</g>
			<g>
				<polygon class="st33" points="263.1,432.2 266.6,435.7 266.1,436 262.6,432.6 				"/>
			</g>
			<g>
				<polygon class="st4" points="262.7,432.8 266.2,436.3 261.9,433 258.4,429.5 				"/>
			</g>
			<g>
				<polygon class="st5" points="263.3,432.3 266.8,435.8 266.2,436.3 262.7,432.8 				"/>
			</g>
			<g>
				<polygon class="st7" points="264.3,430.9 267.7,434.4 266.8,435.8 263.3,432.3 				"/>
			</g>
			<g>
				<polygon class="st22" points="266.9,429 270.3,432.5 268.1,433.7 264.6,430.2 				"/>
			</g>
			<g>
				<polygon class="st4" points="266.9,429.2 270.4,432.7 268.2,433.9 264.7,430.4 				"/>
			</g>
			<g>
				<polygon class="st22" points="268.1,428.8 271.5,432.3 270.3,432.5 266.9,429 				"/>
			</g>
			<g>
				<polygon class="st4" points="267.9,429 271.3,432.5 270.4,432.7 266.9,429.2 				"/>
			</g>
			<g>
				<polygon class="st7" points="263.2,434.3 266.7,437.8 266,438.9 262.6,435.4 				"/>
			</g>
			<g>
				<polygon class="st4" points="264.2,433.9 267.7,437.3 266.7,437.8 263.2,434.3 				"/>
			</g>
			<g>
				<polygon class="st34" points="262.6,435.4 266,438.9 265.8,440.1 262.4,436.6 				"/>
			</g>
			<g>
				<polygon class="st23" points="267.9,428.8 271.4,432.2 272.1,433.9 268.6,430.4 				"/>
			</g>
			<g>
				<polygon class="st23" points="262.4,436.6 265.8,440.1 266.2,441 262.8,437.5 				"/>
			</g>
			<g>
				<polygon class="st4" points="262.6,437.8 266.1,441.2 266,441.2 262.5,437.7 				"/>
			</g>
			<g>
				<polygon class="st22" points="263.8,437.8 267.2,441.3 266.2,441 262.8,437.5 				"/>
			</g>
			<g>
				<polygon class="st4" points="263.7,438 267.2,441.5 266.1,441.2 262.6,437.8 				"/>
			</g>
			<g>
				<polygon class="st4" points="263.8,438 267.2,441.5 267.2,441.5 263.7,438 				"/>
			</g>
			<g>
				<polygon class="st21" points="268.6,430.4 272.1,433.9 272.7,437.1 269.2,433.6 				"/>
			</g>
			<g>
				<polygon class="st4" points="267.9,435.6 271.4,439.1 267.7,437.3 264.2,433.9 				"/>
			</g>
			<g>
				<polygon class="st22" points="266.8,437.4 270.2,440.9 267.2,441.3 263.8,437.8 				"/>
			</g>
			<g>
				<polygon class="st22" points="266.8,437.4 270.3,440.9 270.2,440.9 266.8,437.4 				"/>
			</g>
			<g>
				<polygon class="st22" points="270,434.4 273.5,437.9 272.7,437.1 269.2,433.6 				"/>
			</g>
			<g>
				<polygon class="st4" points="266.8,437.6 270.2,441.1 267.2,441.5 263.8,438 				"/>
			</g>
			<g>
				<polygon class="st4" points="269.9,434.6 273.4,438.1 272.5,437.3 269,433.8 				"/>
			</g>
			<g>
				<polygon class="st4" points="329.2,375.9 332.7,379.3 318.9,377.4 315.4,373.9 				"/>
			</g>
			<g>
				<polygon class="st22" points="267.9,437.8 271.4,441.3 270.3,440.9 266.8,437.4 				"/>
			</g>
			<g>
				<polygon class="st4" points="267.8,438 271.3,441.5 270.2,441.1 266.8,437.6 				"/>
			</g>
			<g>
				<polygon class="st22" points="271.2,434.8 274.7,438.3 273.5,437.9 270,434.4 				"/>
			</g>
			<g>
				<polygon class="st4" points="271.1,435.1 274.6,438.6 273.4,438.1 269.9,434.6 				"/>
			</g>
			<g>
				<polygon class="st22" points="268.9,438.2 272.3,441.7 271.4,441.3 267.9,437.8 				"/>
			</g>
			<g>
				<polygon class="st4" points="268.8,438.5 272.3,442 271.3,441.5 267.8,438 				"/>
			</g>
			<g>
				<polygon class="st4" points="271.6,436.1 275.1,439.6 271.4,439.1 267.9,435.6 				"/>
			</g>
			<g>
				<polygon class="st22" points="272.6,435.1 276.1,438.6 274.7,438.3 271.2,434.8 				"/>
			</g>
			<g>
				<polygon class="st4" points="272.6,435.3 276.1,438.8 274.6,438.6 271.1,435.1 				"/>
			</g>
			<g>
				<polygon class="st22" points="274.3,435.1 277.7,438.6 276.1,438.6 272.6,435.1 				"/>
			</g>
			<g>
				<polygon class="st4" points="274.2,435.4 277.7,438.9 276.1,438.8 272.6,435.3 				"/>
			</g>
			<g>
				<polygon class="st22" points="275.2,435.3 278.6,438.8 277.7,438.6 274.3,435.1 				"/>
			</g>
			<g>
				<polygon class="st4" points="275.1,435.5 278.5,439 277.7,438.9 274.2,435.4 				"/>
			</g>
			<g>
				<polygon class="st4" points="273.9,436.8 277.4,440.3 275.1,439.6 271.6,436.1 				"/>
			</g>
			<g>
				<polygon class="st22" points="275.9,435.6 279.4,439.1 278.6,438.8 275.2,435.3 				"/>
			</g>
			<g>
				<polygon class="st4" points="275.8,435.9 279.2,439.3 278.5,439 275.1,435.5 				"/>
			</g>
			<g>
				<polygon class="st22" points="273.1,439 276.5,442.5 272.3,441.7 268.9,438.2 				"/>
			</g>
			<g>
				<polygon class="st4" points="273,439.2 276.5,442.7 272.3,442 268.8,438.5 				"/>
			</g>
			<g>
				<polygon class="st22" points="278.4,437.4 281.9,440.9 279.4,439.1 275.9,435.6 				"/>
			</g>
			<g>
				<polygon class="st31" points="279.3,436.6 282.7,440.1 281.9,440.9 278.4,437.4 				"/>
			</g>
			<g>
				<polygon class="st35" points="280.3,435.2 283.8,438.7 282.7,440.1 279.3,436.6 				"/>
			</g>
			<g>
				<polygon class="st36" points="280.4,435.5 283.9,439 282.9,440.2 279.4,436.7 				"/>
			</g>
			<g>
				<polygon class="st20" points="279.4,436.7 282.9,440.2 282.1,441.1 278.6,437.6 				"/>
			</g>
			<g>
				<polygon class="st4" points="278.6,437.6 282.1,441.1 279.2,439.3 275.8,435.9 				"/>
			</g>
			<g>
				<polygon class="st4" points="277.7,438.9 281.2,442.4 277.4,440.3 273.9,436.8 				"/>
			</g>
			<g>
				<polygon class="st22" points="276.9,440.3 280.4,443.8 276.5,442.5 273.1,439 				"/>
			</g>
			<g>
				<polygon class="st4" points="276.9,440.5 280.4,444 276.5,442.7 273,439.2 				"/>
			</g>
			<g>
				<polygon class="st4" points="278.3,439.5 281.7,442.9 281.2,442.4 277.7,438.9 				"/>
			</g>
			<g>
				<polygon class="st22" points="284,434.2 287.5,437.7 283.8,438.7 280.3,435.2 				"/>
			</g>
			<g>
				<polygon class="st4" points="278.6,439.8 282.1,443.2 281.7,442.9 278.3,439.5 				"/>
			</g>
			<g>
				<polygon class="st4" points="284,434.4 287.5,437.9 283.9,439 280.4,435.5 				"/>
			</g>
			<g>
				<polygon class="st4" points="278.7,439.8 282.2,443.3 282.1,443.2 278.6,439.8 				"/>
			</g>
			<g>
				<polygon class="st22" points="278.9,440.6 282.4,444.1 280.4,443.8 276.9,440.3 				"/>
			</g>
			<g>
				<polygon class="st4" points="278.8,440.9 282.3,444.4 280.4,444 276.9,440.5 				"/>
			</g>
			<g>
				<polygon class="st4" points="280,439.7 283.4,443.2 282.2,443.3 278.7,439.8 				"/>
			</g>
			<g>
				<polygon class="st8" points="280,439.7 283.4,443.2 283.6,443.6 280.2,440.1 				"/>
			</g>
			<g>
				<polygon class="st22" points="279.5,440.8 283,444.3 282.4,444.1 278.9,440.6 				"/>
			</g>
			<g>
				<polygon class="st23" points="280.1,439.5 283.6,443 283.9,443.5 280.4,440 				"/>
			</g>
			<g>
				<polygon class="st21" points="280.4,440 283.9,443.5 283.9,443.6 280.4,440.1 				"/>
			</g>
			<g>
				<polygon class="st4" points="279.5,441.1 283,444.6 282.3,444.4 278.8,440.9 				"/>
			</g>
			<g>
				<polygon class="st4" points="279.6,441.1 283,444.6 283,444.6 279.5,441.1 				"/>
			</g>
			<g>
				<polygon class="st37" points="278.7,439.8 280,439.7 280.2,440.1 280,440.7 279.5,440.8 278.9,440.6 276.9,440.3 273.1,439 
					268.9,438.2 267.9,437.8 266.8,437.4 266.8,437.4 263.8,437.8 262.8,437.5 262.4,436.6 262.6,435.4 263.2,434.3 264.2,433.9 
					267.9,435.6 271.6,436.1 273.9,436.8 277.7,438.9 278.3,439.5 278.6,439.8 				"/>
			</g>
			<g>
				<polygon class="st38" points="280.2,440.1 283.6,443.6 283.4,444.2 280,440.7 				"/>
			</g>
			<g>
				<polygon class="st22" points="280,440.7 283.4,444.2 283,444.3 279.5,440.8 				"/>
			</g>
			<g>
				<polygon class="st4" points="280.1,441 283.6,444.5 283,444.6 279.6,441.1 				"/>
			</g>
			<g>
				<polygon class="st18" points="280.2,440.9 283.7,444.4 283.6,444.5 280.1,441 				"/>
			</g>
			<g>
				<path class="st39" d="M280.1,439.5l0.3,0.5l0,0.1l-0.3,0.8l-0.1,0.1l-0.5,0.1h-0.1l-0.7-0.2l-1.9-0.3l-3.9-1.3l-4.2-0.7l-1-0.5
					l-1.1-0.4l-3,0.4h0l-1.1-0.3l-0.1-0.1l-0.4-1l0-0.1l0.2-1.3l0,0l0.7-1.1l0,0l1.1-0.5h0.1l3.7,1.7l3.6,0.5l2.4,0.7l3.8,2.2
					l0.6,0.6l0.3,0.3l1.3-0.1L280.1,439.5z M280,440.7l0.2-0.7l-0.2-0.4l-1.3,0.1l-0.1,0l-0.3-0.3l-0.6-0.5l-3.8-2.1l-2.3-0.7
					l-3.7-0.5l-3.7-1.7l-1,0.5l-0.7,1l-0.2,1.2l0.4,0.9l1,0.3l3-0.4h0.1l1.1,0.4l0.9,0.5l4.2,0.7l3.9,1.3l1.9,0.3l0.7,0.2L280,440.7
					"/>
			</g>
			<g>
				<polygon class="st28" points="280.4,440.1 283.9,443.6 283.7,444.4 280.2,440.9 				"/>
			</g>
			<g>
				<polygon class="st4" points="341.5,379.8 344.9,383.3 332.7,379.3 329.2,375.9 				"/>
			</g>
			<g>
				<polygon class="st4" points="344.6,380.1 348.1,383.6 344.9,383.3 341.5,379.8 				"/>
			</g>
			<g>
				<polygon class="st22" points="291.1,434.8 294.6,438.3 287.5,437.7 284,434.2 				"/>
			</g>
			<g>
				<polygon class="st4" points="291.1,435.1 294.6,438.6 287.5,437.9 284,434.4 				"/>
			</g>
			<g>
				<polygon class="st4" points="347.8,380.1 351.2,383.6 348.1,383.6 344.6,380.1 				"/>
			</g>
			<g>
				<polygon class="st4" points="357.1,378.8 360.6,382.2 351.2,383.6 347.8,380.1 				"/>
			</g>
			<g>
				<polygon class="st20" points="361.6,375.4 365.1,378.9 363.4,380.6 360,377.1 				"/>
			</g>
			<g>
				<polygon class="st3" points="360,377.1 363.4,380.6 362.4,381.7 358.9,378.2 				"/>
			</g>
			<g>
				<polygon class="st4" points="358.9,378.2 362.4,381.7 360.6,382.2 357.1,378.8 				"/>
			</g>
			<g>
				<polygon class="st4" points="362.3,375.6 365.8,379.1 365.1,378.9 361.6,375.4 				"/>
			</g>
			<g>
				<polygon class="st8" points="362.3,375.6 365.8,379.1 366,379.7 362.5,376.2 				"/>
			</g>
			<g>
				<polygon class="st23" points="362.4,375.4 365.9,378.9 366.3,379.7 362.8,376.2 				"/>
			</g>
			<g>
				<polygon class="st22" points="303.4,436.1 306.9,439.6 294.6,438.3 291.1,434.8 				"/>
			</g>
			<g>
				<polygon class="st40" points="362.5,376.2 366,379.7 366.1,380.5 362.6,377 				"/>
			</g>
			<g>
				<polygon class="st4" points="303.4,436.3 306.9,439.8 294.6,438.6 291.1,435.1 				"/>
			</g>
			<g>
				<polygon class="st17" points="362.8,376.2 366.3,379.7 366.4,380.5 362.9,377 				"/>
			</g>
			<g>
				<polygon class="st8" points="362.6,377 366.1,380.5 366.5,381.2 363,377.8 				"/>
			</g>
			<g>
				<polygon class="st23" points="362.9,377 366.4,380.5 366.7,381.1 363.2,377.6 				"/>
			</g>
			<g>
				<polygon class="st4" points="364.1,378.5 367.6,382 366.5,381.3 363,377.8 				"/>
			</g>
			<g>
				<polygon class="st22" points="306.9,439.6 303.4,436.1 305.5,437.2 309,440.7 				"/>
			</g>
			<g>
				<polygon class="st15" points="305.5,436.7 309,440.2 309,441.7 305.6,438.3 				"/>
			</g>
			<g>
				<polygon class="st22" points="306.1,437.5 309.5,441 309,440.7 305.5,437.2 				"/>
			</g>
			<g>
				<polygon class="st4" points="305.8,437.4 309.3,440.9 306.9,439.8 303.4,436.3 				"/>
			</g>
			<g>
				<polygon class="st4" points="367.4,380 370.9,383.5 367.6,382 364.1,378.5 				"/>
			</g>
			<g>
				<polygon class="st21" points="305.6,438.3 309,441.7 311,443.9 307.6,440.4 				"/>
			</g>
			<g>
				<polygon class="st4" points="307.5,440.6 311,444.1 310.2,443.4 306.8,439.9 				"/>
			</g>
			<g>
				<polygon class="st4" points="398.7,349.8 402.1,353.3 400.8,353.5 397.3,350 				"/>
			</g>
			<g>
				<polygon class="st5" points="401.4,347 404.9,350.5 404.1,351.1 400.6,347.6 				"/>
			</g>
			<g>
				<polygon class="st41" points="400.6,347.6 404.1,351.1 402.9,352.7 399.4,349.2 				"/>
			</g>
			<g>
				<polygon class="st4" points="399.4,349.2 402.9,352.7 402.1,353.3 398.7,349.8 				"/>
			</g>
			<g>
				<polygon class="st22" points="309,440.2 312.4,443.7 311,443.9 307.6,440.4 				"/>
			</g>
			<g>
				<polygon class="st23" points="397.3,350 400.8,353.5 401.5,354.9 398,351.5 				"/>
			</g>
			<g>
				<polygon class="st4" points="309,440.5 312.5,444 311,444.1 307.5,440.6 				"/>
			</g>
			<g>
				<polygon class="st42" points="398,351.5 401.5,354.9 401.2,355.9 397.8,352.4 				"/>
			</g>
			<g>
				<polygon class="st36" points="397.8,352.4 401.2,355.9 400.6,356.8 397.1,353.3 				"/>
			</g>
			<g>
				<polygon class="st4" points="369.8,380.7 373.3,384.2 370.9,383.5 367.4,380 				"/>
			</g>
			<g>
				<polygon class="st4" points="405,345.6 408.5,349 404.9,350.5 401.4,347 				"/>
			</g>
			<g>
				<polygon class="st42" points="397.1,353.3 400.6,356.8 400.2,358.1 396.8,354.6 				"/>
			</g>
			<g>
				<polygon class="st22" points="311.8,439.5 315.3,443 312.4,443.7 309,440.2 				"/>
			</g>
			<g>
				<polygon class="st4" points="311.8,439.8 315.3,443.2 312.5,444 309,440.5 				"/>
			</g>
			<g>
				<polygon class="st4" points="407,345.2 410.5,348.7 408.5,349 405,345.6 				"/>
			</g>
			<g>
				<polygon class="st4" points="407.7,345 411.2,348.5 410.5,348.7 407,345.2 				"/>
			</g>
			<g>
				<polygon class="st4" points="408.8,344.4 412.3,347.9 411.2,348.5 407.7,345 				"/>
			</g>
			<g>
				<polygon class="st4" points="409.4,344.3 412.9,347.7 412.3,347.9 408.8,344.4 				"/>
			</g>
			<g>
				<polygon class="st43" points="396.8,354.6 400.2,358.1 400.1,361 396.6,357.5 				"/>
			</g>
			<g>
				<polygon class="st4" points="372.8,382.8 376.3,386.3 373.3,384.2 369.8,380.7 				"/>
			</g>
			<g>
				<polygon class="st34" points="396.6,357.5 400.1,361 399.7,363.7 396.2,360.2 				"/>
			</g>
			<g>
				<polygon class="st4" points="413.8,343.7 417.3,347.2 412.9,347.7 409.4,344.3 				"/>
			</g>
			<g>
				<polygon class="st4" points="374.3,383.7 377.8,387.1 376.3,386.3 372.8,382.8 				"/>
			</g>
			<g>
				<polygon class="st4" points="415.3,343.3 418.8,346.8 417.3,347.2 413.8,343.7 				"/>
			</g>
			<g>
				<polygon class="st44" points="396.2,360.2 399.7,363.7 398.8,366.8 395.3,363.3 				"/>
			</g>
			<g>
				<polygon class="st4" points="415.9,343.7 419.4,347.2 418.8,346.8 415.3,343.3 				"/>
			</g>
			<g>
				<polygon class="st4" points="376.2,383.8 379.7,387.3 377.8,387.1 374.3,383.7 				"/>
			</g>
			<g>
				<polygon class="st4" points="377.5,383.3 381,386.8 379.7,387.3 376.2,383.8 				"/>
			</g>
			<g>
				<polygon class="st4" points="378.7,382.6 382.1,386 381,386.8 377.5,383.3 				"/>
			</g>
			<g>
				<polygon class="st4" points="380,382.2 383.5,385.7 382.1,386 378.7,382.6 				"/>
			</g>
			<g>
				<polygon class="st4" points="417.9,345 421.4,348.4 419.4,347.2 415.9,343.7 				"/>
			</g>
			<g>
				<polygon class="st4" points="381.6,382.1 385.1,385.6 383.5,385.7 380,382.2 				"/>
			</g>
			<g>
				<polygon class="st16" points="395.3,363.3 398.8,366.8 393.5,377.4 390,373.9 				"/>
			</g>
			<g>
				<polygon class="st4" points="418.7,345.2 422.2,348.7 421.4,348.4 417.9,345 				"/>
			</g>
			<g>
				<polygon class="st4" points="382.8,381.8 386.3,385.2 385.1,385.6 381.6,382.1 				"/>
			</g>
			<g>
				<polygon class="st36" points="390,373.9 393.5,377.4 390.2,381.6 386.8,378.1 				"/>
			</g>
			<g>
				<polygon class="st4" points="383.8,381.1 387.3,384.6 386.3,385.2 382.8,381.8 				"/>
			</g>
			<g>
				<polygon class="st20" points="386.8,378.1 390.2,381.6 387.3,384.6 383.8,381.1 				"/>
			</g>
			<g>
				<polygon class="st22" points="324,440.9 327.5,444.4 315.3,443 311.8,439.5 				"/>
			</g>
			<g>
				<polygon class="st4" points="324,441.2 327.5,444.7 315.3,443.2 311.8,439.8 				"/>
			</g>
			<g>
				<polygon class="st4" points="420.2,345.3 423.6,348.8 422.2,348.7 418.7,345.2 				"/>
			</g>
			<g>
				<polygon class="st4" points="422,344.8 425.5,348.3 423.6,348.8 420.2,345.3 				"/>
			</g>
			<g>
				<polygon class="st24" points="422.1,344.6 425.6,348.1 426.2,348.8 422.7,345.3 				"/>
			</g>
			<g>
				<polygon class="st4" points="423.5,346.3 427,349.8 426.1,349.2 422.6,345.7 				"/>
			</g>
			<g>
				<polygon class="st4" points="424.3,347 427.8,350.4 427,349.8 423.5,346.3 				"/>
			</g>
			<g>
				<polygon class="st8" points="424.3,347 427.8,350.4 428.3,351.3 424.8,347.9 				"/>
			</g>
			<g>
				<polygon class="st23" points="424.5,346.8 428,350.3 428.5,351.2 425,347.8 				"/>
			</g>
			<g>
				<polygon class="st22" points="330.9,443.1 334.4,446.6 327.5,444.4 324,440.9 				"/>
			</g>
			<g>
				<polygon class="st4" points="330.8,443.3 334.3,446.8 327.5,444.7 324,441.2 				"/>
			</g>
			<g>
				<polygon class="st45" points="424.8,347.9 428.3,351.3 428.7,354.1 425.2,350.6 				"/>
			</g>
			<g>
				<polygon class="st17" points="425,347.8 428.5,351.2 429,354.1 425.5,350.6 				"/>
			</g>
			<g>
				<polygon class="st22" points="335.1,443.9 338.6,447.4 334.4,446.6 330.9,443.1 				"/>
			</g>
			<g>
				<polygon class="st4" points="335.1,444.1 338.5,447.6 334.3,446.8 330.8,443.3 				"/>
			</g>
			<g>
				<polygon class="st8" points="425.2,350.6 428.7,354.1 429.9,356.6 426.4,353.1 				"/>
			</g>
			<g>
				<polygon class="st23" points="425.5,350.6 429,354.1 430.1,356.5 426.7,353 				"/>
			</g>
			<g>
				<polygon class="st22" points="337.7,444.8 341.2,448.3 338.6,447.4 335.1,443.9 				"/>
			</g>
			<g>
				<polygon class="st4" points="337.6,445.1 341.1,448.6 338.5,447.6 335.1,444.1 				"/>
			</g>
			<g>
				<polygon class="st22" points="340.2,445.4 343.7,448.9 341.2,448.3 337.7,444.8 				"/>
			</g>
			<g>
				<polygon class="st4" points="340.2,445.7 343.7,449.1 341.1,448.6 337.6,445.1 				"/>
			</g>
			<g>
				<polygon class="st22" points="341.9,444.9 345.4,448.4 343.7,448.9 340.2,445.4 				"/>
			</g>
			<g>
				<polygon class="st4" points="341.8,445.2 345.3,448.7 343.7,449.1 340.2,445.7 				"/>
			</g>
			<g>
				<polygon class="st8" points="426.4,353.1 429.9,356.6 432.5,364.1 429.1,360.6 				"/>
			</g>
			<g>
				<polygon class="st9" points="426.7,353 430.1,356.5 432.8,364 429.3,360.5 				"/>
			</g>
			<g>
				<polygon class="st22" points="343.7,446.1 347.2,449.6 345.4,448.4 341.9,444.9 				"/>
			</g>
			<g>
				<polygon class="st4" points="343.7,446.4 347.1,449.9 345.3,448.7 341.8,445.2 				"/>
			</g>
			<g>
				<polygon class="st46" points="358.4,433.5 361.8,437 361.3,437.7 357.8,434.2 				"/>
			</g>
			<g>
				<polygon class="st7" points="358.5,433.7 362,437.2 361.5,437.8 358.1,434.3 				"/>
			</g>
			<g>
				<polygon class="st47" points="357.8,434.2 361.3,437.7 361.1,438.6 357.6,435.1 				"/>
			</g>
			<g>
				<polygon class="st22" points="360,432.8 363.5,436.3 361.8,437 358.4,433.5 				"/>
			</g>
			<g>
				<polygon class="st10" points="358.1,434.3 361.5,437.8 361.3,438.6 357.8,435.1 				"/>
			</g>
			<g>
				<polygon class="st4" points="360,433.1 363.5,436.5 362,437.2 358.5,433.7 				"/>
			</g>
			<g>
				<polygon class="st8" points="429.1,360.6 432.5,364.1 433.8,366.7 430.3,363.2 				"/>
			</g>
			<g>
				<polygon class="st23" points="429.3,360.5 432.8,364 434,366.5 430.5,363 				"/>
			</g>
			<g>
				<polygon class="st48" points="357.6,435.1 361.1,438.6 361.2,440.4 357.7,436.9 				"/>
			</g>
			<g>
				<polygon class="st26" points="357.8,435.1 361.3,438.6 361.4,440.4 357.9,436.9 				"/>
			</g>
			<g>
				<polygon class="st4" points="431.8,363.7 435.3,367.2 433.8,366.7 430.3,363.2 				"/>
			</g>
			<g>
				<polygon class="st49" points="357.7,436.9 361.2,440.4 360.9,441.8 357.5,438.3 				"/>
			</g>
			<g>
				<polygon class="st34" points="357.9,436.9 361.4,440.4 361.2,441.9 357.7,438.4 				"/>
			</g>
			<g>
				<polygon class="st50" points="357.5,438.3 360.9,441.8 360.3,443 356.9,439.6 				"/>
			</g>
			<g>
				<polygon class="st16" points="357.7,438.4 361.2,441.9 360.5,443.2 357.1,439.7 				"/>
			</g>
			<g>
				<polygon class="st22" points="364.4,433.4 367.9,436.8 363.5,436.3 360,432.8 				"/>
			</g>
			<g>
				<polygon class="st4" points="364.4,433.6 367.8,437.1 363.5,436.5 360,433.1 				"/>
			</g>
			<g>
				<polygon class="st32" points="356.9,439.6 360.3,443 356.6,448.4 353.1,444.9 				"/>
			</g>
			<g>
				<polygon class="st51" points="353.1,444.9 356.6,448.4 355.5,449.7 352,446.2 				"/>
			</g>
			<g>
				<polygon class="st7" points="357.1,439.7 360.5,443.2 356.8,448.6 353.3,445.1 				"/>
			</g>
			<g>
				<polygon class="st19" points="353.3,445.1 356.8,448.6 355.7,449.8 352.2,446.4 				"/>
			</g>
			<g>
				<polygon class="st52" points="352,446.2 355.5,449.7 355.2,450.4 351.8,446.9 				"/>
			</g>
			<g>
				<polygon class="st28" points="352.2,446.4 355.7,449.8 355.5,450.5 352,447 				"/>
			</g>
			<g>
				<polygon class="st22" points="351.5,448.5 355,452 347.2,449.6 343.7,446.1 				"/>
			</g>
			<g>
				<polygon class="st4" points="351,448.5 354.4,452 347.1,449.9 343.7,446.4 				"/>
			</g>
			<g>
				<polygon class="st53" points="351.8,446.9 355.2,450.4 355,452 351.5,448.5 				"/>
			</g>
			<g>
				<polygon class="st22" points="366.7,433.6 370.2,437.1 367.9,436.8 364.4,433.4 				"/>
			</g>
			<g>
				<polygon class="st21" points="365,433.4 368.5,436.9 370.4,439 366.9,435.5 				"/>
			</g>
			<g>
				<polygon class="st4" points="366.5,433.7 369.9,437.2 367.8,437.1 364.4,433.6 				"/>
			</g>
			<g>
				<polygon class="st4" points="351.7,448.7 355.2,452.2 354.4,452 351,448.5 				"/>
			</g>
			<g>
				<polygon class="st13" points="352,447 355.5,450.5 355.2,452.2 351.7,448.7 				"/>
			</g>
			<g>
				<polygon class="st54" points="370.1,432.9 373.6,436.4 372.6,437.3 369.1,433.8 				"/>
			</g>
			<g>
				<polygon class="st24" points="366.9,435.5 370.4,439 370.5,439.5 367,436 				"/>
			</g>
			<g>
				<polygon class="st35" points="369.1,433.8 372.6,437.3 371.1,439.1 367.7,435.6 				"/>
			</g>
			<g>
				<polygon class="st55" points="367.7,435.6 371.1,439.1 370.6,439.6 367.2,436.1 				"/>
			</g>
			<g>
				<polygon class="st18" points="370.3,433.1 373.8,436.6 372.8,437.5 369.3,434 				"/>
			</g>
			<g>
				<polygon class="st36" points="369.3,434 372.8,437.5 371.3,439.3 367.9,435.8 				"/>
			</g>
			<g>
				<polygon class="st20" points="367.9,435.8 371.3,439.3 370.7,439.9 367.2,436.4 				"/>
			</g>
			<g>
				<polygon class="st22" points="378,427.3 381.5,430.8 373.6,436.4 370.1,432.9 				"/>
			</g>
			<g>
				<polygon class="st31" points="380.1,425.2 383.6,428.7 381.5,430.8 378,427.3 				"/>
			</g>
			<g>
				<polygon class="st4" points="378.2,427.5 381.7,431 373.8,436.6 370.3,433.1 				"/>
			</g>
			<g>
				<polygon class="st5" points="380.2,425.9 383.6,429.4 381.7,431 378.2,427.5 				"/>
			</g>
			<g>
				<polygon class="st9" points="379.9,425.2 383.4,428.7 383.9,429.3 380.4,425.9 				"/>
			</g>
			<g>
				<polygon class="st4" points="445.1,365.2 448.6,368.7 435.3,367.2 431.8,363.7 				"/>
			</g>
			<g>
				<polygon class="st4" points="446.9,365.1 450.4,368.6 448.6,368.7 445.1,365.2 				"/>
			</g>
			<g>
				<polygon class="st4" points="449.9,364.4 453.3,367.9 450.4,368.6 446.9,365.1 				"/>
			</g>
			<g>
				<polygon class="st3" points="456,358.9 459.5,362.4 458.4,363.5 455,360 				"/>
			</g>
			<g>
				<polygon class="st4" points="451.4,364.2 454.9,367.7 453.3,367.9 449.9,364.4 				"/>
			</g>
			<g>
				<polygon class="st4" points="452.5,363.4 456,366.9 454.9,367.7 451.4,364.2 				"/>
			</g>
			<g>
				<polygon class="st41" points="455,360 458.4,363.5 456,366.9 452.5,363.4 				"/>
			</g>
			<g>
				<polygon class="st4" points="457.8,360 461.3,363.5 459.5,362.4 456,358.9 				"/>
			</g>
			<g>
				<polygon class="st21" points="380.4,425.9 383.9,429.3 386.2,440.1 382.7,436.6 				"/>
			</g>
			<g>
				<polygon class="st4" points="461.9,360.8 465.4,364.3 461.3,363.5 457.8,360 				"/>
			</g>
			<g>
				<polygon class="st23" points="382.7,436.6 386.2,440.1 387.3,442.7 383.8,439.2 				"/>
			</g>
			<g>
				<polygon class="st4" points="464.3,361.8 467.7,365.3 465.4,364.3 461.9,360.8 				"/>
			</g>
			<g>
				<polygon class="st9" points="383.8,439.2 387.3,442.7 388.5,444.5 385,441.1 				"/>
			</g>
			<g>
				<polygon class="st4" points="465,362.4 468.5,365.9 467.7,365.3 464.3,361.8 				"/>
			</g>
			<g>
				<polygon class="st22" points="387.1,442.9 390.6,446.4 388.5,444.5 385,441.1 				"/>
			</g>
			<g>
				<polygon class="st4" points="387,443.2 390.5,446.7 388.3,444.7 384.8,441.2 				"/>
			</g>
			<g>
				<polygon class="st56" points="465,362.4 468.5,365.9 470.9,368.9 467.4,365.4 				"/>
			</g>
			<g>
				<polygon class="st24" points="465.2,362.3 468.7,365.7 471.1,368.7 467.6,365.2 				"/>
			</g>
			<g>
				<polygon class="st22" points="390.1,443.7 393.5,447.2 390.6,446.4 387.1,442.9 				"/>
			</g>
			<g>
				<polygon class="st4" points="390,444 393.5,447.4 390.5,446.7 387,443.2 				"/>
			</g>
			<g>
				<polygon class="st57" points="468.6,366.5 472.1,370 469,374.7 465.5,371.2 				"/>
			</g>
			<g>
				<polygon class="st58" points="468.9,366.5 472.4,369.9 469.2,374.8 465.8,371.3 				"/>
			</g>
			<g>
				<polygon class="st22" points="393.9,443.7 397.4,447.2 393.5,447.2 390.1,443.7 				"/>
			</g>
			<g>
				<polygon class="st38" points="465.5,371.2 469,374.7 468.4,376.5 465,373.1 				"/>
			</g>
			<g>
				<polygon class="st4" points="393.9,444 397.4,447.4 393.5,447.4 390,444 				"/>
			</g>
			<g>
				<polygon class="st10" points="465.8,371.3 469.2,374.8 468.7,376.6 465.2,373.1 				"/>
			</g>
			<g>
				<polygon class="st59" points="465,373.1 468.4,376.5 468.4,377.9 464.9,374.4 				"/>
			</g>
			<g>
				<polygon class="st22" points="395.4,443.9 398.9,447.3 397.4,447.2 393.9,443.7 				"/>
			</g>
			<g>
				<polygon class="st60" points="436.2,403.2 439.7,406.7 438.4,407.8 434.9,404.3 				"/>
			</g>
			<g>
				<polygon class="st43" points="465.2,373.1 468.7,376.6 468.6,377.9 465.2,374.4 				"/>
			</g>
			<g>
				<polygon class="st4" points="395.4,444.1 398.9,447.6 397.4,447.4 393.9,444 				"/>
			</g>
			<g>
				<polygon class="st18" points="436.2,403.5 439.7,406.9 438.6,408 435.1,404.5 				"/>
			</g>
			<g>
				<polygon class="st22" points="438.1,403.6 441.6,407 439.7,406.7 436.2,403.2 				"/>
			</g>
			<g>
				<polygon class="st22" points="398,443.6 401.5,447.1 398.9,447.3 395.4,443.9 				"/>
			</g>
			<g>
				<polygon class="st4" points="438,403.8 441.5,407.3 439.7,406.9 436.2,403.5 				"/>
			</g>
			<g>
				<polygon class="st53" points="434.9,404.3 438.4,407.8 437.9,410.9 434.4,407.4 				"/>
			</g>
			<g>
				<polygon class="st4" points="397.9,443.9 401.4,447.4 398.9,447.6 395.4,444.1 				"/>
			</g>
			<g>
				<polygon class="st34" points="435.1,404.5 438.6,408 438.1,410.9 434.7,407.4 				"/>
			</g>
			<g>
				<polygon class="st22" points="399.1,444 402.6,447.5 401.5,447.1 398,443.6 				"/>
			</g>
			<g>
				<polygon class="st4" points="399.1,444.3 402.6,447.8 401.4,447.4 397.9,443.9 				"/>
			</g>
			<g>
				<polygon class="st22" points="439.4,404.2 442.8,407.7 441.6,407 438.1,403.6 				"/>
			</g>
			<g>
				<polygon class="st4" points="439.3,404.4 442.8,407.9 441.5,407.3 438,403.8 				"/>
			</g>
			<g>
				<polygon class="st61" points="464.9,374.4 468.4,377.9 467.1,384.2 463.6,380.7 				"/>
			</g>
			<g>
				<polygon class="st11" points="465.2,374.4 468.6,377.9 467.4,384.3 463.9,380.8 				"/>
			</g>
			<g>
				<polygon class="st22" points="440.4,404.5 443.8,408 442.8,407.7 439.4,404.2 				"/>
			</g>
			<g>
				<polygon class="st4" points="440.3,404.7 443.8,408.2 442.8,407.9 439.3,404.4 				"/>
			</g>
			<g>
				<polygon class="st62" points="434.4,407.4 437.9,410.9 437.9,414.2 434.4,410.7 				"/>
			</g>
			<g>
				<polygon class="st15" points="434.7,407.4 438.1,410.9 438.2,414.2 434.7,410.7 				"/>
			</g>
			<g>
				<polygon class="st22" points="441.1,404.4 444.6,407.9 443.8,408 440.4,404.5 				"/>
			</g>
			<g>
				<polygon class="st4" points="441.2,404.7 444.7,408.2 443.8,408.2 440.3,404.7 				"/>
			</g>
			<g>
				<polygon class="st61" points="463.6,380.7 467.1,384.2 466.7,386.1 463.3,382.6 				"/>
			</g>
			<g>
				<polygon class="st22" points="441.7,404.2 445.2,407.7 444.6,407.9 441.1,404.4 				"/>
			</g>
			<g>
				<polygon class="st11" points="463.9,380.8 467.4,384.3 467,386.2 463.5,382.7 				"/>
			</g>
			<g>
				<polygon class="st4" points="441.8,404.5 445.2,408 444.7,408.2 441.2,404.7 				"/>
			</g>
			<g>
				<polygon class="st22" points="442.9,404.3 446.4,407.7 445.2,407.7 441.7,404.2 				"/>
			</g>
			<g>
				<polygon class="st22" points="402.6,444.6 406.1,448 402.6,447.5 399.1,444 				"/>
			</g>
			<g>
				<polygon class="st4" points="442.8,404.5 446.3,408 445.2,408 441.8,404.5 				"/>
			</g>
			<g>
				<polygon class="st4" points="402.5,444.8 406,448.3 402.6,447.8 399.1,444.3 				"/>
			</g>
			<g>
				<polygon class="st40" points="434.4,410.7 437.9,414.2 438.2,416.4 434.7,412.9 				"/>
			</g>
			<g>
				<polygon class="st17" points="434.7,410.7 438.2,414.2 438.5,416.3 435,412.8 				"/>
			</g>
			<g>
				<polygon class="st22" points="443.8,404.8 447.3,408.3 446.4,407.7 442.9,404.3 				"/>
			</g>
			<g>
				<polygon class="st4" points="443.7,405.1 447.2,408.6 446.3,408 442.8,404.5 				"/>
			</g>
			<g>
				<polygon class="st63" points="434.7,412.9 438.2,416.4 438.2,417.7 434.7,414.2 				"/>
			</g>
			<g>
				<polygon class="st30" points="435,412.8 438.5,416.3 438.4,417.7 435,414.2 				"/>
			</g>
			<g>
				<polygon class="st22" points="404.1,445.4 407.5,448.8 406.1,448 402.6,444.6 				"/>
			</g>
			<g>
				<polygon class="st4" points="403.9,445.5 407.3,449 406,448.3 402.5,444.8 				"/>
			</g>
			<g>
				<polygon class="st22" points="444.9,405.4 448.4,408.9 447.3,408.3 443.8,404.8 				"/>
			</g>
			<g>
				<polygon class="st4" points="444.8,405.6 448.3,409.1 447.2,408.6 443.7,405.1 				"/>
			</g>
			<g>
				<polygon class="st24" points="404,445.3 407.5,448.8 408.1,449.6 404.6,446.1 				"/>
			</g>
			<g>
				<polygon class="st9" points="404.6,446.1 408.1,449.6 408.4,450.3 404.9,446.8 				"/>
			</g>
			<g>
				<polygon class="st64" points="463.3,382.6 466.7,386.1 467,392.3 463.5,388.8 				"/>
			</g>
			<g>
				<polygon class="st15" points="463.5,382.7 467,386.2 467.2,392.3 463.7,388.8 				"/>
			</g>
			<g>
				<polygon class="st21" points="404.9,446.8 408.4,450.3 408.5,451.1 405,447.6 				"/>
			</g>
			<g>
				<polygon class="st65" points="463.5,388.8 467,392.3 466.7,394.7 463.2,391.2 				"/>
			</g>
			<g>
				<polygon class="st12" points="463.7,388.8 467.2,392.3 466.9,394.7 463.4,391.2 				"/>
			</g>
			<g>
				<polygon class="st66" points="463.2,391.2 466.7,394.7 466.8,395.6 463.3,392.1 				"/>
			</g>
			<g>
				<polygon class="st25" points="463.4,391.2 466.9,394.7 467,395.6 463.5,392.1 				"/>
			</g>
			<g>
				<polygon class="st15" points="405,447.6 408.5,451.1 408.6,454.4 405.1,450.9 				"/>
			</g>
			<g>
				<polygon class="st22" points="449.4,407 452.8,410.4 448.4,408.9 444.9,405.4 				"/>
			</g>
			<g>
				<polygon class="st4" points="449.3,407.2 452.8,410.7 448.3,409.1 444.8,405.6 				"/>
			</g>
			<g>
				<polygon class="st53" points="434.7,414.2 438.2,417.7 436.9,426.5 433.4,423.1 				"/>
			</g>
			<g>
				<polygon class="st13" points="435,414.2 438.4,417.7 437.2,426.6 433.7,423.1 				"/>
			</g>
			<g>
				<polygon class="st22" points="454.2,404.1 457.7,407.6 457.1,408 453.6,404.5 				"/>
			</g>
			<g>
				<polygon class="st21" points="405.1,450.9 408.6,454.4 408.9,456.3 405.5,452.8 				"/>
			</g>
			<g>
				<polygon class="st67" points="453.6,404.5 457.1,408 455.8,409.6 452.3,406.1 				"/>
			</g>
			<g>
				<polygon class="st4" points="454.3,404.3 457.8,407.8 457.3,408.2 453.8,404.7 				"/>
			</g>
			<g>
				<polygon class="st19" points="453.8,404.7 457.3,408.2 456,409.7 452.5,406.3 				"/>
			</g>
			<g>
				<polygon class="st22" points="455.7,403.2 459.2,406.7 457.7,407.6 454.2,404.1 				"/>
			</g>
			<g>
				<polygon class="st68" points="463.3,392.1 466.8,395.6 467.4,398.6 464,395.1 				"/>
			</g>
			<g>
				<polygon class="st21" points="463.5,392.1 467,395.6 467.7,398.6 464.2,395.1 				"/>
			</g>
			<g>
				<polygon class="st4" points="455.9,403.4 459.4,406.9 457.8,407.8 454.3,404.3 				"/>
			</g>
			<g>
				<polygon class="st22" points="457.7,401.7 461.2,405.2 459.2,406.7 455.7,403.2 				"/>
			</g>
			<g>
				<polygon class="st53" points="452.3,406.1 455.8,409.6 455.6,410.9 452.1,407.4 				"/>
			</g>
			<g>
				<polygon class="st22" points="452.1,407.4 455.6,410.9 452.8,410.4 449.4,407 				"/>
			</g>
			<g>
				<polygon class="st69" points="459.8,399.5 463.3,403 462.2,404.3 458.7,400.8 				"/>
			</g>
			<g>
				<polygon class="st54" points="458.7,400.8 462.2,404.3 461.2,405.2 457.7,401.7 				"/>
			</g>
			<g>
				<polygon class="st54" points="462.8,397 466.2,400.5 463.3,403 459.8,399.5 				"/>
			</g>
			<g>
				<polygon class="st4" points="457.9,401.9 461.3,405.4 459.4,406.9 455.9,403.4 				"/>
			</g>
			<g>
				<polygon class="st54" points="464,395.9 467.5,399.3 466.2,400.5 462.8,397 				"/>
			</g>
			<g>
				<polygon class="st66" points="464,395.1 467.4,398.6 467.5,399.3 464,395.9 				"/>
			</g>
			<g>
				<polygon class="st18" points="458.9,401 462.4,404.5 461.3,405.4 457.9,401.9 				"/>
			</g>
			<g>
				<polygon class="st19" points="460,399.7 463.5,403.2 462.4,404.5 458.9,401 				"/>
			</g>
			<g>
				<polygon class="st12" points="452.5,406.3 456,409.7 455.8,411.1 452.3,407.6 				"/>
			</g>
			<g>
				<polygon class="st4" points="452.3,407.6 455.8,411.1 452.8,410.7 449.3,407.2 				"/>
			</g>
			<g>
				<polygon class="st18" points="462.9,397.2 466.4,400.7 463.5,403.2 460,399.7 				"/>
			</g>
			<g>
				<polygon class="st20" points="464.3,395.9 467.8,399.3 466.4,400.7 462.9,397.2 				"/>
			</g>
			<g>
				<polygon class="st25" points="464.2,395.1 467.7,398.6 467.8,399.3 464.3,395.9 				"/>
			</g>
			<g>
				<polygon class="st68" points="433.4,423.1 436.9,426.5 437.8,430.4 434.3,426.9 				"/>
			</g>
			<g>
				<polygon class="st24" points="433.7,423.1 437.2,426.6 438.1,430.3 434.6,426.8 				"/>
			</g>
			<g>
				<polygon class="st8" points="434.3,426.9 437.8,430.4 438.4,431.7 434.9,428.2 				"/>
			</g>
			<g>
				<polygon class="st23" points="434.6,426.8 438.1,430.3 438.6,431.6 435.2,428.1 				"/>
			</g>
			<g>
				<polygon class="st68" points="434.9,428.2 438.4,431.7 439.2,432.6 435.7,429.1 				"/>
			</g>
			<g>
				<polygon class="st21" points="435.2,428.1 438.6,431.6 439.4,432.5 436,429 				"/>
			</g>
			<g>
				<polygon class="st70" points="433.6,431.1 437.1,434.6 436.7,435.2 433.2,431.7 				"/>
			</g>
			<g>
				<polygon class="st50" points="435.7,429.1 439.2,432.6 438.9,433.3 435.4,429.8 				"/>
			</g>
			<g>
				<polygon class="st33" points="435.4,429.8 438.9,433.3 437.1,434.6 433.6,431.1 				"/>
			</g>
			<g>
				<polygon class="st14" points="433.8,431.3 437.2,434.8 436.9,435.3 433.5,431.8 				"/>
			</g>
			<g>
				<polygon class="st5" points="435.6,429.9 439.1,433.4 437.2,434.8 433.8,431.3 				"/>
			</g>
			<g>
				<polygon class="st71" points="436,429 439.4,432.5 439.1,433.4 435.6,429.9 				"/>
			</g>
			<g>
				<polygon class="st40" points="433.2,431.7 436.7,435.2 437.1,438 433.6,434.6 				"/>
			</g>
			<g>
				<polygon class="st24" points="433.5,431.8 436.9,435.3 437.3,436.7 433.8,433.2 				"/>
			</g>
			<g>
				<polygon class="st15" points="433.8,433.2 437.3,436.7 437.3,438 433.9,434.5 				"/>
			</g>
			<g>
				<polygon class="st45" points="433.6,434.6 437.1,438 437.3,439.3 433.8,435.8 				"/>
			</g>
			<g>
				<polygon class="st17" points="433.9,434.5 437.3,438 437.5,439.2 434,435.7 				"/>
			</g>
			<g>
				<polygon class="st15" points="405.5,452.8 408.9,456.3 409.3,468.7 405.8,465.2 				"/>
			</g>
			<g>
				<polygon class="st4" points="435.1,436.5 438.6,440 437.3,439.4 433.9,435.9 				"/>
			</g>
			<g>
				<polygon class="st9" points="405.8,465.2 409.3,468.7 409.5,469.4 406.1,465.9 				"/>
			</g>
			<g>
				<polygon class="st4" points="437.6,436.7 441.1,440.2 438.6,440 435.1,436.5 				"/>
			</g>
			<g>
				<polygon class="st22" points="408.6,466.1 412,469.6 409.5,469.4 406.1,465.9 				"/>
			</g>
			<g>
				<polygon class="st4" points="408.3,466.2 411.8,469.7 409.4,469.6 405.9,466.1 				"/>
			</g>
			<g>
				<polygon class="st4" points="438.4,437 441.9,440.5 441.1,440.2 437.6,436.7 				"/>
			</g>
			<g>
				<polygon class="st4" points="439.1,437.6 442.6,441.1 441.9,440.5 438.4,437 				"/>
			</g>
			<g>
				<polygon class="st23" points="406.6,466.4 410.1,469.8 412.5,474.3 409,470.8 				"/>
			</g>
			<g>
				<polygon class="st68" points="439.1,437.6 442.6,441.1 444.5,443.1 441,439.6 				"/>
			</g>
			<g>
				<polygon class="st21" points="439.3,437.4 442.8,440.9 444.7,442.9 441.2,439.4 				"/>
			</g>
			<g>
				<polygon class="st56" points="441,439.6 444.5,443.1 445.2,444 441.7,440.5 				"/>
			</g>
			<g>
				<polygon class="st24" points="441.2,439.4 444.7,442.9 445.4,443.9 441.9,440.4 				"/>
			</g>
			<g>
				<polygon class="st72" points="418.6,463.6 422.1,467.1 421,468.3 417.5,464.8 				"/>
			</g>
			<g>
				<polygon class="st33" points="420,462.5 423.5,466 422.1,467.1 418.6,463.6 				"/>
			</g>
			<g>
				<polygon class="st3" points="418.8,463.8 422.3,467.3 421.2,468.5 417.7,465 				"/>
			</g>
			<g>
				<polygon class="st73" points="417.5,464.8 421,468.3 420.7,469 417.2,465.5 				"/>
			</g>
			<g>
				<polygon class="st5" points="420.2,462.7 423.7,466.2 422.3,467.3 418.8,463.8 				"/>
			</g>
			<g>
				<polygon class="st74" points="417.7,465 421.2,468.5 420.9,469.1 417.5,465.6 				"/>
			</g>
			<g>
				<polygon class="st75" points="417.2,465.5 420.7,469 420.6,469.6 417.1,466.1 				"/>
			</g>
			<g>
				<polygon class="st8" points="441.7,440.5 445.2,444 445.6,444.8 442.2,441.3 				"/>
			</g>
			<g>
				<polygon class="st22" points="422.7,460.8 426.1,464.3 423.5,466 420,462.5 				"/>
			</g>
			<g>
				<polygon class="st23" points="441.9,440.4 445.4,443.9 445.9,444.7 442.4,441.2 				"/>
			</g>
			<g>
				<polygon class="st4" points="422.8,461 426.3,464.5 423.7,466.2 420.2,462.7 				"/>
			</g>
			<g>
				<polygon class="st33" points="427.2,457.1 430.7,460.6 426.1,464.3 422.7,460.8 				"/>
			</g>
			<g>
				<polygon class="st45" points="442.2,441.3 445.6,444.8 445.8,445.7 442.3,442.3 				"/>
			</g>
			<g>
				<polygon class="st5" points="427.3,457.3 430.8,460.8 426.3,464.5 422.8,461 				"/>
			</g>
			<g>
				<polygon class="st21" points="442.4,441.2 445.9,444.7 446.1,445.7 442.6,442.2 				"/>
			</g>
			<g>
				<polygon class="st76" points="417.1,466.1 420.6,469.6 420.7,471.2 417.2,467.7 				"/>
			</g>
			<g>
				<polygon class="st30" points="417.5,465.6 420.9,469.1 420.9,471.2 417.5,467.7 				"/>
			</g>
			<g>
				<polygon class="st22" points="430.8,454.9 434.3,458.4 430.7,460.6 427.2,457.1 				"/>
			</g>
			<g>
				<polygon class="st4" points="430.9,455.1 434.4,458.6 430.8,460.8 427.3,457.3 				"/>
			</g>
			<g>
				<polygon class="st22" points="432.8,454.1 436.2,457.6 434.3,458.4 430.8,454.9 				"/>
			</g>
			<g>
				<polygon class="st77" points="442.3,442.3 445.8,445.7 445.6,448.5 442.1,445 				"/>
			</g>
			<g>
				<polygon class="st4" points="432.9,454.3 436.4,457.8 434.4,458.6 430.9,455.1 				"/>
			</g>
			<g>
				<polygon class="st22" points="433.9,453.5 437.4,457 436.2,457.6 432.8,454.1 				"/>
			</g>
			<g>
				<polygon class="st22" points="415.2,472.2 418.7,475.7 412.7,474.3 409.2,470.8 				"/>
			</g>
			<g>
				<polygon class="st27" points="442.6,442.2 446.1,445.7 445.9,448.5 442.4,445 				"/>
			</g>
			<g>
				<polygon class="st4" points="415.1,472.4 418.6,475.9 412.6,474.5 409.2,471 				"/>
			</g>
			<g>
				<polygon class="st4" points="434,453.7 437.5,457.2 436.4,457.8 432.9,454.3 				"/>
			</g>
			<g>
				<polygon class="st22" points="435.7,452.2 439.2,455.7 437.4,457 433.9,453.5 				"/>
			</g>
			<g>
				<polygon class="st4" points="435.8,452.4 439.2,455.9 437.5,457.2 434,453.7 				"/>
			</g>
			<g>
				<polygon class="st78" points="417.2,467.7 420.7,471.2 419.5,475.6 416.1,472.1 				"/>
			</g>
			<g>
				<polygon class="st22" points="416.1,472.1 419.5,475.6 418.7,475.7 415.2,472.2 				"/>
			</g>
			<g>
				<polygon class="st47" points="442.1,445 445.6,448.5 445.2,450.1 441.7,446.6 				"/>
			</g>
			<g>
				<polygon class="st4" points="416.3,472.2 419.8,475.7 418.6,475.9 415.1,472.4 				"/>
			</g>
			<g>
				<polygon class="st42" points="417.5,467.7 420.9,471.2 419.8,475.7 416.3,472.2 				"/>
			</g>
			<g>
				<polygon class="st44" points="442.4,445 445.9,448.5 445.4,450.2 441.9,446.7 				"/>
			</g>
			<g>
				<polygon class="st22" points="437.1,452.3 440.6,455.8 439.2,455.7 435.7,452.2 				"/>
			</g>
			<g>
				<polygon class="st4" points="437,452.5 440.5,456 439.2,455.9 435.8,452.4 				"/>
			</g>
			<g>
				<polygon class="st79" points="441.7,446.6 445.2,450.1 443.9,453.2 440.5,449.7 				"/>
			</g>
			<g>
				<polygon class="st22" points="437.7,452.7 441.2,456.1 440.6,455.8 437.1,452.3 				"/>
			</g>
			<g>
				<polygon class="st4" points="437.6,452.9 441.1,456.4 440.5,456 437,452.5 				"/>
			</g>
			<g>
				<polygon class="st71" points="441.9,446.7 445.4,450.2 444.2,453.3 440.7,449.8 				"/>
			</g>
			<g>
				<polygon class="st22" points="438.3,452.9 441.8,456.4 441.2,456.1 437.7,452.7 				"/>
			</g>
			<g>
				<polygon class="st4" points="438.3,453.2 441.8,456.7 441.1,456.4 437.6,452.9 				"/>
			</g>
			<g>
				<polygon class="st22" points="439,453 442.5,456.5 441.8,456.4 438.3,452.9 				"/>
			</g>
			<g>
				<polygon class="st22" points="439.7,452.6 443.2,456.1 442.5,456.5 439,453 				"/>
			</g>
			<g>
				<polygon class="st4" points="439.1,453.2 442.6,456.7 441.8,456.7 438.3,453.2 				"/>
			</g>
			<g>
				<polygon class="st53" points="440.5,449.7 443.9,453.2 443.6,455.7 440.1,452.2 				"/>
			</g>
			<g>
				<polygon class="st60" points="440.1,452.2 443.6,455.7 443.2,456.1 439.7,452.6 				"/>
			</g>
			<g>
				<path class="st39" d="M468.9,366.5l-3.1,4.9l-0.6,1.8l-0.1,1.3l-1.3,6.4l-0.4,1.9l0.2,6.1l-0.3,2.5l0.1,0.8l0.7,3l0.1,0.8
					l-1.4,1.4l-2.9,2.5l-1.1,1.3l-1,0.9l-2,1.5l-1.5,0.9l-0.6,0.4l-1.3,1.6l-0.2,1.3l-3.1-0.4l-4.5-1.6l-1.1-0.6l-0.9-0.6l-1,0
					l-0.6,0.2l-0.8,0l-1-0.3l-1.3-0.6l-1.8-0.3l-1.1,1l-0.4,2.9l0,3.3l0.3,2.1l0,1.4l-1.3,8.8l0.9,3.8l0.6,1.2l0.8,0.9l-0.4,0.9
					l-1.8,1.4l-0.3,0.5l0.4,1.4l0,1.3l0.2,1.1l1.2,0.5l2.5,0.2l0.9,0.3l0.8,0.6l1.9,2l0.7,0.9l0.5,0.8l0.2,1.1l-0.2,2.8l-0.5,1.7
					l-1.2,3.1l-0.3,2.5l-0.6,0.5l-0.7,0.4l-0.8,0l-0.7-0.3l-0.6-0.4l-1.2-0.1l-1.7,1.3l-1.2,0.6l-2,0.8l-3.6,2.2l-4.5,3.7l-2.6,1.7
					l-1.4,1.1l-1.1,1.2l-0.3,0.6l0,2.1l-1.1,4.5l-1.2,0.2l-5.9-1.4l-0.8-4.9l-2.4-0.1l-0.3-0.8l-0.4-12.5l-0.4-1.9l-0.1-3.3
					l-0.1-0.7l-0.2-0.6l-0.6-0.7l-1.4-0.8l-3.4-0.5l-1.1-0.4l-2.5,0.2l-1.5-0.1H390l-3-0.8l-2.2-1.9l-1.2-1.9l-1.1-2.6l-2.3-10.8
					l-2,1.5l-7.9,5.6l-1,0.9l-1.4,1.8l-0.6,0.6l-0.6-0.9l-0.2-1.9l-2.1-0.1l-4.3-0.6l-1.6,0.6l-0.4,0.6l-0.2,0.8l0.1,1.8l-0.2,1.4
					l-0.6,1.3l-3.7,5.4l-1.1,1.3L352,447l-0.3,1.7l-0.8-0.2l-7.3-2.1l-1.8-1.2l-1.6,0.5l-2.6-0.6l-2.6-1l-4.2-0.8l-6.8-2.2
					l-12.2-1.4l-2.8,0.7l-1.5,0.2l-0.8-0.7l-0.9-2.5l-2.4-1.1l-12.3-1.2l-7.1-0.7l-3.6,1l-1,1.3l-0.8,0.9l-2.8-1.7l-0.7-0.3
					l-0.8-0.1l-1.6-0.1l-1.5-0.2l-1.2-0.5l-0.9-0.8l-0.6-3.3l-0.5-1.4l-0.9,0.2l-2.2,1.2l-0.5,0.5l-1,1.4l-0.6,0.5l-4.3-3.3l-0.6-1
					l0-1l0.2-0.7l0.4-1.2l0.1-0.8l0-1.1l-1.4-5.1l-0.3-3l-0.3-1.1l-0.2-0.6l-1.1-0.8l-0.7-0.2l-0.5-0.3l-0.4-1.6l-0.2-0.9l-1.1-0.2
					l-1.7,0.5l-0.8-0.2l-0.4-0.6l-0.6-1.1l-1.6-0.4l-1.9-0.5l-0.5-2.3l1.7-5.6l0.1-1.6l0.2-1.1l0.6-0.9l0.9-0.7l1.3-0.4l1.3-0.1
					l2.7,0.4l1.8-0.1l0.8-0.3l0.7-0.4l1.9-1.3l0.9-0.9l0.9-1l0.8-0.8l0.6-0.8l0.3-0.9l-0.2-1.3l-0.1-2.1l0.5-3.5l0.3-1.1l1.6-2.8
					l5-5.7l0.9,0.4l0.6,0.9l0.8,0.7l1.5,0.3l1.7-0.1l1-0.4l0.5-0.9l0.1-1.6l0.6-1.2l1.5-0.1l1.5,0.5l0.9,0.4l2.8,2.1l1.7,0.5l2,1.3
					l2.4,0l12.5,1.4l6.1-1.1l3.9-4.1l2.9,2.4l13.8,2l12.2,3.9l3.1,0.4l3.1-0.1l9.3-1.3l1.7-0.5l0.7-0.7l1.5-1.9l0.6-0.4l0.9,0.3
					l0.3,0.8l0.1,0.8l0.3,0.6l1,0.6l3.3,1.5l2.4,0.7l3,2.1l1.5,0.8l1.8,0.2l1.3-0.5l1.1-0.7l1.4-0.4l1.5-0.1l1.2-0.3l1-0.6l2.9-3
					l3.2-4.2l5.3-10.5l0.9-3.1l0.4-2.7l0.1-2.9l0.4-1.4l0.6-0.9l0.2-0.8L397,350l1.5-0.4l0.7-0.5l1.2-1.6l0.9-0.6l3.7-1.5l1.9-0.3
					l0.7-0.2l1.1-0.5l0.6-0.2l4.4-0.5l1.5-0.5l0.8,0.5l2,1.2l0.7,0.3l1.4,0l0.7-0.1l1.3-0.3l0.6,0.7l1,0.8l0.8,0.7l0.6,1l0.4,2.8
					l1.2,2.4l2.6,7.5l1.2,2.5l0.5,0.4l14.1,1.5l1.7-0.1l3-0.7l1.5-0.2l1.1-0.7l2.4-3.4l1.1-1.2l2,1.1l4.1,0.8l2.4,1l0.8,0.7l2.4,3
					L468.9,366.5z M468.4,366.7l-1-1.4l-2.4-3l-0.8-0.7l-2.3-1l-4.1-0.8l-1.8-1.1l-1,1.1l-2.4,3.5l-1.1,0.8l-1.5,0.2l-3,0.7
					l-1.7,0.1l-13.3-1.5l-1.5-0.5l-1.3-2.6l-2.6-7.5l-1.2-2.4l-0.4-2.8l-0.5-0.9l-0.8-0.6l-0.9-0.6l-0.6-0.9l-1.8,0.4l-1.4,0
					l-0.8-0.3l-2-1.2l-0.6-0.5l-1.5,0.5l-4.4,0.5l-0.6,0.2l-1.1,0.5l-0.7,0.3l-1.9,0.3l-3.6,1.4l-0.8,0.6l-1.2,1.6l-0.8,0.5
					l-1.4,0.3l0.7,1.4l-0.2,1l-0.6,0.9l-0.3,1.3l-0.1,2.9l-0.4,2.7l-0.9,3.2l-5.3,10.5l-3.2,4.2l-3,3l-1,0.6l-1.2,0.3l-1.5,0.1
					l-1.4,0.4l-1.1,0.7l-1.3,0.6l-1.9-0.2l-1.6-0.8l-3-2.1l-2.4-0.7l-3.3-1.5l-1-0.7l-0.4-0.7l-0.1-0.8l-0.2-0.6l-0.7-0.2l-1.7,1.7
					l-1,1.1l-1.8,0.5l-9.4,1.3l-3.1,0.1l-3.2-0.4l-12.2-3.9l-13.8-2l-2.8-2.3l-3.9,4.1l-6.3,1.1l-12.6-1.4l-1.9,0.1l-2.6-1.3
					l-1.7-0.5l-2.8-2.1l-0.8-0.4l-1.5-0.5l-1.3,0l-0.6,1.1l-0.1,1.6l-0.5,1l-1.1,0.5l-1.8,0.1l-1.6-0.3l-0.8-0.7l-0.6-0.9l-0.5-0.5
					l-5.1,5.7l-1.6,2.8l-0.3,1.1l-0.5,3.5l0.1,2.1l0.2,1.3l-0.3,1l-0.6,0.8l-0.8,0.8l-0.9,1l-1,0.9l-1.9,1.4l-0.7,0.4l-0.9,0.3
					l-1.9,0.1l-2.7-0.4l-1.3,0.1l-1.3,0.4l-0.8,0.6l-0.5,0.8l-0.2,1.1l-0.1,1.6l-1.7,5.5l0.4,2.1l1.8,0.5l1.7,0.4l0.7,1.2l0.3,0.5
					l0.7,0.2l1.7-0.5l0.9,0l0.8,1.3l0.3,1.5l1.2,0.4l0.8,0.3l0.4,0.5l0.2,0.6l0.3,1.1l0.3,3l1.4,5.2l0.1,1.1l-0.1,0.9l-0.4,1.2
					l-0.2,0.7l0,1l4.5,4.1l0.5-0.4l1-1.4l0.5-0.5l1.8-0.9l1.5-0.6l0.7,1.6l0.6,3.3l0.8,0.7l1.2,0.5l1.5,0.2l1.6,0.1l0.9,0.1l0.8,0.4
					l2.2,1.8l1.2-0.8l1-1.3l3.8-1.1l7.1,0.7l12.3,1.2l2.1,0.7l0,1.5l2,2.1l1.4-0.1l2.8-0.7l12.3,1.4l6.9,2.2l4.2,0.8l2.6,1l2.5,0.6
					l1.6-0.5l1.9,1.2l7.3,2.1l0.7-1.3l0.2-0.7l1.2-1.3l3.7-5.4l0.6-1.2l0.2-1.4l-0.1-1.8l0.3-0.9l0.5-0.7l1.7-0.7l4.4,0.5l0.6,0
					l1.9,2.1l0.2,0.6l0.6-0.4l1.4-1.8l1-0.9l7.9-5.6l1.9-2.1l0.5,0.7l2.3,10.8l1.1,2.6l1.1,1.8l2.1,1.9l3,0.8h3.9l1.5,0.1l2.5-0.2
					l1.2,0.4l3.4,0.5l1.5,0.8l0.6,0.8l0.3,0.7l0.1,0.8l0,3.3l0.4,1.9l0.4,12.4l0.2,0.7l0.5,0.4l2.4,4.4l6.2,1.4l0.8,0.4l1.1-3.9
					l0-2.5l0.1-0.6l0.3-0.7l1.1-1.2l1.4-1.2l2.6-1.7l4.5-3.7l3.6-2.2l2-0.8l1.1-0.6l1.8-1.3l0.8-0.2l1.2,0.6l0.6,0.3l0.7,0l0.7-0.4
					l0.5-0.4l0.3-2.4l1.2-3.1l0.5-1.6l0.2-2.8l-0.2-1l-0.5-0.8l-0.7-0.9l-1.9-2l-0.7-0.6l-0.8-0.3l-2.5-0.2l-1.3-0.6l-0.3-1.3l0-1.3
					l0-2.1l1.8-1.4l0.3-0.7l-0.8-0.8l-0.6-1.3l-0.9-3.8l1.3-8.9l0-1.4l-0.3-2.1l0-3.3l0.4-3l1.3-1.2l1.9,0.3l1.3,0.6l1,0.3l0.8,0
					l0.6-0.2l0.6-0.1l1.5,0.7l1.1,0.6l4.4,1.6l2.7,0.5l0-0.8l0.8-1.4l1.3-1.2l1.5-0.9l2-1.4l1-0.9l1.1-1.3l2.9-2.5l1.2-0.7l0-1.2
					l-0.7-3l-0.1-0.9l0.3-2.5l-0.2-6.1l0.4-1.9l1.3-6.4l0-1.3l0.6-1.9L468.4,366.7"/>
			</g>
			<g>
				<polygon class="st37" points="467.4,365.4 468.6,366.5 465.5,371.2 465,373.1 464.9,374.4 463.6,380.7 463.3,382.6 463.5,388.8 
					463.2,391.2 463.3,392.1 464,395.1 464,395.9 462.8,397 459.8,399.5 458.7,400.8 457.7,401.7 455.7,403.2 454.2,404.1 
					453.6,404.5 452.3,406.1 452.1,407.4 449.4,407 444.9,405.4 443.8,404.8 442.9,404.3 441.7,404.2 441.1,404.4 440.4,404.5 
					439.4,404.2 438.1,403.6 436.2,403.2 434.9,404.3 434.4,407.4 434.4,410.7 434.7,412.9 434.7,414.2 433.4,423.1 434.3,426.9 
					434.9,428.2 435.7,429.1 435.4,429.8 433.6,431.1 433.2,431.7 433.6,434.6 433.8,435.8 435.1,436.4 437.6,436.7 438.4,437 
					439.1,437.6 441,439.6 441.7,440.5 442.2,441.3 442.3,442.3 442.1,445 441.7,446.6 440.5,449.7 440.1,452.2 439.7,452.6 
					439,453 438.3,452.9 437.7,452.7 437.1,452.3 435.7,452.2 433.9,453.5 432.8,454.1 430.8,454.9 427.2,457.1 422.7,460.8 
					420,462.5 418.6,463.6 417.5,464.8 417.2,465.5 417.1,466.1 417.2,467.7 416.1,472.1 415.2,472.2 409.2,470.8 408.6,466.1 
					406.1,465.9 405.8,465.2 405.5,452.8 405.1,450.9 405,447.6 404.9,446.8 404.7,446.2 404.1,445.4 402.6,444.6 399.1,444 
					398,443.6 395.4,443.9 393.9,443.7 390.1,443.7 387.1,442.9 385,441.1 383.8,439.2 382.7,436.6 380.4,425.9 380.1,425.2 
					378,427.3 370.1,432.9 369.1,433.8 367.7,435.6 367.2,436.1 366.9,435.5 366.7,433.6 364.4,433.4 360,432.8 358.4,433.5 
					357.8,434.2 357.6,435.1 357.7,436.9 357.5,438.3 356.9,439.6 353.1,444.9 352,446.2 351.8,446.9 351.5,448.5 343.7,446.1 
					341.9,444.9 340.2,445.4 337.7,444.8 335.1,443.9 330.9,443.1 324,440.9 311.8,439.5 309,440.2 307.6,440.4 307,439.8 
					306.1,437.5 303.4,436.1 291.1,434.8 284,434.2 280.3,435.2 279.3,436.6 278.4,437.4 275.9,435.6 275.2,435.3 274.3,435.1 
					272.6,435.1 271.2,434.8 270,434.4 269.2,433.6 268.7,430.4 268.1,428.8 266.9,429 264.6,430.2 264.1,430.7 263.1,432.2 
					262.6,432.6 258.6,429.3 258.1,427.5 258.2,426.8 258.6,425.6 258.7,424.7 258.7,423.6 257.2,418.4 256.9,415.4 256.6,414.3 
					256.4,413.7 256,413.2 255.2,412.8 254.4,412.6 253.6,410.9 253.5,409.9 252.1,409.5 250.3,410.1 249.7,409.9 249.3,409.5 
					248.8,408.4 247,407.9 245.2,407.4 244.8,405.3 246.5,399.8 246.7,398.2 246.9,397.1 247.4,396.3 248.3,395.7 249.5,395.3 
					250.8,395.2 253.5,395.6 255.4,395.5 256.2,395.2 257,394.8 258.9,393.5 259.9,392.5 260.8,391.5 261.6,390.7 262.2,389.9 
					262.5,388.9 262.3,387.6 262.3,385.5 262.8,382 263.1,380.9 264.7,378.1 269.7,372.5 270.3,372.9 270.9,373.8 271.7,374.5 
					273.3,374.9 275.1,374.8 276.1,374.3 276.7,373.3 276.9,371.7 277.5,370.6 278.8,370.6 280.2,371.1 281.1,371.5 283.8,373.6 
					285.5,374.1 287.4,375.3 289.9,375.4 302.5,376.8 308.7,375.6 312.6,371.5 315.3,373.8 329.2,375.9 341.4,379.8 344.6,380.1 
					347.7,380.1 357.1,378.8 358.9,378.3 359.7,377.5 361.2,375.7 362.3,375.6 362.5,376.2 362.6,377 363,377.8 364.1,378.5 
					367.4,380 369.8,380.7 372.8,382.8 374.3,383.6 376.2,383.9 377.5,383.3 378.7,382.6 380,382.2 381.6,382.1 382.8,381.8 
					383.8,381.2 386.7,378.1 390,373.9 395.3,363.4 396.2,360.2 396.6,357.5 396.8,354.6 397.1,353.3 397.7,352.5 398,351.5 
					397.3,350 398.6,349.8 399.4,349.3 400.6,347.6 401.4,347 405,345.6 407,345.2 407.7,345 408.8,344.4 409.4,344.3 413.8,343.7 
					415.3,343.3 415.9,343.7 417.9,344.9 418.7,345.2 420.1,345.3 420.9,345.2 422.5,345.4 423.5,346.3 424.3,347 424.8,347.9 
					425.2,350.6 426.4,353.1 429.1,360.6 430.3,363.2 430.9,363.7 445.1,365.2 446.9,365.1 449.9,364.4 451.3,364.2 452.5,363.5 
					455,360 456,358.9 457.8,360 461.9,360.8 464.3,361.8 465,362.4 				"/>
			</g>
			<g>
				<polygon class="st4" points="439.8,452.8 443.3,456.3 442.6,456.7 439.1,453.2 				"/>
			</g>
			<g>
				<polygon class="st13" points="440.7,449.8 444.2,453.3 443.9,455.8 440.4,452.3 				"/>
			</g>
			<g>
				<polygon class="st18" points="440.4,452.3 443.9,455.8 443.3,456.3 439.8,452.8 				"/>
			</g>
		</g>
		<g class="st2">
			<g>
				<polygon class="st24" points="362.9,301.1 366.4,304.6 366.5,304.7 363,301.2 				"/>
			</g>
			<g>
				<polygon class="st4" points="362.8,301.4 366.3,304.9 366.1,305 362.6,301.5 				"/>
			</g>
			<g>
				<polygon class="st22" points="362.8,301.7 366.3,305.1 366.1,305 362.6,301.5 				"/>
			</g>
			<g>
				<polygon class="st8" points="362.8,301.4 366.3,304.9 366.4,305.1 362.9,301.6 				"/>
			</g>
			<g>
				<polygon class="st37" points="362.9,301.6 362.8,301.7 362.6,301.5 362.8,301.4 				"/>
			</g>
			<g>
				<polygon class="st22" points="362.9,301.6 366.4,305.1 366.3,305.1 362.8,301.7 				"/>
			</g>
			<g>
				<polygon class="st4" points="362.7,301.9 366.2,305.4 365.8,305 362.3,301.5 				"/>
			</g>
			<g>
				<polygon class="st4" points="362.9,301.9 366.3,305.4 366.2,305.4 362.7,301.9 				"/>
			</g>
			<g>
				<polygon class="st9" points="363,301.2 366.5,304.7 366.6,305.1 363.2,301.7 				"/>
			</g>
			<g>
				<polygon class="st4" points="363.1,301.8 366.6,305.3 366.3,305.4 362.9,301.9 				"/>
			</g>
			<g>
				<polygon class="st71" points="363.2,301.7 366.6,305.1 366.6,305.3 363.1,301.8 				"/>
			</g>
			<g>
				<path class="st39" d="M362.7,301.9l-0.4-0.4l0-0.1l0.1-0.1l0.5-0.2h0.1l0.1,0.1l0.2,0.5l-0.1,0.2l-0.2,0.1L362.7,301.9z
					 M362.8,301.4l-0.2,0.1l0.2,0.2l0.1,0L362.8,301.4"/>
			</g>
		</g>
		<g class="st2">
			<g>
				<polygon class="st20" points="366.4,295.8 369.9,299.3 369.7,299.5 366.2,296 				"/>
			</g>
			<g>
				<polygon class="st4" points="366.7,295.7 370.2,299.2 369.9,299.3 366.4,295.8 				"/>
			</g>
			<g>
				<polygon class="st15" points="366.2,296 369.7,299.5 369.7,300.1 366.2,296.6 				"/>
			</g>
			<g>
				<polygon class="st4" points="367.1,295.8 370.5,299.3 370.2,299.2 366.7,295.7 				"/>
			</g>
			<g>
				<polygon class="st9" points="367.2,295.6 370.7,299 370.8,299.2 367.3,295.7 				"/>
			</g>
			<g>
				<polygon class="st80" points="367.1,295.8 370.5,299.3 370.5,299.5 367,296 				"/>
			</g>
			<g>
				<polygon class="st27" points="367.3,295.7 370.8,299.2 370.8,299.5 367.3,296.1 				"/>
			</g>
			<g>
				<polygon class="st23" points="366.2,296.6 369.7,300.1 369.9,300.5 366.4,297 				"/>
			</g>
			<g>
				<polygon class="st80" points="367,296 370.5,299.5 370.5,300.4 367,296.9 				"/>
			</g>
			<g>
				<polygon class="st8" points="367,296.9 370.5,300.4 370.5,300.5 367,297 				"/>
			</g>
			<g>
				<polygon class="st27" points="367.3,296.1 370.8,299.5 370.7,300.4 367.2,296.9 				"/>
			</g>
			<g>
				<polygon class="st9" points="366.4,297 369.9,300.5 370.4,301.2 366.9,297.8 				"/>
			</g>
			<g>
				<polygon class="st54" points="367.3,297.4 370.7,300.9 370.4,301.2 366.9,297.8 				"/>
			</g>
			<g>
				<polygon class="st31" points="367.3,297.4 370.8,300.8 370.7,300.9 367.3,297.4 				"/>
			</g>
			<g>
				<polygon class="st68" points="367,297 370.5,300.5 370.8,300.8 367.3,297.4 				"/>
			</g>
			<g>
				<path class="st39" d="M366,296.7L366,296.7l0-0.7l0-0.1l0.3-0.3l0,0l0.4-0.1l0.1,0l0.5,0.1l0.1,0.1l0,0.4l-0.1,0.8l0.4,0.4
					l0,0.2l-0.2,0.2l0,0L367,298l-0.1,0l-0.1-0.1l-0.5-0.8l0,0L366,296.7z M366.4,295.8l-0.2,0.2l0,0.6l0.2,0.4l0.5,0.7l0.4-0.3
					l0.1-0.1L367,297l0-0.1l0.1-0.9l0-0.3l-0.3-0.1L366.4,295.8"/>
			</g>
			<g>
				<polygon class="st37" points="366.4,297 366.2,296.6 366.2,296 366.4,295.8 366.7,295.7 367.1,295.8 367,296 367,296.9 367,297 
					367.3,297.4 367.3,297.4 366.9,297.8 				"/>
			</g>
			<g>
				<polygon class="st21" points="367.2,296.9 370.7,300.4 371.1,300.8 367.6,297.3 				"/>
			</g>
			<g>
				<polygon class="st4" points="366.9,298.1 370.3,301.6 370.3,301.5 366.8,298 				"/>
			</g>
			<g>
				<polygon class="st4" points="367,298 370.4,301.5 370.3,301.6 366.9,298.1 				"/>
			</g>
			<g>
				<polygon class="st30" points="367.6,297.3 371.1,300.8 371.1,300.9 367.6,297.4 				"/>
			</g>
			<g>
				<polygon class="st18" points="367.4,297.6 370.9,301.1 370.4,301.5 367,298 				"/>
			</g>
			<g>
				<polygon class="st3" points="367.6,297.4 371.1,300.9 370.9,301.1 367.4,297.6 				"/>
			</g>
			<g>
				<polygon class="st20" points="367.4,297.6 370.9,301.1 370.9,301.1 367.4,297.6 				"/>
			</g>
		</g>
		<g class="st2">
			<g>
				<polygon class="st44" points="378.3,296 381.8,299.5 381.7,299.7 378.2,296.2 				"/>
			</g>
			<g>
				<polygon class="st4" points="378.6,296.2 382,299.7 381.8,299.5 378.3,296 				"/>
			</g>
			<g>
				<polygon class="st23" points="378.2,296.2 381.7,299.7 381.9,300 378.4,296.5 				"/>
			</g>
			<g>
				<polygon class="st32" points="378.6,296.2 382,299.7 381.9,300 378.4,296.5 				"/>
			</g>
			<g>
				<polygon class="st37" points="378.6,296.2 378.4,296.5 378.2,296.2 378.3,296 				"/>
			</g>
			<g>
				<polygon class="st17" points="378.8,296.1 382.3,299.6 382.3,299.8 378.8,296.3 				"/>
			</g>
			<g>
				<polygon class="st4" points="378.3,296.9 381.8,300.3 381.7,300.3 378.2,296.8 				"/>
			</g>
			<g>
				<path class="st39" d="M378.2,296.8l-0.2-0.5l0-0.1l0.1-0.4l0.1-0.1l0.1,0l0.5,0.4l0,0.2l-0.4,0.5l-0.1,0.1L378.2,296.8z
					 M378.3,296l-0.1,0.2l0.1,0.3l0.2-0.3L378.3,296"/>
			</g>
			<g>
				<polygon class="st4" points="378.5,296.8 381.9,300.3 381.8,300.3 378.3,296.9 				"/>
			</g>
			<g>
				<polygon class="st7" points="378.8,296.3 382.3,299.8 381.9,300.3 378.5,296.8 				"/>
			</g>
		</g>
		<g class="st2">
			<g>
				<polygon class="st5" points="383.5,299 387,302.5 386.5,303 383,299.5 				"/>
			</g>
			<g>
				<polygon class="st9" points="383.8,298.6 387.3,302.1 387.4,302.2 383.9,298.7 				"/>
			</g>
			<g>
				<polygon class="st36" points="383,299.5 386.5,303 385.4,304.4 381.9,300.9 				"/>
			</g>
			<g>
				<polygon class="st78" points="383.5,299 387,302.5 386.9,303.1 383.4,299.6 				"/>
			</g>
			<g>
				<polygon class="st42" points="381.9,300.9 385.4,304.4 385.3,304.7 381.8,301.2 				"/>
			</g>
			<g>
				<polygon class="st62" points="383.4,299.6 386.9,303.1 386.9,303.1 383.4,299.7 				"/>
			</g>
			<g>
				<polygon class="st22" points="382.2,301 385.7,304.5 385.3,304.7 381.8,301.2 				"/>
			</g>
			<g>
				<polygon class="st4" points="381.7,301.6 385.2,305 385,305 381.5,301.6 				"/>
			</g>
			<g>
				<polygon class="st4" points="380.2,303.1 383.7,306.6 383,307 379.5,303.5 				"/>
			</g>
			<g>
				<polygon class="st22" points="382.3,301 385.8,304.5 385.7,304.5 382.2,301 				"/>
			</g>
			<g>
				<polygon class="st42" points="383.9,298.7 387.4,302.2 387.1,303.2 383.7,299.7 				"/>
			</g>
			<g>
				<polygon class="st4" points="382.3,301.3 385.7,304.7 385.2,305 381.7,301.6 				"/>
			</g>
			<g>
				<polygon class="st17" points="379.5,303.5 383,307 383.1,307.4 379.6,303.9 				"/>
			</g>
			<g>
				<polygon class="st81" points="383.2,300.7 386.7,304.2 386.6,304.3 383.1,300.8 				"/>
			</g>
			<g>
				<polygon class="st62" points="383.4,299.7 386.9,303.1 386.9,304 383.4,300.5 				"/>
			</g>
			<g>
				<polygon class="st22" points="382.8,301.2 386.3,304.7 385.8,304.5 382.3,301 				"/>
			</g>
			<g>
				<polygon class="st22" points="382.8,301.2 386.3,304.7 386.3,304.7 382.8,301.2 				"/>
			</g>
			<g>
				<polygon class="st22" points="383.3,300.8 386.8,304.2 386.7,304.2 383.2,300.7 				"/>
			</g>
			<g>
				<polygon class="st4" points="382.7,301.4 386.1,304.9 385.7,304.7 382.3,301.3 				"/>
			</g>
			<g>
				<polygon class="st8" points="383.4,300.5 386.9,304 386.9,304.1 383.5,300.7 				"/>
			</g>
			<g>
				<polygon class="st30" points="383.7,299.7 387.1,303.2 387.1,304 383.6,300.5 				"/>
			</g>
			<g>
				<polygon class="st64" points="383.1,300.8 386.6,304.3 386.6,304.7 383.1,301.2 				"/>
			</g>
			<g>
				<polygon class="st72" points="383.1,301.2 386.6,304.7 386.4,304.9 383,301.4 				"/>
			</g>
			<g>
				<polygon class="st22" points="383,301.4 386.4,304.9 386.3,304.7 382.8,301.2 				"/>
			</g>
			<g>
				<polygon class="st9" points="383.3,300.8 386.8,304.2 386.9,304.4 383.5,301 				"/>
			</g>
			<g>
				<polygon class="st23" points="383.5,301 386.9,304.4 387,304.5 383.5,301 				"/>
			</g>
			<g>
				<polygon class="st4" points="382.9,301.6 386.4,305.1 386.1,304.9 382.7,301.4 				"/>
			</g>
			<g>
				<polygon class="st23" points="379.6,303.9 383.1,307.4 383.4,308.1 379.9,304.6 				"/>
			</g>
			<g>
				<polygon class="st23" points="379.9,304.6 383.4,308.1 383.4,308.1 379.9,304.6 				"/>
			</g>
			<g>
				<polygon class="st4" points="383,301.7 386.4,305.2 386.4,305.1 382.9,301.6 				"/>
			</g>
			<g>
				<polygon class="st3" points="383.3,301.4 386.8,304.9 386.5,305.1 383.1,301.6 				"/>
			</g>
			<g>
				<polygon class="st4" points="383.1,301.6 386.5,305.1 386.4,305.2 383,301.7 				"/>
			</g>
			<g>
				<polygon class="st4" points="382.1,302.7 385.6,306.2 383.7,306.6 380.2,303.1 				"/>
			</g>
			<g>
				<polygon class="st4" points="384.1,301 387.5,304.5 386.9,304.1 383.5,300.7 				"/>
			</g>
			<g>
				<polygon class="st24" points="384.2,300.8 387.7,304.3 387.8,304.3 384.3,300.8 				"/>
			</g>
			<g>
				<polygon class="st21" points="383.5,301 387,304.5 387.1,305 383.6,301.6 				"/>
			</g>
			<g>
				<polygon class="st20" points="383.6,301.7 387,305.2 386.4,305.8 382.9,302.3 				"/>
			</g>
			<g>
				<polygon class="st10" points="383.6,301.6 387.1,305 387,305.2 383.6,301.7 				"/>
			</g>
			<g>
				<polygon class="st8" points="384.1,301 387.5,304.5 387.6,304.7 384.1,301.2 				"/>
			</g>
			<g>
				<polygon class="st9" points="384.3,300.8 387.8,304.3 387.8,304.6 384.4,301.1 				"/>
			</g>
			<g>
				<polygon class="st56" points="382.1,302.7 385.6,306.2 386,306.6 382.5,303.1 				"/>
			</g>
			<g>
				<polygon class="st9" points="382.9,302.3 386.4,305.8 386.6,306.1 383.1,302.6 				"/>
			</g>
			<g>
				<polygon class="st9" points="379.9,304.6 383.4,308.1 383.7,309 380.2,305.5 				"/>
			</g>
			<g>
				<polygon class="st4" points="382.9,302.8 386.4,306.3 386.4,306.2 382.9,302.8 				"/>
			</g>
			<g>
				<polygon class="st24" points="382.3,302.5 385.7,306 386.2,306.5 382.7,303 				"/>
			</g>
			<g>
				<polygon class="st24" points="382.7,303 386.2,306.5 386.2,306.6 382.7,303.1 				"/>
			</g>
			<g>
				<polygon class="st32" points="383.7,302.3 387.2,305.8 387.1,305.9 383.7,302.4 				"/>
			</g>
			<g>
				<polygon class="st8" points="384.1,301.2 387.6,304.7 387.8,305.2 384.3,301.7 				"/>
			</g>
			<g>
				<polygon class="st22" points="384.3,301.9 387.8,305.4 387.2,305.8 383.7,302.3 				"/>
			</g>
			<g>
				<polygon class="st62" points="384.3,301.7 387.8,305.2 387.8,305.4 384.3,301.9 				"/>
			</g>
			<g>
				<polygon class="st9" points="384.4,301.1 387.8,304.6 388.1,305.2 384.6,301.7 				"/>
			</g>
			<g>
				<polygon class="st21" points="384.6,301.7 388.1,305.2 388.1,305.2 384.6,301.7 				"/>
			</g>
			<g>
				<polygon class="st22" points="383.5,302.8 387,306.3 386.6,306.1 383.1,302.6 				"/>
			</g>
			<g>
				<polygon class="st37" points="382.3,301 382.2,301 381.8,301.2 381.9,300.9 383,299.5 383.5,299 383.4,299.6 383.4,299.7 
					383.4,300.5 383.5,300.7 384.1,301 384.1,301.2 384.3,301.7 384.3,301.9 383.7,302.3 383.7,302.4 383.6,302.7 383.5,302.8 
					383.1,302.6 382.9,302.3 383.6,301.7 383.6,301.6 383.5,301 383.5,301 383.3,300.8 383.2,300.7 383.1,300.8 383.1,301.2 
					383,301.4 382.8,301.2 382.8,301.2 				"/>
			</g>
			<g>
				<polygon class="st82" points="383.7,302.4 387.1,305.9 387.1,306.2 383.6,302.7 				"/>
			</g>
			<g>
				<polygon class="st22" points="383.6,302.7 387.1,306.2 387,306.3 383.5,302.8 				"/>
			</g>
			<g>
				<polygon class="st30" points="384.6,301.7 388.1,305.2 388.1,305.4 384.6,301.9 				"/>
			</g>
			<g>
				<polygon class="st4" points="383.5,303 387,306.5 386.4,306.3 382.9,302.8 				"/>
			</g>
			<g>
				<polygon class="st22" points="380.7,305.9 384.1,309.4 383.7,309 380.2,305.5 				"/>
			</g>
			<g>
				<polygon class="st4" points="384.5,302 388,305.5 387.4,305.9 383.9,302.5 				"/>
			</g>
			<g>
				<polygon class="st14" points="384.6,301.9 388.1,305.4 388,305.5 384.5,302 				"/>
			</g>
			<g>
				<polygon class="st4" points="383.6,303 387.1,306.5 387,306.5 383.5,303 				"/>
			</g>
			<g>
				<polygon class="st34" points="383.9,302.5 387.4,305.9 387.3,306.3 383.8,302.8 				"/>
			</g>
			<g>
				<polygon class="st65" points="382.5,303.1 386,306.6 385.8,307.8 382.4,304.3 				"/>
			</g>
			<g>
				<polygon class="st58" points="383.8,302.8 387.3,306.3 387.3,306.4 383.8,302.9 				"/>
			</g>
			<g>
				<path class="st39" d="M381.7,301.6l-0.1,0l0-0.1l0.2-0.6l0,0l1.1-1.5l0,0l0.8-0.7l0.2,0l0,0.1l-0.2,0.9l0,0.8l0.6,0.3l0.1,0.1
					l0.1,0.2l0.2,0.6l0,0l0,0.2l-0.1,0.1l-0.6,0.4l-0.1,0.4l0,0.1l-0.2,0.1l-0.1,0l-0.6-0.2l-0.1,0l-0.2-0.4l0-0.2l0.7-0.7l0-0.2
					l-0.2,0.3l-0.1,0l-0.1,0l-0.2-0.2l-0.4-0.2L381.7,301.6z M381.9,300.9l-0.1,0.3l0.4-0.2l0.1,0l0.5,0.2l0,0l0.1,0.1l0.1-0.2
					l0-0.4l0.1-0.1l0.1,0l0.2,0.2l0,0.1l0.1,0.5l0,0.1l-0.6,0.6l0.2,0.3l0.5,0.2l0.1,0l0-0.4l0.1-0.1l0.6-0.4l0-0.1l-0.2-0.6
					l-0.1-0.2l-0.6-0.3l-0.1-0.1l0-0.9l0,0l0.1-0.6l-0.5,0.4L381.9,300.9"/>
			</g>
			<g>
				<polygon class="st5" points="383.8,302.9 387.3,306.4 387.1,306.5 383.6,303 				"/>
			</g>
			<g>
				<polygon class="st4" points="380.5,306.1 384,309.6 383.5,309.1 380,305.6 				"/>
			</g>
			<g>
				<polygon class="st4" points="380.7,306.2 384.2,309.7 384,309.6 380.5,306.1 				"/>
			</g>
			<g>
				<polygon class="st67" points="382.4,304.3 385.8,307.8 384.9,309 381.4,305.5 				"/>
			</g>
			<g>
				<polygon class="st22" points="381.4,305.5 384.9,309 384.1,309.4 380.7,305.9 				"/>
			</g>
			<g>
				<path class="st39" d="M379.4,304L379.4,304l-0.1-0.6l0.1-0.1l0.8-0.5l0,0l2-0.4l0.1,0l0.5,0.6l0,0.1l-0.1,1.2l0,0.1l-1,1.2l0,0
					l-0.9,0.5l-0.1,0l-0.5-0.5l0-0.1l-0.3-0.9L379.4,304z M380.2,303.1l-0.7,0.4l0.1,0.4l0.3,0.7l0,0l0.3,0.8l0.5,0.4l0.7-0.4l1-1.2
					l0.1-1.2l-0.4-0.5L380.2,303.1"/>
			</g>
			<g>
				<polygon class="st37" points="379.9,304.6 379.6,303.9 379.5,303.5 380.2,303.1 382.1,302.7 382.5,303.1 382.4,304.3 
					381.4,305.5 380.7,305.9 380.2,305.5 379.9,304.6 				"/>
			</g>
			<g>
				<polygon class="st13" points="382.7,303.1 386.2,306.6 386.1,307.9 382.6,304.4 				"/>
			</g>
			<g>
				<polygon class="st74" points="382.6,304.4 386.1,307.9 386.1,307.9 382.6,304.4 				"/>
			</g>
			<g>
				<polygon class="st4" points="381.5,305.7 385,309.2 384.2,309.7 380.7,306.2 				"/>
			</g>
			<g>
				<polygon class="st19" points="382.6,304.4 386.1,307.9 385.1,309.1 381.6,305.7 				"/>
			</g>
			<g>
				<polygon class="st5" points="381.6,305.7 385.1,309.1 385,309.2 381.5,305.7 				"/>
			</g>
		</g>
		<g class="st2">
			<g>
				<polygon class="st4" points="392.4,303.7 395.8,307.2 395.5,307.4 392,303.9 				"/>
			</g>
			<g>
				<polygon class="st9" points="392.5,303.5 396,306.9 396.1,307 392.6,303.5 				"/>
			</g>
			<g>
				<polygon class="st27" points="392,303.9 395.5,307.4 395.4,307.9 392,304.4 				"/>
			</g>
			<g>
				<polygon class="st68" points="392.4,303.7 395.8,307.2 395.9,307.5 392.4,304 				"/>
			</g>
			<g>
				<polygon class="st23" points="392,304.4 395.4,307.9 395.5,308 392,304.5 				"/>
			</g>
			<g>
				<polygon class="st24" points="392.6,303.5 396.1,307 396.2,307.5 392.7,304 				"/>
			</g>
			<g>
				<polygon class="st30" points="392,304.5 395.5,308 395.5,308.1 392,304.6 				"/>
			</g>
			<g>
				<polygon class="st30" points="392.7,304 396.2,307.5 396.2,307.6 392.7,304.1 				"/>
			</g>
			<g>
				<polygon class="st16" points="392,304.6 395.5,308.1 395.4,308.3 391.9,304.8 				"/>
			</g>
			<g>
				<polygon class="st9" points="391.9,304.8 395.4,308.3 395.5,308.5 392,305 				"/>
			</g>
			<g>
				<polygon class="st83" points="392.4,304 395.9,307.5 395.5,308.5 392,305 				"/>
			</g>
			<g>
				<path class="st39" d="M391.7,304.9l0-0.1l0.1-0.2l-0.1-0.1l0-0.1l0-0.6l0.1-0.1l0.6-0.3h0.1l0.1,0.1l0.1,0.4l0,0.1l-0.5,1.2
					l-0.1,0.1l-0.1-0.1L391.7,304.9z M392,304.4l0.1,0.2l0,0.1l-0.1,0.2l0.1,0.1l0.4-1l-0.1-0.3l-0.4,0.2L392,304.4"/>
			</g>
			<g>
				<polygon class="st37" points="391.9,304.8 392,304.6 392,304.5 392,304.4 392,303.9 392.4,303.7 392.4,304 392,305 				"/>
			</g>
			<g>
				<polygon class="st4" points="392.1,305.3 395.5,308.8 395.4,308.8 392,305.3 				"/>
			</g>
			<g>
				<polygon class="st5" points="392.2,305.3 395.7,308.8 395.5,308.8 392.1,305.3 				"/>
			</g>
			<g>
				<polygon class="st74" points="392.7,304.1 396.2,307.6 395.7,308.8 392.2,305.3 				"/>
			</g>
		</g>
	</g>
</g>
<path class="st1" d="M51.4,313h0.3l0.7,0.8l0.1,0.9l0.2-0.4l0.5-0.2l0.1-1l-0.2-1.1l-1.5,0.2l-0.5,0.4l0.3,0.2L51.4,313z
	 M74.7,311.7l0.2-0.1l-0.2-0.6l-0.5-0.2l-0.8,0.4L74,312L74.7,311.7z M8.8,361.9l1.2-1.1l0.6-2.5l0.1-2.8l-0.1-1.8l-0.8,0l-0.8,0.1
	l-0.6,0.2l-0.3,0.5l-0.3-0.1L7,354.4l-0.8,0.5l-0.6,0.7L5.1,355l-3.6,2.8L0,359.6l0.2,1.3l0.9-0.3l3.1-3.1l0.5,1.7l0.5,0.7l0.9,0.4
	l-0.6,0.9l-0.6,1.3l-0.2,1.2l0.7,0.5l0.8-0.4l1.3-1.7L8.8,361.9z M83.5,303l0.3-0.1l0-0.3l-0.3-0.2l-1.6,0.1l0.2,0.3L83.5,303z
	 M118.1,341.2l0-3.8l-0.7-0.2l-0.8-1l-0.8-2.9l-2.1-2.3l-1.3-7.7l0.7-1.1l2.3-1.8l0.3-0.2l-0.1-0.8l-0.6-1.2l-1.1-0.8l-1.5-0.5
	l-1.6-0.3l-8.2-0.1l-1.6,0.4l-1.1,0.9l-1.2,0.7l-1.8,0l-4.4-2.1l-1.8-0.3l-1.7-0.5l-4.5-3.4l-3-0.2l-1.8,1.8l-1.6,2.2L76,317
	l-1.2-0.3l-2.2-1.4l-0.8-0.3l-0.5-0.8l-0.3-4.6l-1.6-1.8l-2.3-0.3l-2.3,0.9l-1.6,1.7l-1.4,4.7l-0.8,0.7l-0.7,0.4l-5,5.1l-1.5,2.8
	l-2,5.8l-0.5,2.6l-0.8,12.3l0.2,2.4l-1.1,3l-1.9,2.5l-3.1,1.3l-2,0.3l-0.9-1l-1.2-0.7l-0.3-2.6l-1.5-0.1l-0.9,0.6l-1.8,3.6l0.6,5.9
	l-0.4,1.1l-1.1,1.4l-5.7,5.1l-0.8,1.5l-1.1,3.3l-0.9,1.3l-1.4,0.5l-1.3-0.5l-0.9-1l-0.4-1.1l-1.7-2.8l-0.1-0.7l0-0.7l-0.2-0.9
	l-0.5-0.8l-0.8-1l-1-0.8l-0.9-0.4l-1.2,0.4l-0.7,1l-0.5,1.3l-0.7,1.2l-2,2l-1.2,1l-1,0.4l-2.4-0.3l-0.5,0.1L7.1,371l0.4,0.5l1,0.7
	l0.8,2.7l0.6,1.2l1.3,0.5l0.6-0.2l0.5-0.4l0.4-0.6l0.3-1.4l0.7-0.3l3.3,0.2l3,1.2l0.4,0.2l0.4,0.4l0.3,0.5l0.1,0.5l0.3,0.3l0.7-0.3
	l0.7-0.5l0.2-0.2l1.3,0.2l0.8,0.6l1.1,1l0.9-0.5l2.6,0.8l1.4-1.2l3-0.5l7.6-1l1.5,0.2l2.3,0.4l1.4,0.4l1.3-0.3l2.2-0.5l2.3-0.1
	l1.4-0.2l0.8,0.9l1-0.3l0.2-1l1.2-0.4l1.5-0.2l1.4-0.2l1.4,0l2.1,0.3l3.2,1.1l5.2,4.2l3.1,1.4l2.4-0.2l2.6,1.9l0.5,0.4l0.4,0.5
	l0.1,0.5l0.3,0.3l1,0.1L83,385l0.7,1l0.4,0.2l1,0.1l0.6,0.2l0.6,0.3l1,0.3l1.5,0.1l1.8-0.2l1.6-0.5l0.2-0.1l-0.3-0.9l-0.2-0.8l0-1
	l0.4-1.6l0.7-1.9l2.7-4.9l4-3.8l0.2-1.1l-1.4-1.2l-1-0.4l-2.3-0.7l-0.6-1l-0.6-1.7l-1.5-12.3l0.3-2.3l1-2l0.7-1.8l-0.1-1.9l-0.4-1.7
	l-0.4-1.2l0.7-1.4l1-0.6l0.6-0.3l0.7,0l0.4,0.6l0.3,1l0.5,0.9l0.7,0.3l0.9-0.4l1-0.7l1.2-0.5l2.1,0.1l1.5,0.6l1.5,0.9l2.1,0.6
	l7.8,0.2l1.9-1.2L118.1,341.2z M48.5,383.9l-0.5,0.4l-0.9,0.2l-0.8,0.2l0.4,0.6l0.7-0.2L48,385l0.6-0.2l0.7-0.2l0.8-0.7l-0.5-0.2
	L48.5,383.9z M29.9,387l-0.4,0l-0.1,0.1l-0.5,0.2l-0.1,0.6l2.1,0.5l1.3-0.4l-0.5-0.6L29.9,387z"/>
</svg>
