<?xml version="1.0" encoding="utf-8"?>
<!-- Generator: Adobe Illustrator 22.1.0, SVG Export Plug-In . SVG Version: 6.00 Build 0)  -->
<svg version="1.1" id="Layer_1" xmlns="http://www.w3.org/2000/svg" xmlns:xlink="http://www.w3.org/1999/xlink" x="0px" y="0px"
	 viewBox="0 0 800 800" style="enable-background:new 0 0 800 800;" xml:space="preserve">
<style type="text/css">
	
		.st0{fill-rule:evenodd;clip-rule:evenodd;fill:#BFC0C2;stroke:#F9F9F9;stroke-width:0.25;stroke-linecap:round;stroke-linejoin:round;}
	.st1{fill:#BFC0C2;stroke:#F9F9F9;stroke-width:0.25;stroke-linecap:round;stroke-linejoin:round;}
	.st2{enable-background:new    ;}
	.st3{fill:#A2A2A2;}
	.st4{fill:#7D7D7D;}
	.st5{fill:#17477F;}
	.st6{fill:#1D5AA1;}
	.st7{fill:#D6D6D6;}
	.st8{fill:#2779DA;}
	.st9{fill:#9E9E9E;}
	.st10{fill:#8A8A8A;}
	.st11{fill:#858585;}
	.st12{fill:#7F7F7F;}
	.st13{fill:#A0A0A0;}
	.st14{fill:#848484;}
	.st15{fill:#174984;}
	.st16{fill:#7E7E7E;}
	.st17{fill:#828282;}
	.st18{fill:#A3A3A3;}
	.st19{fill:#A1A1A1;}
	.st20{fill:#9A9A9A;}
	.st21{fill:#888888;}
	.st22{fill:#8D8D8D;}
	.st23{fill:#808080;}
	.st24{fill:#999999;}
	.st25{fill:#1C589E;}
	.st26{fill:#9B9B9B;}
	.st27{fill:#174780;}
	.st28{fill:#184B87;}
	.st29{fill:#1D5CA4;}
	.st30{fill:#174983;}
	.st31{fill:#1B5598;}
	.st32{fill:#9F9F9F;}
	.st33{fill:#184C89;}
	.st34{fill:#174882;}
	.st35{fill:#969696;}
	.st36{fill:#818181;}
	.st37{fill:#1C589D;}
	.st38{fill:#868686;}
	.st39{fill:#909090;}
	.st40{fill:#939393;}
	.st41{fill:#8B8B8B;}
	.st42{fill:#8F8F8F;}
	.st43{fill:#919191;}
	.st44{fill:#1D5BA2;}
	.st45{fill:#1D5BA3;}
	.st46{fill:#1D5CA5;}
	.st47{fill:#1B5396;}
	.st48{fill:#174881;}
	.st49{fill:#184D89;}
	.st50{fill:#959595;}
	.st51{fill:#1D5BA4;}
	.st52{fill:#9C9C9C;}
	.st53{fill:#8C8C8C;}
	.st54{fill:#1D5CA6;}
	.st55{fill:#1D5AA2;}
	.st56{fill:#174880;}
	.st57{fill:#878787;}
	.st58{fill:#929292;}
	.st59{fill:#9D9D9D;}
	.st60{fill:#1A5395;}
	.st61{fill:#194F8E;}
	.st62{fill:#1E5CA6;}
	.st63{fill:#184D8A;}
	.st64{fill:#1A5192;}
	.st65{fill:#1C569B;}
	.st66{fill:#1C599F;}
	.st67{fill:#194E8D;}
	.st68{fill:#1A5293;}
	.st69{fill:#1B5496;}
	.st70{fill:#949494;}
	.st71{fill:#1C59A0;}
</style>
<polygon class="st0" points="411.2,472.8 410.7,468 410.3,468 409.8,468 409.3,468.3 408.8,468.4 408.2,468 408,467.2 407.5,454.7 
	407.1,452.8 407.1,449.5 406.9,448.7 406.7,448.1 406.1,447.3 404.7,446.6 401.2,446 400.1,445.6 397.5,445.9 396.1,445.7 
	392.1,445.7 389.1,444.9 387,443 385.8,441.2 384.7,438.5 382.3,427.8 382,427.1 380.1,429.2 372.2,434.9 371.2,435.8 369.8,437.6 
	369.2,438.2 369,438 368.8,437.4 368.6,435.5 368.3,435.1 367.9,435.1 367.4,435.3 367,435.4 366.4,435.3 362,434.8 360.4,435.4 
	359.9,436.1 359.7,437 359.8,438.8 359.6,440.2 359,441.5 355.3,446.9 354.1,448.2 353.9,448.9 353.7,450.6 353.7,450.6 
	371.2,459.6 373.5,459.8 374.2,460 375.5,461.3 375.9,461.5 377.6,463.2 377.9,463.7 378.6,463.9 379.4,463.8 380.1,463.9 
	384.8,466.5 386.2,466.9 388,467.1 390,467.6 393.9,469.3 393.9,468.8 396.5,470.1 398,470.6 399.5,470.8 400.2,471.1 401.3,472.1 
	402,472.3 411.2,472.8 "/>
<polygon class="st0" points="270.9,373.6 269.9,373.3 268.6,373.1 267.5,372.8 266.9,372.1 263.9,373.8 260.7,373.8 257.6,372.7 
	254.6,370.6 250.5,370.2 248.2,363.7 245.7,350.7 242,348.5 241.1,348.2 239.7,347.5 233.7,340.3 233.2,335.4 232.8,333.6 
	231.3,333.9 230.8,334.7 229.3,333.8 224.8,333.6 222.5,333 221.2,332.3 220.4,332.5 221.2,333.2 221.7,333.8 221.8,334.7 
	221.6,335.7 221,336.5 220.4,337 220.2,337.2 218.4,338.2 217.2,339 216.3,339.2 215.1,339.3 213.7,339.3 212.3,338.7 210.5,338.1 
	206.3,336 203.2,334.8 199.5,332.5 199.5,331 198.7,329.3 198.2,329.6 197.2,330.7 196.2,330.7 196,329.7 194.5,329.2 193.4,329.5 
	193.6,330.4 193.4,331.1 192.8,331.1 192.1,330.8 191.4,330.7 190.7,330.8 190.3,331.2 188.7,331.9 187.7,332.6 186.5,332.8 
	185.4,332.2 183.9,333 182.2,332.1 179.8,329.4 175.6,329.2 171.8,327.7 168.9,326.4 167.2,323.5 164.8,320.6 162.4,316.7 
	160.6,314.4 158.2,313.4 155.3,312.8 149.9,314.4 148.6,314.6 147.4,314.6 145.9,314.1 145,313.3 144.2,312.4 143.4,311.7 
	140.9,310.5 138.4,310 136.7,310.7 137,313.1 135.5,315.2 135.1,316.3 135.5,317 136.2,318.1 136.2,318.9 135.8,319.8 135.5,321.2 
	134.7,321.6 134.3,321.7 134.4,321.9 134.3,326.4 134.1,330.3 134.1,332.8 134,333.8 133.7,334.7 133.1,335.8 131.8,340.7 
	130.9,342.6 129.7,343.2 126.9,341 124.7,339.9 123.2,340.8 122.6,341 121.8,340.9 121,340.2 120.2,339.7 119.7,339.2 119.4,338.6 
	119.1,338.1 118.1,337.5 118.1,341.2 118.4,342.4 116.4,343.5 108.7,343.4 106.5,342.8 105.1,341.9 103.6,341.3 101.5,341.2 
	100.4,341.7 99.4,342.4 98.5,342.8 97.8,342.6 97.3,341.6 97,340.7 96.6,340.1 95.8,340.1 95.3,340.3 94.3,341 93.6,342.4 94,343.6 
	94.4,345.4 94.5,347.3 93.8,349 92.8,351 92.5,353.3 94,365.6 94.6,367.3 95.2,368.3 97.5,369 98.5,369.5 99.9,370.7 99.7,371.8 
	95.7,375.5 93,380.4 92.3,382.3 91.9,383.9 91.9,384.9 92.1,385.6 92.4,386.6 93.8,384.6 95.8,384 97.9,384.9 100,384.6 101.9,386 
	102.3,388.4 102.2,391.1 100.3,392.9 97.4,396.3 96.1,397.5 97.3,399.1 96.9,399.8 95.7,400 94.4,399.9 93.2,400.6 92,402 
	91.1,403.6 90.7,404.8 90.9,406.3 90.3,409.3 92,411.1 92,412.9 91.9,414.2 92.6,413.9 94.5,413 96.3,413.3 97.9,414 100.9,416.5 
	107,417 120.2,418.2 125.9,418.4 142.9,419.7 145.6,420.5 148.1,421.1 150.4,421.8 152.9,422.1 156.6,422.6 161.1,423.1 
	164.7,422.5 165.3,423.2 165.8,423.4 166.2,423.3 167.6,423.7 169,424 169.7,425.6 173.1,426.3 175.1,427.2 177.6,427.9 
	180.1,429.8 182.6,431 183.9,432.8 184.5,434.4 186.5,435.1 191.1,435.7 193.1,436.1 194.6,437.1 194.8,439.2 197.2,440.3 
	200.2,439.9 203.6,439.9 216.9,443.3 230.4,445.5 239.6,445.6 242.5,443.7 243.2,441.7 243.4,438.5 245.7,436.6 247.1,436.2 
	251.9,436.1 252.9,436.2 253.4,436.6 253.8,438.3 255.3,438.6 255.6,438.4 255.8,437.8 255.3,436.4 255.9,435.8 256.6,435.1 
	257.5,434.6 258.2,434.7 258.8,435 259.3,435.4 259.8,435.6 261.6,436.6 263.6,435.2 264.4,434.6 260.2,431.2 259.9,430.8 
	259.7,430.3 259.7,429.3 259.8,428.6 260.2,427.4 260.3,426.5 260.2,425.4 258.8,420.3 258.4,417.2 258.2,416.2 257.9,415.6 
	257.6,415.1 256.7,414.7 256,414.5 255.5,414.3 255.1,412.7 255,411.7 254.5,411.5 253.7,411.5 252,412 251.2,411.9 250.8,411.3 
	250.2,410.2 248.5,409.8 246.7,409.3 246.2,407.1 248,401.5 248.1,399.9 248.3,398.8 248.9,398 249.7,397.3 251,396.9 252.3,396.9 
	255.1,397.3 256.9,397.2 257.8,396.9 258.5,396.5 260.4,395.1 261.3,394.2 262.2,393.1 263.1,392.4 263.6,391.6 263.9,390.6 
	263.7,389.3 263.7,387.2 264.1,383.7 264.5,382.6 266.1,379.8 271.1,374.1 271.3,374 "/>
<polygon class="st0" points="134.4,321.9 134.3,321.7 134.3,321.7 123.5,323.4 120.3,323.5 117.4,322.9 116.3,322 116,320.8 
	115.9,320.2 115.5,320.4 113.2,322.2 112.5,323.3 113.8,331 115.8,333.3 116.6,336.3 117.5,337.3 118.1,337.5 119.1,338.1 
	119.4,338.6 119.7,339.2 120.2,339.7 121,340.2 121.8,340.9 122.6,341 123.2,340.8 124.7,339.9 126.9,341 129.7,343.2 130.9,342.6 
	131.8,340.7 133.1,335.8 133.7,334.7 134,333.8 134.1,332.8 134.1,330.3 134.3,326.4 "/>
<path class="st1" d="M537,304.4l0.6,0.8l1.9,0.1l1.1-0.7l0.6-0.2l0.3,0.6l0.4,0.2l2,0.1l0.7-0.1l1.3-0.5l0.9-0.9l0.5-1.3l0.1-1.6
	l-0.3-1.7l-0.7-1.1l-0.9-0.8l-1-0.7l-1.2,0.1l-1,0.4l-0.9,0.2l-0.8-0.3l-1.7,1.8l-0.2,0.4l-2,1.6l-0.5,0.6l0.8,1.6L537,304.4z
	 M619.7,402.5l0.1,0.3l2.1,0.9l1.2,0l0.7-0.6v-0.4l-1.7-0.3l-2.1-0.3L619.7,402.5z M681.2,507.7l-0.4-0.9l-0.6-0.8l-3.8-1.4
	l-1.8-1.2l-0.9-0.2l-1.4,0l-1.2-0.4l-1.1-1.1l-0.9-1.4l-0.5-1.4l0.1-4.7l-0.3-2.3l-1.3-1.3l0,3.2l-0.3,1.8l-0.9,0.8l-0.9-0.6
	l-0.2-1.5l-0.1-3.2l-0.8-1.6l-0.2-0.8l0.1-0.7l0.4-1.6l0.2-2.1l2.8-14.2l3-10.3l0-3.4l-0.1-0.5l-0.2-0.5l-0.2-0.6l0-0.8l0.3-0.8
	l0.9-1.3l0.2-0.5l0.5-3l0.1-1.6l-0.5-1.5l-1-1.1l-2.8-1.5l-1.3-1.1l-0.6-0.3l-0.8-0.1l-1.6,0.1l-0.9-0.1l-0.7-0.2l-1.1-0.7l-2.6-2.5
	l-1.1-0.4l-1.6,0.2l-2.9,0.8l-1.7,0l-2.3-0.9l-1.7-1.4l-2.8-3.6l-2.3-1.3l-2.1,0.4l-5.1,4.3l-1,0.4l-1.5,0.2l-1.7-0.2l-1.2-0.4
	l-1.1-0.1l-1.3,0.7l-1.5,1.7l-0.9,0.8l-1.3,0.3l-1.6-0.2l-2.9-1l-1.7-0.1l-0.6,0.2l-1.4,0.6l-0.9,0.2l-9.4-1.4l-1.7,0.2l-2.3,1.3
	l-1.1,0.3l-1.5,0.2l-1.6,0.5l-2.6,1.3l-2.5,1.7l-1.4,0.6l-1.7,0.2l-1-0.5l-1.7-2.2l-1.4-0.7l-0.8,0l-1.5,0.4l-0.6,0.1l-0.9-0.2
	l-1.6-0.7l-2.3-0.6l-1.5-1l-2.5-2.5l-1.4-1.1l-1.4-0.6l-1.5-0.2l-1.9,0l-1.3-0.3l-9.1-3.9l-6-4.4v-5.9l0.6-1.2l2.7-1.8l0.6-1.4
	l0-2.9l0.1-1.2l0.6-2.6l0-1.1l-0.2-1.1l-1.1-2l-0.8-1.1l-1-1l-1.2-0.4l-1.7,0.4l-1.1,1.1l-0.9,1.3l-1.1,1.1l-4-1.7l-1.8-1.1
	l-1.2-1.6l4.3,0.4l1.1-0.4l0.4-1.3l-0.7-1.5l-1.2-1.2l-1.2-0.5l-0.6-0.5l-0.7-1.1l-0.6-1.2l-0.3-0.8l0.5-0.6l1.2-0.5l2.3-0.6
	l-0.6-1.2l-1,0.1l-1.1,0.4l-0.8-0.3l-0.6-0.6l-1.6-2.4l-0.3-0.7l0.3-1.7l1.1-2.8l0.1-1.5l-0.2-0.6L537,379l-0.5-0.6l-0.5-0.4
	l-1.1-0.4l-0.4,0.1l0,0.5l0,0.9l-0.4,1.5l-1,0.7l-1.4,0l-1.6-0.5l-1.1-0.7l-1.1-1l-1.2-0.8l-1.4-0.3l-0.4,0.2l-0.5,0.4l-0.5,0.3
	l-1.1-0.4l-2.6-0.4l-1.7,0.2l-2.9,1l-1.5,0.2h-3l-0.8,0.1l-2.4,0.8l-3,0.4l-3.1,0.1l-1.6-0.3l-1.2-0.9l-4.2-5.3l-2.4-2.4l-1.3-0.4
	l-1.6,0.4l-2.3,1.2l-1.6,0.5l-1.2-0.1l-1.2-0.3l-3-0.3l-4.8-1.3l-1.7-0.8l-1.6-1.1l-1.6-1.5l-0.3,0.3l-2.8,4.5l-0.6,1.8l0,1.3
	l-1.3,6.4l-0.4,1.9l0.2,6.1l-0.3,2.5l0.1,0.8l0.7,3l0.1,0.8l-0.1,0.5l-1.2,0.7l-2.9,2.5l-1.1,1.3l-1,0.9l-2,1.5l-1.5,0.9l-0.6,0.4
	l-0.4,0.3l-0.4,0.4l-0.6,0.8l-0.2,0.5l0,0.9l-2.9-0.5l-4.5-1.6l-1.1-0.6l-0.9-0.6l-0.5-0.1l-0.6,0.1l-0.6,0.2l-0.8,0l-1-0.3
	l-1.3-0.6l-1.8-0.3l-1.2,1.1l-0.4,3l0,3.3l0.3,2.1l0,1.4l-1.2,8.8l0.9,3.8l0.6,1.3l0.8,0.9l-0.4,0.8l-1.8,1.4l-0.3,0.6l0,0.4
	l0.3,0.5l0.1,0.6l0,1.3l0.2,1.2l1.2,0.6l2.5,0.2l0.8,0.3l0.8,0.6l1.9,2l0.7,0.9l0.5,0.8l0.2,1l-0.2,2.8l-0.5,1.6l-1.2,3.1l-0.3,2.5
	l-0.5,0.4l-0.7,0.4l-0.7,0l-0.6-0.3l-0.6-0.4l-0.5-0.2l-0.8,0.1l-1.8,1.3l-1.1,0.6l-2,0.8l-3.6,2.2l-4.5,3.7l-2.6,1.7l-1.4,1.2
	l-1.1,1.2l-0.3,0.7l-0.1,0.6l0.1,1.6l0,0.6l0,0.4l-1,3.5l-0.1,0.5l0,0l3.9,1.7l1.4,0.3h2.9l0.6-0.2l0.4-0.4l0.7-1l0.3-0.6l0.3-0.7
	l0.3-0.5l0.5-0.1l0.5,0.6l0.1,1l0.3,0.9l0.9,0.4l0.8,0.1l0.7,0.3l0.5,0.5l0.2,0.8l0.3,0.7l0.7,0.1l5.9-1.8l0.3-0.4l0.6-0.3l0.7-0.1
	l0.6,0.2l0.8,0.7l0.4,0.2l0.8-0.1h3.7l0.7,0.2l0.8,0.6l0.5,0.2l0.7-0.1l1.3-0.4l0.5,0l1.2,0.5l0.1,0.6l-0.1,0.9l0.5,1.2l5,1.2
	l1.1-0.2l1.1-0.8l1,0.1l2.5,1.3l1.2,0.2l0.8-1h0.5l0.6,1.4l1.1,1.1l1.4,0.7l1.6,0.2l0.8-0.2l0.3-0.5l-0.1-0.5l-1-0.6l0.1-0.7
	l0.4-0.7l0.2-0.3l0.4-1.5l0.4-0.7l0.6-0.3l0.7,0.4l0.5,0.9l0.3,0.9l0.3,0.4l1.4-0.4l0.1-1.1l-0.1-1.4l0.7-1.4l0.8-0.3l0.7,0.2
	l0.7,0.4l0.8,0.3l0.8,0.1l1.9-0.1l1.1,0.4l1.7,1.6l1.4,0.5l0.6,0l0.3-0.2l0.3-0.3l1.8-1.2l0.7,0l2.3,1.4l1.6,0.5l13.2,1.3l1.3,0.4
	l0.4,0.3l0.3,0.3l0.5,0.3l1,0.1l1.9-0.8l0.8-0.2l1.5-0.1l1.8,0.3l1.8,0.7l1.3,1.1l-0.2,0.3l-0.3,0.7l1.6,0l1.1,0.5l0.9,0.6l1.1,0.3
	h5.6l3.8,1.3l2.8,0.5l3.2,1.4l1.2,0.8l1.3-1.2l0.8-0.5l1.1-0.2l1.2-0.1l1.1-0.3l0.5-0.3l1-0.9l1.1-0.6l0.4,0.1l0.7,0.5l0.6,0.3
	l0.7-0.2l0.6-0.5l0.2-0.6l0.3-0.4l1.7,1.2l0.9-0.1l2.3,0.9l2.4-1.6l3.6-4.1l2.8-1.5l3.1-0.8l9.2-1.1l3.1,0.3l3,0.8l3,1.2l1.6,1.1
	l3.5,4.1l1.3,0.6l1.1-0.4l1.2-0.6l1.5,0.1l0.4,0.3l0.5,0.9l0.4,0.5l0.5,0.5l2.6,1.5l1,0.1l2.3-0.3l0.4,0.2l0.8,0.9l0.5,0.4l2.2,0.4
	l0.9,0.4l1.3,1.9l1,0.7l1.2,0.1l0.7-0.2l0.6-0.1l0.9,0.6l0.1,0.5l-0.2,1.2l0.3,0.3l1.3,0.1l0.6-0.1l0.3-0.2l0.4-0.7l1-0.6l1.2-0.4
	l1.1-0.1l0.5,0.5l0.4,2.4l0.3,1l0.2-0.4l0.2-0.2l0.3-0.2l0.4-0.3l1.2,0.9l1.9,0.8l1.9,0.6l1.2,0.2l0.8-0.2l1.5-0.7l0.7-0.2l0.7,0.4
	l-0.1,0.9l-0.3,1l-0.1,0.8l0.9,1.2l1.1-0.1l1.3-0.6l1.4-0.4l0.7,0.3l0.7,1.3l0.6,0.3l2.6,0.5l0.7,0l3.2-1.1l1.9-0.2l0.8,1.1l0.8,0.8
	l1.7-0.7l2.9-1.8l2.9,0.1l3.4,1.5l2.6,2.3l0.5,2.5l-1.6,1.9l-0.2,1.1l1.6,0.5l4-0.3l1.6,0.3l6.3,2.1l3-0.2l2-2.5l0.1-1.8l-0.7-1.1
	L681.2,507.7z M595.2,490.9l-0.8-0.4l-4-0.2l-3.6-0.8l0.2,0.5l0.3,0.5l-1,0.7l-0.3,1.2l0.3,1.1l0.8,0.5l5.7,0l1.8-0.5l0.9-0.1
	l0.3-0.4l-0.1-1L595.2,490.9z M632.4,400.2l-0.6-0.3l-1.5,0.5l-0.9,0.9l0.1,0.9l0.9,0.2l1.9-0.5l0.5,0.3l0.3,0.4l0.7,0.7l0.5,0.2
	l-0.7-1L632.4,400.2z M650,387.6l0.5,0.1l0.2-0.2l0.2-1.3l0-1l-0.9-0.5l-0.8,1.9l0.1,0.9L650,387.6z M674.5,398.6l1.5-0.1l6.2,0.6
	l0.3-0.3l0.1-1.1l-0.2-0.8l-0.5-0.4l-0.7-0.1l-0.8,0l-0.9-0.2l-1.6-0.7l-0.6-0.2l-0.6,0.1l-2.6,1.1l-0.4,0.2l-0.2,0.4l-0.1,0.8
	l0.3,0.3L674.5,398.6z M641.8,395.3l0.3-0.8l-0.6-1.3l-1-0.6l-5.4-0.6l-0.7-0.3l-0.2-0.2l-0.6,0.3l-0.5,0.8l0.5,0.8l0.6,0.5l3.1,1.1
	L641.8,395.3z M545.5,389.5l-0.9,0.1l-0.5,0.4l-0.1,1.4l0.2,1.3l0.5,1.1l0.6,0.4l0.7-1l0.5,0.5l-0.6,1l-0.1,1l0.2,2.2l0.5,0.8
	l1.2,0.2l2.6-0.2l2.9,0.2l22.2,5l1.2-0.3l0.3-0.9l-1-0.9l-1.4-0.9l-0.9-0.8l0.5-0.5l0-1.4l0.3-0.7l0.6-0.1l1.7,0.7l0.9,0.1v0.5
	l-0.9,0.5l0,0.4l0.5,0.4l0.4,0.6l0.5,2.5l1.5,0.2l3.4-1.1l1.2,0.1l1.3,0.6l11,0.7l3.6-0.3l1.6,0.6l0.9,0.7l0.5,0.5l1.5-0.5l1.1-0.5
	l0.8-1.5l0.5-1.3l0.3-0.8l0.5-1l0.4-1.1l0.8-1l1.2-0.7l2.5,0.1l1.4-1.5l1.5,0.2l1.4,0.1l5.1,0.8l4,0.5l2.9-0.2l1.6-0.6l0-0.8
	l-0.6-0.7l-1.1-0.3l1.5-2.6l1.3-0.8l1.8,0.1l1.4-0.4l1.8-1.7l5-0.7l3.3-2l2-0.1l-1.1-2.5l-1.2-1l-2-0.7l-1.4-0.6l-1.3-1.1l-1.3-0.9
	l-1.4-0.6l-1.6-0.5l-3.2-0.4l-9.4,1.3l-8.7-0.2l-10.5,1.2l-5.8-1l-12.4,0.8l-9.1,0.1l-5.6-0.9l-6.2,0.7l-2.7,0l-2.1,0.1l-3,0.4
	l-2.2,0.8l0.1,1.2l-3.7,4.2L549,388l-2.1,1.2L545.5,389.5z M658.3,396.2l0.6,1.2l1,0.4l1.3-0.1l0.5,0.8l1.8,0.6l1.5,0.8l1,0.1
	l0.2-1.5l0.2-1.9l-1-1.3l-1-1.7l-0.8-1.5l-1.1-1l-1.5-0.4l-2,0.3l-1.8,1.9l0.3,1.5L658.3,396.2z M774.3,384.6l1.7,0l-2.4-0.8
	L774.3,384.6z M773.6,394.8l-0.1,0.5l-0.1,0.9l-0.1,0.2l-0.2-0.4l-0.4,0l-0.6,0.4l-0.2,0.6l0.2,0.7l0.4,0.5l0.4,0l0.2,0l-0.3,0.4
	l-0.7,0.1l-2-0.2l-1.4-0.6l-1.1,0l-0.5-0.2l-0.4-0.6l-0.3-0.9l-0.4-0.7l-0.6,0l-0.6,1.9l-0.3,0.1l-0.3-0.3l-0.7,0.1l-0.7,0.7l1,1.4
	l2.8,1.4l3,0.5l2.7-0.8l1.3-1.5l0.1-2.8l-0.1-1L773.6,394.8z M799.7,382.5l-1.2,0.3l-0.5,0.4l1.1,0.6l0.7-0.4l0.3-0.2L799.7,382.5z
	 M757.6,386.7l-0.6-0.5l-5.3-3l-0.7-0.1l-0.5,0.2l-0.2,0.3l0,0.7l-0.3,0.1l-0.2,0.2l0.3,0.6l1.3,0.7l0.4,0.6l2.1,0.9l1.2,0l0.2-0.2
	l0.5-0.1l1.9,0.8l0.5-0.2l-0.1-0.5L757.6,386.7z M692.3,396.3l0.1,0.2l-0.1,0.1l0.7,0.6l0.2-0.1l0.5-0.3l0.1-0.5l0-0.7l-0.8,0.3
	L692.3,396.3z M743.2,386.7l0-0.7l-0.1-0.6l-0.3-0.1l-0.1,0.4l-0.6-0.1l-0.7,0.2l-0.6,0l-0.6,0.7l1.3,1.1l1.5,0.3l0.6,0l0.4-0.3
	l-0.3-0.1L743.2,386.7z M747.8,387l0.2-0.4l0.4-0.1l-0.1-0.5l-0.5,0.1l-0.4,0.2l-0.4,0.4l-0.5,0.2l-0.7,0.8l0,0.6l1.6,1.2l0.1-0.5
	l0.6-0.1l0.6-0.3l-0.1-0.8L747.8,387z M753.8,390.2l-1.1-0.2l-0.7-0.1l0.3,0.7l-0.1,0.2l0,0.2l0.4-0.1l0.7,0.1l-0.1,0.6l1.3,0.4
	l0.2-1.2l-0.3-1.1L753.8,390.2z M750.6,380.4l-1.2-1.1l-5-2.7l-1.6-0.6l-5.9-0.6l-6.1,0.1l-1.4,0l-1.5,0.2l-0.8,0.6l0.8,1.2l-1,1.3
	l-1,0.8l-0.7,0.9l-0.3,1.7l0.5,0.8l1.2,0.2l2.7-0.3l-0.8,2.7l0,0.5l1.5,1.4l0.3,0.1l0.2,0.3l0.4,0l0.5-0.2l0.3-0.2l0.1-0.4l-0.6-0.7
	l0-0.4l-0.1,0.1l-0.1-0.2l0-0.4l0.2-0.4l1-1l2.7,2.1l1.6,0.4l1.6-1l-0.3-0.5l-0.4-0.3l-0.9-0.6l-0.8-0.3l-0.8-0.2l-0.6-0.3l-0.2-0.9
	l0.4,0l2.3-1.2l0.9,0.1l0.4,0.3l0.3,0.3l0.6,0.2h0.4l0.5-0.4l0.6-0.1l0.4-0.5l0.4-0.1l0.5,0.3l0.3,0.2l0.9,0.5l1.2,0.2l1.4,0.7
	l0.7,0.2l3.2,0.1l1.1-0.7L750.6,380.4z"/>
<path class="st1" d="M384.1,302.9l0.2,0.2l0.3-0.3l0-0.4l0.1,0.2l0.1,0.6l-0.7,0.7l0.2,0.4l0.6,0.2l0.2-0.1l0.1-0.4l0.7-0.5v-0.2
	l-0.2-0.6l-0.1-0.2l-0.7-0.4v-0.9l0.2-0.9l-0.8,0.7l-1.1,1.5L383,303l0.6-0.3L384.1,302.9z M380.1,297.7l-0.5-0.4l-0.1,0.4l0.2,0.5
	L380.1,297.7z M381.2,306.2l0.3,0.9l0.5,0.5l0.9-0.5l1-1.2l0.1-1.2l-0.5-0.6l-2,0.4l-0.8,0.5l0.1,0.5L381.2,306.2z M393.5,306.8
	l0.5-1.2l-0.1-0.4l-0.6,0.3l0,0.6l0.1,0.2l-0.1,0.3L393.5,306.8z M470.7,368.2l-1.3-1.2l-2.4-3l-0.8-0.7l-2.4-1l-4.1-0.8l-1.9-1.2
	l-1.1,1.2l-2.4,3.5l-1.1,0.7l-1.5,0.2l-3,0.7l-1.7,0.1l-13.3-1.5l-0.5,0.1l-0.4-0.1l-0.5-0.5l-1.3-2.5l-2.7-7.5l-1.2-2.5l-0.4-2.8
	l-0.5-0.9l-0.8-0.7l-0.9-0.6l-0.1-0.2l-0.5-0.6l-0.6-0.4l-0.3,0.5l-0.3,0.2l-0.7,0.1l-1.4,0l-0.8-0.3l-2-1.2l-0.7-0.5l-1.6,0.5
	l-4.4,0.5l-0.6,0.2l-1.1,0.5l-0.7,0.3l-1.9,0.3l-3.6,1.5l-0.8,0.6l-1.2,1.6l-0.7,0.5l-1.5,0.3l0.8,1.6l-0.2,0.9l-0.6,0.8l-0.4,1.4
	l-0.1,2.9l-0.4,2.7l-0.9,3.1l-5.3,10.5l-3.2,4.2l-2.9,3l-1,0.6l-1.2,0.3l-1.5,0.1l-1.4,0.4l-1.1,0.7l-1.3,0.6l-1.8-0.2l-1.5-0.8
	l-3-2.1l-2.5-0.7l-3.3-1.5l-1-0.6l-0.3-0.7l-0.1-0.8l-0.3-0.7l-0.8-0.3l-0.6,0.3l-1.2,1.5l-0.2,0.4l-0.8,0.7l-1.8,0.5l-9.4,1.3
	l-3.1,0.1l-3.2-0.4l-12.3-3.9l-13.9-2l-2.8-2.4l-3.9,4.2l-6.2,1.1l-12.6-1.4l-1.9,0.1L289,377l-2-1.3l-1.7-0.5l-2.8-2.1l-0.9-0.4
	l-1.5-0.5l-1.4,0l-0.6,1.2l-0.1,1.6l-0.5,1l-1,0.5l-1.7,0.1l-1.6-0.3l-0.8-0.7l-0.6-0.9l-0.6-0.6l0,0l-0.2,0.1l-5,5.7l-1.6,2.8
	l-0.3,1.1l-0.5,3.5l0.1,2.1l0.2,1.3l-0.3,1l-0.6,0.8l-0.8,0.8l-0.9,1l-1,0.9l-1.9,1.3l-0.7,0.4l-0.8,0.3l-1.9,0.1l-2.7-0.4l-1.3,0.1
	l-1.3,0.4l-0.9,0.6l-0.6,0.9l-0.2,1.1l-0.1,1.6l-1.7,5.5l0.4,2.2l1.9,0.5l1.7,0.4l0.6,1.1l0.4,0.5l0.8,0.2l1.7-0.6l0.8,0l0.5,0.3
	l0.2,1l0.3,1.6l0.5,0.2l0.7,0.2l0.8,0.3l0.4,0.5l0.2,0.6l0.3,1.1l0.4,3l1.4,5.2l0.1,1.1l-0.1,0.9l-0.4,1.2l-0.2,0.7l0,1l0.2,0.5
	l0.3,0.4l4.1,3.4l0.6-0.5l1-1.4l0.5-0.5l1.8-0.9l0.5-0.3l1-0.2l0.6,1.6l0.6,3.3l0.9,0.8l1.2,0.5l1.5,0.2l1.6,0.1l0.9,0.1l0.7,0.4
	l2.2,1.8l0.5,0l0.8-0.8l1-1.3l3.7-1.1l7.1,0.7l12.3,1.2l2.1,0.7l0.4,0.2l0.1,0.3l-0.5,0.8l0,0.4l0.4,0.4l0.5,0.2l0.4,0.2l0.2,0.5
	l0.6,0.7l1.5-0.2l2.8-0.7l12.3,1.4l6.9,2.2l4.3,0.8l2.6,0.9l2.6,0.6l1.6-0.5l1.9,1.2l7.3,2.1l0.6,0.3l0,0l0.2-1.7l0.2-0.7l1.1-1.3
	l3.7-5.4l0.6-1.2l0.2-1.4l-0.1-1.9l0.2-0.8l0.5-0.7l1.6-0.7l4.3,0.6l0.6,0l0.5-0.1l0.4-0.2l0.4,0l0.3,0.3l0.2,1.9l0.2,0.6l0.2,0.2
	l0.6-0.6l1.4-1.8l1-0.9l7.9-5.6l1.9-2.1l0.3,0.6l2.4,10.8l1.1,2.6l1.2,1.9l2.2,1.9l3,0.8h3.9l1.5,0.1l2.6-0.2l1.1,0.4l3.5,0.5
	l1.4,0.8l0.6,0.8l0.2,0.6l0.1,0.8l0.1,3.3l0.4,1.9l0.4,12.5l0.3,0.8l0.6,0.5l0.5-0.1l0.5-0.3l0.5,0l0.4,0.1l0.5,4.8l0,0l0.3,0l6,1.4
	l1,0.4l0,0l0.1-0.5l1-3.5l0-0.4l0-0.6l-0.1-1.6l0.1-0.6l0.3-0.7l1.1-1.2l1.4-1.2l2.6-1.7l4.5-3.7l3.6-2.2l2-0.8l1.1-0.6l1.8-1.3
	l0.8-0.1l0.5,0.2l0.6,0.4l0.6,0.3l0.7,0l0.7-0.4l0.5-0.4l0.3-2.5l1.2-3.1l0.5-1.6l0.2-2.8l-0.2-1l-0.5-0.8l-0.7-0.9l-1.9-2l-0.8-0.6
	l-0.8-0.3l-2.5-0.2l-1.2-0.6l-0.2-1.2l0-1.3l-0.1-0.6l-0.3-0.5l0-0.4l0.3-0.6l1.8-1.4l0.4-0.8l-0.8-0.9l-0.6-1.3l-0.9-3.8l1.2-8.8
	l0-1.4l-0.3-2.1l0-3.3l0.4-3l1.2-1.1l1.8,0.3l1.3,0.6l1,0.3l0.8,0l0.6-0.2l0.6-0.1l0.5,0.1l0.9,0.6l1.1,0.6l4.5,1.6l2.9,0.5l0-0.9
	l0.2-0.5l0.6-0.8l0.4-0.4l0.4-0.3l0.6-0.4l1.5-0.9l2-1.5l1-0.9l1.1-1.3l2.9-2.5l1.2-0.7l0.1-0.5l-0.1-0.8l-0.7-3l-0.1-0.8l0.3-2.5
	l-0.2-6.1l0.4-1.9l1.3-6.4l0-1.3l0.6-1.8l2.8-4.5L470.7,368.2L470.7,368.2z M367.7,298.6l0.5,0.8l0.5-0.4l0.1-0.2l-0.4-0.5l0.1-0.9
	l0-0.4l-0.5-0.1l-0.4,0.1l-0.3,0.3l0,0.7L367.7,298.6z M280.5,441.6l-0.3-0.3l-0.6-0.6l-3.8-2.1l-2.3-0.7l-3.7-0.5l-3.8-1.8
	l-1.1,0.5l-0.7,1.1l-0.2,1.3l0.4,1l1.1,0.3l3-0.4l1.1,0.4l1,0.5l4.2,0.7l3.9,1.3l1.9,0.3l0.7,0.2l0.5-0.1l0.3-0.8l-0.3-0.5
	L280.5,441.6z M364.4,303.2l-0.2-0.5l-0.5,0.2l0.4,0.4L364.4,303.2z"/>
<g>
	<g>
		<g class="st2">
			<g>
				<polygon class="st3" points="79.9,300.5 84.7,304.9 84.7,305 80,300.6 				"/>
			</g>
			<g>
				<polygon class="st4" points="79.9,300.8 84.7,305.2 84.6,305.2 79.8,300.8 				"/>
			</g>
			<g>
				<polygon class="st4" points="81.3,300.4 86,304.8 84.7,304.9 79.9,300.5 				"/>
			</g>
			<g>
				<polygon class="st4" points="81.5,300.5 86.2,304.9 86,304.8 81.3,300.4 				"/>
			</g>
			<g>
				<polygon class="st5" points="81.3,300.8 86.1,305.2 84.7,305 80,300.6 				"/>
			</g>
			<g>
				<polygon class="st3" points="81.7,300.3 86.4,304.7 86.5,304.8 81.7,300.4 				"/>
			</g>
			<g>
				<polygon class="st5" points="81.5,300.7 86.2,305.1 86.1,305.2 81.3,300.8 				"/>
			</g>
			<g>
				<polygon class="st6" points="81.5,300.5 86.2,304.9 86.2,305.1 81.5,300.7 				"/>
			</g>
			<g>
				<path class="st7" d="M79.8,300.8l-0.2-0.3l0-0.1l0.1-0.1l1.6-0.1l0.1,0l0.3,0.2l0.1,0.1l0,0.3l-0.1,0.1l-0.3,0.2l-0.1,0
					L79.8,300.8L79.8,300.8z M81.3,300.4l-1.3,0.1l0.1,0.1l1.3,0.2l0.1-0.1l0-0.2L81.3,300.4"/>
			</g>
			<g>
				<polygon class="st8" points="81.3,300.8 80,300.6 79.9,300.5 81.3,300.4 81.5,300.5 81.5,300.7 				"/>
			</g>
			<g>
				<polygon class="st4" points="81.3,301 86.1,305.4 84.7,305.2 79.9,300.8 				"/>
			</g>
			<g>
				<polygon class="st4" points="81.4,301 86.2,305.4 86.1,305.4 81.3,301 				"/>
			</g>
			<g>
				<polygon class="st9" points="81.7,300.4 86.5,304.8 86.5,305.1 81.7,300.7 				"/>
			</g>
			<g>
				<polygon class="st10" points="81.7,300.7 86.5,305.1 86.4,305.2 81.7,300.9 				"/>
			</g>
			<g>
				<polygon class="st4" points="81.7,300.9 86.4,305.2 86.2,305.4 81.4,301 				"/>
			</g>
		</g>
		<g class="st2">
			<g>
				<polygon class="st11" points="-0.7,355.7 4.1,360.1 2.7,361.9 -2.1,357.5 				"/>
			</g>
			<g>
				<polygon class="st12" points="2.9,353 7.6,357.4 4.1,360.1 -0.7,355.7 				"/>
			</g>
			<g>
				<polygon class="st13" points="-2.1,357.5 2.7,361.9 2.8,363 -1.9,358.6 				"/>
			</g>
			<g>
				<polygon class="st4" points="-2,358.9 2.7,363.3 2.6,363.2 -2.1,358.9 				"/>
			</g>
			<g>
				<polygon class="st9" points="3,352.8 7.7,357.1 8.2,357.6 3.4,353.2 				"/>
			</g>
			<g>
				<polygon class="st5" points="-1.3,358.4 3.5,362.7 2.8,363 -1.9,358.6 				"/>
			</g>
			<g>
				<polygon class="st6" points="2.9,353 7.6,357.4 8.1,357.8 3.3,353.5 				"/>
			</g>
			<g>
				<polygon class="st4" points="3.4,353.5 8.2,357.9 8.1,357.8 3.3,353.5 				"/>
			</g>
			<g>
				<polygon class="st14" points="4.1,352.8 8.8,357.1 8.3,357.8 3.5,353.4 				"/>
			</g>
			<g>
				<polygon class="st4" points="3.5,353.4 8.3,357.8 8.2,357.9 3.4,353.5 				"/>
			</g>
			<g>
				<polygon class="st15" points="1.8,355.3 6.6,359.6 3.5,362.7 -1.3,358.4 				"/>
			</g>
			<g>
				<polygon class="st4" points="-1.2,358.6 3.6,363 2.7,363.3 -2,358.9 				"/>
			</g>
			<g>
				<polygon class="st16" points="-1.1,358.5 3.7,362.9 3.6,363 -1.2,358.6 				"/>
			</g>
			<g>
				<polygon class="st5" points="2,355.2 6.7,359.6 6.6,359.6 1.8,355.3 				"/>
			</g>
			<g>
				<polygon class="st5" points="2.1,355.3 6.8,359.7 6.7,359.6 2,355.2 				"/>
			</g>
			<g>
				<polygon class="st4" points="4.9,352.3 9.6,356.7 8.8,357.1 4.1,352.8 				"/>
			</g>
			<g>
				<polygon class="st17" points="1.9,355.6 6.6,360 3.7,362.9 -1.1,358.5 				"/>
			</g>
			<g>
				<polygon class="st4" points="5.5,352.2 10.3,356.6 9.6,356.7 4.9,352.3 				"/>
			</g>
			<g>
				<polygon class="st4" points="5.8,352.3 10.6,356.7 10.3,356.6 5.5,352.2 				"/>
			</g>
			<g>
				<polygon class="st10" points="6.2,351.8 11,356.2 10.7,356.6 6,352.2 				"/>
			</g>
			<g>
				<polygon class="st4" points="6,352.2 10.7,356.6 10.6,356.7 5.8,352.3 				"/>
			</g>
			<g>
				<polygon class="st4" points="6.7,351.6 11.5,356 11,356.2 6.2,351.8 				"/>
			</g>
			<g>
				<polygon class="st4" points="7.5,351.5 12.3,355.9 11.5,356 6.7,351.6 				"/>
			</g>
			<g>
				<polygon class="st18" points="2.1,355.3 6.8,359.7 7.3,361.4 2.6,357 				"/>
			</g>
			<g>
				<polygon class="st4" points="8.2,351.6 12.9,355.9 12.3,355.9 7.5,351.5 				"/>
			</g>
			<g>
				<polygon class="st9" points="8.3,351.3 13.1,355.7 13.2,355.8 8.4,351.4 				"/>
			</g>
			<g>
				<polygon class="st3" points="2.6,357 7.3,361.4 7.8,362.1 3,357.7 				"/>
			</g>
			<g>
				<polygon class="st4" points="2.9,357.9 7.7,362.3 7.6,362.3 2.9,357.9 				"/>
			</g>
			<g>
				<polygon class="st6" points="8.2,351.6 12.9,355.9 13,357.6 8.3,353.2 				"/>
			</g>
			<g>
				<polygon class="st5" points="3.9,358.1 8.6,362.5 7.8,362.1 3,357.7 				"/>
			</g>
			<g>
				<polygon class="st4" points="3.6,358.3 8.4,362.7 7.7,362.3 2.9,357.9 				"/>
			</g>
			<g>
				<polygon class="st19" points="3.9,358.1 8.6,362.5 8.7,362.6 3.9,358.2 				"/>
			</g>
			<g>
				<polygon class="st9" points="8.4,351.4 13.2,355.8 13.3,357.6 8.5,353.2 				"/>
			</g>
			<g>
				<polygon class="st20" points="3.9,358.2 8.7,362.6 8.7,362.7 3.9,358.3 				"/>
			</g>
			<g>
				<polygon class="st21" points="3.9,358.3 8.7,362.7 8.1,363.6 3.3,359.2 				"/>
			</g>
			<g>
				<polygon class="st22" points="3.3,359.2 8.1,363.6 7.5,364.9 2.7,360.5 				"/>
			</g>
			<g>
				<polygon class="st23" points="49.5,310.3 54.2,314.7 53.9,315 49.1,310.6 				"/>
			</g>
			<g>
				<polygon class="st4" points="49.1,310.9 53.9,315.3 53.6,315.1 48.9,310.7 				"/>
			</g>
			<g>
				<polygon class="st5" points="49.3,310.7 54.1,315.1 53.9,315 49.1,310.6 				"/>
			</g>
			<g>
				<polygon class="st3" points="49.3,310.7 54.1,315.1 54.1,315.2 49.4,310.8 				"/>
			</g>
			<g>
				<polygon class="st18" points="49.4,310.8 54.1,315.2 54.1,315.2 49.4,310.8 				"/>
			</g>
			<g>
				<polygon class="st24" points="2.7,360.5 7.5,364.9 7.3,366 2.6,361.6 				"/>
			</g>
			<g>
				<polygon class="st4" points="49.3,311.1 54,315.4 53.9,315.4 49.2,311 				"/>
			</g>
			<g>
				<polygon class="st5" points="49.6,310.8 54.4,315.2 54.1,315.2 49.4,310.8 				"/>
			</g>
			<g>
				<polygon class="st5" points="49.7,310.9 54.5,315.2 54.4,315.2 49.6,310.8 				"/>
			</g>
			<g>
				<polygon class="st4" points="49.6,311.1 54.3,315.4 54,315.4 49.3,311.1 				"/>
			</g>
			<g>
				<polygon class="st25" points="8.3,353.2 13,357.6 12.9,360.4 8.1,356 				"/>
			</g>
			<g>
				<polygon class="st26" points="8.5,353.2 13.3,357.6 13.1,360.4 8.4,356 				"/>
			</g>
			<g>
				<polygon class="st4" points="50.9,310.1 55.6,314.5 54.2,314.7 49.5,310.3 				"/>
			</g>
			<g>
				<polygon class="st5" points="3.1,362 7.9,366.4 7.3,366 2.6,361.6 				"/>
			</g>
			<g>
				<polygon class="st4" points="3,362.2 7.8,366.6 7.1,366.1 2.3,361.7 				"/>
			</g>
			<g>
				<polygon class="st27" points="5.2,359.9 10,364.3 9.9,364.4 5.2,360 				"/>
			</g>
			<g>
				<polygon class="st4" points="3.1,362.3 7.9,366.6 7.8,366.6 3,362.2 				"/>
			</g>
			<g>
				<polygon class="st5" points="3.8,361.6 8.6,366 7.9,366.4 3.1,362 				"/>
			</g>
			<g>
				<polygon class="st28" points="5.2,360 9.9,364.4 8.6,366 3.8,361.6 				"/>
			</g>
			<g>
				<polygon class="st4" points="4,361.9 8.7,366.2 7.9,366.6 3.1,362.3 				"/>
			</g>
			<g>
				<polygon class="st16" points="4,361.8 8.8,366.2 8.7,366.2 4,361.9 				"/>
			</g>
			<g>
				<polygon class="st11" points="5.3,360.2 10.1,364.5 8.8,366.2 4,361.8 				"/>
			</g>
			<g>
				<polygon class="st13" points="49.7,310.9 54.5,315.2 55.2,316 50.4,311.6 				"/>
			</g>
			<g>
				<polygon class="st18" points="50.4,311.6 55.2,316 55.2,316.1 50.4,311.7 				"/>
			</g>
			<g>
				<polygon class="st29" points="50.9,310.1 55.6,314.5 55.8,315.5 51.1,311.1 				"/>
			</g>
			<g>
				<polygon class="st5" points="6.5,359.5 11.2,363.9 10,364.3 5.2,359.9 				"/>
			</g>
			<g>
				<polygon class="st19" points="51.1,309.9 55.8,314.3 56.1,315.4 51.3,311.1 				"/>
			</g>
			<g>
				<polygon class="st30" points="7.6,358.5 12.3,362.9 11.2,363.9 6.5,359.5 				"/>
			</g>
			<g>
				<polygon class="st8" points="5.2,359.9 5.2,360 3.8,361.6 3.1,362 2.6,361.6 2.7,360.5 3.3,359.2 3.9,358.3 3.9,358.2 
					3.9,358.1 3,357.7 2.6,357 2.1,355.3 2,355.2 1.8,355.3 -1.3,358.4 -1.9,358.6 -2.1,357.5 -0.7,355.7 2.9,353 3.3,353.5 
					3.4,353.5 3.5,353.4 4.1,352.8 4.9,352.3 5.5,352.2 5.8,352.3 6,352.2 6.2,351.8 6.7,351.6 7.5,351.5 8.2,351.6 8.3,353.2 
					8.1,356 7.6,358.5 6.5,359.5 				"/>
			</g>
			<g>
				<polygon class="st31" points="8.1,356 12.9,360.4 12.3,362.9 7.6,358.5 				"/>
			</g>
			<g>
				<polygon class="st3" points="51.3,311.1 56.1,315.4 56.1,315.5 51.3,311.1 				"/>
			</g>
			<g>
				<polygon class="st4" points="6.5,359.8 11.3,364.2 10.1,364.5 5.3,360.2 				"/>
			</g>
			<g>
				<polygon class="st32" points="50.4,311.7 55.2,316.1 55.2,316.6 50.5,312.2 				"/>
			</g>
			<g>
				<polygon class="st33" points="50.5,312.2 55.3,316.5 55.2,316.6 50.5,312.2 				"/>
			</g>
			<g>
				<polygon class="st34" points="50.6,312.1 55.3,316.5 55.3,316.5 50.5,312.2 				"/>
			</g>
			<g>
				<polygon class="st4" points="6.6,359.8 11.4,364.1 11.3,364.2 6.5,359.8 				"/>
			</g>
			<g>
				<polygon class="st35" points="8.4,356 13.1,360.4 12.5,363 7.8,358.6 				"/>
			</g>
			<g>
				<polygon class="st10" points="7.8,358.6 12.5,363 12.5,363 7.8,358.6 				"/>
			</g>
			<g>
				<polygon class="st36" points="7.8,358.6 12.5,363 11.4,364.1 6.6,359.8 				"/>
			</g>
			<g>
				<path class="st7" d="M6.5,359.8l-1.2,0.4L4,361.8l-0.1,0l-0.8,0.4l-0.1,0l-0.7-0.5l0-0.1l0.2-1.2l0,0l0.6-1.3l0.5-0.8l-0.7-0.3
					l-0.1,0l-0.5-0.7l0,0l-0.5-1.6l-3,3l-0.1,0l-0.9,0.3l-0.1,0l-0.1-0.1l-0.2-1.3l0-0.1l1.5-1.8l3.6-2.8l0.2,0l0.4,0.4l0.5-0.6l0,0
					l0.8-0.4l0,0l0.7-0.2l0.1,0l0.2,0.1l0.2-0.4l0.1-0.1l0.6-0.2l0,0l0.8-0.1l0.8,0l0.1,0.1l0.1,1.8L8.4,356l-0.6,2.6l0,0.1
					L6.5,359.8L6.5,359.8z M5.2,360L5.2,360l1.3-0.4l1.1-1.1l0.6-2.5l0.1-2.8l-0.1-1.7l-0.7,0l-0.8,0.1l-0.5,0.2L6,352.2l-0.2,0.1
					l-0.3-0.1l-0.7,0.2l-0.8,0.4l-0.6,0.7l-0.1,0l-0.1,0L2.9,353l-3.5,2.7l-1.4,1.7l0.1,1.1l0.7-0.2l3.1-3.1l0.1,0l0.1,0.1l0.5,1.7
					l0.5,0.7l0.8,0.4l0.1,0.1l0,0.1l-0.6,0.9l-0.6,1.3l-0.1,1.1l0.5,0.4l0.7-0.4L5.2,360"/>
			</g>
			<g>
				<polygon class="st5" points="51,312 55.7,316.3 55.3,316.5 50.6,312.1 				"/>
			</g>
			<g>
				<polygon class="st8" points="49.4,310.8 49.3,310.7 49.1,310.6 49.5,310.3 50.9,310.1 51.1,311.1 51,312 50.6,312.1 50.5,312.2 
					50.5,312.2 50.4,311.7 50.4,311.6 49.7,310.9 49.6,310.8 49.4,310.8 				"/>
			</g>
			<g>
				<polygon class="st37" points="51.1,311.1 55.8,315.5 55.7,316.3 51,312 				"/>
			</g>
			<g>
				<polygon class="st4" points="50.5,312.7 55.2,317 55.1,317.1 50.4,312.7 				"/>
			</g>
			<g>
				<polygon class="st21" points="50.7,312.3 55.5,316.7 55.2,317 50.5,312.7 				"/>
			</g>
			<g>
				<polygon class="st26" points="51.3,311.1 56.1,315.5 56,316.4 51.2,312.1 				"/>
			</g>
			<g>
				<polygon class="st4" points="51.2,312.2 55.9,316.6 55.5,316.7 50.7,312.3 				"/>
			</g>
			<g>
				<polygon class="st38" points="51.2,312.1 56,316.4 55.9,316.6 51.2,312.2 				"/>
			</g>
			<g>
				<path class="st7" d="M49.1,310.9l-0.3-0.2l-0.1-0.1l0-0.1l0.5-0.4l0.1,0l1.5-0.2l0.1,0.1l0.2,1.1l0,0l-0.1,1l-0.1,0.1l-0.4,0.2
					l-0.2,0.3l-0.1,0.1l-0.1-0.1l-0.1-0.8l-0.6-0.7l-0.3,0L49.1,310.9L49.1,310.9z M49.5,310.3l-0.4,0.3l0.2,0.2l0,0.1l0,0l0.3,0
					l0.1,0l0.7,0.8l0,0.1l0,0.5l0-0.1l0.1-0.1L51,312l0.1-0.9l-0.2-1L49.5,310.3"/>
			</g>
			<g>
				<polygon class="st39" points="5.1,368.3 9.9,372.7 9.7,373.1 4.9,368.7 				"/>
			</g>
			<g>
				<polygon class="st4" points="5.5,368.2 10.3,372.6 9.9,372.7 5.1,368.3 				"/>
			</g>
			<g>
				<polygon class="st17" points="62.7,306.5 67.5,310.9 65.9,312.6 61.1,308.2 				"/>
			</g>
			<g>
				<polygon class="st13" points="4.9,368.7 9.7,373.1 10,373.5 5.3,369.1 				"/>
			</g>
			<g>
				<polygon class="st4" points="65,305.7 69.8,310.1 67.5,310.9 62.7,306.5 				"/>
			</g>
			<g>
				<polygon class="st4" points="6.1,369.9 10.8,374.3 9.9,373.7 5.1,369.3 				"/>
			</g>
			<g>
				<polygon class="st5" points="6.3,369.8 11,374.2 10,373.5 5.3,369.1 				"/>
			</g>
			<g>
				<polygon class="st17" points="58.2,314 62.9,318.4 58,323.4 53.2,319.1 				"/>
			</g>
			<g>
				<polygon class="st4" points="8,368.5 12.7,372.9 10.3,372.6 5.5,368.2 				"/>
			</g>
			<g>
				<polygon class="st38" points="14.2,361.7 18.9,366 18.2,367 13.5,362.6 				"/>
			</g>
			<g>
				<polygon class="st4" points="58.9,313.6 63.6,318 62.9,318.4 58.2,314 				"/>
			</g>
			<g>
				<polygon class="st40" points="61.1,308.2 65.9,312.6 64.4,317.2 59.7,312.8 				"/>
			</g>
			<g>
				<polygon class="st36" points="59.7,312.8 64.4,317.2 63.6,318 58.9,313.6 				"/>
			</g>
			<g>
				<polygon class="st4" points="9,368.1 13.8,372.5 12.7,372.9 8,368.5 				"/>
			</g>
			<g>
				<polygon class="st41" points="53.2,319.1 58,323.4 56.5,326.2 51.7,321.8 				"/>
			</g>
			<g>
				<polygon class="st4" points="15.4,361.3 20.1,365.7 18.9,366 14.2,361.7 				"/>
			</g>
			<g>
				<polygon class="st42" points="13.5,362.6 18.2,367 17.7,368.3 13,363.9 				"/>
			</g>
			<g>
				<polygon class="st12" points="10.3,367.1 15,371.5 13.8,372.5 9,368.1 				"/>
			</g>
			<g>
				<polygon class="st10" points="13,363.9 17.7,368.3 17,369.5 12.3,365.1 				"/>
			</g>
			<g>
				<polygon class="st17" points="12.3,365.1 17,369.5 15,371.5 10.3,367.1 				"/>
			</g>
			<g>
				<polygon class="st4" points="67.3,306 72,310.4 69.8,310.1 65,305.7 				"/>
			</g>
			<g>
				<polygon class="st4" points="16.2,361.6 20.9,366 20.1,365.7 15.4,361.3 				"/>
			</g>
			<g>
				<polygon class="st18" points="6.2,369.8 11,374.1 11.8,376.9 7,372.5 				"/>
			</g>
			<g>
				<polygon class="st4" points="17.1,362.4 21.9,366.8 20.9,366 16.2,361.6 				"/>
			</g>
			<g>
				<polygon class="st43" points="51.7,321.8 56.5,326.2 54.5,332 49.7,327.6 				"/>
			</g>
			<g>
				<polygon class="st18" points="7,372.5 11.8,376.9 12.4,378 7.7,373.6 				"/>
			</g>
			<g>
				<polygon class="st44" points="67.3,306 72,310.4 73.5,312.1 68.8,307.7 				"/>
			</g>
			<g>
				<polygon class="st13" points="67.3,305.7 72.1,310.1 73.7,312 69,307.6 				"/>
			</g>
			<g>
				<polygon class="st45" points="17.1,362.4 21.9,366.8 22.7,367.7 17.9,363.3 				"/>
			</g>
			<g>
				<polygon class="st13" points="17.3,362.2 22,366.6 22.9,367.6 18.1,363.2 				"/>
			</g>
			<g>
				<polygon class="st35" points="49.7,327.6 54.5,332 53.9,334.6 49.2,330.2 				"/>
			</g>
			<g>
				<polygon class="st5" points="8.9,374.1 13.6,378.5 12.4,378 7.7,373.6 				"/>
			</g>
			<g>
				<polygon class="st5" points="11.5,371.3 16.2,375.7 15.5,376 10.8,371.6 				"/>
			</g>
			<g>
				<polygon class="st4" points="8.9,374.3 13.7,378.7 12.3,378.2 7.5,373.8 				"/>
			</g>
			<g>
				<polygon class="st46" points="17.9,363.3 22.7,367.7 23.1,368.5 18.4,364.1 				"/>
			</g>
			<g>
				<polygon class="st47" points="10.8,371.6 15.5,376 15.1,377.4 10.3,373 				"/>
			</g>
			<g>
				<polygon class="st4" points="11.5,371.6 16.3,376 15.7,376.2 10.9,371.8 				"/>
			</g>
			<g>
				<polygon class="st3" points="18.1,363.2 22.9,367.6 23.4,368.4 18.6,364 				"/>
			</g>
			<g>
				<polygon class="st5" points="9.5,373.9 14.2,378.3 13.6,378.5 8.9,374.1 				"/>
			</g>
			<g>
				<polygon class="st48" points="10,373.5 14.7,377.9 14.2,378.3 9.5,373.9 				"/>
			</g>
			<g>
				<polygon class="st49" points="10.3,373 15.1,377.4 14.7,377.9 10,373.5 				"/>
			</g>
			<g>
				<polygon class="st50" points="10.9,371.8 15.7,376.2 15.3,377.5 10.6,373.1 				"/>
			</g>
			<g>
				<polygon class="st4" points="9.6,374.2 14.4,378.5 13.7,378.7 8.9,374.3 				"/>
			</g>
			<g>
				<polygon class="st21" points="10.6,373.1 15.3,377.5 14.9,378.1 10.2,373.7 				"/>
			</g>
			<g>
				<polygon class="st12" points="10.2,373.7 14.9,378.1 14.4,378.5 9.6,374.2 				"/>
			</g>
			<g>
				<polygon class="st51" points="18.4,364.1 23.1,368.5 23.3,369.3 18.6,364.9 				"/>
			</g>
			<g>
				<polygon class="st3" points="18.6,364 23.4,368.4 23.6,369.3 18.8,364.9 				"/>
			</g>
			<g>
				<polygon class="st25" points="18.6,364.9 23.3,369.3 23.3,370 18.5,365.7 				"/>
			</g>
			<g>
				<polygon class="st52" points="18.8,364.9 23.6,369.3 23.5,370 18.8,365.7 				"/>
			</g>
			<g>
				<polygon class="st44" points="18.5,365.7 23.3,370 23.4,370.8 18.6,366.4 				"/>
			</g>
			<g>
				<polygon class="st13" points="18.8,365.7 23.5,370 23.6,370.7 18.9,366.3 				"/>
			</g>
			<g>
				<polygon class="st4" points="72,308.8 76.8,313.2 76.1,313.5 71.4,309.1 				"/>
			</g>
			<g>
				<polygon class="st6" points="68.8,307.7 73.5,312.1 73.8,316.6 69,312.2 				"/>
			</g>
			<g>
				<polygon class="st16" points="36.4,347.7 41.1,352 40.3,352.6 35.6,348.3 				"/>
			</g>
			<g>
				<polygon class="st32" points="69,307.6 73.7,312 74,316.6 69.3,312.2 				"/>
			</g>
			<g>
				<polygon class="st4" points="72.4,309 77.2,313.4 76.8,313.2 72,308.8 				"/>
			</g>
			<g>
				<polygon class="st5" points="14.8,371.5 19.5,375.9 16.2,375.7 11.5,371.3 				"/>
			</g>
			<g>
				<polygon class="st19" points="72.6,308.8 77.3,313.2 77.4,313.2 72.6,308.9 				"/>
			</g>
			<g>
				<polygon class="st19" points="71.4,309.1 76.1,313.5 76.6,314.2 71.9,309.8 				"/>
			</g>
			<g>
				<polygon class="st4" points="14.7,371.8 19.5,376.1 16.3,376 11.5,371.6 				"/>
			</g>
			<g>
				<polygon class="st4" points="71.9,310 76.6,314.4 76.5,314.4 71.7,310 				"/>
			</g>
			<g>
				<polygon class="st5" points="72.4,309.5 77.2,313.9 76.6,314.2 71.9,309.8 				"/>
			</g>
			<g>
				<polygon class="st46" points="72.4,309 77.2,313.4 77.3,313.8 72.5,309.4 				"/>
			</g>
			<g>
				<polygon class="st34" points="72.5,309.4 77.3,313.8 77.2,313.9 72.4,309.5 				"/>
			</g>
			<g>
				<path class="st7" d="M71.7,310l-0.6-0.9l0-0.1l0.1-0.1l0.8-0.4l0.1,0l0.5,0.2l0.1,0.1l0.2,0.6l0,0.1l-0.2,0.2l0,0l-0.6,0.3
					L71.7,310z M72,308.8l-0.6,0.3l0.5,0.7l0.5-0.3l0.1-0.1l-0.1-0.4L72,308.8"/>
			</g>
			<g>
				<polygon class="st8" points="72.4,309.5 71.9,309.8 71.4,309.1 72,308.8 72.4,309 72.5,309.4 				"/>
			</g>
			<g>
				<polygon class="st3" points="72.6,308.9 77.4,313.2 77.5,313.8 72.8,309.4 				"/>
			</g>
			<g>
				<polygon class="st4" points="72.5,309.7 77.3,314.1 76.6,314.4 71.9,310 				"/>
			</g>
			<g>
				<polygon class="st16" points="72.6,309.7 77.3,314.1 77.3,314.1 72.5,309.7 				"/>
			</g>
			<g>
				<polygon class="st46" points="69,312.2 73.8,316.6 74.3,317.4 69.5,313 				"/>
			</g>
			<g>
				<polygon class="st43" points="72.8,309.4 77.5,313.8 77.5,313.9 72.7,309.6 				"/>
			</g>
			<g>
				<polygon class="st23" points="72.7,309.6 77.5,313.9 77.3,314.1 72.6,309.7 				"/>
			</g>
			<g>
				<polygon class="st53" points="35.6,348.3 40.3,352.6 38.5,356.1 33.8,351.8 				"/>
			</g>
			<g>
				<polygon class="st18" points="69.3,312.2 74,316.6 74.4,317.3 69.7,312.9 				"/>
			</g>
			<g>
				<polygon class="st4" points="37.8,347.8 42.5,352.1 41.1,352 36.4,347.7 				"/>
			</g>
			<g>
				<polygon class="st4" points="70.3,313.4 75.1,317.8 74.3,317.5 69.6,313.1 				"/>
			</g>
			<g>
				<polygon class="st46" points="18.6,366.4 23.4,370.8 25.1,373.6 20.3,369.2 				"/>
			</g>
			<g>
				<polygon class="st18" points="18.9,366.3 23.6,370.7 25.3,373.5 20.5,369.1 				"/>
			</g>
			<g>
				<polygon class="st45" points="37.8,347.8 42.5,352.1 42.8,354.6 38.1,350.3 				"/>
			</g>
			<g>
				<polygon class="st19" points="37.9,347.5 42.7,351.9 43.1,354.5 38.3,350.2 				"/>
			</g>
			<g>
				<polygon class="st5" points="17.8,372.7 22.5,377.1 19.5,375.9 14.8,371.5 				"/>
			</g>
			<g>
				<polygon class="st4" points="17.7,372.9 22.4,377.3 19.5,376.1 14.7,371.8 				"/>
			</g>
			<g>
				<polygon class="st5" points="18.2,372.9 22.9,377.3 22.5,377.1 17.8,372.7 				"/>
			</g>
			<g>
				<polygon class="st4" points="18,373.1 22.8,377.5 22.4,377.3 17.7,372.9 				"/>
			</g>
			<g>
				<polygon class="st54" points="20.3,369.2 25.1,373.6 25.4,374.7 20.7,370.3 				"/>
			</g>
			<g>
				<polygon class="st18" points="20.5,369.1 25.3,373.5 25.6,374.6 20.9,370.2 				"/>
			</g>
			<g>
				<polygon class="st4" points="72.5,314.8 77.3,319.1 75.1,317.8 70.3,313.4 				"/>
			</g>
			<g>
				<polygon class="st9" points="18.1,372.9 22.9,377.3 23.3,377.7 18.6,373.3 				"/>
			</g>
			<g>
				<polygon class="st4" points="39.3,351 44.1,355.4 42.9,354.7 38.1,350.3 				"/>
			</g>
			<g>
				<polygon class="st18" points="18.6,373.3 23.3,377.7 23.7,378.3 18.9,373.9 				"/>
			</g>
			<g>
				<polygon class="st26" points="49.2,330.2 53.9,334.6 53.1,346.8 48.3,342.4 				"/>
			</g>
			<g>
				<polygon class="st13" points="20.9,370.2 25.6,374.6 26.5,375.6 21.8,371.2 				"/>
			</g>
			<g>
				<polygon class="st55" points="20.7,370.3 25.4,374.7 26.4,375.8 21.6,371.4 				"/>
			</g>
			<g>
				<polygon class="st13" points="33.8,351.8 38.5,356.1 39.1,362 34.4,357.6 				"/>
			</g>
			<g>
				<polygon class="st4" points="73.8,315.1 78.6,319.4 77.3,319.1 72.5,314.8 				"/>
			</g>
			<g>
				<polygon class="st18" points="18.9,373.9 23.7,378.3 23.8,378.8 19.1,374.4 				"/>
			</g>
			<g>
				<polygon class="st41" points="27.2,365.3 32,369.7 31.2,371.2 26.4,366.8 				"/>
			</g>
			<g>
				<polygon class="st13" points="39.5,350.8 44.2,355.2 45.1,356.1 40.3,351.7 				"/>
			</g>
			<g>
				<polygon class="st55" points="39.3,351 44.1,355.4 44.9,356.3 40.2,352 				"/>
			</g>
			<g>
				<polygon class="st5" points="19.3,374.6 24.1,379 23.8,378.8 19.1,374.4 				"/>
			</g>
			<g>
				<polygon class="st43" points="34.4,357.6 39.1,362 38.7,363.2 34,358.8 				"/>
			</g>
			<g>
				<polygon class="st4" points="19.3,374.9 24.1,379.2 23.6,378.9 18.9,374.6 				"/>
			</g>
			<g>
				<polygon class="st23" points="32.9,360.2 37.6,364.6 32,369.7 27.2,365.3 				"/>
			</g>
			<g>
				<polygon class="st38" points="34,358.8 38.7,363.2 37.6,364.6 32.9,360.2 				"/>
			</g>
			<g>
				<polygon class="st5" points="19.9,374.3 24.7,378.7 24.1,379 19.3,374.6 				"/>
			</g>
			<g>
				<polygon class="st56" points="20.5,373.9 25.3,378.3 24.7,378.7 19.9,374.3 				"/>
			</g>
			<g>
				<polygon class="st17" points="79.6,309.9 84.3,314.3 82.6,316.1 77.8,311.7 				"/>
			</g>
			<g>
				<polygon class="st48" points="20.9,373.6 25.6,378 25.3,378.3 20.5,373.9 				"/>
			</g>
			<g>
				<polygon class="st4" points="20,374.6 24.8,378.9 24.1,379.2 19.3,374.9 				"/>
			</g>
			<g>
				<polygon class="st57" points="77.8,311.7 82.6,316.1 81,318.3 76.2,313.9 				"/>
			</g>
			<g>
				<polygon class="st4" points="76.2,313.9 81,318.3 78.6,319.4 73.8,315.1 				"/>
			</g>
			<g>
				<polygon class="st12" points="20.9,373.9 25.7,378.2 24.8,378.9 20,374.6 				"/>
			</g>
			<g>
				<polygon class="st4" points="23,371.9 27.7,376.3 26.4,375.8 21.7,371.4 				"/>
			</g>
			<g>
				<polygon class="st32" points="48.3,342.4 53.1,346.8 53.3,349.2 48.5,344.8 				"/>
			</g>
			<g>
				<polygon class="st4" points="42.3,351.7 47,356.1 45,356.4 40.3,352 				"/>
			</g>
			<g>
				<polygon class="st58" points="26.4,366.8 31.2,371.2 30.1,374.5 25.3,370.1 				"/>
			</g>
			<g>
				<polygon class="st4" points="24.4,371.4 29.2,375.8 27.7,376.3 23,371.9 				"/>
			</g>
			<g>
				<polygon class="st57" points="25.3,370.1 30.1,374.5 29.2,375.8 24.4,371.4 				"/>
			</g>
			<g>
				<polygon class="st5" points="22.2,373.8 27,378.2 25.6,378 20.9,373.6 				"/>
			</g>
			<g>
				<polygon class="st4" points="22.1,374 26.9,378.4 25.7,378.2 20.9,373.9 				"/>
			</g>
			<g>
				<polygon class="st43" points="48.5,344.8 53.3,349.2 52.1,352.2 47.4,347.8 				"/>
			</g>
			<g>
				<polygon class="st5" points="23,374.4 27.8,378.8 27,378.2 22.2,373.8 				"/>
			</g>
			<g>
				<polygon class="st4" points="22.8,374.6 27.6,379 26.9,378.4 22.1,374 				"/>
			</g>
			<g>
				<polygon class="st4" points="82.5,310.2 87.3,314.6 84.3,314.3 79.6,309.9 				"/>
			</g>
			<g>
				<polygon class="st4" points="45.4,350.3 50.2,354.7 47,356.1 42.3,351.7 				"/>
			</g>
			<g>
				<polygon class="st38" points="47.4,347.8 52.1,352.2 50.2,354.7 45.4,350.3 				"/>
			</g>
			<g>
				<polygon class="st59" points="23,374.4 27.7,378.8 28.8,379.7 24,375.3 				"/>
			</g>
			<g>
				<polygon class="st4" points="24.1,375.6 28.8,380 27.6,379 22.8,374.6 				"/>
			</g>
			<g>
				<polygon class="st5" points="24.9,374.9 29.7,379.3 28.8,379.7 24,375.3 				"/>
			</g>
			<g>
				<polygon class="st4" points="24.9,375.1 29.7,379.5 28.8,380 24.1,375.6 				"/>
			</g>
			<g>
				<polygon class="st5" points="27.5,375.7 32.2,380.1 29.7,379.3 24.9,374.9 				"/>
			</g>
			<g>
				<polygon class="st4" points="27.6,375.9 32.3,380.3 29.7,379.5 24.9,375.1 				"/>
			</g>
			<g>
				<polygon class="st48" points="28.9,374.5 33.7,378.9 32.2,380.1 27.5,375.7 				"/>
			</g>
			<g>
				<polygon class="st12" points="29,374.8 33.7,379.2 32.3,380.3 27.6,375.9 				"/>
			</g>
			<g>
				<polygon class="st4" points="86.9,313.6 91.7,318 87.3,314.6 82.5,310.2 				"/>
			</g>
			<g>
				<polygon class="st5" points="31.9,374.1 36.6,378.4 33.7,378.9 28.9,374.5 				"/>
			</g>
			<g>
				<polygon class="st4" points="31.9,374.3 36.7,378.7 33.7,379.2 29,374.8 				"/>
			</g>
			<g>
				<polygon class="st4" points="88.7,314.1 93.4,318.5 91.7,318 86.9,313.6 				"/>
			</g>
			<g>
				<polygon class="st4" points="90.4,314.4 95.1,318.7 93.4,318.5 88.7,314.1 				"/>
			</g>
			<g>
				<polygon class="st35" points="26.4,385.2 31.2,389.5 31.1,390 26.4,385.6 				"/>
			</g>
			<g>
				<polygon class="st4" points="26.9,385 31.6,389.4 31.2,389.5 26.4,385.2 				"/>
			</g>
			<g>
				<polygon class="st23" points="26.9,385 31.7,389.3 31.6,389.4 26.9,385 				"/>
			</g>
			<g>
				<polygon class="st41" points="27,384.9 31.7,389.2 31.7,389.3 26.9,385 				"/>
			</g>
			<g>
				<polygon class="st4" points="27.3,384.8 32.1,389.2 31.7,389.2 27,384.9 				"/>
			</g>
			<g>
				<polygon class="st5" points="39.5,373.1 44.3,377.5 36.6,378.4 31.9,374.1 				"/>
			</g>
			<g>
				<polygon class="st4" points="39.5,373.3 44.3,377.7 36.7,378.7 31.9,374.3 				"/>
			</g>
			<g>
				<polygon class="st5" points="28.3,386 33,390.4 31.1,390 26.4,385.6 				"/>
			</g>
			<g>
				<polygon class="st4" points="29,385.2 33.8,389.6 32.1,389.2 27.3,384.8 				"/>
			</g>
			<g>
				<polygon class="st4" points="28.2,386.3 33,390.7 30.9,390.2 26.2,385.8 				"/>
			</g>
			<g>
				<polygon class="st4" points="28.3,386.3 33.1,390.7 33,390.7 28.2,386.3 				"/>
			</g>
			<g>
				<polygon class="st8" points="27.3,384.8 29,385.2 29.4,385.7 28.3,386 26.4,385.6 26.4,385.2 26.9,385 26.9,385 27,384.9 				
					"/>
			</g>
			<g>
				<polygon class="st51" points="29,385.2 33.8,389.6 34.1,390.1 29.4,385.7 				"/>
			</g>
			<g>
				<polygon class="st5" points="29.4,385.7 34.1,390.1 33,390.4 28.3,386 				"/>
			</g>
			<g>
				<polygon class="st5" points="41,373.3 45.7,377.7 44.3,377.5 39.5,373.1 				"/>
			</g>
			<g>
				<polygon class="st19" points="29.2,385 34,389.4 34.4,390.1 29.7,385.7 				"/>
			</g>
			<g>
				<polygon class="st4" points="40.9,373.5 45.7,377.9 44.3,377.7 39.5,373.3 				"/>
			</g>
			<g>
				<polygon class="st4" points="29.6,385.9 34.3,390.2 33.1,390.7 28.3,386.3 				"/>
			</g>
			<g>
				<path class="st7" d="M29.2,385l0.5,0.6l0,0.1l-0.1,0.1l-1.3,0.4l-0.1,0l-2.1-0.5l-0.1-0.2l0.1-0.6l0.1-0.1l0.5-0.2l0.1-0.1
					l0.1-0.1l0.4-0.1l0,0L29.2,385L29.2,385z M28.3,386l1.1-0.4l-0.3-0.4l-1.7-0.4l-0.3,0l-0.1,0.1l-0.1,0.1l-0.4,0.2l-0.1,0.4
					L28.3,386"/>
			</g>
			<g>
				<polygon class="st19" points="29.7,385.7 34.4,390.1 34.4,390.2 29.7,385.8 				"/>
			</g>
			<g>
				<polygon class="st17" points="29.7,385.8 34.4,390.2 34.3,390.2 29.6,385.9 				"/>
			</g>
			<g>
				<polygon class="st4" points="94.8,316.5 99.5,320.9 95.1,318.7 90.4,314.4 				"/>
			</g>
			<g>
				<polygon class="st5" points="43.3,373.7 48.1,378.1 45.7,377.7 41,373.3 				"/>
			</g>
			<g>
				<polygon class="st4" points="43.2,374 48,378.4 45.7,377.9 40.9,373.5 				"/>
			</g>
			<g>
				<polygon class="st4" points="96.6,316.5 101.4,320.9 99.5,320.9 94.8,316.5 				"/>
			</g>
			<g>
				<polygon class="st4" points="97.8,315.8 102.6,320.2 101.4,320.9 96.6,316.5 				"/>
			</g>
			<g>
				<polygon class="st12" points="98.9,314.9 103.7,319.3 102.6,320.2 97.8,315.8 				"/>
			</g>
			<g>
				<polygon class="st5" points="44.6,374.1 49.4,378.5 48.1,378.1 43.3,373.7 				"/>
			</g>
			<g>
				<polygon class="st4" points="44.7,374.4 49.4,378.7 48,378.4 43.2,374 				"/>
			</g>
			<g>
				<polygon class="st4" points="100.5,314.5 105.2,318.9 103.7,319.3 98.9,314.9 				"/>
			</g>
			<g>
				<polygon class="st5" points="45.9,373.8 50.6,378.2 49.4,378.5 44.6,374.1 				"/>
			</g>
			<g>
				<polygon class="st4" points="45.9,374 50.7,378.4 49.4,378.7 44.7,374.4 				"/>
			</g>
			<g>
				<polygon class="st5" points="48.1,373.3 52.9,377.7 50.6,378.2 45.9,373.8 				"/>
			</g>
			<g>
				<polygon class="st4" points="48.1,373.6 52.9,378 50.7,378.4 45.9,374 				"/>
			</g>
			<g>
				<polygon class="st5" points="50.3,373.3 55.1,377.6 52.9,377.7 48.1,373.3 				"/>
			</g>
			<g>
				<polygon class="st4" points="50.4,373.5 55.1,377.9 52.9,378 48.1,373.6 				"/>
			</g>
			<g>
				<polygon class="st5" points="51.8,373.1 56.6,377.4 55.1,377.6 50.3,373.3 				"/>
			</g>
			<g>
				<polygon class="st4" points="51.7,373.3 56.4,377.7 55.1,377.9 50.4,373.5 				"/>
			</g>
			<g>
				<polygon class="st4" points="44.6,382.4 49.3,386.8 48.7,387 43.9,382.6 				"/>
			</g>
			<g>
				<polygon class="st32" points="51.7,373 56.5,377.4 57.3,378.3 52.5,373.9 				"/>
			</g>
			<g>
				<polygon class="st3" points="43.9,382.6 48.7,387 49,387.4 44.2,383 				"/>
			</g>
			<g>
				<polygon class="st4" points="44.2,383.3 48.9,387.6 48.8,387.6 44.1,383.2 				"/>
			</g>
			<g>
				<polygon class="st5" points="44.8,382.8 49.5,387.2 49,387.4 44.2,383 				"/>
			</g>
			<g>
				<polygon class="st4" points="45.5,382.1 50.2,386.5 49.3,386.8 44.6,382.4 				"/>
			</g>
			<g>
				<polygon class="st4" points="45.5,382.1 50.3,386.5 50.2,386.5 45.5,382.1 				"/>
			</g>
			<g>
				<polygon class="st60" points="53.7,372.6 58.4,377 58.1,378 53.4,373.6 				"/>
			</g>
			<g>
				<polygon class="st5" points="53.4,373.6 58.1,378 57.3,378.3 52.5,373.9 				"/>
			</g>
			<g>
				<polygon class="st12" points="46,381.7 50.7,386.1 50.3,386.5 45.5,382.1 				"/>
			</g>
			<g>
				<polygon class="st5" points="45.3,382.6 50.1,386.9 49.5,387.2 44.8,382.8 				"/>
			</g>
			<g>
				<polygon class="st4" points="44.9,383.1 49.6,387.5 48.9,387.6 44.2,383.3 				"/>
			</g>
			<g>
				<polygon class="st5" points="45.3,382.6 50.1,386.9 50.1,386.9 45.3,382.6 				"/>
			</g>
			<g>
				<polygon class="st4" points="44.9,383.1 49.6,387.5 49.6,387.5 44.9,383.1 				"/>
			</g>
			<g>
				<polygon class="st5" points="54.9,372.2 59.7,376.6 58.4,377 53.7,372.6 				"/>
			</g>
			<g>
				<polygon class="st50" points="53.8,372.9 58.6,377.2 58.3,378.2 53.6,373.8 				"/>
			</g>
			<g>
				<polygon class="st4" points="53.6,373.8 58.3,378.2 57.3,378.6 52.5,374.2 				"/>
			</g>
			<g>
				<polygon class="st4" points="45.4,382.8 50.2,387.2 49.6,387.5 44.9,383.1 				"/>
			</g>
			<g>
				<polygon class="st4" points="55,372.5 59.7,376.9 58.6,377.2 53.8,372.9 				"/>
			</g>
			<g>
				<polygon class="st5" points="45.9,382.3 50.7,386.7 50.1,386.9 45.3,382.6 				"/>
			</g>
			<g>
				<polygon class="st4" points="108.5,314.6 113.3,319 105.2,318.9 100.5,314.5 				"/>
			</g>
			<g>
				<polygon class="st4" points="47,381.5 51.8,385.9 50.7,386.1 46,381.7 				"/>
			</g>
			<g>
				<polygon class="st4" points="46,382.6 50.7,387 50.2,387.2 45.4,382.8 				"/>
			</g>
			<g>
				<polygon class="st5" points="46.6,382.1 51.3,386.5 50.7,386.7 45.9,382.3 				"/>
			</g>
			<g>
				<polygon class="st4" points="47.2,381.6 52,385.9 51.8,385.9 47,381.5 				"/>
			</g>
			<g>
				<polygon class="st34" points="47.2,381.6 52,385.9 51.3,386.5 46.6,382.1 				"/>
			</g>
			<g>
				<path class="st7" d="M47.1,381.2l0.5,0.2l0.1,0.1l0,0.1l-0.8,0.7l0,0l-0.7,0.2l-0.6,0.2l-0.6,0.3l0,0l-0.7,0.2l-0.1-0.1
					l-0.4-0.6l0-0.1l0.1-0.1l0.8-0.3l0.9-0.2l0.5-0.4l0,0L47.1,381.2L47.1,381.2z M46.6,382.1l0.7-0.6l-0.2-0.1l-1,0.2l-0.5,0.4l0,0
					l-0.9,0.2l-0.7,0.2l0.3,0.4l0.6-0.1l0.5-0.3l0,0l0.6-0.2L46.6,382.1"/>
			</g>
			<g>
				<polygon class="st8" points="46,381.7 47,381.5 47.2,381.6 46.6,382.1 45.9,382.3 45.3,382.6 45.3,382.6 44.8,382.8 44.2,383 
					43.9,382.6 44.6,382.4 45.5,382.1 45.5,382.1 				"/>
			</g>
			<g>
				<polygon class="st4" points="46.7,382.3 51.4,386.7 50.7,387 46,382.6 				"/>
			</g>
			<g>
				<polygon class="st12" points="46.7,382.3 51.5,386.7 51.4,386.7 46.7,382.3 				"/>
			</g>
			<g>
				<polygon class="st19" points="47.5,381.4 52.3,385.8 52.4,385.9 47.6,381.5 				"/>
			</g>
			<g>
				<polygon class="st23" points="47.6,381.6 52.3,386 51.5,386.7 46.7,382.3 				"/>
			</g>
			<g>
				<polygon class="st40" points="47.6,381.5 52.4,385.9 52.3,386 47.6,381.6 				"/>
			</g>
			<g>
				<polygon class="st5" points="56.4,372 61.2,376.4 59.7,376.6 54.9,372.2 				"/>
			</g>
			<g>
				<polygon class="st4" points="56.5,372.3 61.2,376.7 59.7,376.9 55,372.5 				"/>
			</g>
			<g>
				<polygon class="st4" points="110.1,314.9 114.9,319.3 113.3,319 108.5,314.6 				"/>
			</g>
			<g>
				<polygon class="st5" points="57.9,371.8 62.6,376.2 61.2,376.4 56.4,372 				"/>
			</g>
			<g>
				<polygon class="st4" points="57.9,372 62.6,376.4 61.2,376.7 56.5,372.3 				"/>
			</g>
			<g>
				<polygon class="st5" points="59.3,371.8 64,376.2 62.6,376.2 57.9,371.8 				"/>
			</g>
			<g>
				<polygon class="st4" points="59.2,372 64,376.4 62.6,376.4 57.9,372 				"/>
			</g>
			<g>
				<polygon class="st4" points="111.6,315.5 116.3,319.8 114.9,319.3 110.1,314.9 				"/>
			</g>
			<g>
				<polygon class="st4" points="112.6,316.2 117.3,320.6 116.3,319.8 111.6,315.5 				"/>
			</g>
			<g>
				<polygon class="st5" points="92.7,338 97.5,342.4 96.5,343 91.7,338.6 				"/>
			</g>
			<g>
				<polygon class="st5" points="61.4,372.1 66.1,376.5 64,376.2 59.3,371.8 				"/>
			</g>
			<g>
				<polygon class="st61" points="91.7,338.6 96.5,343 95.7,344.5 91,340.1 				"/>
			</g>
			<g>
				<polygon class="st4" points="61.3,372.3 66.1,376.7 64,376.4 59.2,372 				"/>
			</g>
			<g>
				<polygon class="st16" points="92.8,338.2 97.6,342.6 96.6,343.2 91.9,338.8 				"/>
			</g>
			<g>
				<polygon class="st5" points="93.3,337.7 98.1,342.1 97.5,342.4 92.7,338 				"/>
			</g>
			<g>
				<polygon class="st53" points="91.9,338.8 96.6,343.2 95.9,344.6 91.2,340.2 				"/>
			</g>
			<g>
				<polygon class="st4" points="93.4,338 98.1,342.4 97.6,342.6 92.8,338.2 				"/>
			</g>
			<g>
				<polygon class="st5" points="94.2,337.8 98.9,342.2 98.1,342.1 93.3,337.7 				"/>
			</g>
			<g>
				<polygon class="st4" points="94,338 98.7,342.4 98.1,342.4 93.4,338 				"/>
			</g>
			<g>
				<polygon class="st62" points="112.6,316.2 117.3,320.6 117.9,321.7 113.1,317.3 				"/>
			</g>
			<g>
				<polygon class="st18" points="112.8,316 117.5,320.4 118.1,321.6 113.4,317.2 				"/>
			</g>
			<g>
				<polygon class="st63" points="110.7,319.9 115.5,324.3 114.7,325.4 109.9,321.1 				"/>
			</g>
			<g>
				<polygon class="st46" points="91,340.1 95.7,344.5 96.1,345.8 91.3,341.4 				"/>
			</g>
			<g>
				<polygon class="st57" points="110.9,320.1 115.6,324.5 114.9,325.5 110.2,321.2 				"/>
			</g>
			<g>
				<polygon class="st18" points="91.2,340.2 95.9,344.6 96.3,345.7 91.6,341.4 				"/>
			</g>
			<g>
				<polygon class="st51" points="113.1,317.3 117.9,321.7 118,322.4 113.3,318 				"/>
			</g>
			<g>
				<polygon class="st48" points="113.3,318 118,322.4 115.5,324.3 110.7,319.9 				"/>
			</g>
			<g>
				<polygon class="st13" points="94.1,337.7 98.8,342.1 99.3,342.7 94.6,338.4 				"/>
			</g>
			<g>
				<polygon class="st12" points="113.2,318.3 117.9,322.7 115.6,324.5 110.9,320.1 				"/>
			</g>
			<g>
				<polygon class="st19" points="113.4,317.2 118.1,321.6 118.3,322.4 113.5,318.1 				"/>
			</g>
			<g>
				<polygon class="st12" points="113.5,318.1 118.3,322.4 117.9,322.7 113.2,318.3 				"/>
			</g>
			<g>
				<polygon class="st18" points="94.6,338.4 99.3,342.7 99.7,343.7 94.9,339.4 				"/>
			</g>
			<g>
				<polygon class="st29" points="91.3,341.4 96.1,345.8 96.4,347.5 91.7,343.1 				"/>
			</g>
			<g>
				<polygon class="st3" points="91.6,341.4 96.3,345.7 96.7,347.5 91.9,343.1 				"/>
			</g>
			<g>
				<polygon class="st5" points="64.6,373.2 69.4,377.6 66.1,376.5 61.4,372.1 				"/>
			</g>
			<g>
				<polygon class="st4" points="64.5,373.4 69.2,377.8 66.1,376.7 61.3,372.3 				"/>
			</g>
			<g>
				<polygon class="st18" points="94.9,339.4 99.7,343.7 100.1,344.6 95.4,340.2 				"/>
			</g>
			<g>
				<polygon class="st5" points="96,340.5 100.7,344.9 100.1,344.6 95.4,340.2 				"/>
			</g>
			<g>
				<polygon class="st6" points="91.7,343.1 96.4,347.5 96.6,349.4 91.8,345 				"/>
			</g>
			<g>
				<polygon class="st4" points="96,340.7 100.8,345.1 100,344.8 95.3,340.4 				"/>
			</g>
			<g>
				<polygon class="st32" points="91.9,343.1 96.7,347.5 96.8,349.4 92.1,345 				"/>
			</g>
			<g>
				<polygon class="st5" points="96.8,340.1 101.6,344.5 100.7,344.9 96,340.5 				"/>
			</g>
			<g>
				<polygon class="st48" points="97.8,339.4 102.5,343.7 101.6,344.5 96.8,340.1 				"/>
			</g>
			<g>
				<polygon class="st4" points="96.9,340.3 101.7,344.7 100.8,345.1 96,340.7 				"/>
			</g>
			<g>
				<polygon class="st64" points="91.8,345 96.6,349.4 95.9,351.1 91.1,346.7 				"/>
			</g>
			<g>
				<polygon class="st12" points="97.9,339.6 102.6,344 101.7,344.7 96.9,340.3 				"/>
			</g>
			<g>
				<polygon class="st39" points="92.1,345 96.8,349.4 96.1,351.2 91.4,346.8 				"/>
			</g>
			<g>
				<polygon class="st5" points="99,338.8 103.8,343.2 102.5,343.7 97.8,339.4 				"/>
			</g>
			<g>
				<polygon class="st61" points="91.1,346.7 95.9,351.1 94.8,353.1 90.1,348.7 				"/>
			</g>
			<g>
				<polygon class="st4" points="99,339.1 103.8,343.5 102.6,344 97.9,339.6 				"/>
			</g>
			<g>
				<polygon class="st53" points="91.4,346.8 96.1,351.2 95.1,353.2 90.3,348.8 				"/>
			</g>
			<g>
				<polygon class="st65" points="90.1,348.7 94.8,353.1 94.5,355.4 89.8,351 				"/>
			</g>
			<g>
				<polygon class="st5" points="101.1,339 105.8,343.4 103.8,343.2 99,338.8 				"/>
			</g>
			<g>
				<polygon class="st24" points="90.3,348.8 95.1,353.2 94.7,355.5 90,351.1 				"/>
			</g>
			<g>
				<polygon class="st4" points="101,339.2 105.8,343.6 103.8,343.5 99,339.1 				"/>
			</g>
			<g>
				<polygon class="st45" points="109.9,321.1 114.7,325.4 115.9,333.2 111.1,328.8 				"/>
			</g>
			<g>
				<polygon class="st19" points="110.2,321.2 114.9,325.5 116.1,333.1 111.4,328.7 				"/>
			</g>
			<g>
				<polygon class="st5" points="102.6,339.6 107.3,344 105.8,343.4 101.1,339 				"/>
			</g>
			<g>
				<polygon class="st4" points="102.4,339.8 107.2,344.2 105.8,343.6 101,339.2 				"/>
			</g>
			<g>
				<polygon class="st5" points="69.7,377.4 74.4,381.8 69.4,377.6 64.6,373.2 				"/>
			</g>
			<g>
				<polygon class="st4" points="69.6,377.6 74.3,382 69.2,377.8 64.5,373.4 				"/>
			</g>
			<g>
				<polygon class="st5" points="104,340.5 108.7,344.8 107.3,344 102.6,339.6 				"/>
			</g>
			<g>
				<polygon class="st4" points="103.9,340.7 108.7,345.1 107.2,344.2 102.4,339.8 				"/>
			</g>
			<g>
				<polygon class="st45" points="111.1,328.8 115.9,333.2 117.9,335.6 113.2,331.2 				"/>
			</g>
			<g>
				<polygon class="st13" points="111.4,328.7 116.1,333.1 118.1,335.4 113.4,331 				"/>
			</g>
			<g>
				<polygon class="st5" points="106.1,341 110.8,345.4 108.7,344.8 104,340.5 				"/>
			</g>
			<g>
				<polygon class="st4" points="106.1,341.3 110.8,345.7 108.7,345.1 103.9,340.7 				"/>
			</g>
			<g>
				<polygon class="st46" points="113.2,331.2 117.9,335.6 118.7,338.5 114,334.1 				"/>
			</g>
			<g>
				<polygon class="st5" points="72.8,378.7 77.5,383.1 74.4,381.8 69.7,377.4 				"/>
			</g>
			<g>
				<polygon class="st3" points="113.4,331 118.1,335.4 118.9,338.4 114.2,334 				"/>
			</g>
			<g>
				<polygon class="st4" points="72.7,379 77.5,383.4 74.3,382 69.6,377.6 				"/>
			</g>
			<g>
				<polygon class="st19" points="114.2,334 118.9,338.4 119.7,339.4 114.9,335 				"/>
			</g>
			<g>
				<polygon class="st51" points="114,334.1 118.7,338.5 119.5,339.6 114.8,335.2 				"/>
			</g>
			<g>
				<polygon class="st5" points="75.2,378.6 79.9,383 77.5,383.1 72.8,378.7 				"/>
			</g>
			<g>
				<polygon class="st4" points="75.1,378.8 79.8,383.2 77.5,383.4 72.7,379 				"/>
			</g>
			<g>
				<polygon class="st4" points="115.4,335.4 120.2,339.7 119.6,339.6 114.8,335.2 				"/>
			</g>
			<g>
				<polygon class="st45" points="89.8,351 94.5,355.4 95.9,367.7 91.2,363.3 				"/>
			</g>
			<g>
				<polygon class="st13" points="90,351.1 94.7,355.5 96.2,367.7 91.4,363.3 				"/>
			</g>
			<g>
				<polygon class="st66" points="115.4,335.4 120.2,339.7 120.1,343.4 115.4,339 				"/>
			</g>
			<g>
				<polygon class="st59" points="115.6,335.1 120.3,339.5 120.4,343.4 115.6,339 				"/>
			</g>
			<g>
				<polygon class="st5" points="113.8,341.2 118.5,345.5 110.8,345.4 106.1,341 				"/>
			</g>
			<g>
				<polygon class="st54" points="91.2,363.3 95.9,367.7 96.5,369.4 91.8,365 				"/>
			</g>
			<g>
				<polygon class="st18" points="91.4,363.3 96.2,367.7 96.8,369.3 92,364.9 				"/>
			</g>
			<g>
				<polygon class="st5" points="77.7,380.5 82.5,384.9 79.9,383 75.2,378.6 				"/>
			</g>
			<g>
				<polygon class="st4" points="113.9,341.4 118.6,345.8 110.8,345.7 106.1,341.3 				"/>
			</g>
			<g>
				<polygon class="st4" points="77.6,380.7 82.4,385.1 79.8,383.2 75.1,378.8 				"/>
			</g>
			<g>
				<polygon class="st29" points="115.4,339 120.1,343.4 120.4,344.5 115.6,340.1 				"/>
			</g>
			<g>
				<polygon class="st5" points="115.6,340.1 120.4,344.5 118.5,345.5 113.8,341.2 				"/>
			</g>
			<g>
				<polygon class="st4" points="78.1,381.1 82.8,385.4 82.4,385.1 77.6,380.7 				"/>
			</g>
			<g>
				<polygon class="st3" points="115.6,339 120.4,343.4 120.6,344.5 115.9,340.1 				"/>
			</g>
			<g>
				<polygon class="st4" points="115.9,340.1 120.6,344.5 118.6,345.8 113.9,341.4 				"/>
			</g>
			<g>
				<polygon class="st5" points="78.2,380.9 83,385.3 82.5,384.9 77.7,380.5 				"/>
			</g>
			<g>
				<polygon class="st46" points="91.8,365 96.5,369.4 97.2,370.5 92.4,366.1 				"/>
			</g>
			<g>
				<polygon class="st18" points="92,364.9 96.8,369.3 97.4,370.3 92.6,365.9 				"/>
			</g>
			<g>
				<polygon class="st19" points="78.2,380.9 83,385.2 83.4,385.8 78.6,381.4 				"/>
			</g>
			<g>
				<polygon class="st19" points="78.6,381.4 83.4,385.8 83.4,386.3 78.7,381.9 				"/>
			</g>
			<g>
				<polygon class="st13" points="78.7,381.9 83.4,386.3 83.7,386.6 78.9,382.2 				"/>
			</g>
			<g>
				<polygon class="st5" points="79.9,382.3 84.6,386.7 83.7,386.6 78.9,382.2 				"/>
			</g>
			<g>
				<polygon class="st4" points="79.8,382.5 84.5,386.9 83.6,386.8 78.8,382.4 				"/>
			</g>
			<g>
				<polygon class="st4" points="94.8,366.8 99.5,371.2 97.2,370.5 92.5,366.1 				"/>
			</g>
			<g>
				<polygon class="st4" points="80.1,382.7 84.9,387.1 84.5,386.9 79.8,382.5 				"/>
			</g>
			<g>
				<polygon class="st5" points="80.3,382.6 85.1,387 84.6,386.7 79.9,382.3 				"/>
			</g>
			<g>
				<polygon class="st4" points="95.7,367.2 100.4,371.6 99.5,371.2 94.8,366.8 				"/>
			</g>
			<g>
				<polygon class="st3" points="80.3,382.5 85,386.9 85.8,387.9 81,383.5 				"/>
			</g>
			<g>
				<polygon class="st5" points="81.3,383.7 86.1,388.1 85.8,387.9 81,383.5 				"/>
			</g>
			<g>
				<polygon class="st4" points="81.3,384 86,388.4 85.6,388.1 80.9,383.7 				"/>
			</g>
			<g>
				<polygon class="st5" points="82.3,383.9 87.1,388.2 86.1,388.1 81.3,383.7 				"/>
			</g>
			<g>
				<polygon class="st4" points="82.3,384.1 87,388.5 86,388.4 81.3,384 				"/>
			</g>
			<g>
				<polygon class="st4" points="97,368.4 101.7,372.8 100.4,371.6 95.7,367.2 				"/>
			</g>
			<g>
				<polygon class="st5" points="83,384.1 87.7,388.5 87.1,388.2 82.3,383.9 				"/>
			</g>
			<g>
				<polygon class="st4" points="82.9,384.3 87.6,388.7 87,388.5 82.3,384.1 				"/>
			</g>
			<g>
				<polygon class="st30" points="96.8,369.4 101.6,373.8 97.6,377.5 92.9,373.1 				"/>
			</g>
			<g>
				<polygon class="st65" points="97,368.4 101.7,372.8 101.6,373.8 96.8,369.4 				"/>
			</g>
			<g>
				<polygon class="st36" points="97.1,369.5 101.8,373.8 97.8,377.7 93.1,373.3 				"/>
			</g>
			<g>
				<polygon class="st20" points="97.2,368.3 102,372.6 101.8,373.8 97.1,369.5 				"/>
			</g>
			<g>
				<polygon class="st5" points="83.6,384.4 88.3,388.8 87.7,388.5 83,384.1 				"/>
			</g>
			<g>
				<polygon class="st4" points="83.5,384.7 88.2,389.1 87.6,388.7 82.9,384.3 				"/>
			</g>
			<g>
				<polygon class="st67" points="92.9,373.1 97.6,377.5 94.9,382.4 90.1,378 				"/>
			</g>
			<g>
				<polygon class="st10" points="93.1,373.3 97.8,377.7 95.1,382.5 90.3,378.1 				"/>
			</g>
			<g>
				<polygon class="st5" points="84.5,384.7 89.2,389.1 88.3,388.8 83.6,384.4 				"/>
			</g>
			<g>
				<polygon class="st4" points="84.5,385 89.2,389.4 88.2,389.1 83.5,384.7 				"/>
			</g>
			<g>
				<polygon class="st68" points="90.1,378 94.9,382.4 94.1,384.3 89.4,379.9 				"/>
			</g>
			<g>
				<polygon class="st39" points="90.3,378.1 95.1,382.5 94.4,384.3 89.6,380 				"/>
			</g>
			<g>
				<polygon class="st69" points="89.4,379.9 94.1,384.3 93.7,385.9 88.9,381.5 				"/>
			</g>
			<g>
				<polygon class="st5" points="86,384.9 90.8,389.3 89.2,389.1 84.5,384.7 				"/>
			</g>
			<g>
				<polygon class="st70" points="89.6,380 94.4,384.3 93.9,385.9 89.2,381.5 				"/>
			</g>
			<g>
				<polygon class="st4" points="86,385.1 90.8,389.5 89.2,389.4 84.5,385 				"/>
			</g>
			<g>
				<polygon class="st71" points="88.9,381.5 93.7,385.9 93.7,386.9 89,382.5 				"/>
			</g>
			<g>
				<polygon class="st9" points="89.2,381.5 93.9,385.9 94,386.8 89.2,382.4 				"/>
			</g>
			<g>
				<polygon class="st5" points="87.7,384.7 92.5,389.1 90.8,389.3 86,384.9 				"/>
			</g>
			<g>
				<polygon class="st46" points="89,382.5 93.7,386.9 93.9,387.7 89.1,383.3 				"/>
			</g>
			<g>
				<polygon class="st4" points="87.8,384.9 92.5,389.3 90.8,389.5 86,385.1 				"/>
			</g>
			<g>
				<polygon class="st3" points="89.2,382.4 94,386.8 94.1,387.6 89.4,383.2 				"/>
			</g>
			<g>
				<polygon class="st8" points="115.4,339 115.6,340.1 113.8,341.2 106.1,341 104,340.5 102.6,339.6 101.1,339 99,338.8 
					97.8,339.4 96.8,340.1 96,340.5 95.4,340.2 94.9,339.4 94.6,338.4 94.2,337.8 93.3,337.7 92.7,338 91.7,338.6 91,340.1 
					91.3,341.4 91.7,343.1 91.8,345 91.1,346.7 90.1,348.7 89.8,351 91.2,363.3 91.8,365 92.4,366.1 94.8,366.8 95.7,367.2 
					97,368.4 96.8,369.4 92.9,373.1 90.1,378 89.4,379.9 88.9,381.5 89,382.5 89.1,383.3 89.4,384.1 87.7,384.7 86,384.9 
					84.5,384.7 83.6,384.4 83,384.1 82.3,383.9 81.3,383.7 81,383.5 80.3,382.6 79.9,382.3 78.9,382.2 78.7,381.9 78.6,381.5 
					78.2,380.9 77.7,380.5 75.2,378.6 72.8,378.7 69.7,377.4 64.6,373.2 61.4,372.1 59.3,371.8 57.9,371.8 56.4,372 54.9,372.2 
					53.7,372.6 53.4,373.6 52.5,373.9 51.8,373.1 50.3,373.3 48.1,373.3 45.9,373.8 44.6,374.1 43.3,373.7 41,373.3 39.5,373.1 
					31.9,374.1 28.9,374.5 27.5,375.7 24.9,374.9 24,375.3 23,374.4 22.2,373.8 20.9,373.6 20.5,373.9 19.9,374.3 19.3,374.6 
					19.1,374.4 18.9,373.9 18.6,373.4 18.2,372.9 17.8,372.7 14.8,371.5 11.5,371.3 10.8,371.6 10.3,373 10,373.5 9.5,373.9 
					8.9,374.1 7.7,373.6 7,372.5 6.3,369.8 5.3,369.1 4.9,368.7 5.1,368.3 5.5,368.2 7.9,368.5 9,368.1 10.2,367.1 12.2,365.1 
					12.9,363.9 13.5,362.6 14.2,361.7 15.4,361.3 16.2,361.6 17.1,362.4 17.9,363.3 18.4,364.1 18.6,364.9 18.5,365.7 18.6,366.4 
					20.3,369.2 20.7,370.3 21.6,371.4 22.9,371.9 24.4,371.5 25.3,370.1 26.4,366.8 27.2,365.3 32.9,360.3 33.9,358.8 34.4,357.7 
					33.8,351.8 35.6,348.3 36.4,347.7 37.8,347.8 38.1,350.3 39.3,351 40.2,352 42.3,351.7 45.4,350.4 47.3,347.9 48.5,344.8 
					48.3,342.4 49.2,330.2 49.7,327.6 51.7,321.8 53.2,319.1 58.2,314 58.9,313.6 59.6,312.9 61.1,308.2 62.7,306.5 65,305.7 
					67.3,306 68.8,307.7 69,312.2 69.5,313 70.3,313.4 72.5,314.7 73.7,315.1 76.2,313.9 77.8,311.7 79.6,309.9 82.5,310.2 
					86.9,313.6 88.7,314.1 90.4,314.4 94.7,316.5 96.6,316.5 97.8,315.8 98.9,314.9 100.5,314.5 108.5,314.6 110.1,314.9 
					111.6,315.5 112.6,316.2 113.1,317.3 113.3,318 110.7,319.9 109.9,321.1 111.1,328.8 113.2,331.2 114,334.1 114.8,335.2 
					115.4,335.4 				"/>
			</g>
			<g>
				<polygon class="st5" points="89.4,384.1 94.2,388.5 92.5,389.1 87.7,384.7 				"/>
			</g>
			<g>
				<polygon class="st54" points="89.1,383.3 93.9,387.7 94.2,388.5 89.4,384.1 				"/>
			</g>
			<g>
				<path class="st7" d="M115.6,339l0.3,1.1l-2,1.3l-7.8-0.1l-2.2-0.6l-1.5-0.9l-1.4-0.6l-2-0.1l-1.1,0.5l-0.9,0.7l-0.9,0.4
					l-0.8-0.3l-0.6-1l-0.3-1L94,338l-0.6,0l-0.5,0.3l-0.9,0.6l-0.7,1.3l0.4,1.2l0.4,1.7l0.1,1.9l-0.7,1.8l-1,2l-0.3,2.2l1.4,12.2
					l0.6,1.7l0.6,1l2.2,0.7l1,0.4l1.4,1.2l-0.1,1.2l-4,3.8l-2.7,4.8l-0.7,1.9l-0.4,1.6l0,0.9l0.2,0.8l0.3,0.9l-1.9,0.8l-1.8,0.2
					l-1.6-0.1l-1-0.3l-0.6-0.3l-0.6-0.2l-1-0.1l-0.4-0.2l-0.7-1l-0.3-0.2l-0.9-0.1l-0.4-0.4l-0.1-0.5l-0.3-0.5l-0.5-0.3l-2.5-1.9
					l-2.3,0.2l-3.2-1.4l-5.1-4.2l-3.2-1l-2.1-0.3l-1.4,0l-1.4,0.2l-1.5,0.2l-1.2,0.4l-0.2,0.9l-1.1,0.4l-0.8-0.9l-1.3,0.2l-2.2,0.1
					l-2.2,0.5l-1.3,0.3l-1.4-0.4l-2.3-0.4l-1.4-0.2l-7.6,1l-2.9,0.5l-1.4,1.2l-2.7-0.8l-0.8,0.5l-1.2-1l-0.7-0.6l-1.2-0.2l-0.9,0.7
					l-0.7,0.3l-0.5-0.3l-0.2-0.5l-0.3-0.5l-0.4-0.4l-0.3-0.2l-3-1.2l-3.2-0.2l-0.6,0.2l-0.3,1.3l-0.4,0.6l-0.6,0.4l-0.7,0.2
					l-1.4-0.5l-0.7-1.3l-0.8-2.7l-1-0.6l-0.4-0.5l0.2-0.7l0.6-0.2l2.4,0.3l0.9-0.4l1.2-0.9l2-2l0.7-1.2l0.5-1.3l0.7-1l1.3-0.4l1,0.4
					l1,0.8l0.8,1l0.5,0.8l0.2,0.9l0,0.8l0.1,0.7l1.7,2.8l0.4,1.1l0.9,1l1.2,0.5l1.3-0.5l0.9-1.2l1.1-3.3l0.8-1.5l5.7-5.1l1-1.4
					l0.4-1.1l-0.6-5.9l1.8-3.6l0.9-0.7l1.6,0.1l0.4,2.6l1.2,0.6l0.9,1l1.9-0.3l3.1-1.3l1.9-2.4l1.1-3l-0.2-2.3l0.9-12.2l0.5-2.6
					l2-5.8l1.5-2.8l5-5.1l0.7-0.4l0.7-0.6l1.4-4.6l1.7-1.8l2.4-0.9l2.4,0.3l1.6,1.8l0.3,4.6l0.4,0.7l0.7,0.3l2.2,1.4l1.1,0.3
					l2.3-1.1l1.6-2.2l1.8-1.8l3.1,0.2l4.5,3.4l1.7,0.5l1.7,0.3l4.3,2.1l1.7,0l1.2-0.7l1.1-0.9l1.6-0.4l8.2,0.1l1.6,0.3l1.5,0.5
					l1.1,0.8l0.6,1.2l0.1,0.8l-0.4,0.3l-2.3,1.8l-0.7,1l1.2,7.6l2,2.3l0.8,3l0.8,1l0.6,0.1L115.6,339z M113.8,341.2l1.8-1.1l-0.2-1
					l0.1-3.7l-0.6-0.1l-0.9-1.1l-0.8-2.9l-2-2.3l-1.3-7.7l0.8-1.2l2.3-1.8l0.1-0.8l-0.5-1.1l-1-0.7l-1.4-0.5l-1.6-0.3l-8.1-0.1
					l-1.5,0.4l-1.1,0.9l-1.2,0.7l-1.9,0l-4.4-2.1l-1.7-0.3l-1.7-0.5l-4.4-3.4l-2.9-0.2l-1.8,1.8l-1.6,2.2l-2.4,1.2l-1.3-0.3
					l-2.2-1.4l-0.8-0.3l-0.5-0.8l-0.3-4.6l-1.5-1.7l-2.2-0.3l-2.3,0.8l-1.6,1.7l-1.4,4.6l-0.8,0.7l-0.7,0.4l-5,5.1l-1.5,2.8l-2,5.8
					l-0.5,2.6l-0.9,12.2l0.2,2.4l-1.1,3.1l-1.9,2.5l-3.1,1.3l-2,0.3l-1-1l-1.2-0.6l-0.3-2.6l-1.4-0.1l-0.8,0.6l-1.8,3.5l0.6,5.9
					l-0.4,1.2l-1.1,1.4l-5.7,5.1l-0.8,1.5l-1.1,3.3l-0.9,1.3l-1.4,0.5l-1.3-0.5l-1-1.1l-0.4-1.1l-1.7-2.8l-0.1-0.8l0-0.7l-0.2-0.9
					l-0.5-0.8l-0.8-0.9l-0.9-0.8l-0.8-0.3l-1.2,0.4l-0.7,1l-0.5,1.3l-0.7,1.2l-2,2.1l-1.3,1l-1,0.4l-2.5-0.3l-0.4,0.1l-0.2,0.4
					l0.3,0.4l1,0.7l0.8,2.7l0.6,1.1l1.2,0.5l0.6-0.2l0.5-0.4l0.4-0.5l0.3-1.3l0.8-0.4l3.3,0.2l3,1.2l0.4,0.2l0.5,0.5l0.3,0.6
					l0.1,0.5l0.2,0.2l0.6-0.3l0.6-0.5l0.2-0.2l1.4,0.2l0.8,0.6l1,0.9l0.8-0.4l2.7,0.8l1.4-1.1l3-0.5l7.6-1l1.5,0.2l2.3,0.4l1.4,0.4
					l1.2-0.3l2.2-0.5l2.2-0.1l1.4-0.3l0.8,0.9l0.8-0.3l0.2-0.9l1.3-0.5l1.5-0.2l1.4-0.2l1.4,0l2.1,0.3l3.2,1.1l5.1,4.2l3.1,1.4
					l2.3-0.2l2.7,1.9l0.5,0.3l0.4,0.5l0.1,0.5l0.2,0.3l0.9,0.1l0.4,0.2l0.7,1l0.3,0.2l1,0.1l0.7,0.3l0.6,0.3l0.9,0.3l1.5,0.1
					l1.7-0.2l1.6-0.5l-0.2-0.9l-0.2-0.8l0-1l0.5-1.6l0.7-1.9l2.8-4.9l4-3.7l0.2-1l-1.3-1.2l-0.9-0.4l-2.3-0.7l-0.7-1.1l-0.6-1.7
					l-1.4-12.3l0.3-2.3l1.1-2l0.7-1.7l-0.1-1.9l-0.4-1.7l-0.4-1.2l0.7-1.5l1-0.7l0.6-0.3l0.8,0l0.5,0.6l0.3,1l0.5,0.9l0.6,0.2
					l0.8-0.4l0.9-0.7l1.2-0.5l2.1,0.1l1.5,0.6l1.4,0.9l2.1,0.6L113.8,341.2"/>
			</g>
			<g>
				<polygon class="st4" points="89.7,384.1 94.5,388.5 92.5,389.3 87.8,384.9 				"/>
			</g>
			<g>
				<polygon class="st18" points="89.4,383.2 94.1,387.6 94.5,388.5 89.7,384.1 				"/>
			</g>
		</g>
	</g>
</g>
</svg>
