<?xml version="1.0" encoding="utf-8"?>
<!-- Generator: Adobe Illustrator 22.1.0, SVG Export Plug-In . SVG Version: 6.00 Build 0)  -->
<svg version="1.1" id="Layer_1" xmlns="http://www.w3.org/2000/svg" xmlns:xlink="http://www.w3.org/1999/xlink" x="0px" y="0px"
	 viewBox="0 0 800 800" style="enable-background:new 0 0 800 800;" xml:space="preserve">
<style type="text/css">
	.st0{enable-background:new    ;}
	.st1{fill:#9D9D9D;}
	.st2{fill:#7D7D7D;}
	.st3{fill:#1C59A0;}
	.st4{fill:#1E5FAB;}
	.st5{fill:#A8A8A8;}
	.st6{fill:#A9A9A9;}
	.st7{fill:#1E5EA9;}
	.st8{fill:#A6A6A6;}
	.st9{fill:#7F7F7F;}
	.st10{fill:#1D5AA1;}
	.st11{fill:#9E9E9E;}
	.st12{fill:#A5A5A5;}
	.st13{fill:#9F9F9F;}
	.st14{fill:#17477F;}
	.st15{fill:#838383;}
	.st16{fill:#9C9C9C;}
	.st17{fill:#1D59A0;}
	.st18{fill:#A2A2A2;}
	.st19{fill:#AAAAAA;}
	.st20{fill:#9B9B9B;}
	.st21{fill:#868686;}
	.st22{fill:#909090;}
	.st23{fill:#1C589F;}
	.st24{fill:#1A5293;}
	.st25{fill:#1D5CA5;}
	.st26{fill:#184B86;}
	.st27{fill:#1A5191;}
	.st28{fill:#848484;}
	.st29{fill:#8F8F8F;}
	.st30{fill:#184B87;}
	.st31{fill:#858585;}
	.st32{fill:#1E5FAA;}
	.st33{fill:#A7A7A7;}
	.st34{fill:#1F60AC;}
	.st35{fill:#174780;}
	.st36{fill:#7E7E7E;}
	.st37{fill:#1D5CA4;}
	.st38{fill:#194F8F;}
	.st39{fill:#8C8C8C;}
	.st40{fill:#174983;}
	.st41{fill:#1B569A;}
	.st42{fill:#818181;}
	.st43{fill:#989898;}
	.st44{fill:#174982;}
	.st45{fill:#808080;}
	.st46{fill:#959595;}
	.st47{fill:#888888;}
	.st48{fill:#D3D3D3;}
	.st49{fill:#2678D7;}
	.st50{fill:#1F60AD;}
	.st51{fill:#184C88;}
</style>
<g>
	<g>
		<g class="st0">
			<g>
				<polygon class="st1" points="6.1,179.6 13,183.9 10,200.7 3.1,196.3 				"/>
			</g>
			<g>
				<polygon class="st2" points="24.2,176.1 31.1,180.4 13,183.9 6.1,179.6 				"/>
			</g>
			<g>
				<polygon class="st2" points="38.7,176.6 45.6,181 31.1,180.4 24.2,176.1 				"/>
			</g>
			<g>
				<polygon class="st3" points="38.7,176.6 45.6,181 53.7,186.8 46.8,182.4 				"/>
			</g>
			<g>
				<polygon class="st1" points="38.8,176.4 45.7,180.7 53.9,186.6 47,182.3 				"/>
			</g>
			<g>
				<polygon class="st4" points="46.8,182.4 53.7,186.8 59.6,195.5 52.6,191.2 				"/>
			</g>
			<g>
				<polygon class="st5" points="47,182.3 53.9,186.6 59.8,195.4 52.8,191 				"/>
			</g>
			<g>
				<polygon class="st6" points="3.1,196.3 10,200.7 22.1,261.7 15.2,257.3 				"/>
			</g>
			<g>
				<polygon class="st7" points="52.6,191.2 59.6,195.5 67.2,204.7 60.3,200.3 				"/>
			</g>
			<g>
				<polygon class="st8" points="52.8,191 59.8,195.4 67.4,204.5 60.4,200.1 				"/>
			</g>
			<g>
				<polygon class="st2" points="70.1,204.1 77.1,208.4 67.2,204.7 60.3,200.4 				"/>
			</g>
			<g>
				<polygon class="st2" points="80,201.3 86.9,205.6 77.1,208.4 70.1,204.1 				"/>
			</g>
			<g>
				<polygon class="st9" points="96.6,189.4 103.5,193.8 86.9,205.6 80,201.3 				"/>
			</g>
			<g>
				<polygon class="st10" points="96.6,189.4 103.5,193.8 112.8,200.8 105.9,196.4 				"/>
			</g>
			<g>
				<polygon class="st11" points="96.5,189.1 103.5,193.5 113,200.6 106,196.2 				"/>
			</g>
			<g>
				<polygon class="st2" points="119.4,199.8 126.3,204.2 112.9,200.8 106,196.5 				"/>
			</g>
			<g>
				<polygon class="st2" points="143.8,202.3 150.7,206.6 126.3,204.2 119.4,199.8 				"/>
			</g>
			<g>
				<polygon class="st5" points="15.2,257.3 22.1,261.7 71.7,334.8 64.7,330.4 				"/>
			</g>
			<g>
				<polygon class="st2" points="155.2,204.8 162.1,209.1 150.7,206.6 143.8,202.3 				"/>
			</g>
			<g>
				<polygon class="st12" points="64.7,330.4 71.7,334.8 87.2,352.6 80.2,348.3 				"/>
			</g>
			<g>
				<polygon class="st13" points="80.2,348.3 87.2,352.6 105.9,367.8 99,363.4 				"/>
			</g>
			<g>
				<polygon class="st14" points="120.4,371.1 127.4,375.4 105.9,367.8 99,363.4 				"/>
			</g>
			<g>
				<polygon class="st2" points="120.4,371.3 127.3,375.7 105.8,368 98.9,363.7 				"/>
			</g>
			<g>
				<polygon class="st2" points="258.8,241.5 265.7,245.8 162.1,209.1 155.2,204.8 				"/>
			</g>
			<g>
				<polygon class="st14" points="193.5,370.5 200.5,374.9 127.4,375.4 120.4,371.1 				"/>
			</g>
			<g>
				<polygon class="st2" points="193.5,370.8 200.4,375.1 127.3,375.7 120.4,371.3 				"/>
			</g>
			<g>
				<polygon class="st2" points="280.9,233.4 287.9,237.7 265.7,245.8 258.8,241.5 				"/>
			</g>
			<g>
				<polygon class="st14" points="219,375.4 226,379.8 200.5,374.9 193.5,370.5 				"/>
			</g>
			<g>
				<polygon class="st2" points="218.9,375.6 225.9,380 200.4,375.1 193.5,370.8 				"/>
			</g>
			<g>
				<polygon class="st2" points="338.2,233.5 345.1,237.8 287.9,237.7 280.9,233.4 				"/>
			</g>
			<g>
				<polygon class="st2" points="362.2,228.5 369.1,232.9 345.1,237.8 338.2,233.5 				"/>
			</g>
			<g>
				<polygon class="st9" points="387.9,209.9 394.8,214.3 369.1,232.9 362.2,228.5 				"/>
			</g>
			<g>
				<polygon class="st15" points="433.9,165.5 440.8,169.8 394.8,214.3 387.9,209.9 				"/>
			</g>
			<g>
				<polygon class="st2" points="457,154.5 464,158.8 440.8,169.8 433.9,165.5 				"/>
			</g>
			<g>
				<polygon class="st14" points="300.1,414.6 307.1,419 226,379.8 219,375.4 				"/>
			</g>
			<g>
				<polygon class="st2" points="300,414.8 306.9,419.2 225.9,380 218.9,375.6 				"/>
			</g>
			<g>
				<polygon class="st2" points="469.7,154.3 476.6,158.7 464,158.8 457,154.5 				"/>
			</g>
			<g>
				<polygon class="st2" points="483.6,157.1 490.6,161.4 476.6,158.7 469.7,154.3 				"/>
			</g>
			<g>
				<polygon class="st16" points="300.1,414.6 307,419 323.3,430.1 316.3,425.8 				"/>
			</g>
			<g>
				<polygon class="st2" points="496.5,162.4 503.4,166.8 490.6,161.4 483.6,157.1 				"/>
			</g>
			<g>
				<polygon class="st17" points="496.5,162.4 503.4,166.8 513.2,174.1 506.3,169.7 				"/>
			</g>
			<g>
				<polygon class="st11" points="496.6,162.2 503.5,166.5 513.3,173.9 506.4,169.5 				"/>
			</g>
			<g>
				<polygon class="st2" points="516.8,176 523.7,180.4 513.2,174.1 506.3,169.7 				"/>
			</g>
			<g>
				<polygon class="st18" points="316.3,425.8 323.3,430.1 366.2,470.5 359.3,466.1 				"/>
			</g>
			<g>
				<polygon class="st2" points="559.9,185 566.8,189.4 523.7,180.4 516.8,176 				"/>
			</g>
			<g>
				<polygon class="st2" points="381.2,480.1 388.1,484.5 366.1,470.7 359.2,466.3 				"/>
			</g>
			<g>
				<polygon class="st14" points="381.4,479.9 388.3,484.3 366.2,470.5 359.3,466.1 				"/>
			</g>
			<g>
				<polygon class="st13" points="381.3,479.9 388.3,484.3 399.8,493.4 392.8,489 				"/>
			</g>
			<g>
				<polygon class="st19" points="392.8,489 399.8,493.4 404.7,503 397.8,498.7 				"/>
			</g>
			<g>
				<polygon class="st19" points="397.8,498.7 404.7,503 408,512.2 401.1,507.8 				"/>
			</g>
			<g>
				<polygon class="st12" points="401.1,507.8 408,512.2 416.1,521.5 409.2,517.2 				"/>
			</g>
			<g>
				<polygon class="st13" points="409.2,517.2 416.1,521.5 433.8,535.6 426.8,531.3 				"/>
			</g>
			<g>
				<polygon class="st14" points="431.8,533.4 438.7,537.8 433.8,535.6 426.8,531.3 				"/>
			</g>
			<g>
				<polygon class="st2" points="431.7,533.6 438.6,538 433.7,535.8 426.7,531.5 				"/>
			</g>
			<g>
				<polygon class="st14" points="437.3,535.2 444.3,539.5 438.7,537.8 431.8,533.4 				"/>
			</g>
			<g>
				<polygon class="st2" points="437.2,535.4 444.1,539.7 438.6,538 431.7,533.6 				"/>
			</g>
			<g>
				<polygon class="st14" points="442,537.7 448.9,542.1 444.3,539.5 437.3,535.2 				"/>
			</g>
			<g>
				<polygon class="st2" points="441.8,537.8 448.7,542.2 444.1,539.7 437.2,535.4 				"/>
			</g>
			<g>
				<polygon class="st19" points="441.9,537.6 448.9,542 458.8,563.9 451.9,559.5 				"/>
			</g>
			<g>
				<polygon class="st2" points="662.3,228.5 669.2,232.9 566.8,189.4 559.9,185 				"/>
			</g>
			<g>
				<polygon class="st12" points="402.1,636.8 409,641.1 409.4,650.6 402.4,646.3 				"/>
			</g>
			<g>
				<polygon class="st6" points="451.9,559.5 458.8,563.9 461.6,568.2 454.7,563.8 				"/>
			</g>
			<g>
				<polygon class="st9" points="415.1,627.3 422,631.6 409,641.1 402.1,636.8 				"/>
			</g>
			<g>
				<polygon class="st19" points="454.7,563.8 461.6,568.2 467.3,580.2 460.4,575.8 				"/>
			</g>
			<g>
				<polygon class="st20" points="402.4,646.3 409.4,650.6 420.8,658 413.8,653.6 				"/>
			</g>
			<g>
				<polygon class="st2" points="443,613.8 449.9,618.2 422,631.6 415.1,627.3 				"/>
			</g>
			<g>
				<polygon class="st1" points="460.4,575.8 467.3,580.2 464.4,595.5 457.5,591.1 				"/>
			</g>
			<g>
				<polygon class="st21" points="450.3,605.3 457.2,609.6 449.9,618.2 443,613.8 				"/>
			</g>
			<g>
				<polygon class="st22" points="457.5,591.1 464.4,595.5 457.2,609.6 450.3,605.3 				"/>
			</g>
			<g>
				<polygon class="st23" points="662.3,228.5 669.2,232.9 689.6,246.7 682.6,242.4 				"/>
			</g>
			<g>
				<polygon class="st16" points="662.4,228.3 669.3,232.7 689.7,246.5 682.8,242.2 				"/>
			</g>
			<g>
				<polygon class="st14" points="426.9,657 433.9,661.4 420.8,658 413.8,653.6 				"/>
			</g>
			<g>
				<polygon class="st2" points="426.9,657.3 433.9,661.6 420.7,658.2 413.7,653.9 				"/>
			</g>
			<g>
				<polygon class="st24" points="476.5,579.6 483.5,584 477.5,595.8 470.5,591.4 				"/>
			</g>
			<g>
				<polygon class="st22" points="476.7,579.9 483.6,584.2 477.7,595.9 470.8,591.5 				"/>
			</g>
			<g>
				<polygon class="st14" points="488.7,574.8 495.6,579.2 483.5,584 476.5,579.6 				"/>
			</g>
			<g>
				<polygon class="st2" points="488.8,575 495.7,579.4 483.6,584.2 476.7,579.9 				"/>
			</g>
			<g>
				<polygon class="st7" points="470.5,591.4 477.5,595.8 478.7,610.1 471.7,605.7 				"/>
			</g>
			<g>
				<polygon class="st8" points="470.8,591.5 477.7,595.9 478.9,610 472,605.7 				"/>
			</g>
			<g>
				<polygon class="st14" points="441.2,657.7 448.2,662 433.9,661.4 426.9,657 				"/>
			</g>
			<g>
				<polygon class="st2" points="441.2,657.9 448.2,662.3 433.9,661.6 426.9,657.3 				"/>
			</g>
			<g>
				<polygon class="st14" points="502.6,570.9 509.5,575.2 495.6,579.2 488.7,574.8 				"/>
			</g>
			<g>
				<polygon class="st2" points="502.8,571.1 509.7,575.4 495.7,579.4 488.8,575 				"/>
			</g>
			<g>
				<polygon class="st2" points="488.8,596.1 495.8,600.4 484.7,605.3 477.7,600.9 				"/>
			</g>
			<g>
				<polygon class="st25" points="682.6,242.4 689.6,246.7 708,263.8 701.1,259.4 				"/>
			</g>
			<g>
				<polygon class="st18" points="682.8,242.2 689.7,246.5 708.2,263.6 701.2,259.3 				"/>
			</g>
			<g>
				<polygon class="st26" points="512,561.1 518.9,565.5 509.5,575.2 502.6,570.9 				"/>
			</g>
			<g>
				<polygon class="st27" points="526.1,535.6 533,540 518.9,565.5 512,561.1 				"/>
			</g>
			<g>
				<polygon class="st28" points="512.2,561.3 519.1,565.6 509.7,575.4 502.8,571.1 				"/>
			</g>
			<g>
				<polygon class="st29" points="526.3,535.8 533.2,540.1 519.1,565.6 512.2,561.3 				"/>
			</g>
			<g>
				<polygon class="st19" points="477.7,600.9 484.7,605.3 490.2,615.4 483.2,611 				"/>
			</g>
			<g>
				<polygon class="st14" points="455.9,656.9 462.9,661.2 448.2,662 441.2,657.7 				"/>
			</g>
			<g>
				<polygon class="st30" points="546.3,513.5 553.2,517.8 533,540 526.1,535.6 				"/>
			</g>
			<g>
				<polygon class="st2" points="456,657.1 462.9,661.5 448.2,662.3 441.2,657.9 				"/>
			</g>
			<g>
				<polygon class="st31" points="546.4,513.7 553.3,518 533.2,540.1 526.3,535.8 				"/>
			</g>
			<g>
				<polygon class="st32" points="471.7,605.7 478.7,610.1 488,622.5 481.1,618.1 				"/>
			</g>
			<g>
				<polygon class="st33" points="472,605.7 478.9,610 488.2,622.2 481.2,617.9 				"/>
			</g>
			<g>
				<polygon class="st18" points="483.2,611 490.2,615.4 493,618 486,613.6 				"/>
			</g>
			<g>
				<polygon class="st15" points="486,613.6 493,618 488.2,622.5 481.3,618.1 				"/>
			</g>
			<g>
				<polygon class="st34" points="488.8,596.1 495.8,600.4 499,611.8 492.1,607.5 				"/>
			</g>
			<g>
				<polygon class="st19" points="488.9,595.8 495.8,600.2 499.3,611.8 492.4,607.4 				"/>
			</g>
			<g>
				<polygon class="st14" points="464.8,654.7 471.7,659.1 462.9,661.2 455.9,656.9 				"/>
			</g>
			<g>
				<polygon class="st2" points="464.9,654.9 471.8,659.3 462.9,661.5 456,657.1 				"/>
			</g>
			<g>
				<polygon class="st35" points="572.4,496.5 579.4,500.8 553.2,517.8 546.3,513.5 				"/>
			</g>
			<g>
				<polygon class="st36" points="572.5,496.7 579.4,501 553.3,518 546.4,513.7 				"/>
			</g>
			<g>
				<polygon class="st14" points="476.2,650.2 483.1,654.5 471.7,659.1 464.8,654.7 				"/>
			</g>
			<g>
				<polygon class="st2" points="476.3,650.4 483.2,654.8 471.8,659.3 464.9,654.9 				"/>
			</g>
			<g>
				<polygon class="st37" points="492.1,607.5 499,611.8 497.2,641.8 490.2,637.5 				"/>
			</g>
			<g>
				<polygon class="st35" points="486.1,644.1 493,648.4 483.1,654.5 476.2,650.2 				"/>
			</g>
			<g>
				<polygon class="st38" points="490.2,637.5 497.2,641.8 493,648.4 486.1,644.1 				"/>
			</g>
			<g>
				<polygon class="st18" points="492.4,607.4 499.3,611.8 497.4,641.9 490.5,637.5 				"/>
			</g>
			<g>
				<polygon class="st36" points="486.3,644.2 493.2,648.6 483.2,654.8 476.3,650.4 				"/>
			</g>
			<g>
				<polygon class="st39" points="490.5,637.5 497.4,641.9 493.2,648.6 486.3,644.2 				"/>
			</g>
			<g>
				<polygon class="st7" points="701.1,259.4 708,263.8 741.3,306.2 734.3,301.9 				"/>
			</g>
			<g>
				<polygon class="st33" points="701.2,259.3 708.2,263.6 741.5,306 734.5,301.7 				"/>
			</g>
			<g>
				<polygon class="st14" points="657.1,465.8 664,470.2 579.4,500.8 572.4,496.5 				"/>
			</g>
			<g>
				<polygon class="st2" points="657.2,466 664.2,470.4 579.4,501 572.5,496.7 				"/>
			</g>
			<g>
				<polygon class="st40" points="667.9,456.9 674.8,461.3 664,470.2 657.1,465.8 				"/>
			</g>
			<g>
				<polygon class="st41" points="672.5,442.3 679.4,446.7 674.8,461.3 667.9,456.9 				"/>
			</g>
			<g>
				<polygon class="st42" points="668.1,457 675,461.4 664.2,470.4 657.2,466 				"/>
			</g>
			<g>
				<polygon class="st43" points="672.7,442.5 679.6,446.9 675,461.4 668.1,457 				"/>
			</g>
			<g>
				<polygon class="st14" points="679.3,439.3 686.2,443.6 679.4,446.7 672.5,442.3 				"/>
			</g>
			<g>
				<polygon class="st2" points="679.3,439.5 686.3,443.9 679.6,446.9 672.7,442.5 				"/>
			</g>
			<g>
				<polygon class="st37" points="734.3,301.9 741.3,306.2 761.9,325 755,320.6 				"/>
			</g>
			<g>
				<polygon class="st18" points="734.5,301.7 741.5,306 762.1,324.8 755.2,320.4 				"/>
			</g>
			<g>
				<polygon class="st23" points="755,320.6 761.9,325 785.9,341.4 778.9,337 				"/>
			</g>
			<g>
				<polygon class="st16" points="755.2,320.4 762.1,324.8 786,341.2 779.1,336.8 				"/>
			</g>
			<g>
				<polygon class="st14" points="723.8,435.8 730.7,440.2 686.2,443.6 679.3,439.3 				"/>
			</g>
			<g>
				<polygon class="st2" points="723.9,436.1 730.9,440.4 686.3,443.9 679.3,439.5 				"/>
			</g>
			<g>
				<polygon class="st44" points="730.5,430.4 737.4,434.8 730.7,440.2 723.8,435.8 				"/>
			</g>
			<g>
				<polygon class="st45" points="730.7,430.6 737.6,434.9 730.9,440.4 723.9,436.1 				"/>
			</g>
			<g>
				<polygon class="st46" points="638.7,576.9 645.7,581.2 643.7,586.2 636.8,581.9 				"/>
			</g>
			<g>
				<polygon class="st30" points="746,413.8 752.9,418.2 737.4,434.8 730.5,430.4 				"/>
			</g>
			<g>
				<polygon class="st47" points="661.4,548.5 668.3,552.9 645.7,581.2 638.7,576.9 				"/>
			</g>
			<g>
				<polygon class="st31" points="746.1,414 753.1,418.4 737.6,434.9 730.7,430.6 				"/>
			</g>
			<g>
				<polygon class="st11" points="636.8,581.9 643.7,586.2 647.6,589.1 640.6,584.8 				"/>
			</g>
			<g>
				<polygon class="st42" points="668,543 674.9,547.4 668.3,552.9 661.4,548.5 				"/>
			</g>
			<g>
				<polygon class="st14" points="757.7,407 764.6,411.4 752.9,418.2 746,413.8 				"/>
			</g>
			<g>
				<polygon class="st2" points="757.8,407.3 764.8,411.6 753.1,418.4 746.1,414 				"/>
			</g>
			<g>
				<polygon class="st32" points="778.9,337 785.9,341.4 800,360.8 793.1,356.4 				"/>
			</g>
			<g>
				<polygon class="st33" points="779.1,336.8 786,341.2 800.3,360.7 793.3,356.3 				"/>
			</g>
			<g>
				<polygon class="st14" points="649.5,587.4 656.4,591.8 647.6,589.1 640.6,584.8 				"/>
			</g>
			<g>
				<polygon class="st2" points="649.3,587.6 656.3,591.9 647.5,589.4 640.5,585 				"/>
			</g>
			<g>
				<polygon class="st2" points="678.9,545.2 685.9,549.6 674.9,547.4 668,543 				"/>
			</g>
			<g>
				<polygon class="st44" points="778,390.6 785,395 764.6,411.4 757.7,407 				"/>
			</g>
			<g>
				<polygon class="st45" points="778.2,390.8 785.1,395.1 764.8,411.6 757.8,407.3 				"/>
			</g>
			<g>
				<polygon class="st41" points="793.1,356.4 800,360.8 791.4,388.5 784.5,384.1 				"/>
			</g>
			<g>
				<polygon class="st26" points="784.5,384.1 791.4,388.5 785,395 778,390.6 				"/>
			</g>
			<g>
				<path class="st48" d="M793.3,356.3l-8.6,27.9l-6.5,6.6l-20.4,16.5l-11.7,6.8l-15.5,16.5l-6.8,5.5l-44.6,3.5l-6.7,3l-4.5,14.5
					l-10.9,9l-84.7,30.7l-26.1,17l-20.2,22.1l-14,25.5l-9.5,9.8l-14,3.9l-12.1,4.8l-5.9,11.7l1.2,14.1l9.3,12.2l4.5-4.1l-2.7-2.5
					l-5.6-10.3l11.4-5.1l3.5,11.6l-1.9,30.1l-4.2,6.7l-10,6.2l-11.4,4.5l-8.9,2.2l-14.7,0.8l-14.3-0.7l-13.2-3.4l-11.5-7.4l-0.4-9.7
					l13.1-9.6l27.9-13.4l7.3-8.5l7.2-14.1l2.9-15.1l-5.7-12l-2.8-4.3l-9.9-21.8l-4.6-2.4l-5.5-1.7l-5-2.2L409,517.4l-8.2-9.4
					l-3.3-9.2l-4.9-9.6l-11.5-9.1l-22-13.8l-43-40.3L300,414.8l-81.1-39.2l-25.4-4.9l-73.1,0.6l-21.5-7.7l-18.8-15.2l-15.5-17.9
					L15,257.5L2.9,196.4l3-16.9l18.3-3.6l14.6,0.6l8.2,5.9l5.9,8.8l7.6,9.1l9.7,3.7l9.8-2.8l16.7-11.9l9.5,7.1l13.4,3.4l24.4,2.4
					l11.4,2.5l103.5,36.7l22.2-8.1l57.3,0.1l24-4.9l25.6-18.5l46-44.5l23.3-11.1l12.7-0.2l14,2.8l12.9,5.4l9.8,7.3l10.4,6.3l43.1,9
					l102.4,43.5l20.4,13.9l18.4,17.1l33.3,42.4l20.6,18.7l23.9,16.4L793.3,356.3z M784.5,384.1l8.6-27.7L778.9,337L755,320.6
					l-20.7-18.8l-33.3-42.4l-18.4-17.1l-20.4-13.9L559.9,185l-43.1-9l-10.5-6.3l-9.8-7.3l-12.8-5.3l-14-2.8l-12.6,0.2l-23.2,11
					l-46,44.4l-25.6,18.6l-24,5l-57.2-0.1l-22.2,8.1l-103.6-36.7l-11.4-2.5l-24.4-2.4l-13.4-3.4l-9.4-7.1L80,201.3l-9.9,2.8
					l-9.8-3.7l-7.7-9.2l-5.9-8.7l-8.1-5.8l-14.5-0.6l-18.1,3.5l-3,16.7l12.1,61l49.5,73.1l15.5,17.8L99,363.4l21.5,7.7l73.1-0.6
					l25.5,4.9l81.1,39.2l16.2,11.2l43,40.3l22,13.8l11.5,9.1l5,9.7l3.2,9.2l8.2,9.3l17.6,14.1l4.9,2.2l5.5,1.7l4.6,2.5l10,21.9
					l2.8,4.3l5.7,12l-2.9,15.3l-7.2,14.2l-7.3,8.5l-27.9,13.5l-13,9.5l0.3,9.5l11.4,7.4l13.1,3.4l14.3,0.7l14.7-0.8l8.9-2.2
					l11.4-4.5l9.9-6.1l4.1-6.6l1.9-30l-3.3-11.4l-11.1,4.8l5.5,10.1l2.8,2.6l-4.7,4.5l-9.5-12.4l-1.2-14.3l6-11.8l12.2-4.9l13.9-3.9
					l9.4-9.7l14.1-25.5l20.2-22.1l26.1-17l84.7-30.7l10.8-8.9l4.5-14.5l6.8-3.1l44.5-3.5l6.7-5.4l15.5-16.6l11.7-6.8l20.4-16.4
					L784.5,384.1"/>
			</g>
			<g>
				<polygon class="st49" points="778.9,337 793.1,356.4 784.5,384.1 778,390.6 757.7,407 746,413.8 730.5,430.4 723.8,435.8 
					679.3,439.3 672.5,442.3 667.9,456.9 657.1,465.8 572.4,496.5 546.3,513.5 526.1,535.6 512,561.1 502.6,570.9 488.7,574.8 
					476.5,579.6 470.5,591.4 471.7,605.7 481.1,618.1 486,613.8 483.2,611 477.7,600.9 488.8,596.1 492.1,607.5 490.2,637.5 
					486.1,644.1 476.2,650.2 464.8,654.7 455.9,656.9 441.2,657.7 426.9,657 413.8,653.6 402.4,646.3 402.1,636.8 415.1,627.3 
					442.9,613.8 450.3,605.3 457.5,591.1 460.4,575.9 454.7,563.8 451.9,559.5 442,537.7 437.3,535.2 431.8,533.4 426.8,531.3 
					409.2,517.2 401.1,507.8 397.8,498.7 392.9,489.1 381.4,479.9 359.3,466.1 316.3,425.8 300.1,414.6 219,375.4 193.5,370.5 
					120.4,371.1 99,363.4 80.2,348.3 64.7,330.4 15.2,257.3 3.1,196.3 6.1,179.6 24.2,176.1 38.7,176.6 46.8,182.4 52.6,191.2 
					60.3,200.3 70,204.1 79.9,201.3 96.6,189.4 105.9,196.4 119.3,199.8 143.8,202.3 155.2,204.8 258.7,241.5 280.9,233.4 
					338.2,233.5 362.2,228.5 387.8,210 433.9,165.5 457,154.5 469.7,154.3 483.6,157.1 496.5,162.4 506.3,169.7 516.7,176 
					559.9,185 662.3,228.5 682.6,242.4 701.1,259.4 734.3,301.9 755,320.6 				"/>
			</g>
			<g>
				<polygon class="st43" points="793.3,356.3 800.3,360.7 791.7,388.6 784.7,384.2 				"/>
			</g>
			<g>
				<polygon class="st28" points="784.7,384.2 791.7,388.6 785.1,395.1 778.2,390.8 				"/>
			</g>
			<g>
				<polygon class="st2" points="688.4,540.5 695.3,544.9 685.9,549.6 678.9,545.2 				"/>
			</g>
			<g>
				<polygon class="st8" points="649.4,587.4 656.4,591.7 666.7,604.6 659.7,600.2 				"/>
			</g>
			<g>
				<polygon class="st2" points="702.6,544.1 709.5,548.5 695.3,544.9 688.4,540.5 				"/>
			</g>
			<g>
				<polygon class="st4" points="702.6,544.1 709.5,548.5 719.4,563.4 712.4,559.1 				"/>
			</g>
			<g>
				<polygon class="st5" points="702.7,543.9 709.6,548.3 719.6,563.3 712.6,558.9 				"/>
			</g>
			<g>
				<polygon class="st50" points="712.4,559.1 719.4,563.4 724.6,578 717.6,573.6 				"/>
			</g>
			<g>
				<polygon class="st19" points="712.6,558.9 719.6,563.3 724.8,577.9 717.8,573.5 				"/>
			</g>
			<g>
				<polygon class="st1" points="659.7,600.2 666.7,604.6 701,628.6 694.1,624.3 				"/>
			</g>
			<g>
				<polygon class="st7" points="717.6,573.6 724.6,578 735.7,591.2 728.7,586.9 				"/>
			</g>
			<g>
				<polygon class="st8" points="717.8,573.5 724.8,577.9 735.9,591.1 728.9,586.7 				"/>
			</g>
			<g>
				<polygon class="st14" points="711.5,629.5 718.4,633.9 701,628.6 694.1,624.3 				"/>
			</g>
			<g>
				<polygon class="st2" points="711.6,629.7 718.5,634.1 700.9,628.9 694,624.5 				"/>
			</g>
			<g>
				<polygon class="st51" points="722.9,616.4 729.8,620.8 718.4,633.9 711.5,629.5 				"/>
			</g>
			<g>
				<polygon class="st21" points="723.1,616.6 730,621 718.5,634.1 711.6,629.7 				"/>
			</g>
			<g>
				<polygon class="st34" points="728.7,586.9 735.7,591.2 740.7,609.7 733.8,605.3 				"/>
			</g>
			<g>
				<polygon class="st49" points="717.6,573.6 728.7,586.9 733.8,605.3 722.9,616.4 711.5,629.5 694.1,624.3 659.7,600.2 
					649.5,587.4 640.6,584.8 636.8,581.9 638.7,576.9 661.4,548.5 668,543 678.8,545.2 688.4,540.5 702.6,544.1 712.4,559.1 				"/>
			</g>
			<g>
				<polygon class="st26" points="733.8,605.3 740.7,609.7 729.8,620.8 722.9,616.4 				"/>
			</g>
			<g>
				<polygon class="st28" points="734,605.3 741,609.7 730,621 723.1,616.6 				"/>
			</g>
			<g>
				<path class="st48" d="M728.9,586.7l5.1,18.6l-11,11.3l-11.5,13.1l-17.6-5.2l-34.4-24.1l-10.2-12.8l-8.8-2.6l-4-3l2-5.2
					l22.7-28.4l6.7-5.6l11,2.2l9.5-4.7l14.4,3.6l9.9,15l5.2,14.6L728.9,586.7z M722.9,616.4l10.9-11.1l-5.1-18.4l-11.1-13.2
					l-5.2-14.6l-9.8-14.9l-14.2-3.6l-9.5,4.7L668,543l-6.6,5.5l-22.6,28.3l-2,5l3.8,2.9l8.8,2.6l10.3,12.8l34.3,24.1l17.4,5.2
					L722.9,616.4"/>
			</g>
			<g>
				<polygon class="st19" points="728.9,586.7 735.9,591.1 741,609.7 734,605.3 				"/>
			</g>
		</g>
	</g>
</g>
</svg>
