<?xml version="1.0" encoding="utf-8"?>
<!-- Generator: Adobe Illustrator 22.1.0, SVG Export Plug-In . SVG Version: 6.00 Build 0)  -->
<svg version="1.1" id="Layer_1" xmlns="http://www.w3.org/2000/svg" xmlns:xlink="http://www.w3.org/1999/xlink" x="0px" y="0px"
	 viewBox="0 0 800 800" style="enable-background:new 0 0 800 800;" xml:space="preserve">
<style type="text/css">
	
		.st0{fill-rule:evenodd;clip-rule:evenodd;fill:#BFC0C2;stroke:#F9F9F9;stroke-width:0.25;stroke-linecap:round;stroke-linejoin:round;}
	.st1{fill:#BFC0C2;stroke:#F9F9F9;stroke-width:0.25;stroke-linecap:round;stroke-linejoin:round;}
	.st2{enable-background:new    ;}
	.st3{fill:#7F7F7F;}
	.st4{fill:#7E7E7E;}
	.st5{fill:#838383;}
	.st6{fill:#888888;}
	.st7{fill:#7D7D7D;}
	.st8{fill:#8B8B8B;}
	.st9{fill:#868686;}
	.st10{fill:#17477F;}
	.st11{fill:#A0A0A0;}
	.st12{fill:#9F9F9F;}
	.st13{fill:#9B9B9B;}
	.st14{fill:#949494;}
	.st15{fill:#184A85;}
	.st16{fill:#1A5191;}
	.st17{fill:#8F8F8F;}
	.st18{fill:#1B5396;}
	.st19{fill:#194E8B;}
	.st20{fill:#939393;}
	.st21{fill:#898989;}
	.st22{fill:#184B87;}
	.st23{fill:#A1A1A1;}
	.st24{fill:#808080;}
	.st25{fill:#1D5BA3;}
	.st26{fill:#1D5AA2;}
	.st27{fill:#1C59A0;}
	.st28{fill:#919191;}
	.st29{fill:#999999;}
	.st30{fill:#858585;}
	.st31{fill:#1C589E;}
	.st32{fill:#9E9E9E;}
	.st33{fill:#1B5395;}
	.st34{fill:#1D5AA1;}
	.st35{fill:#1C579C;}
	.st36{fill:#9A9A9A;}
	.st37{fill:#174982;}
	.st38{fill:#9D9D9D;}
	.st39{fill:#1D59A0;}
	.st40{fill:#1C599F;}
	.st41{fill:#1B569A;}
	.st42{fill:#989898;}
	.st43{fill:#1A5293;}
	.st44{fill:#194F8F;}
	.st45{fill:#8C8C8C;}
	.st46{fill:#277ADA;}
	.st47{fill:#194D8A;}
	.st48{fill:#D7D7D7;}
</style>
<polygon class="st0" points="229.3,448.5 228.7,448.2 228,447.6 227.4,446.6 227.1,445.6 227,444.2 227.1,443.3 228.2,439.9 
	228.7,438.1 228.7,437.1 228.2,435.9 227.1,434.1 225.2,432 223.4,430.3 220.4,426.6 219.7,425.3 219.2,423.6 218.2,416.9 
	217.4,415.2 216.7,414.1 215.7,413.2 214.7,412.6 206.8,409.7 205.6,409.2 204.7,408.5 204.2,407.3 204.1,405.9 204.9,403.7 
	205.8,402.6 206.8,401.7 211.1,399.2 211.8,398.2 212,397 211.5,395 210,390.7 209.7,389.1 209.6,387 210,379.5 209.6,376.9 
	209.6,376.7 207.6,377.8 206.7,378.4 206.3,379.5 205.6,382.2 205.1,383 204.3,383.9 203.8,385 203.3,388.7 202.3,391.1 
	201.8,393.6 201.2,394.6 200.2,395.3 199,395.6 198.1,395.9 197.5,396.7 196.9,397.5 196.4,398.2 194.8,399.5 193.3,401.1 
	192.3,403.1 192.2,405.6 193.5,408.5 193.6,409.8 193.3,410.5 191.7,411.8 191.3,412.2 191,413 191,413.4 191.1,413.7 191.5,419 
	192,419.7 193.6,424.1 193.3,425.4 192,427.8 191.7,429.2 191.9,431.9 193.3,437.5 193.8,438.5 194.8,439.7 195.5,440.2 
	195.8,440.4 195.9,440.8 196,441.7 195,447.3 194.6,448.9 193.8,449.6 192.7,449.4 191.6,449 190.5,448.8 188.9,449.1 186.9,450.3 
	185.6,452.1 183.5,459.2 182.5,461.1 180,464.5 180.5,465.4 180.3,466.3 179.8,467.2 179.5,467.9 179.7,474.2 180.2,475.8 
	180.5,479.8 180.1,480.6 176.5,483.2 175.3,483.8 174.1,484.4 173,485.6 172.3,487.9 171.9,488.5 171.1,489 169.6,489.8 168,491.2 
	165,493.1 163.6,493.6 162,493.4 160.9,492.6 160,491.8 158.7,491.3 157.6,491.9 156.6,493.2 156,494.7 155.6,495.8 155.6,498.6 
	155.4,499.3 154.4,500.6 154.2,501.3 154.4,502.6 155.2,505.3 155.2,506.8 158,505.6 159.5,505.4 161.3,505.9 162.1,506.3 
	162.7,506.7 163,507.3 163.2,508.1 163,509.9 162.8,510.7 161.5,512 161,513.9 160.8,519.1 160.5,520 159.6,520.4 158.7,520.2 
	157.1,519.6 156.6,519.5 156.1,519.8 154.9,521 154.7,521.5 154.9,522.2 155.5,523.5 155.6,524.1 155.9,524.9 156.6,525.4 
	157.4,525.7 158,526.1 158.3,526.7 158.8,528 159.5,532.3 160.7,534.6 160.6,535.7 160.1,536.8 159.9,538 160,539.3 160.5,540.7 
	161.2,542 162.6,544.1 165.1,550.7 165.8,552 166.6,552.5 167.4,552.2 168.2,550.7 168.8,550.3 169.4,550.4 170.3,551.4 
	171.1,551.6 170.7,549.3 172.7,548.4 177.6,548.1 178.9,547.7 180.5,546.6 181.6,546.4 182.9,546.5 184,546.9 185.1,547.1 
	186.5,546.8 187.6,546.2 190.3,544.3 190.8,543.5 191.2,543.1 192.2,543 194.6,543.3 196.3,544.1 198.4,545.3 200.4,546.1 
	202.1,545.9 202.7,546.3 204.1,546.7 204.4,546.9 204.4,546.9 203.9,543.1 202.6,539.4 202.3,538.5 202.1,536.1 201.8,533.7 
	201.7,533.4 201.1,532.7 199.4,530.8 199.2,530.2 199,529.4 199.2,528.8 199.6,528.1 200.2,527.7 200.9,527.5 201.6,527.6 
	202.7,527.9 203.3,528 204.3,527.8 205.6,527.2 207.8,525.7 209.3,525 210.6,524.4 213.7,523.8 214.5,523.4 214.7,522.7 
	214.3,521.9 212.3,519.4 208,509.7 207.7,508.4 207.6,507.2 207.6,505.8 207.9,504.6 208,503.7 207.9,503 206.1,500.2 207.3,499.6 
	209.2,499.4 210.5,499.3 211.7,499.4 214.4,500 216.1,500.1 220.6,498.8 223.3,497.5 224,496.9 224.6,496.1 224.6,495.5 
	224.4,495.1 224,494.7 223.5,494.2 223.3,493.5 223.4,492.8 223.7,491.5 223.8,490.8 221.4,487.7 221.1,485.3 221.3,483.7 
	221.1,482.7 220.7,481.9 220,481 219.8,480.3 219.8,479.6 220.7,478 220.9,476.9 220.7,476.1 220.2,475.3 219.2,474.2 216.8,472.3 
	216,471.9 214.4,471.3 213.7,470.8 213.5,470.3 213.5,469.5 213.7,468.3 214,465.2 214.3,463.9 215,462.8 222.4,456.7 223.3,456.4 
	224,456.5 224.8,456.5 225.6,456.1 226.5,455.4 227.3,454.5 230.6,448.6 "/>
<path class="st1" d="M292.1,776.9l-1,1.1l-0.9-0.1l-1-0.5l-3.6-1.5l-1.6-2.2l-1.2-0.2l-1-0.6l-0.4,1.6l0.3,1.4l-0.4,1.7l-1.5,0.6
	l-1.7-0.8l-0.7,0.4l0.5,1.4l1.2-0.2l1.2,0.4l1.8-0.3l-0.3,1l0.9,1.5l2.5,1.3l0.8-0.7l0.1-1l1.5,0.6l2.5,0.1l2-0.3l0.2-1l0.6-1.8
	l0.1-1l-0.3-1.1L292.1,776.9z M191.4,675.9l-0.2-0.8l-0.7-0.3l-0.2,0.1l-0.3,0l-0.4,0.2l0,0.8l-0.5,0.8l-0.6-0.2l-0.3-0.5l-0.4,0.3
	l-0.1,0.6l0.7,0.7l-0.1,0.3l0.1,0.2l0.3,0.1l0.3-0.2l0.2,0.1v0.4l0.3,0.2l0.8-0.1l1.4-0.9l0.3-1.2l-0.7-0.4L191.4,675.9z
	 M78.4,656.8l0.5,0.9l-0.3,0.9l1.1-1l0.8-0.6l-1.1-1.3L78.4,656.8z M98.2,667.9l-0.3-0.6H97l0.3,0.8l0.2,1.2l0.5,1.1l0.5,0.3
	l0.5,0.3l0.3-1.3l-0.5-1L98.2,667.9z M277,715.6l0.4-2.8l0-2.8l-0.3-2.8l-0.6-2.7l-1.7-4.1l-0.2-1.4l-0.3-1l-0.7-0.9l-0.5-1l0.1-1.5
	L273,694l-0.4-0.5l-0.6-0.2l-0.7,0.2l-0.9,2.2l-0.6,2.8l-0.5,8.6l0.7,6.7l-0.2,3.9l-0.2,0.9l-0.9,1.3l-0.3,0.8l0.1,0.6l0.9,2
	l0.1,0.7l0,0.7l0.2,0.5l0.8,0.2l0.5,0.3l0.2,0.7l-0.5,7l0.1,1.2l0.6,2l0.4,2.8l0.6-0.4l0.7-1.3l0.3-1.3l-0.3-2.5l0.1-1.2l0.8-1.4
	l0.5-1l0.5-3.2l0.1-2.5l-0.4-3.4l0.2-1.4L277,715.6z M360.8,791.6l0.3-0.9l-1-0.6l-0.9,0.1l-0.5,0.3l-0.1,0.3l-0.4,0.5l-0.6,0
	l0.1,0.2l0.1,0.2l-0.2,0.3l0.1,0.3l1.1-0.3l0.8-0.2L360.8,791.6z M363.6,794.6l-2.6,0.6l-0.7,0.5l-0.6,0.8l-0.4,1l-0.2,1l0.5,1.4
	l1.2,0.1l2.4-0.8l1.7-1l0.2-2.1L363.6,794.6z M294,763.9l0.7-1l0.1-0.7l-0.2-1.6l-0.2-0.7l-0.5-0.7l-0.8,0.2l-0.2,1.3l0.6,1.7
	l0.1,1.3L294,763.9z M361.3,501.3l0.5-1.2l0.2-1.3l0.1-1.3l-0.2-1.4l-0.4-1.6l-0.7-1.5l-0.9-1.2l-1.5-1.1l-7.1-3.3l-2-1.3l-4.2-3.5
	l-3.9-4.2l-1.2-1l-1.5-0.9l-3.4-1.6l-3.3-1l-37.3-7.1l-2.8-1.4l-9.5-7.3l-2.5-2.4l-2.4-2.7l-7.2-10.2l-1.4-1.2l-1.5-0.6l-1.5,0.2
	l-0.7,0.6l-0.5,0.7l-0.6,1.4l-0.3,0.6l-0.5,0.5l-1.4,0.2l-2.1-0.2l-9.3-2.6l-3.8-0.5l-2.2,0.1l-1.4,0.4l-5.7,2.6l-3.9,2.3l-2.4,1.1
	l-3.3,5.8l-0.8,0.9l-0.8,0.7l-0.8,0.4l-0.8,0l-0.7-0.1l-0.9,0.3l-7.3,6.1l-0.8,1.1l-0.3,1.2l-0.3,3.1l-0.2,1.2l0,0.8l0.2,0.5
	l0.7,0.5l1.6,0.6l0.8,0.4l2.4,1.9l1,1.2l0.5,0.8l0.2,0.8l-0.2,1.1l-0.9,1.7l0,0.7l0.2,0.7l0.7,0.9l0.4,0.8l0.2,1l-0.2,1.6l0.3,2.4
	l2.4,3.1l-0.1,0.7l-0.4,1.3l-0.1,0.7l0.2,0.6l0.5,0.5l0.4,0.4l0.2,0.4l-0.1,0.5l-0.5,0.8l-0.8,0.7l-2.7,1.3l-4.5,1.3l-1.7-0.1
	l-2.6-0.6l-1.3-0.1l-1.3,0.1l-1.9,0.3l-1.2,0.5l1.8,2.8l0.1,0.7l-0.1,0.8l-0.3,1.3l0,1.4l0.1,1.2l0.3,1.2l4.4,9.8l1.9,2.4l0.4,0.9
	l-0.1,0.7l-0.9,0.4l-3,0.6l-1.3,0.5l-1.4,0.7l-2.3,1.5l-1.3,0.6l-1,0.2l-0.7-0.1l-1.1-0.3l-0.7-0.1l-0.7,0.1l-0.6,0.4l-0.5,0.7
	l-0.2,0.7l0.2,0.8l0.2,0.6l1.7,1.9l0.5,0.6l0.2,0.3l0.3,2.4l0.2,2.4l0.2,0.9l1.3,3.7l0.5,3.8l0,0l0.2,0.1l0.2,0.4l1,3.4l0.1,1
	l-0.3,0.9l-1,1.3l-0.7,1.1l-0.9,3.5l-1.1,2l0.2,0.9l2,2.5l0.8,2.6l1.5,2.1l3.2,7.3l1.3,2l0.2,2.5l0.4,1.1l0.4-1.4l0.1-1.1l0.5-0.7
	l1.6-0.3l1.1,0.4l-0.3,1l-1.5,2.2l-0.2,0.8l0.2,1.2l0,0.6l-0.2,0.6l-0.6,1.1l-0.1,0.7l0.2,0.2l0.3,0.3l0.3,0.5l0.6,2.7l-0.2,1.3
	l-1.3,2.5l-0.3,1.3l0.2,0.6l1,0.9l0.2,0.7l0.1,0.7l0.3,1.1l0.1,0.6l-0.2,2.4l-1.2,4.4l-1,9.2l-0.4,1l-2.9,4.7l-0.2,0.9l-0.9,2
	l-0.4,0.4l-1.2,0.6l-0.3,0.3l-0.4,2.3l2.3,8.3l-0.4,2.2l-2.5,4.5l-0.9,2.2l-0.3,2.3l-0.4,1.2l-1,1.2l-0.6,0.4l-1.4,0.7l-0.6,0.4
	l-0.3,0.5l-0.6,2.1l-1,2.2l-0.3,1.3l-0.4,4.2l-0.6,2L195,667l0.5,2.6l1.4,2.4l2.4,3.1l0.7,1.2l0.5,0.6l0.3,0.7l-0.3,0.7L200,679
	l-0.3,0.6l0.2,1.4l0.6,0.9l1,0.5l1.5,0l-1-1.4l1.3-0.8l2-0.3l1,0.1l0.2,0.9l0.5,0.5l0.6,0.4l0.5,0.7l0.1,0.8l0,1.5l0.4,0.7l1.2,0.8
	l0.7-0.9l0.7-1.4l1.3-0.7l1.7,0.5l0.6,1.3l0.1,1.5l0.3,1.2l2,1.2l3.2,0.4l3.3-0.2l2.3-0.6l1.2-0.8l1.4-1.2l0.3-0.6l0.2-1.4l0.4-0.7
	l2.9-2.6l1.1-0.7l1.2-0.3l1.9-0.1l1.8,0.1l0.8,0.5l0.8,0.4l4.3,0.7l1,0l0.4,0.1l0.4,0.3l1.2-0.5l2.6-0.7l1.3-0.5l1.6-1.2l0.5-0.2
	l3.1-0.4l1.5-0.6l1.7-0.9l1.7-0.6l1.7,0.3l0.5,0.6l1.1,2l0.2,0.7l0.4,0.7l2.5,2.6l1-0.2l1.9,0.8l0.4-0.4l-0.3-1.2l-1.3-1.8l-0.3-0.6
	l-0.2-2.4l-3-10l-0.1-1.3l-0.5-1l-3-3.4l-0.6-1l-0.9-2.6l-0.6-1.1l-2.9-3.9l0.8-1l0.6-1.4l1.5-7.6l0.2-7.8l1.2-1.9l1.2-0.3l1.6-0.1
	l1.4-0.4l0.6-1.2l0.1-1.5l1.3-6.3l0.2-0.5l1.3-1l0.6-0.5l0.2-0.6l-0.4-1.3l-2-2.2l-0.8-1.2l-0.3-1.1l-0.3-1.6l0-1.6l0.4-1.1l0.3-1.1
	L266,609l-1.7-1.8l-0.3-2.4l1.6-3.7l0.1-2.3l-0.8-2l-0.1-0.9l0.1-0.7l0.4-1.3l0.1-0.7l0-2.6l-0.3-0.9l-1.5-2.3l-0.3-1l0.1-10.9
	l0.4-2.4l0.8-2.2l1.1-2.1l2.9-3.9l1.1-2.4l-0.2-2.4l-1.3-1.1l-0.2-0.4l0-5.4l-0.3-1.2l-1.2-2.9l-0.1-1.1l0.3-3.3l0.3-1l0-0.6
	l-0.1-0.7l-0.6-1.3l-0.2-0.6l0.5-2.4l0.4-1.1l-0.1-0.7l-0.2-0.7l-0.1-0.7l0.5-0.8l0.8-1.1l0.3-0.7l-1.2,0.2l-0.5-0.5l-0.4-0.9
	l-0.3-0.9l-0.1-0.6l-0.3-0.4l-2-1.2l-3.2-1.1l-1.5-0.7l-1.4-1.3l0.7-0.8l0.3-0.3l0.5-0.2l-0.7-1.2l-1-3.4l-0.9-0.7l-0.5-0.2
	l-0.4-0.6l-0.2-0.8l-0.1-0.8l-0.3-0.9l-1.2-1.1l-0.4-0.8l1.9-0.5l1.5-0.9l2.7-2.1l17.1-10l1.2-1l0.6-1.1l0.4-1.1l0.7-0.9l1.4-0.4
	l1.5-0.1l1.1-0.3l3.7-1.8l1.1-0.3l1.5-0.1l1-0.3l0.8-0.6l1-0.5l1.6,0l1,0.2l0.7,0.2l0.6,0.4l0.8,0.7l0.7,0.5l0.6,0l0.7-0.2l0.9-0.1
	l8.3,1.2l0.7,0.3l1,0.8l0.5,0.5l0,0.2l0.8,0.6l2.2,3.9l-0.2-0.1l-0.2-0.1l-0.2-0.1l-0.3-0.2l-1,1.6l-0.7,0.4l-1.1-0.3l-0.4,1.5
	l-1,0.4l-1,0.2l-0.4,0.8l0.2,0.6l0.4,0.6l0.6,0.4l0.7,0l0.3-0.4l0.5-1.3l0.6-0.5l0.6,0.7l0.5,1.7l0.4,0.7h0.4l0.8-0.7l0.7,1.4
	l0.4,2.1l-0.1,0.4l0,0l2.8-1.6l2.4-0.8l2.9-0.4l1.4-0.1l1.2,0.1l1.2,0.3l1.2,0.5l5,3.1l5.6,4.3l2.9,1.6l0.9,0.1l0.9-0.1l0.9-0.2
	l1.4-0.5l4.2-2.3l1.2-0.8l10.7-10.2L361.3,501.3z M309,791.2l-4.1,0.1l-6.1-0.5l-2.5-0.8l-1.3-0.2l-1.1,0.4l-0.4,0.5l-0.1,0.5
	l0.1,0.5l0.4,0.5l1.2,0.5l1.6,0.1l1.6-0.2l1.2-0.4l1.3,0.6l4.3,0.6l0.9,0.8l1,0.5l2.3-0.1l2.1-0.7l0.7-1.2l-1.2-1.1L309,791.2z"/>
<path class="st1" d="M398.8,548.8l-0.8-0.3l-1.1,0.7l-1,1.2l-0.4,1.4l0.6,1.1l0.8-0.6l1.4-0.5l1.4-0.3l0.6,0l-0.2-0.8l-0.6-1
	L398.8,548.8z M398.6,625.2l-0.3,0.8l0.6,0l2-1.5l0.4-0.5l0.1-0.9l-0.7-0.1l-1,0.7L398.6,625.2z M400,609l2.8-1l2.6-1.4l2.3,0.9
	l2.3,0.3l2.3-0.5l2.2-1.3l2.4-0.7l2.8,0.8l2,1.5l0,1.7l0.8,1.4l0.6,0.2l0.9-0.8l-0.3-0.4l-0.2-0.5l0.2-0.4l0.8,0l1.7,2l0.7,0.3
	l0.8-0.1l0.7-0.4l0.3-0.6l0-1.2l-0.1-0.5l-0.3-0.8l0-0.4l0.2-0.2l0.1-0.2l-0.3-0.4l-0.3-0.1l-0.9,0.1l-0.3-0.1l-0.5-0.6l-0.7-1.3
	l-0.4-0.6l-2.8-2.5l-0.7-1.3l2,0.2l1.6,0.9l2.5,2.4l4.7,3.2l1,1.2l0.8-0.9l0.4-0.9l0.5-0.6l1.3-0.3l0.9-0.5l0.4-1.2l-0.1-2.7
	l-0.7-2.7L437,597l1-2l0.1-1.2l-0.1-1.3l-1-3.8l-1.3-2.8l-1.9-2.3l-2.6-1.1L429,583l1,1.7l3.6,3.5l-1.8,0.5l-2.6,0l-2.7-0.5
	l-1.9-0.9l0,0.5l-0.1,0.6l-0.2,0.4l-0.2,0.2l-1.1-0.3l-0.9-1l-0.6-1.3l-0.2-1.2l0.2-2.7l-0.1-1.2l-0.5-1.1l-1-0.8l-1.3-0.6l-1.5-0.3
	l-3.3-0.2l-0.1-0.4l1-0.4l1.5-0.4l1.7-0.1l0.8-0.3l0.5-1l0.4-0.4l0.5-0.3l1.4-0.4l0.1-0.7l-0.4-0.7l-0.5-0.5l-0.6-0.3l-0.7-0.1
	l-4.7,0l-1.4-0.3l-1.3-0.9l-4-5.1l-1.2-2.6l-0.8-1l-1.5-0.4l-3,0.3l-1.5-0.1l-1.4-0.6l-0.8-0.9l-0.6-1l-0.7-0.8l-1-0.3l-1.5-0.2
	l-1.3-0.6l-1-0.8l-0.7-0.9l-1.3-2.3l-0.5-1.4l0.2-1l0.7-0.4l1.6-0.4l0.8-0.3l0.8-0.4l0.4-0.3l0.3-0.4l1.1-1.9l0.5-1.4l0.1-1.3
	l-0.6-1.1l-0.8-0.8l-0.7-0.8l-0.5-1l-0.2-1.2l0.9,0.3l0.5-0.3l0.3-0.6l0.2-0.7l1.1,0.5l1.1,0.3l1,0.4l0.7,0.9l-0.2,0.2l-0.3,0.6
	l1.3,0.1l1.1,0.6l0.5,0.8l-0.5,0.8l1.2,0.1l0.4-1.3l-0.2-1.7l-0.6-1.2l-0.9-0.6l-2.9-1.2l-0.9-0.2l-0.5-1.8l1.8-3.6l1.2-1.3l0,0l0,0
	l-3.2-3.7l-5.8-4.3l-1.3-0.7l-1.2-0.4l-1.1-0.2l-1.2-0.1l-3.9,0.3l-1.4-0.1l-16.5-6.2l-2.4-0.6l-7.6-0.2l-4.9-0.6l-4.2,2.3l-1.4,0.5
	L342,517l-0.9,0.1l-0.9-0.1l-2.9-1.6l-5.6-4.3l-5-3.1l-1.2-0.5l-1.2-0.3l-1.2-0.1l-1.4,0.1l-2.9,0.4l-2.4,0.8l-2.8,1.6l0,0l-0.2,1
	l-0.3,0.7l0.1,2.6l-0.2,0.8l-0.6,1.2l-0.1,0.9l-1,1.8l-0.3,1.1l0.6,0.5l0.5,0.3l0.3,0.8l0.3,1.6l0,1.6l-0.5,3.5l-0.5,1.1l-0.5,0.3
	l-0.8,0.3l-0.7,0.4l-0.3,0.5l-0.2,0.6l-0.5,0.5l-0.7,0.4l-0.7,0.1l-1.1,0.5l-0.8,1.2l-1.2,2.7l-1.3,1.3l-1.6,1.3l-1.3,1.4l-0.6,1.6
	l-0.1,0.7l-0.6,1.4l-0.2,0.8v0.7l0.5,1.9l1.3,2.6l14.5,12.3l3.8,4.2l1.1,0.5l1.6,0.2l2.7,0l1,0.5l0.7,1.2l-0.3,1.1l-0.7,1.5
	l-0.4,1.3l0.7,0.6l1.2-0.3l0.8-0.5l0.8-0.2l1.1,0.7l0.9,1l0.4,0.7l0.2,0.7l0.2,0.6l1,0.9l0.2,0.7l5.2,2l8.6,1.4l2.7,1.2l2.3,3
	l-0.7,5.1l-2.2,4.5l-2.2,1l0.5-0.6l0.2-0.7l-0.2-0.5H345l-0.7,0.3l-0.2,0.5l0,0.6l-0.3,1.9l0.3,5.1l-0.3,2.7l-0.6,2.7l-1.5,3.9
	l-1.2,5.2l-0.2,2.7l0.5,2.2l0.2,0.3l0.2,0l0.2,0l0.3,0.2l0.4,0.7l3.5,4.4l0.8,0.6l4,1.6l0.9,0.2l1.2,0.5l1.9,2.3l1.3,0.8h0.7
	l0.8-0.2l0.7-0.3l0.3-0.2l0.2-0.5l0.6,0l1.3,0.4l1.6-0.2l1.1-0.3l1-0.1l1.2,0.5l2,1.2l1.2,0.4l7.1,0.6l1.3-0.1l3-0.6l1.5-0.1
	l0.9-0.3l1.3-1.5l1.3-0.3v-0.5l-1.2-0.3l-0.3-0.1l-1.7-1.5l-1.6-1.8l-1.1-2.2l-0.2-2.9l0.6-2.4l1.2-2.8l1.5-2.5l1.4-1.5l0.6-0.2
	l2.5-0.3l0.4-0.2l1.2-0.9l1.6-0.4l0.7-0.4l1.1-0.8l0.6-0.3l0.5-0.1l4.5-0.3L400,609z M426.6,614.1l-0.4-0.3l-0.5-0.3l-0.6-0.2
	l-1.1,0.2l-0.6,0.8l-0.2,0.9l0.3,0.5l0.4,0.4l0.4,0l0.4-0.3l0,0.1l0.2,0.1l0.5,0.1l0.9,0.6l0.1-0.2l0.1-0.5l-0.1-0.4l0-0.3l-0.2-0.3
	l-0.1-0.3l0.3-0.3L426.6,614.1z M449,553.5l0.8,0.8l1.4,1.1l1.4,0.6l0.7-0.7l0.7-1l1.4,0.1l1.2-0.2l0-1.7l-0.5-1l-0.9-0.9l-1.1-0.4
	l-4,1.6l-0.8,0.2l-0.7,0.3l0,0.6L449,553.5z M413.7,685.4l-0.7-0.4l-2-0.4l-1.6,2.7l-0.7,0.7l-1,0.5l-0.5,0.4l0.5,0.3l1.1,0.2
	l0.9,0.3l2.3-0.3l1.4-0.8l1-1.3l-0.1-0.9L413.7,685.4z M379.8,655.5l-0.8-0.7l-0.8-1l-1.6,0.2l-0.9-1l-1-3.8l-0.4-0.5l-0.5-0.2
	l-0.7,0.3l-1,1.3l-0.5,0.3l-1.2,0l-0.6-0.6l0-1l0.4-1l-1.2,0.4l-1.2,0.7l-1.1,0.9l-0.8,1l1.3,1.3l0.6,0.7l0,0.6l-0.6,0.3l-1.8,0.3
	l-0.4,0.5l-0.1,0.8l-0.4,0.8l-0.5,0.8l-0.6,0.7l-0.3,0.8l0.1,1.8l-0.5,0.7l1.4,2.6l2.8,3.8l0.6,1.4l0.3,0.5l0.7,0.5l0.6,0.1l0.6,0
	l0.9,0.3l1.1,1.1l2,3l0.9,0.1l1-0.4l1.2,0.2h1.2l1-0.9l0.4-1.2l-0.1-10.5l-0.3-1.8l0.2-0.7l0.5-0.3l0.5-0.2l0.2-0.5l-0.2-1.6
	L379.8,655.5z M404.4,545.2l0.7,1.1l0.5,0.5l1.1-0.4l0.6-0.8l0.3-0.9l0.1-0.7l-0.2-0.3l-1.5-1.1l-0.3-0.5l-0.4-1.1l-0.3-0.4
	l-0.2-0.1l-0.2,0l-0.2,0.1l-0.2,0.2l-0.4,0.5l-0.2,0.8l-0.1,0.8l0,0.6L404.4,545.2z M338.5,586.5l-0.7,0.4l-1.1,0.3l-0.7-0.3
	l0.2-1.5l-0.2-0.1l-0.2,0.2l0,0.4l-0.1,0.2l0,0.5l-0.4,0.3l-0.6,0.1l-0.8-0.4l-0.2,0.2l0.2,0.9l0.8,0.5l0.1,0.6l-0.5,1.1l-0.1,0.6
	l0.2,0l0.6-0.4l0.6-0.2l1.4,0.6l0.5,0.1l0.1-0.4l-0.5-1.3l0.4-0.6h1l0.4-0.1l-0.2-0.3l0.1-0.3l0.4-0.2l0.3-0.3l-0.3-0.4L338.5,586.5
	z M460.4,580.8l-2-1.4l-1.4-0.2l-1.7,0.2l-1.6,0.5l-1.1,0.6l-1.1,0.2l-1.4-0.7l-1.4-0.9l-1-0.5l-1.3-0.3l-0.9,0.5l-1.2,1.6l-0.8,0.7
	l-1.7,1.1l-0.7,0.8l0.6,1.2l0.6,2.8l0.6,1.3l2.1,2.8l2.4,2.4l2.9,1.6l3.4,0.3l2.3-1.1l1.8-2.1l2.9-4.2l1-2.1l-0.2-2.5L460.4,580.8z
	 M410.9,680.2l0.2-0.5l0.1-1l0.8-1.8l-0.4-0.3l-1.8,0.6l-0.8,0.9l-0.1,1.3l0.6,0.8l0.8,0.3L410.9,680.2z M513,693.4l0-0.5l-0.4-0.2
	l-0.4,0l-1.1-0.8l-4.3-1.4l-1,0.1l-0.3,0.5l0.2,0.9l0.7,1.1l0.8,0.8l0.9,0.4l4.1-0.5L513,693.4z M499.7,679.2l-0.5-1.4l-1.7-0.6
	l-1-0.5l-0.8-1l-1.1-0.9l-1.9-0.2h-0.9l0.7,1.3l1,0.9l1.2,0.8l1.3,1l1.7,2.5l1,1.1l1.5,0.4l-0.4-1.5L499.7,679.2z M536.9,666
	l-0.4-0.6l-0.3-0.2l-0.6,0.1l0.1,0.8l0.7,0.6l0.4-0.2L536.9,666z M516.7,705.4l-0.8-1.6l-0.6-0.7l-3.5-2.2l-0.5-0.6l-0.6,1.6
	l-0.3,1.4l0.2,1.3l0.9,1.3l0.7,0.4l1.8,0.4l0.8,0.5l0.4,0.7l0.1,1.6l0.3,0.6l1.2,0.4l0.8-1l0.2-1.7l-0.6-1.5L516.7,705.4z
	 M451.3,633.4l0.1,0.4l0.3,0.2l0.4-0.2l0.3-0.6l0.1-1.7l-0.1-0.5l-1.8-0.3l-2.5,1l-0.3,0.4l0,0.3l0.6-0.1l0,0.2l-0.5,0.1l-0.7,0
	l-0.1,0.3l0.4,0.4l0.4,0.2l0.3,0.3l1.1-0.1l0.8,0.3l0.2,0.1l0.5,0.2l0.3-0.3l-0.1-0.4l0.1-0.3L451.3,633.4z M416,670.5l0.3,0.3
	l0.2,0.4l0.5,0l0.5-0.5l0.2-0.8l0.1-1.3l0.4-1.6l0.6-0.9l0.8,0.8l0.8-0.7l0.5-1.4l0.2-1.7l-0.1-1.5l-0.3-0.7l-0.3-0.4L419,660
	l-1.6-0.6l-0.6-0.5l1.7-0.4l0.5-0.4l0.3-0.6l0.1-0.8l-0.4-0.3l-0.8,0.1l-0.8,0l-0.4-0.6l0.2-1.4l2.7-5.2l1.2-1.5l4.3-4.2l0.7-1
	l0.3-0.8l0.3-0.6l0.7,0.1l0.8,0.3l0.5,0l0.4-0.6l0.1-0.7l0-1.4l-0.1-0.7l-0.3-1.1l-0.1-0.5l-0.2-0.3l-1-1.2l-0.2-0.7l0-4.6l-1.2-8.3
	l-0.6-1l-1.1-0.8l-1.4-0.2l-2.3,0.8l-3.8,2.1l-4.9,3.4l-2.1,1l-1.9,0.4l-4.5,0.4l-1.5,0.5l-1.1,1.3l-1.5,3.1l-1.2,1.3v0.4l1,1
	l0.9,1.7l0.7,2l0.5,2.5l0.9,1.5l0.4,3.3l0.3,1.2l0.5,0.9l-1.2,1.6l-0.2,0.3l-0.4,0.4l-1.8,0.4l-0.6,0.3l-0.6,1l-0.4,1.3l-0.4,4.8
	l-0.3,1.5l-0.6,1.4l-1.8,2.8l-0.4,1.3l0.1,1.2l0.7,1.1l-0.5,0.4l0.7,0.7l0.7,0.4l0.9,0.2l3.5,0l0.9-0.3l0.4-0.8l0.1-2l0.2-0.7
	l0.5-0.6l1-0.6h0.8l0.8,0.2h1.2v0.4l-2.5,1.2l-0.5,0.9l0.6,1.5l1.1,1l1.2,0.4l1.3-0.2l1.1-0.8l0.9-2.2l0-0.6l-0.2-1.4l0.1-0.7
	l0.9-1.3l0.6,0.3l0.5,0.9l0.5,0.6l0.4,1.5l-0.1,3.2l0.2,2.6l1.4-0.1l0.9-0.9L416,670.5z M487.1,661.3l-1.9-0.6l-2.2-0.3l-1.6-0.5
	l-1.4,0.4l0.2,1.7l2.5,4.8l0.9,1l1.3,0.5l2,0.2l1-0.6l0.3-1.5l-0.2-3.4L487.1,661.3z M454.6,626l0.2,0.6l0.1,0.7l0.2,0.6l0.6,0.3
	l0.3,0.2l0.7,1l0.2,0.3l0.3,2.6l0.6,1.3l1,0.3l0.6-1.6l-0.2-6.8l-0.4-2.2l-0.4-0.4l-0.5-0.2l-0.4-0.3l-0.2-0.6l0.1-0.7l0.6-1.3
	l0.1-0.6l-0.3-1.5l-0.7-1.4l-1.8-2.6l-1.1-1.2l-4.3-3.4l-1.1-1.1l-0.5-1.2l1.7-2.1l-1.1-0.4l-1.9,0.1l-1.5,0.4l-6.6,4.6l-0.9,0.8
	l-0.4,0.9l-0.3,1.3l-2.1,3.7l-1,2.7l-0.5,2.5l0.5,10.9l-0.3,0.9l-0.7,0.2l-0.8,0.1l-0.5,0.4l0,0.7l0.3,0.7l0.4,0.7l0.3,0.6l0.1,1.4
	l-0.2,1.6l-0.4,1.5l-0.7,1.1l-3.8,3l-0.6,1.2l1-0.2l0.9-0.4l0.8-0.2l0.6,0.3l0.3,1.1l-0.5,1.1l-1.2,1.8l-0.1,1l0,1.6l-0.4,0.9
	l-1.1,1.4l-0.1,0.8l0.8,0.8l-0.6,1l0.4,0.1l3.1-1.2l0.4,0.2l0,1.2l-0.8,1.3l-1.6,0.6l-1.8,0.3l-1.4,0.5l-0.8,0.8l-1.2,2.4l-0.9,1.2
	l-0.4,0.1l-0.5,0L422,665l-0.6,2l-1.9,2.3l-0.4,0.8l1.6,0.5l0.2,0.9l-0.7,0.9l-5.3,4.3l4.9,10l1.1,1l1.6,0l1-0.8l2.1-2.5l0.9-0.1
	l0.3,0.6l-0.2,1.6l0.2,0.7l0.5,0.5l0.3-0.3l0.2-0.6l0.9-1.1l0.1-0.4l0.2,0l0.9,0.8l0.2,0.5l0.1,1.6l0.2,0.3l1.6-0.3l1-0.8l1.5-2.5
	l3.3-4.2l1.5-2.8l-0.5-1.8l-0.6,0l-1.7,0.7l-0.7,0.2l-0.3-0.4l0.1-0.8l0.9-2.4l1.1-0.9l5.8-3.2l1.2-0.3l1,0.4l1.4,1.5l1.1,0.3
	l1.3-0.4l2.6-1.5l2.9-0.6l0.9-0.7l1.3-2l1.7-1.6l0.8-1l0.3-1.2l-0.6-1.2l-1.4-1.1l-2.7-1.5l-2.2-1l-0.8-0.7l-0.3-1.1l-2.4-0.7
	l-0.3-0.5l0-0.6l-0.2-0.6l-0.9-0.4l-1.8,0.3l-1.2,1.4l-1,1.5l-1.4,0.7l-1.2-0.5l-0.1-1.2l0.5-1.4l1.6-3l0.3-1l0.1-1.5l0-0.8
	l-0.5-1.7l-0.2-0.5l-0.3-0.5l-0.3-0.5l-0.1-0.7l0.2-0.8l0.6-1.2l0.9-1.1l1.7-1l0.2-1.3l-0.4-2.6l0.1-0.8l0.5-2.1l0.3-0.6l1.3-0.8
	l0.3-0.4l0-2.8l0.4-0.8l1,0.8l0.3-0.3l0.5-0.3l0.2-0.3l1.6,1.8l1.3-3.7L454.6,626z"/>
<path class="st1" d="M598.3,230.4l-3.1,1.3l-1.5,0.4l-0.6,0.4l-0.2,0.7l0.9,0.9l2.1-0.1l2.2-0.7l1.3-0.7l0.5-2l0.2-0.5l1-0.8
	l0.2-0.5l0.1-1.9l0.3-1.8v-1.3h-0.4L598.3,230.4z M596.2,229.7l2-1.6l-0.6-2.5l-1.7-1.3l-1.9-1.1l-1.4-1.6l-0.2-2.7l1-2.6l-0.3-0.7
	l-1.9-0.2l-4.5,0.5l-1.4,0l-1.3-0.4l-0.5-0.7l0-2.7l-0.6-0.7l-1.4,0.2l-1.4,0.6l-0.8,0.6l-0.1,0.6l0.1,2.2L579,216l-1.3-0.6
	l-0.3,0.3l-0.6,0.8l-6.8,4.9l-0.8,1L569,224l0.5,1.3l1,1.2l0.4,1.2l-1,1.3l-1.4,0.5l-2.8,0.3l-1.2,0.6l-1.7,1.9l-1,0.6l-1.7,0.3
	l-4.9-1l-0.7,0.4l-0.5,0.7l-3.7,2.6l-0.6,1.1l-0.5,1.8l0.1,1.7l1.2,0.7l2.7-0.1l1.1,0.3l0.7,1.1l-0.1,1.2l-0.6,1.5l-0.9,1.2l-1,0.5
	l-0.8-0.3l-0.4-0.6l-0.3-0.6l-0.5-0.3l-0.8,0.1l-0.5,0.4l-0.4,0.5l-0.6,0.4l-1.4,0.2l-4.5-0.2l-1.4,0.2l-1.3,0.4l-1.1,0.6l-0.8,0.6
	l-1.1,1.8l-1.1,4.4l-1,2.1l-1.7,1.3l-4.6,1.2l-2.2,1l-1.6,1.7l-0.9,0.7l-2.2,0.4l-7.7,2.6l-1.1,1.1l-2.7,0.8l-1,0.6l0.7,0.4l0.2,0.4
	l-0.2,0.5l-0.7,0.4l-0.6,0l-1.3-0.4l-0.7-0.1l-4.7,0.5l-9.6-1.3l-1.3-0.5l-2.7-1.4l-1.3-0.3l-1.1,0.3l-2.3,1l-0.9-0.2l-2.1-1.1
	l-5.1-1l-1.9-1.2l-0.8,0.4l-0.5-0.2l-0.4-0.4l-0.5-0.3l-1,0l-0.6,0.3l-0.5,0.3l-0.7,0.3l-0.7,0.1l-1.9,0l-0.7-0.1l-0.8-0.5l-0.2-0.5
	l0-0.6l-0.3-0.6l-1.3-0.8l-2,0.7l-1.2-0.6l-1.4-0.9l-0.3,0.9l0.3,1.4l0.3,0.7l-1,0.3l-2.8-1l-1.5,0.5l-1,0.1l0,0l0.1,0.4l1.6,2.6
	l1.7,1l0.8,0.3l3.2,1.6l0.8,0.6l0.4,0.6l0.1,0.4l0,1.8l1.5,3.2l0.7,0.6l1,0.7l2.2,1.2l1.5,1.9l7.8,3.4l1.5,1.6l1.4,1.9l1.1,4.1
	l0.3,2.1l-0.1,1.9l-0.5,2l-1.6,4l-0.8,1.5l0,0l0.6,0l7.2,0.6l0.9,0.4l2.2,1.6l0.7,0.3l0.4,0l1-1l0.7-0.4l2.3-0.4l2.4-0.9l1.4-0.1
	l0.8,0.2l0.9,0.3l0.8,0.2l0.6-0.2l1.1-0.6l1.2-0.5l2.3,0.1l0.7-0.1l2.8-0.9l1.4-0.3l4.4-0.2l0.7-0.2l1.2-0.8l0.7-0.3l0.5,0l1.9,0.5
	l2-1.8l0.8-0.5l2.8,1.1l3.4-0.3l8.3-1.6l1.9-1.5l1.6-0.3l1.3-0.4l1.5-0.8l1.7-0.5l1.8,0.5l1.2-2.2l0.8-0.9l1.3-0.5v-0.4l-1-0.5
	l0.2-1l2.8-3.4l0.3-0.3l0.5-0.1l1.5,0.1l0.3-0.2l0-1.2l-0.2-0.5l-0.5-0.5l-0.2-0.6l0.3-0.7l0.4-0.6l0.6-1.2l2.5-2l0.8-1.1l0-0.4l0-1
	l0.2-0.8l1-1.3l0.7-1.8l1-0.9l2.3-1.6l2.3-2.3l1.4-0.9l1.7-0.4l0.5-0.3l1.1-1.7l0.5-0.6l0.6-0.3l2.2-0.6l2.4-1.1l0.4-0.4l0.1-0.5
	l0.7-1.6l0.3-0.5l2.3-2.1l2.2-2.5l3.2-5.3l4.3-11.2l1.3-2.3l2-2.3l2.2-1.2L596.2,229.7z M608.1,187.5l-0.5,0l-0.6-0.1l-0.4-0.2
	l-0.3-0.1l-0.2,0.1l-0.3-0.3l-0.4-0.1l-0.2,0.5l0.2,0.4l0.2,0.2v0.3l-0.5,0.1l-0.4,0.4l-0.3,0.1l-0.4,0.5l-0.1,0.7l0.4,0.5l0.6,0.1
	l0.5-0.4l0.4-0.6l0.5-0.3l0.4,0l1.1-0.6l0.2-0.2l0.3,0l0.4,0.1l0.2-0.3l0.2-1l-0.2-0.5L608.1,187.5z M610.7,170.2l-1.2-0.3l-1.2,0
	l-1.1,0.4l-0.8,0.7l0.1,1.7l1.5,1.4l2.1,0.5l2-1l0.2-2.2l-0.4-0.7L610.7,170.2z M590,209.7l0.2,0.9l0.4,0.7l0.5,0.4l0.3,0l0.2-0.4
	l0.1-0.6l1.6-1.4l0-0.9l-0.3-0.4l-0.4-0.2l-0.8-0.5l-0.6-0.7l-0.6-0.6l-0.4,0.2l-0.2,0.8l-0.3,0.5l0.1,1.2L590,209.7z M606.8,150.6
	l0.2,0.9l0,1.2l0.3,1.2l0.7,0.8l1.3,0.1l0.7-0.4l0.2-0.7l-0.1-0.8l-0.2-0.7L609,151l-0.3-0.9l0.2-1.1l0.3-0.5l0.4-0.4l1.8-1.4
	l0.5-0.8l0-0.9l-0.5-0.9l-0.8-0.7l-1-0.4l-1.1,0l-1,0.5l-0.6,0.7l-1.3,2.4l-0.3,0.8l0.2,1.1L606.8,150.6z M563.4,214.5l1.1,0.4
	l0.9,0.1l0.3-0.3l0.1-0.4l-0.3-1l-0.2-0.4l-0.1-0.5l-0.4-0.8l-0.5-0.3l-0.3,0.8l-0.4,0.4l-1.1,0.3l0.3,0.7L563.4,214.5z M706.5,79.8
	l-1.5-1.8l-2.1-1.3l-2.5-0.6l-0.3,1.9l1.8,3.3l3.2,2.6l1.8-0.7l1.2-1l-0.9-1.4L706.5,79.8z M709.1,45.4l-0.8-2.3l0.3-1.6l0.4-1.4
	l0.7-1.4l0.4-1.3l-0.5-1.4l0,0l-0.2-1l-0.6-0.2l-0.8,0l-0.9-0.4l-0.5-0.8l-0.1-0.7l-0.2-0.6l-0.9-0.6l-1.4-0.3l-1.9,0l-1.7,0.3
	l-0.7,0.6l0.1,0.8l0.4,1.4l0.1,0.6l0,0.8l-0.1,0.5l-2.3,3.2l-0.6,1.7l0.1,1.9l0,0.8l0.2,0.8l0.3,0.6l0.6,1.6l-0.6,1.4l0.2,1.5
	l3.3,0.8l1.2,0.3l1,0.3l0.8,1.2l-3,2.4l-2.6,5.7l-2,1.2l-1,1.2l-0.8,1.7l0.8,1.9l2.6-0.5l3,1.2l2.7-1.6l0.8-1.3l-0.1-3.2l0.1-4.5
	l3.7-3.4l4-4.6l-1.5-1.6L709.1,45.4z M727.5,17.4l-0.6-0.5l-0.4,0.2l-0.2,0.2l0.1,1l0.9,0.8l0.7-0.8L727.5,17.4z M626,101.3
	l-0.2-0.5l-0.4-1.4l-0.2-1.5l-0.4,0l-0.8-0.2l-0.7-0.3l-0.2-0.2l-0.7-1.8l-0.5-0.5l-1.1-1l-0.3-0.3l-0.2-0.7l0-0.5l0.1-0.4l0.1-0.4
	l-0.4-1.1l-2.4-3.5l-1.5-1.6l-2.4-1.5l-2.4-0.4l-1.6,1.7l-0.1,1.4L610,88l0.6,1.1l0.8,0.9l3.5,2.8l1.6,0.8l0.3,0.3l0,2.1l-0.2,0.3
	l-0.3,0.6l-0.6,3.1l0.2,1.1l1.2,0.8l3.3,0.8l1.4,0.8l0.4,0.7l0.1,0.6l0.2,0.5l1,0.2l0.5-0.2l2.4-1.7l0.3-0.4l0.1-0.5l-0.2-0.5
	L626,101.3z M697.5,70.9l-3-3.1l-0.9-3l-1.9-1.1l-0.1,1.2l0.5,2.2l0.5,1.7l1.5,0.8l1.2,1.4l-0.3,2.1l0.6,2.7l0.6,2.7l1.2,0l-0.6-2.6
	l0.9-1.7l0.9-1.4l-0.1-1.3L697.5,70.9z M690-33.5l0.3,0.6l0.3-0.3l0.2-0.7l-0.3-0.1L690-33.5z"/>
<g>
	<g>
		<g class="st2">
			<g>
				<polygon class="st3" points="326.1,269.4 329.6,272.8 328.7,273.6 325.2,270.2 				"/>
			</g>
			<g>
				<polygon class="st4" points="326.9,268.7 330.4,272.2 329.6,272.8 326.1,269.4 				"/>
			</g>
			<g>
				<polygon class="st5" points="325.2,270.2 328.7,273.6 327.5,275.2 324,271.7 				"/>
			</g>
			<g>
				<polygon class="st6" points="324,271.7 327.5,275.2 327,276.2 323.5,272.7 				"/>
			</g>
			<g>
				<polygon class="st7" points="329.6,267.2 333.1,270.7 330.4,272.2 326.9,268.7 				"/>
			</g>
			<g>
				<polygon class="st7" points="320.8,276.2 324.3,279.7 320.7,281.1 317.3,277.6 				"/>
			</g>
			<g>
				<polygon class="st8" points="323.5,272.7 327,276.2 326.2,278 322.7,274.5 				"/>
			</g>
			<g>
				<polygon class="st7" points="321.4,275.8 324.9,279.3 324.3,279.7 320.8,276.2 				"/>
			</g>
			<g>
				<polygon class="st7" points="330.6,266.8 334.1,270.3 333.1,270.7 329.6,267.2 				"/>
			</g>
			<g>
				<polygon class="st4" points="322.3,275.2 325.8,278.6 324.9,279.3 321.4,275.8 				"/>
			</g>
			<g>
				<polygon class="st9" points="322.7,274.5 326.2,278 325.8,278.6 322.3,275.2 				"/>
			</g>
			<g>
				<polygon class="st7" points="332,266.5 335.5,270 334.1,270.3 330.6,266.8 				"/>
			</g>
			<g>
				<polygon class="st7" points="333.1,266.4 336.6,269.9 335.5,270 332,266.5 				"/>
			</g>
			<g>
				<polygon class="st7" points="335,266.6 338.5,270.1 336.6,269.9 333.1,266.4 				"/>
			</g>
			<g>
				<polygon class="st7" points="320.7,281.4 324.2,284.9 320.4,281.1 317,277.6 				"/>
			</g>
			<g>
				<polygon class="st10" points="320.9,281.2 324.4,284.7 320.7,281.1 317.3,277.6 				"/>
			</g>
			<g>
				<polygon class="st11" points="320.9,281.2 324.4,284.7 325.2,285.9 321.8,282.4 				"/>
			</g>
			<g>
				<polygon class="st7" points="337.9,267.1 341.4,270.6 338.5,270.1 335,266.6 				"/>
			</g>
			<g>
				<polygon class="st7" points="338.6,267.4 342,270.9 341.4,270.6 337.9,267.1 				"/>
			</g>
			<g>
				<polygon class="st10" points="322.8,283.4 326.3,286.9 325.2,285.9 321.8,282.4 				"/>
			</g>
			<g>
				<polygon class="st7" points="322.7,283.6 326.2,287.1 325.1,286.1 321.6,282.6 				"/>
			</g>
			<g>
				<polygon class="st7" points="339.2,267.5 342.7,271 342,270.9 338.6,267.4 				"/>
			</g>
			<g>
				<polygon class="st7" points="339.9,267.6 343.4,271 342.7,271 339.2,267.5 				"/>
			</g>
			<g>
				<polygon class="st10" points="323.6,283.8 327.1,287.3 326.3,286.9 322.8,283.4 				"/>
			</g>
			<g>
				<polygon class="st7" points="323.6,284 327,287.5 326.2,287.1 322.7,283.6 				"/>
			</g>
			<g>
				<polygon class="st7" points="340.9,267.4 344.3,270.9 343.4,271 339.9,267.6 				"/>
			</g>
			<g>
				<polygon class="st10" points="325.2,284.1 328.7,287.6 327.1,287.3 323.6,283.8 				"/>
			</g>
			<g>
				<polygon class="st7" points="325.1,284.3 328.6,287.8 327,287.5 323.6,284 				"/>
			</g>
			<g>
				<polygon class="st7" points="343.9,266.4 347.3,269.9 344.3,270.9 340.9,267.4 				"/>
			</g>
			<g>
				<polygon class="st10" points="326.3,284.5 329.8,287.9 328.7,287.6 325.2,284.1 				"/>
			</g>
			<g>
				<polygon class="st7" points="326.2,284.7 329.7,288.2 328.6,287.8 325.1,284.3 				"/>
			</g>
			<g>
				<polygon class="st10" points="326.8,284.6 330.2,288 329.8,287.9 326.3,284.5 				"/>
			</g>
			<g>
				<polygon class="st7" points="326.8,284.8 330.2,288.3 329.7,288.2 326.2,284.7 				"/>
			</g>
			<g>
				<polygon class="st10" points="327.1,284.6 330.6,288 330.2,288 326.8,284.6 				"/>
			</g>
			<g>
				<polygon class="st7" points="327.2,284.8 330.7,288.3 330.2,288.3 326.8,284.8 				"/>
			</g>
			<g>
				<polygon class="st7" points="348,265.4 351.4,268.9 347.3,269.9 343.9,266.4 				"/>
			</g>
			<g>
				<polygon class="st10" points="329,284.6 332.4,288.1 330.6,288 327.1,284.6 				"/>
			</g>
			<g>
				<polygon class="st7" points="328.8,284.7 332.2,288.2 330.7,288.3 327.2,284.8 				"/>
			</g>
			<g>
				<polygon class="st7" points="349.2,265 352.7,268.4 351.4,268.9 348,265.4 				"/>
			</g>
			<g>
				<polygon class="st7" points="351.1,264.1 354.5,267.6 352.7,268.4 349.2,265 				"/>
			</g>
			<g>
				<polygon class="st12" points="329.2,285.1 332.7,288.6 332.9,289.5 329.4,286 				"/>
			</g>
			<g>
				<polygon class="st7" points="355.4,262.8 358.9,266.3 354.5,267.6 351.1,264.1 				"/>
			</g>
			<g>
				<polygon class="st13" points="329.4,286 332.9,289.5 333.1,293.1 329.7,289.6 				"/>
			</g>
			<g>
				<polygon class="st14" points="329.7,289.6 333.1,293.1 333,293.9 329.5,290.4 				"/>
			</g>
			<g>
				<polygon class="st8" points="329.5,290.4 333,293.9 332.5,295.2 329,291.7 				"/>
			</g>
			<g>
				<polygon class="st7" points="329.4,291.9 332.9,295.4 332.3,295.5 328.8,292 				"/>
			</g>
			<g>
				<polygon class="st10" points="330.7,291 334.2,294.5 332.8,295.1 329.3,291.6 				"/>
			</g>
			<g>
				<polygon class="st7" points="330.7,291.3 334.2,294.8 332.9,295.4 329.4,291.9 				"/>
			</g>
			<g>
				<polygon class="st7" points="363.6,259.5 367,263 358.9,266.3 355.4,262.8 				"/>
			</g>
			<g>
				<polygon class="st7" points="364.6,259.2 368.1,262.7 367,263 363.6,259.5 				"/>
			</g>
			<g>
				<polygon class="st10" points="333.1,290.7 336.6,294.2 334.2,294.5 330.7,291 				"/>
			</g>
			<g>
				<polygon class="st7" points="333.2,291 336.6,294.4 334.2,294.8 330.7,291.3 				"/>
			</g>
			<g>
				<polygon class="st7" points="365.2,259.2 368.7,262.7 368.1,262.7 364.6,259.2 				"/>
			</g>
			<g>
				<polygon class="st10" points="334.2,290.4 337.7,293.9 336.6,294.2 333.1,290.7 				"/>
			</g>
			<g>
				<polygon class="st7" points="334.3,290.7 337.7,294.2 336.6,294.4 333.2,291 				"/>
			</g>
			<g>
				<polygon class="st7" points="365.9,259.3 369.4,262.7 368.7,262.7 365.2,259.2 				"/>
			</g>
			<g>
				<polygon class="st10" points="335.2,290.5 338.7,294 337.7,293.9 334.2,290.4 				"/>
			</g>
			<g>
				<polygon class="st7" points="335.1,290.7 338.6,294.2 337.7,294.2 334.3,290.7 				"/>
			</g>
			<g>
				<polygon class="st7" points="366.9,259.4 370.3,262.9 369.4,262.7 365.9,259.3 				"/>
			</g>
			<g>
				<polygon class="st10" points="336.3,291.3 339.8,294.8 338.7,294 335.2,290.5 				"/>
			</g>
			<g>
				<polygon class="st10" points="337,290.9 340.5,294.4 339.8,294.8 336.3,291.3 				"/>
			</g>
			<g>
				<polygon class="st7" points="336.4,291.5 339.8,295 338.6,294.2 335.1,290.7 				"/>
			</g>
			<g>
				<polygon class="st7" points="337.1,291.1 340.6,294.6 339.8,295 336.4,291.5 				"/>
			</g>
			<g>
				<polygon class="st10" points="337.8,290.6 341.2,294.1 340.5,294.4 337,290.9 				"/>
			</g>
			<g>
				<polygon class="st7" points="337.8,290.9 341.3,294.4 340.6,294.6 337.1,291.1 				"/>
			</g>
			<g>
				<polygon class="st10" points="338.7,290.5 342.2,294 341.2,294.1 337.8,290.6 				"/>
			</g>
			<g>
				<polygon class="st15" points="342.1,286.9 345.6,290.4 344.8,291.3 341.3,287.9 				"/>
			</g>
			<g>
				<polygon class="st7" points="338.7,290.7 342.2,294.2 341.3,294.4 337.8,290.9 				"/>
			</g>
			<g>
				<polygon class="st5" points="342.2,287.2 345.7,290.7 345,291.5 341.6,288 				"/>
			</g>
			<g>
				<polygon class="st10" points="342.7,286.9 346.2,290.4 345.6,290.4 342.1,286.9 				"/>
			</g>
			<g>
				<polygon class="st7" points="342.6,287.1 346.1,290.6 345.7,290.7 342.2,287.2 				"/>
			</g>
			<g>
				<polygon class="st16" points="341.3,287.9 344.8,291.3 344.5,292.2 341.1,288.8 				"/>
			</g>
			<g>
				<polygon class="st17" points="341.6,288 345,291.5 344.8,292.3 341.3,288.8 				"/>
			</g>
			<g>
				<polygon class="st10" points="339.8,290.4 343.3,293.9 342.2,294 338.7,290.5 				"/>
			</g>
			<g>
				<polygon class="st10" points="343.3,287.2 346.7,290.7 346.2,290.4 342.7,286.9 				"/>
			</g>
			<g>
				<polygon class="st18" points="341.1,288.8 344.5,292.2 344.4,293.1 340.9,289.6 				"/>
			</g>
			<g>
				<polygon class="st7" points="339.9,290.7 343.3,294.2 342.2,294.2 338.7,290.7 				"/>
			</g>
			<g>
				<polygon class="st7" points="343.2,287.4 346.7,290.9 346.1,290.6 342.6,287.1 				"/>
			</g>
			<g>
				<polygon class="st19" points="340.9,289.6 344.4,293.1 344.1,293.7 340.6,290.2 				"/>
			</g>
			<g>
				<polygon class="st10" points="340.6,290.2 344.1,293.7 343.3,293.9 339.8,290.4 				"/>
			</g>
			<g>
				<polygon class="st20" points="341.3,288.8 344.8,292.3 344.6,293.2 341.1,289.7 				"/>
			</g>
			<g>
				<polygon class="st7" points="340.8,290.4 344.3,293.8 343.3,294.2 339.9,290.7 				"/>
			</g>
			<g>
				<polygon class="st21" points="341.1,289.7 344.6,293.2 344.3,293.8 340.8,290.4 				"/>
			</g>
			<g>
				<polygon class="st10" points="344,287.4 347.5,290.9 346.7,290.7 343.3,287.2 				"/>
			</g>
			<g>
				<polygon class="st7" points="344,287.6 347.5,291.1 346.7,290.9 343.2,287.4 				"/>
			</g>
			<g>
				<polygon class="st10" points="345.2,287.4 348.7,290.9 347.5,290.9 344,287.4 				"/>
			</g>
			<g>
				<polygon class="st7" points="345.3,287.6 348.7,291.1 347.5,291.1 344,287.6 				"/>
			</g>
			<g>
				<polygon class="st10" points="346.1,287.2 349.6,290.7 348.7,290.9 345.2,287.4 				"/>
			</g>
			<g>
				<polygon class="st10" points="346.7,286.9 350.1,290.4 349.6,290.7 346.1,287.2 				"/>
			</g>
			<g>
				<polygon class="st22" points="347.2,286.1 350.7,289.5 350.1,290.4 346.7,286.9 				"/>
			</g>
			<g>
				<polygon class="st7" points="346.2,287.5 349.7,290.9 348.7,291.1 345.3,287.6 				"/>
			</g>
			<g>
				<polygon class="st7" points="346.9,287 350.4,290.5 349.7,290.9 346.2,287.5 				"/>
			</g>
			<g>
				<polygon class="st8" points="347.2,286.4 350.6,289.9 350.4,290.5 346.9,287 				"/>
			</g>
			<g>
				<polygon class="st7" points="374,261.7 377.4,265.2 370.3,262.9 366.9,259.4 				"/>
			</g>
			<g>
				<polygon class="st23" points="347.9,286.7 351.4,290.2 351.8,290.9 348.3,287.4 				"/>
			</g>
			<g>
				<polygon class="st11" points="348.3,287.4 351.8,290.9 352.2,291.4 348.7,287.9 				"/>
			</g>
			<g>
				<polygon class="st10" points="349.5,288.3 352.9,291.8 352.2,291.4 348.7,287.9 				"/>
			</g>
			<g>
				<polygon class="st7" points="349.4,288.5 352.9,292 352,291.6 348.6,288.1 				"/>
			</g>
			<g>
				<polygon class="st10" points="350,288.2 353.5,291.7 352.9,291.8 349.5,288.3 				"/>
			</g>
			<g>
				<polygon class="st7" points="350.1,288.5 353.6,292 352.9,292 349.4,288.5 				"/>
			</g>
			<g>
				<polygon class="st7" points="377.6,261.2 381.1,264.7 377.4,265.2 374,261.7 				"/>
			</g>
			<g>
				<polygon class="st10" points="352.2,287.8 355.7,291.3 353.5,291.7 350,288.2 				"/>
			</g>
			<g>
				<polygon class="st7" points="352.2,288.1 355.7,291.6 353.6,292 350.1,288.5 				"/>
			</g>
			<g>
				<polygon class="st10" points="353.2,287.8 356.7,291.3 355.7,291.3 352.2,287.8 				"/>
			</g>
			<g>
				<polygon class="st7" points="353.1,288.1 356.6,291.5 355.7,291.6 352.2,288.1 				"/>
			</g>
			<g>
				<polygon class="st7" points="384.1,258.4 387.6,261.9 381.1,264.7 377.6,261.2 				"/>
			</g>
			<g>
				<polygon class="st10" points="354.9,288.4 358.4,291.9 356.7,291.3 353.2,287.8 				"/>
			</g>
			<g>
				<polygon class="st7" points="354.8,288.6 358.3,292.1 356.6,291.5 353.1,288.1 				"/>
			</g>
			<g>
				<polygon class="st7" points="387.9,255.9 391.4,259.4 387.6,261.9 384.1,258.4 				"/>
			</g>
			<g>
				<polygon class="st7" points="355.9,289.6 359.4,293 358.3,292.1 354.8,288.6 				"/>
			</g>
			<g>
				<polygon class="st10" points="356.1,289.4 359.6,292.9 358.4,291.9 354.9,288.4 				"/>
			</g>
			<g>
				<polygon class="st7" points="389.6,256.8 393.1,260.3 391.4,259.4 387.9,255.9 				"/>
			</g>
			<g>
				<polygon class="st7" points="390.5,257 394,260.5 393.1,260.3 389.6,256.8 				"/>
			</g>
			<g>
				<polygon class="st7" points="391.2,256.9 394.7,260.4 394,260.5 390.5,257 				"/>
			</g>
			<g>
				<polygon class="st7" points="392.5,256.6 396,260.1 394.7,260.4 391.2,256.9 				"/>
			</g>
			<g>
				<polygon class="st7" points="393.6,256.6 397.1,260.1 396,260.1 392.5,256.6 				"/>
			</g>
			<g>
				<polygon class="st7" points="394.2,256.9 397.7,260.4 397.1,260.1 393.6,256.6 				"/>
			</g>
			<g>
				<polygon class="st7" points="395,256.8 398.5,260.3 397.7,260.4 394.2,256.9 				"/>
			</g>
			<g>
				<polygon class="st24" points="395.5,256.2 399,259.7 398.5,260.3 395,256.8 				"/>
			</g>
			<g>
				<polygon class="st7" points="395.9,256.1 399.3,259.6 399,259.7 395.5,256.2 				"/>
			</g>
			<g>
				<polygon class="st7" points="396.8,256.1 400.3,259.5 399.3,259.6 395.9,256.1 				"/>
			</g>
			<g>
				<polygon class="st11" points="356.1,289.4 359.6,292.9 362.8,297.1 359.3,293.6 				"/>
			</g>
			<g>
				<polygon class="st10" points="359.7,293.9 363.2,297.4 362.8,297.1 359.3,293.6 				"/>
			</g>
			<g>
				<polygon class="st7" points="359.7,294.2 363.1,297.7 362.6,297.3 359.1,293.8 				"/>
			</g>
			<g>
				<polygon class="st10" points="360.6,294 364.1,297.5 363.2,297.4 359.7,293.9 				"/>
			</g>
			<g>
				<polygon class="st7" points="360.7,294.3 364.1,297.8 363.1,297.7 359.7,294.2 				"/>
			</g>
			<g>
				<polygon class="st10" points="363.4,293.5 366.9,297 364.1,297.5 360.6,294 				"/>
			</g>
			<g>
				<polygon class="st7" points="400.1,257 403.6,260.5 400.3,259.5 396.8,256.1 				"/>
			</g>
			<g>
				<polygon class="st7" points="363.4,293.8 366.9,297.3 364.1,297.8 360.7,294.3 				"/>
			</g>
			<g>
				<polygon class="st7" points="401.4,256.9 404.9,260.4 403.6,260.5 400.1,257 				"/>
			</g>
			<g>
				<polygon class="st10" points="366.9,293.5 370.4,296.9 366.9,297 363.4,293.5 				"/>
			</g>
			<g>
				<polygon class="st7" points="367,293.7 370.4,297.2 366.9,297.3 363.4,293.8 				"/>
			</g>
			<g>
				<polygon class="st7" points="404.6,256.2 408.1,259.7 404.9,260.4 401.4,256.9 				"/>
			</g>
			<g>
				<polygon class="st7" points="405.4,256.3 408.8,259.8 408.1,259.7 404.6,256.2 				"/>
			</g>
			<g>
				<polygon class="st7" points="407.5,257.9 411,261.3 408.8,259.8 405.4,256.3 				"/>
			</g>
			<g>
				<polygon class="st10" points="373.2,292.6 376.7,296.1 370.4,296.9 366.9,293.5 				"/>
			</g>
			<g>
				<polygon class="st7" points="373.3,292.9 376.8,296.4 370.4,297.2 367,293.7 				"/>
			</g>
			<g>
				<polygon class="st10" points="374.5,292.2 377.9,295.7 376.7,296.1 373.2,292.6 				"/>
			</g>
			<g>
				<polygon class="st15" points="375.6,290.8 379.1,294.3 377.9,295.7 374.5,292.2 				"/>
			</g>
			<g>
				<polygon class="st7" points="374.6,292.4 378.1,295.9 376.8,296.4 373.3,292.9 				"/>
			</g>
			<g>
				<polygon class="st5" points="375.7,291 379.2,294.5 378.1,295.9 374.6,292.4 				"/>
			</g>
			<g>
				<polygon class="st10" points="376.8,290.5 380.3,294 379.1,294.3 375.6,290.8 				"/>
			</g>
			<g>
				<polygon class="st7" points="376.9,290.7 380.3,294.2 379.2,294.5 375.7,291 				"/>
			</g>
			<g>
				<polygon class="st7" points="410.2,258.9 413.6,262.4 411,261.3 407.5,257.9 				"/>
			</g>
			<g>
				<polygon class="st10" points="381.4,290.6 384.9,294.1 380.3,294 376.8,290.5 				"/>
			</g>
			<g>
				<polygon class="st7" points="381.4,290.8 384.8,294.3 380.3,294.2 376.9,290.7 				"/>
			</g>
			<g>
				<polygon class="st7" points="413,259.4 416.4,262.9 413.6,262.4 410.2,258.9 				"/>
			</g>
			<g>
				<polygon class="st10" points="384.1,291.2 387.6,294.7 384.9,294.1 381.4,290.6 				"/>
			</g>
			<g>
				<polygon class="st7" points="384.1,291.4 387.6,294.9 384.8,294.3 381.4,290.8 				"/>
			</g>
			<g>
				<polygon class="st7" points="417,259.8 420.4,263.3 416.4,262.9 413,259.4 				"/>
			</g>
			<g>
				<polygon class="st10" points="385.6,291.3 389.1,294.8 387.6,294.7 384.1,291.2 				"/>
			</g>
			<g>
				<polygon class="st7" points="385.6,291.5 389.1,295 387.6,294.9 384.1,291.4 				"/>
			</g>
			<g>
				<polygon class="st10" points="386,291.2 389.5,294.7 389.1,294.8 385.6,291.3 				"/>
			</g>
			<g>
				<polygon class="st7" points="386.1,291.4 389.6,294.9 389.1,295 385.6,291.5 				"/>
			</g>
			<g>
				<polygon class="st10" points="387.1,290.6 390.6,294.1 389.5,294.7 386,291.2 				"/>
			</g>
			<g>
				<polygon class="st7" points="387.2,290.9 390.6,294.4 389.6,294.9 386.1,291.4 				"/>
			</g>
			<g>
				<polygon class="st10" points="387.7,290.4 391.2,293.9 390.6,294.1 387.1,290.6 				"/>
			</g>
			<g>
				<polygon class="st7" points="387.7,290.7 391.2,294.2 390.6,294.4 387.2,290.9 				"/>
			</g>
			<g>
				<polygon class="st7" points="418.4,260.2 421.9,263.7 420.4,263.3 417,259.8 				"/>
			</g>
			<g>
				<polygon class="st10" points="388.4,290.4 391.9,293.9 391.2,293.9 387.7,290.4 				"/>
			</g>
			<g>
				<polygon class="st7" points="388.4,290.6 391.9,294.1 391.2,294.2 387.7,290.7 				"/>
			</g>
			<g>
				<polygon class="st7" points="419.5,260.9 423,264.4 421.9,263.7 418.4,260.2 				"/>
			</g>
			<g>
				<polygon class="st25" points="419.5,260.9 423,264.4 423.5,265.4 420,261.9 				"/>
			</g>
			<g>
				<polygon class="st23" points="419.7,260.7 423.2,264.2 423.7,265.3 420.2,261.8 				"/>
			</g>
			<g>
				<polygon class="st26" points="420,261.9 423.5,265.4 424.1,266.2 420.7,262.8 				"/>
			</g>
			<g>
				<polygon class="st12" points="420.2,261.8 423.7,265.3 424.3,266.1 420.8,262.6 				"/>
			</g>
			<g>
				<polygon class="st10" points="393.6,290.4 397.1,293.9 391.9,293.9 388.4,290.4 				"/>
			</g>
			<g>
				<polygon class="st7" points="393.6,290.7 397.1,294.2 391.9,294.1 388.4,290.6 				"/>
			</g>
			<g>
				<polygon class="st10" points="394.2,290.3 397.7,293.8 397.1,293.9 393.6,290.4 				"/>
			</g>
			<g>
				<polygon class="st7" points="394.3,290.5 397.8,294 397.1,294.2 393.6,290.7 				"/>
			</g>
			<g>
				<polygon class="st10" points="395.6,289.7 399.1,293.1 397.7,293.8 394.2,290.3 				"/>
			</g>
			<g>
				<polygon class="st7" points="395.6,289.9 399.1,293.4 397.8,294 394.3,290.5 				"/>
			</g>
			<g>
				<polygon class="st7" points="422.1,263.5 425.6,267 424.2,266.3 420.7,262.8 				"/>
			</g>
			<g>
				<polygon class="st10" points="396.4,289.5 399.9,293 399.1,293.1 395.6,289.7 				"/>
			</g>
			<g>
				<polygon class="st7" points="396.4,289.8 399.9,293.3 399.1,293.4 395.6,289.9 				"/>
			</g>
			<g>
				<polygon class="st7" points="424.7,264.4 428.2,267.9 425.6,267 422.1,263.5 				"/>
			</g>
			<g>
				<polygon class="st7" points="425.3,264.8 428.7,268.3 428.2,267.9 424.7,264.4 				"/>
			</g>
			<g>
				<polygon class="st25" points="425.3,264.8 428.7,268.3 429,268.7 425.5,265.2 				"/>
			</g>
			<g>
				<polygon class="st11" points="425.4,264.6 428.9,268.1 429.2,268.6 425.7,265.1 				"/>
			</g>
			<g>
				<polygon class="st7" points="426,265.6 429.5,269.1 429,268.7 425.6,265.2 				"/>
			</g>
			<g>
				<polygon class="st7" points="426.9,265.7 430.3,269.2 429.5,269.1 426,265.6 				"/>
			</g>
			<g>
				<polygon class="st7" points="427.4,265.9 430.9,269.4 430.3,269.2 426.9,265.7 				"/>
			</g>
			<g>
				<polygon class="st27" points="427.4,265.9 430.9,269.4 431,270.2 427.5,266.7 				"/>
			</g>
			<g>
				<polygon class="st12" points="427.6,265.7 431,269.2 431.3,270.1 427.8,266.6 				"/>
			</g>
			<g>
				<polygon class="st7" points="429.3,267.3 432.8,270.8 431.1,270.3 427.6,266.8 				"/>
			</g>
			<g>
				<polygon class="st7" points="431,268.8 434.5,272.3 432.8,270.8 429.3,267.3 				"/>
			</g>
			<g>
				<polygon class="st7" points="440.5,260 444,263.5 443.6,263.8 440.1,260.3 				"/>
			</g>
			<g>
				<polygon class="st28" points="440.1,260.3 443.6,263.8 443.4,264.5 439.9,261 				"/>
			</g>
			<g>
				<polygon class="st7" points="432.4,269.2 435.8,272.7 434.5,272.3 431,268.8 				"/>
			</g>
			<g>
				<polygon class="st29" points="439.9,261 443.4,264.5 443.4,265.6 439.9,262.1 				"/>
			</g>
			<g>
				<polygon class="st24" points="438.8,263.2 442.3,266.7 442,267 438.5,263.5 				"/>
			</g>
			<g>
				<polygon class="st7" points="442,260 445.5,263.5 444,263.5 440.5,260 				"/>
			</g>
			<g>
				<polygon class="st30" points="439.9,262.1 443.4,265.6 443.1,266.1 439.6,262.6 				"/>
			</g>
			<g>
				<polygon class="st4" points="439.6,262.6 443.1,266.1 442.3,266.7 438.8,263.2 				"/>
			</g>
			<g>
				<polygon class="st7" points="435.1,267.3 438.6,270.8 435.8,272.7 432.4,269.2 				"/>
			</g>
			<g>
				<polygon class="st10" points="412.9,289.6 416.4,293 399.9,293 396.4,289.5 				"/>
			</g>
			<g>
				<polygon class="st7" points="412.9,289.8 416.4,293.3 399.9,293.3 396.4,289.8 				"/>
			</g>
			<g>
				<polygon class="st7" points="442.9,260.2 446.4,263.7 445.5,263.5 442,260 				"/>
			</g>
			<g>
				<polygon class="st7" points="436.3,267 439.8,270.5 438.6,270.8 435.1,267.3 				"/>
			</g>
			<g>
				<polygon class="st7" points="437.2,266.5 440.6,270 439.8,270.5 436.3,267 				"/>
			</g>
			<g>
				<polygon class="st8" points="438.5,263.5 442,267 440.6,270 437.2,266.5 				"/>
			</g>
			<g>
				<polygon class="st10" points="414.1,289.7 417.6,293.2 416.4,293 412.9,289.6 				"/>
			</g>
			<g>
				<polygon class="st7" points="414,289.9 417.5,293.4 416.4,293.3 412.9,289.8 				"/>
			</g>
			<g>
				<polygon class="st10" points="415.1,290 418.5,293.5 417.6,293.2 414.1,289.7 				"/>
			</g>
			<g>
				<polygon class="st7" points="414.9,290.2 418.4,293.7 417.5,293.4 414,289.9 				"/>
			</g>
			<g>
				<polygon class="st10" points="415.8,290.6 419.3,294.1 418.5,293.5 415.1,290 				"/>
			</g>
			<g>
				<polygon class="st7" points="415.7,290.8 419.2,294.3 418.4,293.7 414.9,290.2 				"/>
			</g>
			<g>
				<polygon class="st10" points="416.7,290.8 420.2,294.3 419.3,294.1 415.8,290.6 				"/>
			</g>
			<g>
				<polygon class="st7" points="416.7,291.1 420.2,294.6 419.2,294.3 415.7,290.8 				"/>
			</g>
			<g>
				<polygon class="st10" points="419.6,288.4 423.1,291.9 422.1,291.3 418.7,287.8 				"/>
			</g>
			<g>
				<polygon class="st31" points="418.7,287.8 422.1,291.3 422.3,293.4 418.9,289.9 				"/>
			</g>
			<g>
				<polygon class="st7" points="419.4,288.5 422.9,292 422.3,291.7 418.8,288.2 				"/>
			</g>
			<g>
				<polygon class="st10" points="417.9,290.9 421.3,294.4 420.2,294.3 416.7,290.8 				"/>
			</g>
			<g>
				<polygon class="st32" points="418.8,288.2 422.3,291.7 422.6,293.4 419.1,289.9 				"/>
			</g>
			<g>
				<polygon class="st7" points="417.9,291.1 421.4,294.6 420.2,294.6 416.7,291.1 				"/>
			</g>
			<g>
				<polygon class="st7" points="447.5,261.8 450.9,265.3 446.4,263.7 442.9,260.2 				"/>
			</g>
			<g>
				<polygon class="st33" points="418.9,289.9 422.3,293.4 422.2,294.1 418.7,290.6 				"/>
			</g>
			<g>
				<polygon class="st10" points="418.7,290.6 422.2,294.1 421.3,294.4 417.9,290.9 				"/>
			</g>
			<g>
				<polygon class="st7" points="418.9,290.7 422.4,294.2 421.4,294.6 417.9,291.1 				"/>
			</g>
			<g>
				<polygon class="st20" points="419.1,289.9 422.6,293.4 422.4,294.2 418.9,290.7 				"/>
			</g>
			<g>
				<polygon class="st11" points="419.6,288.3 423,291.8 424.4,293.6 420.9,290.1 				"/>
			</g>
			<g>
				<polygon class="st7" points="449.3,262.5 452.7,266 450.9,265.3 447.5,261.8 				"/>
			</g>
			<g>
				<polygon class="st11" points="449.2,261.9 452.6,265.4 453,265.9 449.5,262.4 				"/>
			</g>
			<g>
				<polygon class="st10" points="421.6,290.4 425.1,293.9 424.4,293.6 420.9,290.1 				"/>
			</g>
			<g>
				<polygon class="st7" points="421.6,290.7 425.1,294.2 424.2,293.8 420.8,290.3 				"/>
			</g>
			<g>
				<polygon class="st10" points="424.6,290.5 428.1,294 425.1,293.9 421.6,290.4 				"/>
			</g>
			<g>
				<polygon class="st7" points="424.6,290.8 428.1,294.2 425.1,294.2 421.6,290.7 				"/>
			</g>
			<g>
				<polygon class="st25" points="449.1,262.2 452.6,265.6 454.3,268.6 450.8,265.1 				"/>
			</g>
			<g>
				<polygon class="st23" points="449.5,262.4 453,265.9 454.5,268.4 451,265 				"/>
			</g>
			<g>
				<polygon class="st7" points="452.6,266.1 456.1,269.6 454.3,268.6 450.9,265.2 				"/>
			</g>
			<g>
				<polygon class="st7" points="453.4,266.4 456.8,269.9 456.1,269.6 452.6,266.1 				"/>
			</g>
			<g>
				<polygon class="st10" points="431,289.8 434.4,293.3 428.1,294 424.6,290.5 				"/>
			</g>
			<g>
				<polygon class="st7" points="430.9,290.1 434.4,293.6 428.1,294.2 424.6,290.8 				"/>
			</g>
			<g>
				<polygon class="st7" points="456.5,268 460,271.5 456.8,269.9 453.4,266.4 				"/>
			</g>
			<g>
				<polygon class="st7" points="457.3,268.7 460.8,272.1 460,271.5 456.5,268 				"/>
			</g>
			<g>
				<polygon class="st25" points="457.3,268.7 460.8,272.1 461.2,272.7 457.7,269.2 				"/>
			</g>
			<g>
				<polygon class="st11" points="457.5,268.5 461,271.9 461.4,272.6 457.9,269.1 				"/>
			</g>
			<g>
				<polygon class="st34" points="457.7,269.2 461.2,272.7 461.3,273.1 457.8,269.6 				"/>
			</g>
			<g>
				<polygon class="st12" points="457.9,269.1 461.4,272.6 461.5,273.1 458,269.6 				"/>
			</g>
			<g>
				<polygon class="st35" points="457.8,269.6 461.3,273.1 461.3,274.9 457.8,271.4 				"/>
			</g>
			<g>
				<polygon class="st36" points="458,269.6 461.5,273.1 461.6,274.8 458.1,271.3 				"/>
			</g>
			<g>
				<polygon class="st10" points="441,290.4 444.5,293.9 434.4,293.3 431,289.8 				"/>
			</g>
			<g>
				<polygon class="st7" points="441,290.7 444.5,294.2 434.4,293.6 430.9,290.1 				"/>
			</g>
			<g>
				<polygon class="st25" points="457.8,271.4 461.3,274.9 462.8,278.1 459.3,274.6 				"/>
			</g>
			<g>
				<polygon class="st23" points="458.1,271.3 461.6,274.8 463,278 459.5,274.5 				"/>
			</g>
			<g>
				<polygon class="st10" points="444.7,289.9 448.2,293.4 444.5,293.9 441,290.4 				"/>
			</g>
			<g>
				<polygon class="st7" points="444.8,290.1 448.2,293.6 444.5,294.2 441,290.7 				"/>
			</g>
			<g>
				<polygon class="st7" points="460,275.3 463.5,278.8 462.8,278.1 459.3,274.7 				"/>
			</g>
			<g>
				<polygon class="st10" points="446.1,289.3 449.6,292.8 448.2,293.4 444.7,289.9 				"/>
			</g>
			<g>
				<polygon class="st37" points="447.1,288.3 450.6,291.8 449.6,292.8 446.1,289.3 				"/>
			</g>
			<g>
				<polygon class="st7" points="446.3,289.5 449.8,293 448.2,293.6 444.8,290.1 				"/>
			</g>
			<g>
				<polygon class="st10" points="447.7,288.3 451.1,291.8 450.6,291.8 447.1,288.3 				"/>
			</g>
			<g>
				<polygon class="st4" points="447.5,288.5 451,292 449.8,293 446.3,289.5 				"/>
			</g>
			<g>
				<polygon class="st7" points="461,276 464.5,279.5 463.5,278.8 460,275.3 				"/>
			</g>
			<g>
				<polygon class="st12" points="447.6,288.3 451,291.8 452.2,293.2 448.7,289.7 				"/>
			</g>
			<g>
				<polygon class="st7" points="463.1,277.2 466.6,280.7 464.5,279.5 461,276 				"/>
			</g>
			<g>
				<polygon class="st12" points="463.3,277 466.8,280.5 468.3,282.3 464.8,278.8 				"/>
			</g>
			<g>
				<polygon class="st26" points="463.1,277.2 466.6,280.7 468.1,282.5 464.6,279 				"/>
			</g>
			<g>
				<polygon class="st38" points="448.7,289.7 452.2,293.2 455.1,296.2 451.6,292.7 				"/>
			</g>
			<g>
				<polygon class="st11" points="451.6,292.7 455.1,296.2 457.1,299.2 453.6,295.7 				"/>
			</g>
			<g>
				<polygon class="st7" points="453.9,296.4 457.4,299.9 457,299.6 453.5,296.2 				"/>
			</g>
			<g>
				<polygon class="st10" points="455.3,296.1 458.8,299.6 457.4,299.7 454,296.2 				"/>
			</g>
			<g>
				<polygon class="st7" points="455.4,296.6 458.9,300 457.4,299.9 453.9,296.4 				"/>
			</g>
			<g>
				<polygon class="st10" points="455.6,296.4 459.1,299.9 458.8,299.6 455.3,296.1 				"/>
			</g>
			<g>
				<polygon class="st7" points="472.4,282.5 475.9,285.9 468.2,282.6 464.7,279.1 				"/>
			</g>
			<g>
				<polygon class="st11" points="455.6,296.4 459,299.9 460.7,302.3 457.3,298.8 				"/>
			</g>
			<g>
				<polygon class="st32" points="457.3,298.8 460.7,302.3 461.1,302.7 457.7,299.2 				"/>
			</g>
			<g>
				<polygon class="st7" points="457.8,299.6 461.3,303.1 460.5,302.4 457.1,299 				"/>
			</g>
			<g>
				<polygon class="st10" points="458,299.5 461.5,302.9 461.1,302.7 457.7,299.2 				"/>
			</g>
			<g>
				<polygon class="st39" points="472.4,282.5 475.9,285.9 477.4,287.5 473.9,284 				"/>
			</g>
			<g>
				<polygon class="st32" points="472.6,282.2 476,285.7 477.6,287.3 474.1,283.8 				"/>
			</g>
			<g>
				<polygon class="st11" points="458,299.4 461.5,302.9 462.1,303.8 458.6,300.3 				"/>
			</g>
			<g>
				<polygon class="st10" points="459.3,300.7 462.7,304.2 462.3,304.1 458.8,300.6 				"/>
			</g>
			<g>
				<polygon class="st7" points="459.2,301 462.7,304.4 462.2,304.3 458.7,300.8 				"/>
			</g>
			<g>
				<polygon class="st10" points="460.2,300.8 463.6,304.3 462.7,304.2 459.3,300.7 				"/>
			</g>
			<g>
				<polygon class="st25" points="473.9,284 477.4,287.5 478.7,289.4 475.2,285.9 				"/>
			</g>
			<g>
				<polygon class="st7" points="460.1,301 463.6,304.5 462.7,304.4 459.2,301 				"/>
			</g>
			<g>
				<polygon class="st11" points="474.1,283.8 477.6,287.3 478.9,289.2 475.4,285.7 				"/>
			</g>
			<g>
				<polygon class="st10" points="462.4,301.6 465.9,305.1 463.6,304.3 460.2,300.8 				"/>
			</g>
			<g>
				<polygon class="st7" points="462.3,301.8 465.8,305.3 463.6,304.5 460.1,301 				"/>
			</g>
			<g>
				<polygon class="st34" points="475.2,285.9 478.7,289.4 479.7,293.4 476.2,289.9 				"/>
			</g>
			<g>
				<polygon class="st12" points="475.4,285.7 478.9,289.2 480,293.3 476.5,289.8 				"/>
			</g>
			<g>
				<polygon class="st40" points="476.2,289.9 479.7,293.4 480,295.5 476.5,292 				"/>
			</g>
			<g>
				<polygon class="st38" points="476.5,289.8 480,293.3 480.3,295.5 476.8,292 				"/>
			</g>
			<g>
				<polygon class="st41" points="476.5,292 480,295.5 479.9,297.4 476.5,293.9 				"/>
			</g>
			<g>
				<polygon class="st42" points="476.8,292 480.3,295.5 480.2,297.4 476.7,294 				"/>
			</g>
			<g>
				<polygon class="st10" points="469,302.3 472.5,305.7 465.9,305.1 462.4,301.6 				"/>
			</g>
			<g>
				<polygon class="st7" points="469.1,302.5 472.5,306 465.8,305.3 462.3,301.8 				"/>
			</g>
			<g>
				<polygon class="st43" points="476.5,293.9 479.9,297.4 479.4,299.4 475.9,296 				"/>
			</g>
			<g>
				<polygon class="st28" points="476.7,294 480.2,297.4 479.7,299.5 476.2,296 				"/>
			</g>
			<g>
				<polygon class="st10" points="470.2,302.1 473.7,305.6 472.5,305.7 469,302.3 				"/>
			</g>
			<g>
				<polygon class="st7" points="470.2,302.3 473.7,305.8 472.5,306 469.1,302.5 				"/>
			</g>
			<g>
				<polygon class="st10" points="472.8,301.4 476.2,304.9 473.7,305.6 470.2,302.1 				"/>
			</g>
			<g>
				<polygon class="st44" points="475.9,296 479.4,299.4 477.8,303.5 474.3,300 				"/>
			</g>
			<g>
				<polygon class="st7" points="472.8,301.7 476.3,305.2 473.7,305.8 470.2,302.3 				"/>
			</g>
			<g>
				<polygon class="st45" points="476.2,296 479.7,299.5 478.1,303.6 474.6,300.1 				"/>
			</g>
			<g>
				<polygon class="st10" points="473.6,301.4 477.1,304.9 476.2,304.9 472.8,301.4 				"/>
			</g>
			<g>
				<polygon class="st46" points="387.7,256.1 389.6,256.8 390.5,257 391.2,256.9 392.5,256.6 393.3,256.5 394.2,256.9 394.7,257 
					395.5,256.2 395.9,256.1 396.8,256.1 400,257 401.4,256.9 404.6,256.2 405.4,256.3 407.5,257.8 410.1,258.9 413,259.4 
					417,259.8 418.4,260.2 419.5,260.9 420,261.9 420.7,262.8 422.1,263.5 424.7,264.4 425.3,264.8 425.5,265.2 425.9,265.6 
					426.9,265.7 427.4,265.9 427.5,266.7 429.3,267.3 431,268.8 432.2,269.2 435.1,267.3 436.3,267 437.1,266.6 438.5,263.5 
					438.8,263.2 439.6,262.6 439.9,262.2 439.9,261 440.1,260.3 440.5,260 442,260 442.9,260.2 447.4,261.8 449.1,262.2 
					450.8,265.1 452.6,266.1 453.4,266.4 456.5,268 457.3,268.7 457.7,269.2 457.8,269.6 457.8,271.4 459.3,274.6 460,275.3 
					461,276 463.1,277.2 464.6,279 472.4,282.5 473.9,284 475.2,285.9 476.2,289.9 476.5,292 476.5,293.9 475.9,296 474.3,300 
					473.6,301.4 472.8,301.4 470.2,302.1 469,302.3 462.4,301.6 460.2,300.8 459.3,300.7 458.8,300.6 458,299.5 457.7,299.2 
					457.3,298.8 455.6,296.4 455.3,296.1 454,296.2 451.6,292.7 448.7,289.7 447.7,288.3 447.1,288.3 446.1,289.3 444.7,289.9 
					441,290.4 431,289.8 424.6,290.5 421.6,290.4 420.9,290.1 419.6,288.4 418.7,287.8 418.9,289.9 418.7,290.6 417.9,290.9 
					416.7,290.8 415.8,290.6 415.1,290 414.1,289.7 412.9,289.6 396.4,289.5 395.6,289.7 394.2,290.3 393.6,290.4 388.4,290.4 
					387.7,290.4 387.1,290.6 386,291.2 385.6,291.3 384.1,291.2 381.4,290.6 376.8,290.5 375.6,290.8 374.5,292.2 373.2,292.6 
					366.9,293.5 363.4,293.5 360.6,294 359.7,293.9 359.3,293.6 356.1,289.4 354.9,288.4 353.2,287.8 352.2,287.8 350,288.2 
					349.5,288.3 348.7,287.9 348.3,287.4 347.9,286.7 347.2,286.1 346.7,286.9 346.1,287.2 345.2,287.4 344,287.4 343.3,287.2 
					342.7,286.9 342.1,286.9 341.3,287.9 341.1,288.8 340.9,289.6 340.6,290.2 339.8,290.4 338.7,290.5 337.8,290.6 337,290.9 
					336.3,291.3 335.2,290.5 334.2,290.4 333.1,290.7 330.7,291 329.3,291.6 329.5,290.4 329.7,289.6 329.4,286 329.2,285.1 
					329,284.6 327.1,284.6 326.8,284.6 326.3,284.5 325.2,284.1 323.6,283.8 322.8,283.4 321.8,282.4 320.9,281.2 317.3,277.6 
					320.8,276.2 321.4,275.8 322.2,275.2 322.7,274.5 323.5,272.7 324,271.7 325.2,270.2 326.1,269.4 326.9,268.7 329.6,267.2 
					330.6,266.8 332,266.5 333.1,266.4 335,266.6 337.9,267.1 338.5,267.4 339.2,267.5 339.9,267.6 340.8,267.4 343.9,266.4 
					347.9,265.4 349.2,265 351.1,264.1 355.4,262.8 363.6,259.5 364.6,259.2 365.2,259.2 365.9,259.3 366.9,259.4 373.9,261.7 
					377.5,261.2 384.1,258.4 				"/>
			</g>
			<g>
				<polygon class="st47" points="474.3,300 477.8,303.5 477.1,304.9 473.6,301.4 				"/>
			</g>
			<g>
				<path class="st48" d="M476.5,289.8l0.3,2.2l-0.1,1.9l-0.5,2.1l-1.6,4l-0.8,1.5l-1,0.1l-2.6,0.7l-1.2,0.2l-6.7-0.7l-2.3-0.8
					l-0.9-0.1l-0.5-0.2l-0.3-0.3l-0.5-0.9l-0.8-0.6l-1.7-2.4l-1.5-0.1l-0.4-0.3l-2.1-3.3l-2.9-3l-1-1.4l-1.2,0.9l-1.5,0.6l-3.8,0.6
					l-10.1-0.6l-6.3,0.7l-3-0.1l-0.9-0.4l-1.3-1.8l-0.6-0.4l0.3,1.7l-0.2,0.8l-1,0.4l-1.2-0.1l-1-0.3l-0.8-0.6l-0.9-0.3l-1.1-0.1
					l-16.5,0l-0.8,0.1l-1.3,0.6l-0.7,0.2l-5.2-0.1l-0.7,0.1l-0.6,0.2l-1.1,0.6l-0.5,0.1l-1.5-0.1l-2.7-0.6l-4.5-0.1l-1.2,0.3l-1,1.4
					l-1.4,0.5l-6.3,0.8l-3.6,0.1l-2.7,0.5l-1-0.1l-0.5-0.3l-3.2-4.3l-1.1-1l-1.7-0.5l-0.9,0l-2.1,0.4l-0.6,0.1l-0.9-0.4l-0.5-0.6
					l-0.4-0.6l-0.5-0.5l-0.3,0.6l-0.7,0.4l-1,0.2l-1.2,0l-0.8-0.2l-0.6-0.3l-0.4,0.1l-0.6,0.8l-0.3,0.8l-0.2,0.8l-0.3,0.7l-0.9,0.3
					l-1.2,0.1l-0.9,0.2l-0.7,0.3l-0.7,0.4l-1.3-0.8l-0.9,0l-1.1,0.3l-2.4,0.3l-1.3,0.6l-0.6,0.1l0.5-1.7l0.1-0.7l-0.2-3.6l-0.2-0.9
					l-0.2-0.5l-1.6,0.1l-0.4,0l-0.5-0.1l-1.1-0.4l-1.6-0.3l-0.9-0.5l-1.1-1l-0.9-1.2l-3.7-3.7l3.8-1.7l0.6-0.4l0.8-0.6l0.4-0.6
					l0.8-1.8l0.6-1l1.2-1.6l0.9-0.8l0.8-0.7l2.7-1.5l1-0.4l1.4-0.3l1.1-0.1l1.9,0.1l2.9,0.6l0.7,0.2l0.6,0.1l0.7,0l0.9-0.2l3-1
					l4.1-1l1.2-0.4l1.9-0.9l4.3-1.3l8.2-3.3l1.1-0.3l0.7,0l0.7,0.1l1,0.2l7,2.3l3.5-0.5l6.5-2.8l3.6-2.3l2.1,0.7l0.8,0.2l0.7-0.1
					l1.3-0.3l0.8-0.1l1,0.4l1.1-0.6l0.4-0.2l1.1,0l3.3,0.9l1.3-0.1l3.1-0.7l0.9,0.1l2.2,1.6l2.6,1l2.8,0.5l4,0.3l1.5,0.5l1.2,0.8
					l0.5,1.1l0.6,0.8l1.4,0.7l2.6,0.9l0.6,0.5l0.3,0.4l0.3,0.3l0.8,0.1l0.6,0.2l0.2,0.9l1.6,0.5l1.7,1.5l1.2,0.4l2.8-1.9l1.2-0.3
					l0.7-0.4l1.3-3l0.4-0.4l0.7-0.6l0.3-0.4l0-1.1l0.2-0.8l0.5-0.4l1.6,0l1,0.2l4.5,1.6l1.6,0.4l0.3,0.5l1.5,2.6l1.7,0.9l0.8,0.3
					l3.2,1.6l0.8,0.7l0.4,0.6l0.1,0.5l0,1.8l1.4,3.1l0.7,0.6l1,0.7l2.1,1.2l1.5,1.9l7.7,3.4l1.5,1.6l1.4,1.9L476.5,289.8z
					 M476.5,293.9l0.1-1.9l-0.3-2.1l-1-4l-1.3-1.9l-1.5-1.5l-7.7-3.4l-1.5-1.9L461,276l-1-0.8l-0.7-0.6l-1.5-3.2l0-1.8l-0.1-0.4
					l-0.4-0.6l-0.8-0.6l-3.2-1.6l-0.8-0.3l-1.7-1l-1.6-2.6l-1.8-0.7l-4.5-1.6L442,260l-1.5,0l-0.4,0.3l-0.2,0.7l0,1.1l-0.3,0.5
					l-0.8,0.6l-0.3,0.3l-1.4,3l-0.8,0.5l-1.2,0.3l-2.8,1.9l-1.4-0.4l-1.7-1.5l-1.7-0.5l-0.2-0.9l-0.5-0.2l-0.9-0.1l-0.5-0.3
					l-0.3-0.4l-0.5-0.4l-2.6-0.9l-1.4-0.7L420,262l-0.5-1l-1.2-0.7l-1.4-0.4l-4-0.3l-2.8-0.5l-2.7-1l-2.1-1.6l-0.8-0.1l-3.1,0.7
					l-1.4,0.1l-3.3-0.9l-0.9,0l-0.3,0.2l-0.6,0.6l-0.7,0.1l-0.7-0.3l-1.1,0l-1.3,0.3l-0.7,0.1l-0.9-0.2l-1.7-0.9l-3.8,2.5l-6.5,2.8
					l-3.6,0.5l-7.1-2.3l-1-0.2l-0.7-0.1h-0.6l-1,0.3l-8.2,3.3l-4.3,1.3l-1.9,0.9l-1.2,0.4l-4.1,1l-3,1l-1,0.2l-0.7,0l-0.6-0.1
					l-0.7-0.2l-2.9-0.6l-1.9-0.1l-1.1,0.1l-1.4,0.3l-1,0.4l-2.7,1.5l-0.8,0.6l-0.8,0.8l-1.2,1.5l-0.6,1l-0.8,1.8l-0.4,0.6l-0.8,0.7
					l-0.6,0.4l-3.6,1.4l3.6,3.6l0.9,1.2l1.1,0.9l0.8,0.4l1.6,0.3l1.1,0.4l0.5,0.1h0.4l0.4-0.1l1.7,0.6l0.2,0.9l0.2,3.6l-0.1,0.8
					l-0.6,1.3l1.7-0.6l2.5-0.4l1.1-0.3l1,0l1.1,0.8l0.6-0.4l0.8-0.3l0.9-0.2l1.1,0l0.8-0.2l0.3-0.6l0.1-0.8l0.3-0.9l0.7-0.9l0.6-0.1
					l0.7,0.3l0.8,0.2l1.2,0l0.9-0.1l0.5-0.4l0.3-0.8l0.9,0.6l0.4,0.7l0.4,0.5l0.8,0.4l0.6,0l2.1-0.4l1,0l1.8,0.6l1.2,1l3.2,4.3
					l0.4,0.3l0.9,0.1l2.7-0.5l3.6-0.1l6.3-0.8l1.2-0.4l1-1.4l1.3-0.4l4.6,0.1l2.8,0.6l1.5,0.1l0.4-0.1l1-0.5l0.6-0.2l0.7-0.1
					l5.2,0.1l0.6-0.1l1.3-0.6l0.8-0.2l16.5,0l1.2,0.1l1,0.3l0.8,0.6l0.9,0.3l1.1,0.1l0.9-0.3l0.1-0.7l-0.4-2l1.1,0.4l1.3,1.7
					l0.8,0.4l3,0.1l6.3-0.7l10,0.6l3.7-0.5l1.4-0.6l0.9-1l0.6,0l1.1,1.4l2.9,3l2,3l1.6,0.4l0.4,0.3l1.7,2.4l0.4,0.4l0.3,0.2l0.6,0.9
					l0.7,0.4l0.9,0.1l2.2,0.8l6.7,0.7l1.1-0.2l2.6-0.7l0.8-0.1l0.8-1.4l1.6-4L476.5,293.9"/>
			</g>
			<g>
				<polygon class="st6" points="474.6,300.1 478.1,303.6 477.2,305 473.8,301.5 				"/>
			</g>
			<g>
				<polygon class="st7" points="473.8,301.5 477.2,305 476.3,305.2 472.8,301.7 				"/>
			</g>
		</g>
	</g>
</g>
<path class="st1" d="M433.4,380.9l2.6,0.6l2.8-0.6l6.3-0.4l2.1-0.8l1.4,0l2.4-2.9l1.6,0.5l1.5,1.2l0.7,0.7l0.4,0.9l-0.1,0.7
	l-0.5,1.6l0.1,0.8l3.2,2.2l0.3,0.4l0.7,0.4l1.9,2.7l2.1,1.3l2.8,0.4l2.8-0.8l2.1-2.3l0.4-1.3l0.7-5.7l0.7-0.9l1.9-1.7l0.5-1.3
	l-0.3-2.6l1-2.2l-1.1-1.8l0.4-1.3l-0.7,0.1l-0.6-0.1l-0.4-0.4l-0.1-0.6l-0.1-0.4l-0.6-0.6l-0.1-0.3l0.1-0.3l0.8-0.9l-0.9-0.8
	l-4.2-1.4l-4.7-2.4l-2.3-0.8l-11.2-0.9l-1,0.1l-0.7,0.5l-0.8,1.5l-0.8,0.6l-0.9,0.3l-1.3,0.2l-1.2-0.1l-0.8-0.5l-1.5,0.3l-6,0.3
	l-0.2,0.3l-0.4,0.3l-0.5,0.1l-1.1-0.5l-0.4,0.2l-0.3,0.4l-0.4,0.3l-1.9,1.2l-0.9,0.2l-0.9-0.5l-1.2,0.5l-0.1,0.6l0.6,0.6l0.8,0.5
	l0.9,0.4l0.9,0.2l6,0.4l1,0.2l0.2,0.2l0.5,0.8l0.2,0.2l4.3,0.9l0,0.4l-1,0.9l-1.1,0.5l-1.1,0.3l-8.5,0.7l-3.3,1.1l-1.5,0.1l-1.2-0.5
	l-1.1-0.6l-1.8-0.5l-1.4-0.9l-0.9-0.2l-0.7,0.1l-0.5,0.3l-0.4,0.3l-0.4,0.2l-2.6,0.2l-4.8-1.2l-2.5,0.1l-2.8,0.4l-13.8,0.5l-1,0.3
	l-2.6,1.9l0.2,1.4l-0.5,2.1l-0.8,2.2l-0.9,1.4l-1.6,1.1l-1.3,0l-1.3-0.4l-1.6-0.3l-1.7,0.1l-1.3,0.3l-2.4,1.3l-2.6,0.8l-2.7-0.3
	l-2.8-0.7l-3.1-0.4h-5.9L356,383l-0.5-0.5l-0.7-0.9l-1.9-1.4l-0.2-0.9l-0.1-3.9l-0.3-0.1l-0.4-0.3l-0.6-0.3l-0.8-0.1l-0.6,0.1
	l-1.7,0.5l-0.5,0.3l-0.2,0.6l0.1,0.7l0,0.6l-0.5,0.3h-2.8l-1.4,0.2l-1,0.6l-3.3,3l-1.5,1.8l-3.8,5.6l-3.8,3l-1.8,2.1l-1,2.1l-0.7,1
	l-0.8,0.4l-1,0.4l-1.2,0.9l-1.1,1l-0.6,0.7l-0.5,1.2l-0.8,3l-0.3,2.4l-0.5,1.1l-2.5,3.6l-1.7,1.7l-2.2,1l-2.8-0.4l-0.7-0.5l-1.7-1.4
	l-0.7-0.3l-0.8,0.1l-1.3,0.3l-4.6,0.5l-1.5,0l-1.6-0.3l-0.8-0.3l-0.4-0.4l0.4-2.1l-0.2-0.3l-1.8,0.2l-4.6,1.1v0.4l-4.2,1.7l-1-0.6
	l-0.9-1.3l-0.7-1.5l-0.6-2.6l-0.8-1.3l-3.2-3.4l-0.5-0.8l0.1-0.9l0.5-1.6l0.1-0.8l0-0.6l0.1-0.5l0.5-0.6l0.3-0.6l-0.1-0.8l-0.3-0.7
	l-4.4-6l-0.7-1.5l-0.5-0.8l-0.9-0.3l-1.5-0.1l-0.7-0.2l-0.6-0.4l-0.8-1.3l-0.6-1.3l-0.9-1l-1.7-0.2l-1.3,0.6l-1.4,1.1l-1.5,0.7
	l-1.6-0.4l-3.2-2.1l-0.8-0.8l-10.6-14.8l-1.1-2.8l-1.1-6.2l-0.6-1.5l-0.1-0.7l0.2-0.7l0.6-1.3l0.1-0.7l-0.4-1.5l-1.9-2.3l-0.4-1.3
	l-1.5-8.3l-0.1-1.6l0.4-1.1l0.7-1.1l0.5-1.5l0.4-2.9l-0.2-1.6l0-0.7l0.4-0.6l2.3-1.8l0.9-1.2l0.6-1.5l0.7-2.9l0.3-2.9l0.4-1.3
	l0.9-1.3l0.3-0.5l0.5-2.3l0.3-0.6l1.7-2.3l3.9-4.1l4-5.5l2.9-2.9l1.7-1.2l0.7-0.6l0.8-0.9l0.9-0.8l1.1-0.3l1.2-0.2l5.3-2.5l1.1-0.3
	l12.1-0.1l1.3,0.4l2.2,2l1.4,0.7l0.6,0l1.2-0.4l0.8-0.1l0.6,0.2l0.3,0.5l0.2,0.5l0.3,0.2l2.1,0.3l0.5,0.2l0.3,0.4l0.3,1l0.3,0.4
	l1.1,0.6l1.1,0.1l4.3-0.5l2.2-1l1.2-0.1l1,0.4l1.9,1.5l1.1,0.3l2.5,0.4l0.6,0l0.8-0.3l0.4-0.4l0.7-1.1l1-1l1-0.5l1.1-0.2l1.4,0
	l1.4-0.3l2.7-1.1l1.7,0l0.7,0.3l1.6,0.9l0.7,0.2l0.2,0l0,0l0.6-1.5l0.1-0.8l-0.2-3.6l-0.2-0.9l-0.3-0.5l-0.3-0.1l-0.3,0l-0.3,0
	l-0.3,0.1l-0.4,0.1h-0.4l-0.5-0.1l-1.1-0.4l-1.6-0.3l-0.8-0.4l-1.1-1l-0.9-1.2l-3.8-3.8l3.7-1.5l0.6-0.4l0.8-0.6l0.4-0.6l0.8-1.9
	l0.6-1l1.2-1.5l0.8-0.8l0.8-0.7l2.7-1.5l1-0.4l1.4-0.3l1.1-0.1l1.9,0.1l2.9,0.6l0.7,0.2l0.6,0.1l0.7,0l1-0.2l3-1l4.1-1l1.2-0.5
	l1.9-0.9l4.3-1.3l8.2-3.3l1.1-0.3h0.6l0.7,0.1l1,0.2l7.1,2.3l3.6-0.5l6.5-2.8l3.6-2.3l0.2-0.3l-0.4-0.2l-0.9-0.3l-1.9-0.1l-4.2-1.5
	l-1.6-0.2l-1,0.3l-1.5,1.7l-1,0.6l-1.5,0.1l-1.4-0.5l-1-1l-0.9-2.9l-1.2-0.5l-20.2,2.4l-3,0l-2.7-0.7l-1.2-0.7l-3.3-2.4l-0.7-1
	l-0.2-0.6l-1.2-1.4l-0.3-0.8l-0.1-0.5l0-0.4l-0.1-0.6l-0.3-0.6l-0.6-0.9l-0.1-0.4l0.3-0.1l1.7-0.5l0.6-0.3l0.3-0.6l0-0.9l-0.2-0.8
	l-0.4-0.6l-0.9-0.4l-0.7,0.2l-1.3,1.1l-1.6,1l-1.2,0.4l-3,0l-1.3,0.2l-3.6,1.6l-5.6-2.7l-1.6-2l-1.7-0.8l-3.7-1.1l-1.3,0.3l-6.4-1.2
	l-1.2,0.2l-0.8,0.4l-1.3,1.4l-0.7,0.2l-0.2-0.8l0.2-1.9l-1.7,1.5l-0.7,0.3l-0.7,0l-1.5-0.2l-0.7,0.2l-0.9,1l-0.1,1.2l0.5,2.4
	l0.1,2.5l-0.1,1.1l-0.4,1.4l-0.2,0.1l-0.5,0.6l-0.5,0.7v0.3l-0.2,0.3l-0.1,0.7l0.3,4l-0.1,1l-0.6,1l-0.6,0.4l-1.4,0.4l-0.6,0.3
	l-0.5,0.6l-0.5,1.4l-0.4,0.6l-0.8,0.2l-0.8-0.4l-0.8-0.6l-0.6-0.2l-0.5,0.3l-1.4,1.5l-3,4.5l-1.1,2.7l0.8,1.5l-2,2.2l-1.1,1
	l-0.8,0.1l-1.1-1l-0.9-0.6l-1.1-0.3l-1.6-0.1l-0.4,0.2l-0.4,0.5l-0.5,0.3l-1.1-0.5l-2.1-0.4l-1.3-0.6l-1.1-0.8l-0.8-0.9l-0.5-1.1
	H264l-1.1,0.7l-0.4-1.1l0-2.9l0.5-2.9l-0.3-1.3l-1.5-0.8l-2.8,0.1l-1.5,1.6l-0.6,2.3l-0.8,6.5l-0.6,1.1l-1.4,1.1L252,273l-4.5,1.9
	l-0.7,0.2l-0.9,0.1l-1.7,0.4l-0.6,0.1l-1.2,0.5l-0.8,1.3l-0.5,1.6l-0.2,1.4l0.3,2.5l0.7,2.6l0.3,2.4l-0.9,2.2l-1.4,0.7l-3.3,0.2
	l-1.2,0.5l-0.7,0.4l-0.8,0.4l-0.8,0.5l-0.7,0.8l-0.2,0.6l-0.1,1.3l-0.2,0.7l-0.8,1.3l-1.7,2.3l-0.3,1.4l0.4,1.5l0.6,1.1l0.1,1
	l-1.1,1.1l-4.1,1.3l-0.6,0.7l0,1.2l0.2,0.8l0.4,0.8l5.2,5.8l1.3,2.2l-0.7,1.7l-1.4,5.5l-0.7,1.3l-1,1.5l-0.5,0.4l-0.7,0l-1.2-0.3
	l-1.4-0.6l-0.9-0.8l-1.5-2.1l-1.9-2.1l-1.2-1l-1.6-0.9l-0.3,0.4l-0.2,0.5l-0.1,0.6l0,0.7l-0.6-0.1l-0.6-0.2l-1.1-0.6l-0.5,1.8
	l0.8,2.1l1.3,1.9l1.2,1.2l1.7,0.9l2.1,0.5l2.2-0.1l2-0.8l0.5,1.1l0.4,1.9l0.1,1.8l-0.4,0.8l-0.8,0.8l-0.6,2l-1.6,14.8l0.3,1.3
	l0.9,2.1l0.2,0.8l0.3,2.2l0.7,2.4l1.6,3l0.2,0.8l0.3,0.6l1.6,1.7l0.5,1l0.1,0.7l-0.1,2.2l0.1,0.5l0.6,0.9l0.1,0.3l-0.1,1.6l-0.2,1.3
	l-1.1,2.6l-1.5-1l-1-1.6l-1.2-3.6l-2.5-4.8l-0.4-1.6l-1-2.4l-0.1-0.5l-0.6,0.3L219,366l-0.8,0.8l-1.5,0.7l-0.7,0.4l-0.3,0.6l0.2,0.4
	l1.6,1.6l-3.3,2.7l-2.1,0.8l-0.3,0.3l-0.8,1.5l-0.9,0.6l-0.5,0.3l0,0l0,0.2l0.4,2.7l-0.4,7.4l0.1,2.1l0.3,1.6l1.6,4.3l0.4,2
	l-0.2,1.1l-0.7,1l-4.3,2.5l-1,0.9l-0.9,1.2l-0.8,2.1l0,1.5l0.5,1.2l0.9,0.7l1.2,0.6l8,2.9l1,0.6l1,0.9l0.8,1.1l0.7,1.8l1,6.7
	l0.5,1.7l0.7,1.3l3,3.6l1.8,1.7l1.9,2.1l1.1,1.8l0.4,1.2l0.1,1.1l-0.6,1.8l-1.1,3.4l-0.1,1l0,1.4l0.3,1l0.6,0.9l0.7,0.6l0.6,0.3
	l1.2,0.1l2.4-1.1l3.9-2.3l5.7-2.6l1.4-0.4l2.2-0.1l3.8,0.5l9.3,2.6l2.1,0.2l1.4-0.2l0.5-0.5l0.3-0.6l0.6-1.4l0.5-0.7l0.7-0.6
	l1.5-0.2l1.5,0.6l1.4,1.2l7.2,10.2l2.4,2.7l2.5,2.4l9.5,7.3l2.8,1.4l37.3,7.1l3.3,1l3.4,1.6l1.5,0.9l1.2,1l3.9,4.2l4.2,3.5l2,1.3
	l7.1,3.3l1.5,1.1l0.9,1.2l0.7,1.5l0.4,1.6l0.2,1.4l-0.1,1.3l-0.2,1.3l-0.5,1.2l-0.9,1.5l-10.7,10.2l-1.2,0.8l4.9,0.6l7.6,0.2
	l2.4,0.6l16.5,6.2l1.4,0.1l3.9-0.3l1.2,0.1l1.1,0.2l1.2,0.4l1.3,0.7l5.8,4.3l3.2,3.7l0,0l1.3-1.3l1.7,1.3l0.2-0.2l0.3-0.2l0.4-0.1
	l0.5,0.1l0.7,0.4l0.4,0.3l-0.2,0.1l0.9,0l0.3-0.2l0-0.5l0.2-1.1l0-0.4l-0.1-1l0.1-0.4l0.4-0.3l1.1-0.3l0.4-0.2l0.5-1l0.1-0.7
	l-0.4-0.2l-0.7,0.5l-0.8-0.5l-0.5-0.6l-0.3-0.7l-0.2-0.9l-0.7,0.3l-0.9,0.5l-0.9,0.4l-0.6-0.1l-4.9-4.6l-1.8-1l-0.5-0.3l-0.6-2.4
	l1.6-2.4l1.2-2.4l-1.7-2.4l-1.4-0.6l-1.4-0.3l-2.6,0l-1-0.6l-0.5-1.3l-0.3-1.5l-0.3-1l-0.5-0.4l-0.6-0.2l-0.5-0.3l-0.2-0.7l-0.3-0.3
	l-0.6-0.2l-2.6-0.3l-1-0.4l-1.6-1.2l-3-3.3l-0.2-0.8l0.4-2.9l0-1.3l-0.7-1.4l-2.1-2.5l-0.8-2.3l-2.4-3.5L368,478l-0.5-0.9l-0.2-1.2
	l-0.5-1.4l-1.2-2.4l-1.7-2.2l-3.8-2.9l-1.9-2l-2.6-2l-2.8-0.2l-2.9,0.1l-2.9-1l-1.3-1.8l-1.3-4.8l-1.6-1.7l-1.4,0.2l-0.9-1l-0.8-1.2
	l-2.1-1.3l-1.5-3.4l-0.9-1.2l-0.9,0.5l-0.4,0.8l-0.2,0.9l-0.3,0.9l-0.4,0.6l-0.5,0.6l-0.7,0.5l-0.7,0.5v-2.9l-0.2-0.6l-0.6-0.6
	l-0.1-0.6l0.3-1.4l0.6-1.4l0.4-1.3l-0.3-1l-2.5,0.5l-0.6-1.9l1.1-2.2l2.4-0.3l0.5,0.4l0.7,1.1l0.5,0.2h3.1l1.7,0.5l0.3,0.8l0,1
	l0.8,1.2l2.4,0.7l0.3,0.1l0.7,0.2l0.5,0.4l1.3,1.6l0.3,0.5l0.4,0.4l0.9,0.4l0.7,0.1l4.5-0.2l2.3-0.4l2.1-0.8l1.8-1.3l1.4-1.7
	l1.1-1.8l1.7-4l0.7-2.3l0.6-1.2l0.8-0.5l0.7-0.2l0.8-0.4l1.1-0.8l0.6-0.1l0.4-1.2l2.7,0.4l1.2-0.2l1.6-0.7l0.8,0.1l1.3-0.5l2.2-1.3
	l0.3-0.3l0.3-0.4l0.3-0.4l0.5-0.2l0.7,0l1.2,0.4l0.7,0.1l1.4-0.3l2.8-1.2l1.3-0.2l1.1,0.4l0.8,0.6l0.8,0.3l1.1-0.6l2.2-1.9l5-3.2
	l4.3-2l0.9-0.9l1.6-2.1l4.9-4.2l0.3-0.4l0.9-1.4l0.2-0.6l0.3-0.6l0.6-0.5l1.2-0.7l2.9-4l1.1-1l2.6-1.2l0.8-0.8l0.7-3l0.9-1.1l2-1.4
	l0.7-0.3l0.8-0.2l0.6-0.3l0.3-0.8l0-0.6l0.1-0.6l0.2-0.5l0.4-0.5l1.7-1.8l0.6-0.9l2.9-6.1L433.4,380.9z M284.9,256.4l1.1-0.1l-1-1.1
	l-0.6-0.4l-0.7-0.3l-0.7-0.3l-0.7-0.1l-0.7,0.1l-0.7,0.3l1.7,0.3L284.9,256.4z M265.1,257.6l0.6-0.1l0.5-0.3l0.4-0.4l0.3-0.5l0.2-1
	l-0.3-1l-0.7-0.6l-1,0.4l-0.4,0.8l-0.3,1.2l0.1,1.1L265.1,257.6z M367.4,355.7l0.3,0.3l1.1-0.2l0.8-0.6l0.5-0.8l0.2-1.1l-0.4-0.6
	l-0.6-1.5l-0.4-0.6L366,349l-2.2,0.4l-1.5,0.9l-1.4,0.3l-1.8-1.5l-0.8,1.8l-0.5,0.4l-2.2,0.9l-0.8,0.5l-0.7,0.7l-2,2.8l-0.6,1.2
	l0,0.9l0.8,0.4l1.2-0.1l1.2-0.5l0.8-0.5l1.7-3.3l0.7-0.2l0.8,0.2l3,0.4l0.8,0.2l1,0.9l1,0.2l0.9-0.2l0.1-0.5l-0.8-1.5l0.9,0.4
	L367.4,355.7z M350.9,331.3h-2.4l-1.9,1.3l0.4,2.4l1.8,1.3l1.7-0.3l1.2-1.4l0.5-1.9L350.9,331.3z M373.6,349.8l1.4-0.8l1.5,0.6
	l1.4-0.2l1.1-0.9l0.7-1.3l0.1-1.2l-0.2-0.8l-0.5-0.5l-1-0.2l-1.1,0l-0.6-0.1l-1.8-0.8l-0.8-0.2l-2.7-0.2l-0.3,0.3l0.1,1.2l-0.1,0.3
	l-0.5,0l-0.5-0.2l-0.3-0.2l-0.1-0.1l-1.4-0.1l-0.7,0.2l-0.3,0.7l-0.2,0.9l-0.3,0.6l0,0.7l1,1.1l1.6,0.8l2.3,0.5L373.6,349.8z
	 M392.8,337.6l1,1.1l0.4,0.2l0.5,0l1-0.4l0.3,0l1.9,1.3l2.2,4.1l1.5,1.6l0.5-0.4l-0.5-0.9l-0.5-1.4l-0.2-1.4l0.3-1.2l-0.7-0.9
	l-1-0.7l-1.2-0.5l-2.8-0.8L395,337l-0.3-0.5l-0.4-0.1l-1.8-0.6l-0.6-0.4l-0.4,0.7l0.2,0.5L392.8,337.6z M412.4,355.3l0.8,0.2
	l0.6,0.4l0.6,0.2l0.8-0.5l0.1-0.2l1.5-0.1l0.7-0.2l0.3-0.2l-0.6-0.9l-0.5-0.2l-0.6,0.1l-0.4,0.2h-1.1l-0.5,0.3l-2.1,0.3l-0.3,0.5
	l0.4,0.3L412.4,355.3z M385.4,345.5l-0.4-0.6l-1.8-1.1l-0.3-0.4l-0.5-3.3l-1.2,0.3l-0.8,1.7l-0.4,2.1l0,1.6l0.7,2.8l1,0.6l0.3-0.4
	l0.1-0.8l0.3-0.5l0.9,0.1l0.5,0.4l0.6,0.2l1.1-0.5l0.4-0.7l-0.1-0.9L385.4,345.5z M388.1,338l0.9-1.6l-0.9-0.6l-1.3,1l-1,1.4
	l0.1,0.7l1.2,0.3l2.4,1.2l0.8-0.3h0.4l0.4,0.4l0.5,0.3l0.4-0.1l0.2-0.6l-0.2-0.4l-1-0.5l-0.2-0.2l-0.3-0.6l-0.7-0.3L389,338
	L388.1,338z M515,442.6l-1.2-2.3l-0.4-0.2l0.2-0.5l-0.4-0.3l-0.7,0.5v1.1l1.1,2.3l0.8,1l0.8,0.1l0-0.6L515,442.6z M489.3,445.2h-0.5
	v2.1l0.1,1l0.4,0.9h0.5l0-0.9l-0.5-2.5V445.2z M502.4,451.2l0.6-0.2l0.9,0.4l-0.3-0.6l-0.5-2.5l-0.3-0.7l-0.5-0.6l-3.9-3.5l-1.1,1.4
	l0.1,1.7l1,3.7l0.5,0.7l1,0.5l1.6,0.3l0.6-0.2L502.4,451.2z M494.9,445.6l-0.8-0.5l-0.9,0.8l-0.5,1.4l0.4,1.5l2-1.1l0.4-0.3l0-0.4
	l-0.5-0.8L494.9,445.6z M504.5,453.6l-0.2-0.9l-0.6-0.8l-0.5,0.3l-1,1.6l-0.4,0.9l0.7,0.4l1,0l0.3-0.1l0.8,1l0.4,0.3l0.2-0.7
	l-0.1-0.8L504.5,453.6z M454.2,437.1l-0.7-0.7l-0.1-0.3l-0.9-0.5l-1.1-0.3l-0.5,0.4l-0.1,0.8l-0.2,0.8l-1.1,2.5l-0.3,1.4l-0.2,3.3
	l0.4,0.6l0.8,0l0.8-0.4l0.4-0.7l0.3-0.9l0.7-0.9l0.9-0.7l0.8-0.4l0.7-1l-0.1-1.6L454.2,437.1z M470.1,430.9l-0.7-0.4l-0.3,0
	l-0.3,0.1l-1.8,1.2l-3.5,3.4l-0.6,1.4l0.6,1.1l1.4,0.2l1.1-0.9l1.6-2.3l0.6-0.5l1.3-0.7l0.6-0.5l0.3-0.7l-0.1-0.8L470.1,430.9z
	 M463.2,401l0,0.7l1.3,3.7l0.5,0.2l0.5-0.8l0.8-5.1l-0.6-0.6l-1.4,0.8L463.2,401z M485.5,426l-0.7-0.3l-0.6,0.3l-0.9-0.1l-0.8-1.3
	l-0.1-1.1l0.2-0.5l0.1-0.6l-1.1-3.1l-0.5-0.8l-0.6-0.3l-0.4,0.2l0.1,1l-0.3,0.4l-0.6,0.1l-0.7,0.2l-0.7,1l-0.6,1.3l-0.3,0.8
	l-0.1,0.3l0,0.5l0.2,0.4l0.4,0.2l0.4,0.3l0.1,0.7l-0.3,0.5l-0.4,0.5l-0.1,0.3l-0.2,0.3l0,1l-0.2,0.9l0.2,1.3l0.5,1.6l0.2,0.4
	l0.4,0.6l0.7,0.2l0.6-0.2l0.2-0.4l0.5,0.2l0.8,0.7l0.8,0.3l0.6-0.1l0.7,0.1l0.7-0.1l0.3-0.2l0.5-0.2l1-0.7l0.5-0.9l0-0.9l0.4-1.4
	l0.1-0.8l0-1l-0.4-0.8L485.5,426z M480.5,415.1l0.3-0.7l0.1-0.6l-0.1-2l0.3-1.3l0.9-2.3l0.1-1.3l-0.2-1.2l-0.8-0.8l-1.2-0.4
	l-1.3-0.1l-1.1-0.3l-1.5-1.5l-0.7-0.3l-0.9,0.4l-0.4,0.8l-0.5,0.5l-1-0.6l-0.2-0.5l-0.1-0.7l-0.2-0.6l-0.5,0.1l-0.5,0.2l-0.6,0
	l-1.2-0.1l-0.9,0.4l-0.5,0.9l-0.6,1.9l-1,1.3l-0.3,0.3l-0.8,0.4L465,407l-2,3.1l-1.1,1.4l-1.6,1.1l-0.3-1l0-2l-0.2-1l-0.4-0.5
	l-0.7-0.5l-0.6-0.6l-0.3-0.8l0.1-1.7l0.2-0.8l0.4-0.3l1-0.2l0.6-0.4l0.5-0.6l0.6-0.6l-3.1-4.4l-0.5-0.2l-0.3-0.4l-0.5-0.2l-0.9,0.4
	l-0.4,0.6l-0.1,0.7l-0.3,0.6l-0.9,0.3l-0.9-0.2l-0.6-0.5l-0.5-0.4l-0.4-0.2h-2.6l-3,0.4l-0.9,0.2l-1.4,1.1l-0.8,0.4l-0.9-0.1
	l-2.4-0.9l-1.5-0.2l-1,0.5l-4.3,5.7l-1,2.5l-0.7,2.8l-0.2,2.8l0.3,2.7l4.2,9l1.5,0.3l1.6-1l5-4.2l1.4-1.5l1.3-1.9l0.8-2l0.6-1
	l0.7-0.4l0.5-0.5l1.5-3.1l0.9-0.5l1.1-0.4l0.9-0.5l0.6-1.6l0.5,0l0.5,0.4l0.3,0.4l0.1,0.6l-0.1,2l1.5,8.5l-0.5,2.1l-3.2,1.9
	l-0.8,0.3L452,423l-0.2,0.6l0.1,0.7l0.4,0.6l0.5,0.3l2.2,0.6l0.5,0.6l0.4,0.6l0.6,0.2l2.5-1.7l0.8-0.1l0.3,0.7l0.2,1.5l0.5,0.3
	l0.5-0.6l0.1-1.4l-0.2-5.8l0.6-2.9l1.5-2.4l0.6-0.5l0.5-0.3l0.6-0.1l0.8,0l0.6,0.3l0.1,0.8l0,0.8l0.3,0.3l1.3,0.4l0.5,1l0.3,2.5
	l1.3-0.8l1.9,1.2l1.3-0.5l0.6-0.3l1.2-0.3l0.6-0.3l2.8-2.2L480.5,415.1z"/>
</svg>
