<?xml version="1.0" encoding="utf-8"?>
<!-- Generator: Adobe Illustrator 22.1.0, SVG Export Plug-In . SVG Version: 6.00 Build 0)  -->
<svg version="1.1" id="Layer_1" xmlns="http://www.w3.org/2000/svg" xmlns:xlink="http://www.w3.org/1999/xlink" x="0px" y="0px"
	 viewBox="0 0 800 800" style="enable-background:new 0 0 800 800;" xml:space="preserve">
<style type="text/css">
	.st0{enable-background:new    ;}
	.st1{fill:#7E7E7E;}
	.st2{fill:#8A8A8A;}
	.st3{fill:#7D7D7D;}
	.st4{fill:#919191;}
	.st5{fill:#878787;}
	.st6{fill:#828282;}
	.st7{fill:#8B8B8B;}
	.st8{fill:#1C59A0;}
	.st9{fill:#9E9E9E;}
	.st10{fill:#949494;}
	.st11{fill:#8C8C8C;}
	.st12{fill:#818181;}
	.st13{fill:#858585;}
	.st14{fill:#838383;}
	.st15{fill:#939393;}
	.st16{fill:#898989;}
	.st17{fill:#1B569A;}
	.st18{fill:#979797;}
	.st19{fill:#989898;}
	.st20{fill:#1C579D;}
	.st21{fill:#9A9A9A;}
	.st22{fill:#9D9D9D;}
	.st23{fill:#A0A0A0;}
	.st24{fill:#808080;}
	.st25{fill:#1D5BA3;}
	.st26{fill:#174880;}
	.st27{fill:#184A85;}
	.st28{fill:#1D5AA1;}
	.st29{fill:#1B5396;}
	.st30{fill:#19508F;}
	.st31{fill:#17477F;}
	.st32{fill:#184B87;}
	.st33{fill:#8D8D8D;}
	.st34{fill:#9C9C9C;}
	.st35{fill:#1C579C;}
	.st36{fill:#929292;}
	.st37{fill:#888888;}
	.st38{fill:#9B9B9B;}
	.st39{fill:#9F9F9F;}
	.st40{fill:#A1A1A1;}
	.st41{fill:#848484;}
	.st42{fill:#1C599F;}
	.st43{fill:#8F8F8F;}
	.st44{fill:#1D5AA2;}
	.st45{fill:#909090;}
	.st46{fill:#999999;}
	.st47{fill:#7F7F7F;}
	.st48{fill:#8E8E8E;}
	.st49{fill:#1C589D;}
	.st50{fill:#1A5191;}
	.st51{fill:#1B5599;}
	.st52{fill:#174780;}
	.st53{fill:#1A5294;}
	.st54{fill:#184D89;}
	.st55{fill:#174A84;}
	.st56{fill:#1B5395;}
	.st57{fill:#969696;}
	.st58{fill:#1A5394;}
	.st59{fill:#194D8B;}
	.st60{fill:#1D5BA2;}
	.st61{fill:#1B5598;}
	.st62{fill:#959595;}
	.st63{fill:#1C589F;}
	.st64{fill:#1A5293;}
	.st65{fill:#1C569B;}
	.st66{fill:#1C589E;}
	.st67{fill:#1A5192;}
	.st68{fill:#184C89;}
	.st69{fill:#1B5496;}
	.st70{fill:#174881;}
	.st71{fill:#868686;}
	.st72{fill:#D7D7D7;}
	.st73{fill:#277ADA;}
	.st74{fill:#BFC0C2;stroke:#F9F9F9;stroke-width:0.25;stroke-linecap:round;stroke-linejoin:round;}
	
		.st75{fill-rule:evenodd;clip-rule:evenodd;fill:#BFC0C2;stroke:#F9F9F9;stroke-width:0.25;stroke-linecap:round;stroke-linejoin:round;}
</style>
<g>
	<g>
		<g class="st0">
			<g>
				<polygon class="st1" points="206.3,376.3 209.8,379.8 209,380.5 205.5,377 				"/>
			</g>
			<g>
				<polygon class="st2" points="205.5,377 209,380.5 208.5,381.5 205,378 				"/>
			</g>
			<g>
				<polygon class="st3" points="208.1,375.4 211.6,378.9 209.8,379.8 206.3,376.3 				"/>
			</g>
			<g>
				<polygon class="st4" points="205,378 208.5,381.5 207.8,384.1 204.4,380.6 				"/>
			</g>
			<g>
				<polygon class="st5" points="204.4,380.6 207.8,384.1 207.3,385 203.8,381.5 				"/>
			</g>
			<g>
				<polygon class="st6" points="203.8,381.5 207.3,385 206.5,385.9 203.1,382.4 				"/>
			</g>
			<g>
				<polygon class="st7" points="203.1,382.4 206.5,385.9 206,387 202.6,383.5 				"/>
			</g>
			<g>
				<polygon class="st8" points="208.1,375.4 211.6,378.9 212,381.5 208.5,378 				"/>
			</g>
			<g>
				<polygon class="st9" points="208.1,375.1 211.6,378.6 212.2,381.5 208.7,378 				"/>
			</g>
			<g>
				<polygon class="st10" points="202.6,383.5 206,387 205.5,390.7 202,387.2 				"/>
			</g>
			<g>
				<polygon class="st11" points="202,387.2 205.5,390.7 204.5,393 201,389.5 				"/>
			</g>
			<g>
				<polygon class="st12" points="196.8,394.5 200.3,397.9 199.6,398.7 196.1,395.2 				"/>
			</g>
			<g>
				<polygon class="st12" points="193.5,398 196.9,401.5 195.4,403.1 192,399.6 				"/>
			</g>
			<g>
				<polygon class="st13" points="196.1,395.2 199.6,398.7 199.1,399.5 195.6,396 				"/>
			</g>
			<g>
				<polygon class="st1" points="195.1,396.7 198.5,400.2 196.9,401.5 193.5,398 				"/>
			</g>
			<g>
				<polygon class="st14" points="195.6,396 199.1,399.5 198.5,400.2 195.1,396.7 				"/>
			</g>
			<g>
				<polygon class="st3" points="197.6,394.2 201.1,397.6 200.3,397.9 196.8,394.5 				"/>
			</g>
			<g>
				<polygon class="st15" points="201,389.5 204.5,393 204,395.5 200.5,392 				"/>
			</g>
			<g>
				<polygon class="st16" points="192,399.6 195.4,403.1 194.4,405 191,401.6 				"/>
			</g>
			<g>
				<polygon class="st3" points="198.8,393.9 202.3,397.4 201.1,397.6 197.6,394.2 				"/>
			</g>
			<g>
				<polygon class="st5" points="200.5,392 204,395.5 203.3,396.6 199.9,393.1 				"/>
			</g>
			<g>
				<polygon class="st3" points="199.9,393.1 203.3,396.6 202.3,397.4 198.8,393.9 				"/>
			</g>
			<g>
				<polygon class="st17" points="208.5,378 212,381.5 211.6,388.9 208.1,385.4 				"/>
			</g>
			<g>
				<polygon class="st18" points="208.7,378 212.2,381.5 211.8,388.9 208.3,385.4 				"/>
			</g>
			<g>
				<polygon class="st19" points="191,401.6 194.4,405 194.4,407.5 190.9,404 				"/>
			</g>
			<g>
				<polygon class="st20" points="208.1,385.4 211.6,388.9 211.6,391.1 208.2,387.6 				"/>
			</g>
			<g>
				<polygon class="st21" points="208.3,385.4 211.8,388.9 211.9,391 208.4,387.5 				"/>
			</g>
			<g>
				<polygon class="st8" points="208.2,387.6 211.6,391.1 211.9,392.6 208.4,389.2 				"/>
			</g>
			<g>
				<polygon class="st22" points="208.4,387.5 211.9,391 212.1,392.6 208.7,389.1 				"/>
			</g>
			<g>
				<polygon class="st23" points="190.9,404 194.4,407.5 195.6,410.4 192.1,406.9 				"/>
			</g>
			<g>
				<polygon class="st22" points="192.1,406.9 195.6,410.4 195.8,411.7 192.3,408.2 				"/>
			</g>
			<g>
				<polygon class="st24" points="190.3,410.2 193.8,413.7 193.4,414.2 189.9,410.7 				"/>
			</g>
			<g>
				<polygon class="st1" points="191.9,408.9 195.4,412.4 193.8,413.7 190.3,410.2 				"/>
			</g>
			<g>
				<polygon class="st2" points="192.3,408.2 195.8,411.7 195.4,412.4 191.9,408.9 				"/>
			</g>
			<g>
				<polygon class="st11" points="189.9,410.7 193.4,414.2 193.1,414.9 189.6,411.4 				"/>
			</g>
			<g>
				<polygon class="st25" points="208.4,389.2 211.9,392.6 213.5,397 210,393.5 				"/>
			</g>
			<g>
				<polygon class="st23" points="208.7,389.1 212.1,392.6 213.7,396.9 210.2,393.4 				"/>
			</g>
			<g>
				<polygon class="st26" points="205.3,400 208.8,403.5 207.7,404.4 204.3,400.9 				"/>
			</g>
			<g>
				<polygon class="st27" points="204.3,400.9 207.7,404.4 206.8,405.6 203.4,402.1 				"/>
			</g>
			<g>
				<polygon class="st1" points="205.4,400.2 208.9,403.7 207.9,404.5 204.4,401.1 				"/>
			</g>
			<g>
				<polygon class="st14" points="204.4,401.1 207.9,404.5 207,405.7 203.6,402.2 				"/>
			</g>
			<g>
				<polygon class="st28" points="210,393.5 213.5,397 213.9,398.9 210.4,395.5 				"/>
			</g>
			<g>
				<polygon class="st9" points="210.2,393.4 213.7,396.9 214.1,398.9 210.7,395.4 				"/>
			</g>
			<g>
				<polygon class="st29" points="210.4,395.5 213.9,398.9 213.7,400 210.2,396.6 				"/>
			</g>
			<g>
				<polygon class="st30" points="203.4,402.1 206.8,405.6 206,407.7 202.5,404.2 				"/>
			</g>
			<g>
				<polygon class="st31" points="209.5,397.5 213,401 208.8,403.5 205.3,400 				"/>
			</g>
			<g>
				<polygon class="st32" points="210.2,396.6 213.7,400 213,401 209.5,397.5 				"/>
			</g>
			<g>
				<polygon class="st15" points="210.7,395.4 214.1,398.9 213.9,400.1 210.4,396.6 				"/>
			</g>
			<g>
				<polygon class="st33" points="203.6,402.2 207,405.7 206.3,407.8 202.8,404.3 				"/>
			</g>
			<g>
				<polygon class="st13" points="210.4,396.6 213.9,400.1 213.2,401.1 209.7,397.6 				"/>
			</g>
			<g>
				<polygon class="st3" points="209.7,397.6 213.2,401.1 208.9,403.7 205.4,400.2 				"/>
			</g>
			<g>
				<polygon class="st34" points="189.6,411.4 193.1,414.9 193.6,420.8 190.1,417.4 				"/>
			</g>
			<g>
				<polygon class="st35" points="202.5,404.2 206,407.7 206,409.2 202.5,405.7 				"/>
			</g>
			<g>
				<polygon class="st21" points="202.8,404.3 206.3,407.8 206.3,409.2 202.8,405.7 				"/>
			</g>
			<g>
				<polygon class="st23" points="190.1,417.4 193.6,420.8 194,421.5 190.6,418 				"/>
			</g>
			<g>
				<polygon class="st25" points="202.5,405.7 206,409.2 206.5,410.4 203,406.9 				"/>
			</g>
			<g>
				<polygon class="st23" points="202.8,405.7 206.3,409.2 206.7,410.3 203.3,406.8 				"/>
			</g>
			<g>
				<polygon class="st3" points="204,407.7 207.5,411.2 206.6,410.5 203.1,407 				"/>
			</g>
			<g>
				<polygon class="st3" points="205.2,408.3 208.7,411.7 207.5,411.2 204,407.7 				"/>
			</g>
			<g>
				<polygon class="st23" points="190.6,418 194,421.5 195.7,425.9 192.2,422.4 				"/>
			</g>
			<g>
				<polygon class="st36" points="192.2,422.4 195.7,425.9 195.4,427.3 191.9,423.8 				"/>
			</g>
			<g>
				<polygon class="st37" points="191.9,423.8 195.4,427.3 194.1,429.6 190.6,426.2 				"/>
			</g>
			<g>
				<polygon class="st36" points="190.6,426.2 194.1,429.6 193.8,431 190.3,427.5 				"/>
			</g>
			<g>
				<polygon class="st38" points="190.3,427.5 193.8,431 194,433.7 190.5,430.2 				"/>
			</g>
			<g>
				<polygon class="st3" points="213.1,411.1 216.6,414.6 208.7,411.7 205.2,408.3 				"/>
			</g>
			<g>
				<polygon class="st3" points="214.1,411.7 217.6,415.2 216.6,414.6 213.1,411.1 				"/>
			</g>
			<g>
				<polygon class="st3" points="215,412.5 218.5,416 217.6,415.2 214.1,411.7 				"/>
			</g>
			<g>
				<polygon class="st39" points="190.5,430.2 194,433.7 195.3,439.2 191.8,435.7 				"/>
			</g>
			<g>
				<polygon class="st40" points="191.8,435.7 195.3,439.2 195.8,440.3 192.3,436.8 				"/>
			</g>
			<g>
				<polygon class="st25" points="215,412.5 218.5,416 219.3,417.1 215.8,413.6 				"/>
			</g>
			<g>
				<polygon class="st23" points="215.2,412.4 218.7,415.8 219.5,417 216,413.5 				"/>
			</g>
			<g>
				<polygon class="st39" points="192.3,436.8 195.8,440.3 196.7,441.4 193.2,437.9 				"/>
			</g>
			<g>
				<polygon class="st25" points="215.8,413.6 219.3,417.1 220,418.8 216.5,415.3 				"/>
			</g>
			<g>
				<polygon class="st40" points="216,413.5 219.5,417 220.2,418.7 216.7,415.3 				"/>
			</g>
			<g>
				<polygon class="st23" points="193.9,438.4 197.4,441.9 197.9,443.5 194.4,440 				"/>
			</g>
			<g>
				<polygon class="st3" points="194.2,439.1 197.7,442.6 196.6,441.6 193.1,438.1 				"/>
			</g>
			<g>
				<polygon class="st31" points="194.4,439.1 197.9,442.6 196.7,441.4 193.2,437.9 				"/>
			</g>
			<g>
				<polygon class="st41" points="185.3,448.7 188.8,452.2 187.5,454 184.1,450.5 				"/>
			</g>
			<g>
				<polygon class="st3" points="187.3,447.5 190.8,451 188.8,452.2 185.3,448.7 				"/>
			</g>
			<g>
				<polygon class="st3" points="188.8,447.2 192.3,450.7 190.8,451 187.3,447.5 				"/>
			</g>
			<g>
				<polygon class="st3" points="189.9,447.4 193.4,450.9 192.3,450.7 188.8,447.2 				"/>
			</g>
			<g>
				<polygon class="st3" points="191,447.8 194.4,451.3 193.4,450.9 189.9,447.4 				"/>
			</g>
			<g>
				<polygon class="st10" points="194.4,440 197.9,443.5 197,449.1 193.5,445.6 				"/>
			</g>
			<g>
				<polygon class="st42" points="216.5,415.3 220,418.8 220.9,425.5 217.4,422 				"/>
			</g>
			<g>
				<polygon class="st43" points="184.1,450.5 187.5,454 185.4,461 182,457.5 				"/>
			</g>
			<g>
				<polygon class="st22" points="216.7,415.3 220.2,418.7 221.2,425.4 217.7,421.9 				"/>
			</g>
			<g>
				<polygon class="st3" points="192.3,448 195.7,451.4 194.4,451.3 191,447.8 				"/>
			</g>
			<g>
				<polygon class="st43" points="193.5,445.6 197,449.1 196.5,450.7 193,447.2 				"/>
			</g>
			<g>
				<polygon class="st24" points="193,447.2 196.5,450.7 195.7,451.4 192.3,448 				"/>
			</g>
			<g>
				<polygon class="st37" points="182,457.5 185.4,461 184.4,462.9 181,459.4 				"/>
			</g>
			<g>
				<polygon class="st41" points="181,459.4 184.4,462.9 181.9,466.3 178.4,462.8 				"/>
			</g>
			<g>
				<polygon class="st44" points="217.4,422 220.9,425.5 221.5,427.2 218,423.7 				"/>
			</g>
			<g>
				<polygon class="st23" points="217.7,421.9 221.2,425.4 221.7,427.1 218.2,423.6 				"/>
			</g>
			<g>
				<polygon class="st23" points="178.4,462.8 181.9,466.3 182.4,467.1 178.9,463.6 				"/>
			</g>
			<g>
				<polygon class="st36" points="178.9,463.6 182.4,467.1 182.2,468.1 178.7,464.6 				"/>
			</g>
			<g>
				<polygon class="st25" points="218,423.7 221.5,427.2 222.1,428.5 218.7,425 				"/>
			</g>
			<g>
				<polygon class="st5" points="178.7,464.6 182.2,468.1 181.7,469 178.2,465.5 				"/>
			</g>
			<g>
				<polygon class="st40" points="218.2,423.6 221.7,427.1 222.4,428.4 218.9,424.9 				"/>
			</g>
			<g>
				<polygon class="st11" points="178.2,465.5 181.7,469 181.4,469.6 177.9,466.1 				"/>
			</g>
			<g>
				<polygon class="st41" points="155.9,490.2 159.4,493.7 158.4,494.9 154.9,491.4 				"/>
			</g>
			<g>
				<polygon class="st3" points="156.9,489.7 160.4,493.2 159.4,493.7 155.9,490.2 				"/>
			</g>
			<g>
				<polygon class="st2" points="154.9,491.4 158.4,494.9 157.8,496.4 154.3,492.9 				"/>
			</g>
			<g>
				<polygon class="st45" points="154.3,492.9 157.8,496.4 157.4,497.4 154,494 				"/>
			</g>
			<g>
				<polygon class="st3" points="158.1,490 161.6,493.5 160.4,493.2 156.9,489.7 				"/>
			</g>
			<g>
				<polygon class="st3" points="159.1,490.9 162.6,494.4 161.6,493.5 158.1,490 				"/>
			</g>
			<g>
				<polygon class="st44" points="218.7,425 222.1,428.5 225.1,432.2 221.6,428.7 				"/>
			</g>
			<g>
				<polygon class="st39" points="218.9,424.9 222.4,428.4 225.3,432 221.8,428.5 				"/>
			</g>
			<g>
				<polygon class="st21" points="177.9,466.1 181.4,469.6 181.6,475.9 178.1,472.5 				"/>
			</g>
			<g>
				<polygon class="st46" points="154,494 157.4,497.4 157.4,500.3 153.9,496.8 				"/>
			</g>
			<g>
				<polygon class="st43" points="153.9,496.8 157.4,500.3 157.2,501 153.7,497.5 				"/>
			</g>
			<g>
				<polygon class="st14" points="153.7,497.5 157.2,501 156.2,502.3 152.7,498.8 				"/>
			</g>
			<g>
				<polygon class="st3" points="160.2,491.7 163.7,495.2 162.6,494.4 159.1,490.9 				"/>
			</g>
			<g>
				<polygon class="st43" points="152.7,498.8 156.2,502.3 156,502.9 152.5,499.4 				"/>
			</g>
			<g>
				<polygon class="st23" points="178.1,472.5 181.6,475.9 182.1,477.5 178.6,474 				"/>
			</g>
			<g>
				<polygon class="st22" points="152.5,499.4 156,502.9 156.2,504.2 152.7,500.7 				"/>
			</g>
			<g>
				<polygon class="st3" points="223.4,430.4 226.9,433.9 225.1,432.2 221.7,428.7 				"/>
			</g>
			<g>
				<polygon class="st3" points="161.9,491.9 165.3,495.4 163.7,495.2 160.2,491.7 				"/>
			</g>
			<g>
				<polygon class="st3" points="163.2,491.4 166.7,494.9 165.3,495.4 161.9,491.9 				"/>
			</g>
			<g>
				<polygon class="st6" points="172.4,482.7 175.8,486.2 174.8,487.4 171.3,483.9 				"/>
			</g>
			<g>
				<polygon class="st3" points="173.5,482.1 177,485.6 175.8,486.2 172.4,482.7 				"/>
			</g>
			<g>
				<polygon class="st3" points="166.3,489.5 169.7,493 166.7,494.9 163.2,491.4 				"/>
			</g>
			<g>
				<polygon class="st47" points="167.8,488.1 171.3,491.6 169.7,493 166.3,489.5 				"/>
			</g>
			<g>
				<polygon class="st3" points="174.8,481.6 178.3,485 177,485.6 173.5,482.1 				"/>
			</g>
			<g>
				<polygon class="st48" points="171.3,483.9 174.8,487.4 174.1,489.6 170.6,486.1 				"/>
			</g>
			<g>
				<polygon class="st3" points="169.4,487.3 172.9,490.8 171.3,491.6 167.8,488.1 				"/>
			</g>
			<g>
				<polygon class="st38" points="178.6,474 182.1,477.5 182.3,481.5 178.8,478 				"/>
			</g>
			<g>
				<polygon class="st13" points="170.6,486.1 174.1,489.6 173.6,490.3 170.1,486.8 				"/>
			</g>
			<g>
				<polygon class="st3" points="170.1,486.8 173.6,490.3 172.9,490.8 169.4,487.3 				"/>
			</g>
			<g>
				<polygon class="st39" points="152.7,500.7 156.2,504.2 156.9,506.9 153.4,503.5 				"/>
			</g>
			<g>
				<polygon class="st2" points="178.8,478 182.3,481.5 181.9,482.4 178.4,478.9 				"/>
			</g>
			<g>
				<polygon class="st3" points="178.4,478.9 181.9,482.4 178.3,485 174.8,481.6 				"/>
			</g>
			<g>
				<polygon class="st28" points="223.4,430.4 226.9,433.9 228.8,436 225.3,432.5 				"/>
			</g>
			<g>
				<polygon class="st9" points="223.6,430.2 227.1,433.7 229,435.8 225.5,432.4 				"/>
			</g>
			<g>
				<polygon class="st21" points="153.4,503.5 156.9,506.9 157,508.3 153.5,504.8 				"/>
			</g>
			<g>
				<polygon class="st31" points="156.2,503.7 159.6,507.2 157,508.3 153.5,504.8 				"/>
			</g>
			<g>
				<polygon class="st3" points="156.2,503.9 159.7,507.4 156.9,508.5 153.4,505.1 				"/>
			</g>
			<g>
				<polygon class="st25" points="225.3,432.5 228.8,436 229.9,437.8 226.4,434.3 				"/>
			</g>
			<g>
				<polygon class="st23" points="225.5,432.4 229,435.8 230.1,437.7 226.6,434.2 				"/>
			</g>
			<g>
				<polygon class="st31" points="157.7,503.5 161.2,507 159.6,507.2 156.2,503.7 				"/>
			</g>
			<g>
				<polygon class="st3" points="157.6,503.7 161.1,507.2 159.7,507.4 156.2,503.9 				"/>
			</g>
			<g>
				<polygon class="st25" points="226.4,434.3 229.9,437.8 230.3,438.9 226.8,435.4 				"/>
			</g>
			<g>
				<polygon class="st23" points="226.6,434.2 230.1,437.7 230.6,438.8 227.1,435.3 				"/>
			</g>
			<g>
				<polygon class="st49" points="226.8,435.4 230.3,438.9 230.4,439.9 226.9,436.4 				"/>
			</g>
			<g>
				<polygon class="st38" points="227.1,435.3 230.6,438.8 230.6,439.9 227.1,436.4 				"/>
			</g>
			<g>
				<polygon class="st31" points="159.5,504 162.9,507.4 161.2,507 157.7,503.5 				"/>
			</g>
			<g>
				<polygon class="st3" points="159.4,504.2 162.8,507.7 161.1,507.2 157.6,503.7 				"/>
			</g>
			<g>
				<polygon class="st50" points="226.9,436.4 230.4,439.9 229.8,441.7 226.3,438.2 				"/>
			</g>
			<g>
				<polygon class="st43" points="227.1,436.4 230.6,439.9 230,441.7 226.6,438.2 				"/>
			</g>
			<g>
				<polygon class="st31" points="160.3,504.4 163.8,507.9 162.9,507.4 159.5,504 				"/>
			</g>
			<g>
				<polygon class="st3" points="160.2,504.6 163.7,508.1 162.8,507.7 159.4,504.2 				"/>
			</g>
			<g>
				<polygon class="st3" points="160.7,505 164.2,508.4 163.7,508.1 160.2,504.6 				"/>
			</g>
			<g>
				<polygon class="st31" points="160.9,504.8 164.4,508.3 163.8,507.9 160.3,504.4 				"/>
			</g>
			<g>
				<polygon class="st23" points="160.9,504.8 164.3,508.3 164.7,508.8 161.2,505.4 				"/>
			</g>
			<g>
				<polygon class="st50" points="226.3,438.2 229.8,441.7 228.7,445 225.3,441.5 				"/>
			</g>
			<g>
				<polygon class="st43" points="226.6,438.2 230,441.7 229,445.1 225.5,441.6 				"/>
			</g>
			<g>
				<polygon class="st51" points="225.3,441.5 228.7,445 228.7,446 225.2,442.5 				"/>
			</g>
			<g>
				<polygon class="st9" points="161.2,505.4 164.7,508.8 164.9,509.7 161.4,506.2 				"/>
			</g>
			<g>
				<polygon class="st18" points="225.5,441.6 229,445.1 228.9,446 225.4,442.5 				"/>
			</g>
			<g>
				<polygon class="st35" points="225.2,442.5 228.7,446 228.7,447.4 225.2,443.9 				"/>
			</g>
			<g>
				<polygon class="st21" points="225.4,442.5 228.9,446 228.9,447.4 225.4,443.9 				"/>
			</g>
			<g>
				<polygon class="st18" points="161.4,506.2 164.9,509.7 164.7,511.5 161.3,508 				"/>
			</g>
			<g>
				<polygon class="st4" points="161.3,508 164.7,511.5 164.5,512.4 161,508.9 				"/>
			</g>
			<g>
				<polygon class="st24" points="161,508.9 164.5,512.4 163.2,513.7 159.8,510.2 				"/>
			</g>
			<g>
				<polygon class="st44" points="225.2,443.9 228.7,447.4 229,448.4 225.5,445 				"/>
			</g>
			<g>
				<polygon class="st23" points="225.4,443.9 228.9,447.4 229.3,448.3 225.8,444.9 				"/>
			</g>
			<g>
				<polygon class="st4" points="159.8,510.2 163.2,513.7 162.7,515.5 159.3,512.1 				"/>
			</g>
			<g>
				<polygon class="st25" points="225.5,445 229,448.4 229.6,449.4 226.1,445.9 				"/>
			</g>
			<g>
				<polygon class="st23" points="225.8,444.9 229.3,448.3 229.8,449.3 226.4,445.8 				"/>
			</g>
			<g>
				<polygon class="st12" points="154.3,518 157.8,521.5 156.6,522.7 153.1,519.2 				"/>
			</g>
			<g>
				<polygon class="st3" points="154.7,517.8 158.1,521.2 157.8,521.5 154.3,518 				"/>
			</g>
			<g>
				<polygon class="st5" points="153.1,519.2 156.6,522.7 156.4,523.1 152.9,519.6 				"/>
			</g>
			<g>
				<polygon class="st3" points="155.1,517.9 158.6,521.3 158.1,521.2 154.7,517.8 				"/>
			</g>
			<g>
				<polygon class="st3" points="226.9,446.6 230.4,450.1 229.7,449.4 226.2,445.9 				"/>
			</g>
			<g>
				<polygon class="st9" points="152.9,519.6 156.4,523.1 156.5,523.8 153,520.3 				"/>
			</g>
			<g>
				<polygon class="st3" points="227.6,446.9 231,450.4 230.4,450.1 226.9,446.6 				"/>
			</g>
			<g>
				<polygon class="st32" points="213.2,461 216.6,464.5 215.9,465.6 212.4,462.1 				"/>
			</g>
			<g>
				<polygon class="st13" points="213.3,461.1 216.8,464.6 216.1,465.7 212.6,462.2 				"/>
			</g>
			<g>
				<polygon class="st40" points="153,520.3 156.5,523.8 157.1,525 153.7,521.5 				"/>
			</g>
			<g>
				<polygon class="st3" points="156.8,518.5 160.2,522 158.6,521.3 155.1,517.9 				"/>
			</g>
			<g>
				<polygon class="st52" points="220.6,454.9 224,458.4 216.6,464.5 213.2,461 				"/>
			</g>
			<g>
				<polygon class="st53" points="212.4,462.1 215.9,465.6 215.6,466.9 212.1,463.4 				"/>
			</g>
			<g>
				<polygon class="st3" points="228.6,447 232.1,450.5 231,450.4 227.6,446.9 				"/>
			</g>
			<g>
				<polygon class="st1" points="220.7,455.1 224.1,458.6 216.8,464.6 213.3,461.1 				"/>
			</g>
			<g>
				<polygon class="st36" points="212.6,462.2 216.1,465.7 215.8,466.9 212.3,463.4 				"/>
			</g>
			<g>
				<polygon class="st31" points="221.5,454.6 225,458.1 224,458.4 220.6,454.9 				"/>
			</g>
			<g>
				<polygon class="st39" points="153.7,521.5 157.1,525 157.3,525.7 153.8,522.2 				"/>
			</g>
			<g>
				<polygon class="st3" points="221.5,454.8 225,458.3 224.1,458.6 220.7,455.1 				"/>
			</g>
			<g>
				<polygon class="st19" points="159.3,512.1 162.7,515.5 162.5,520.7 159,517.2 				"/>
			</g>
			<g>
				<polygon class="st3" points="157.7,518.6 161.2,522.1 160.2,522 156.8,518.5 				"/>
			</g>
			<g>
				<polygon class="st31" points="222.2,454.7 225.7,458.2 225,458.1 221.5,454.6 				"/>
			</g>
			<g>
				<polygon class="st3" points="158.6,518.2 162.1,521.6 161.2,522.1 157.7,518.6 				"/>
			</g>
			<g>
				<polygon class="st33" points="159,517.2 162.5,520.7 162.1,521.6 158.6,518.2 				"/>
			</g>
			<g>
				<polygon class="st3" points="222.2,454.9 225.7,458.4 225,458.3 221.5,454.8 				"/>
			</g>
			<g>
				<polygon class="st23" points="153.8,522.2 157.3,525.7 157.6,526.4 154.1,522.9 				"/>
			</g>
			<g>
				<polygon class="st31" points="223,454.6 226.5,458.1 225.7,458.2 222.2,454.7 				"/>
			</g>
			<g>
				<polygon class="st3" points="223.1,454.9 226.6,458.4 225.7,458.4 222.2,454.9 				"/>
			</g>
			<g>
				<polygon class="st54" points="228.6,447 232.1,450.5 228.9,456.2 225.4,452.7 				"/>
			</g>
			<g>
				<polygon class="st31" points="223.8,454.3 227.3,457.7 226.5,458.1 223,454.6 				"/>
			</g>
			<g>
				<polygon class="st55" points="225.4,452.7 228.9,456.2 228.1,457 224.6,453.6 				"/>
			</g>
			<g>
				<polygon class="st26" points="224.6,453.6 228.1,457 227.3,457.7 223.8,454.3 				"/>
			</g>
			<g>
				<polygon class="st31" points="154.7,523.4 158.2,526.9 157.6,526.4 154.1,522.9 				"/>
			</g>
			<g>
				<polygon class="st51" points="212.1,463.4 215.6,466.9 215.3,470 211.8,466.5 				"/>
			</g>
			<g>
				<polygon class="st3" points="154.6,523.6 158.1,527.1 157.4,526.6 153.9,523.1 				"/>
			</g>
			<g>
				<polygon class="st37" points="228.8,446.8 232.3,450.3 229.1,456.3 225.6,452.8 				"/>
			</g>
			<g>
				<polygon class="st3" points="223.9,454.5 227.4,457.9 226.6,458.4 223.1,454.9 				"/>
			</g>
			<g>
				<polygon class="st6" points="225.6,452.8 229.1,456.3 228.3,457.2 224.8,453.7 				"/>
			</g>
			<g>
				<polygon class="st1" points="224.8,453.7 228.3,457.2 227.4,457.9 223.9,454.5 				"/>
			</g>
			<g>
				<polygon class="st18" points="212.3,463.4 215.8,466.9 215.5,470 212.1,466.5 				"/>
			</g>
			<g>
				<polygon class="st56" points="211.8,466.5 215.3,470 215.1,471.2 211.6,467.7 				"/>
			</g>
			<g>
				<polygon class="st31" points="155.5,523.7 159,527.2 158.2,526.9 154.7,523.4 				"/>
			</g>
			<g>
				<polygon class="st3" points="155.4,523.9 158.9,527.4 158.1,527.1 154.6,523.6 				"/>
			</g>
			<g>
				<polygon class="st15" points="212.1,466.5 215.5,470 215.3,471.2 211.8,467.7 				"/>
			</g>
			<g>
				<polygon class="st17" points="211.6,467.7 215.1,471.2 215,472 211.5,468.6 				"/>
			</g>
			<g>
				<polygon class="st3" points="155.9,524.3 159.4,527.8 158.9,527.4 155.4,523.9 				"/>
			</g>
			<g>
				<polygon class="st19" points="211.8,467.7 215.3,471.2 215.3,472 211.8,468.5 				"/>
			</g>
			<g>
				<polygon class="st31" points="156.1,524.1 159.6,527.6 159,527.2 155.5,523.7 				"/>
			</g>
			<g>
				<polygon class="st25" points="211.5,468.6 215,472 215.2,472.6 211.8,469.1 				"/>
			</g>
			<g>
				<polygon class="st40" points="211.8,468.5 215.3,472 215.5,472.5 212,469 				"/>
			</g>
			<g>
				<polygon class="st23" points="156.1,524.1 159.6,527.6 160,528.2 156.5,524.7 				"/>
			</g>
			<g>
				<polygon class="st3" points="212.6,469.7 216,473.1 215.3,472.7 211.8,469.2 				"/>
			</g>
			<g>
				<polygon class="st23" points="156.5,524.7 160,528.2 160.4,529.6 156.9,526.1 				"/>
			</g>
			<g>
				<polygon class="st3" points="214.1,470.2 217.6,473.7 216,473.1 212.6,469.7 				"/>
			</g>
			<g>
				<polygon class="st3" points="214.9,470.7 218.4,474.1 217.6,473.7 214.1,470.2 				"/>
			</g>
			<g>
				<polygon class="st9" points="156.9,526.1 160.4,529.6 161.1,533.9 157.6,530.4 				"/>
			</g>
			<g>
				<polygon class="st3" points="217.3,472.5 220.7,476 218.4,474.1 214.9,470.7 				"/>
			</g>
			<g>
				<polygon class="st40" points="157.6,530.4 161.1,533.9 162.3,536.1 158.9,532.6 				"/>
			</g>
			<g>
				<polygon class="st28" points="217.3,472.5 220.7,476 221.7,477.1 218.2,473.7 				"/>
			</g>
			<g>
				<polygon class="st39" points="217.4,472.3 220.9,475.8 221.9,477 218.4,473.5 				"/>
			</g>
			<g>
				<polygon class="st57" points="158.9,532.6 162.3,536.1 162.2,537.3 158.7,533.8 				"/>
			</g>
			<g>
				<polygon class="st25" points="218.2,473.7 221.7,477.1 222.2,477.9 218.7,474.4 				"/>
			</g>
			<g>
				<polygon class="st23" points="218.4,473.5 221.9,477 222.4,477.8 218.9,474.3 				"/>
			</g>
			<g>
				<polygon class="st7" points="158.7,533.8 162.2,537.3 161.7,538.4 158.3,534.9 				"/>
			</g>
			<g>
				<polygon class="st44" points="218.7,474.4 222.2,477.9 222.4,478.6 218.9,475.1 				"/>
			</g>
			<g>
				<polygon class="st36" points="158.3,534.9 161.7,538.4 161.5,539.6 158,536.1 				"/>
			</g>
			<g>
				<polygon class="st23" points="218.9,474.3 222.4,477.8 222.7,478.6 219.2,475.1 				"/>
			</g>
			<g>
				<polygon class="st58" points="218.9,475.1 222.4,478.6 222.2,479.6 218.7,476.2 				"/>
			</g>
			<g>
				<polygon class="st36" points="219.2,475.1 222.7,478.6 222.4,479.7 218.9,476.2 				"/>
			</g>
			<g>
				<polygon class="st22" points="158,536.1 161.5,539.6 161.6,540.8 158.1,537.3 				"/>
			</g>
			<g>
				<polygon class="st59" points="218.7,476.2 222.2,479.6 221.3,481.3 217.8,477.8 				"/>
			</g>
			<g>
				<polygon class="st16" points="218.9,476.2 222.4,479.7 221.6,481.4 218.1,477.9 				"/>
			</g>
			<g>
				<polygon class="st51" points="217.8,477.8 221.3,481.3 221.3,482 217.8,478.6 				"/>
			</g>
			<g>
				<polygon class="st18" points="218.1,477.9 221.6,481.4 221.5,482 218,478.6 				"/>
			</g>
			<g>
				<polygon class="st44" points="217.8,478.6 221.3,482 221.4,482.8 218,479.3 				"/>
			</g>
			<g>
				<polygon class="st39" points="218,478.6 221.5,482 221.7,482.7 218.2,479.2 				"/>
			</g>
			<g>
				<polygon class="st23" points="158.1,537.3 161.6,540.8 162.1,542.2 158.6,538.7 				"/>
			</g>
			<g>
				<polygon class="st60" points="218,479.3 221.4,482.8 222.1,483.7 218.7,480.2 				"/>
			</g>
			<g>
				<polygon class="st23" points="218.2,479.2 221.7,482.7 222.3,483.6 218.9,480.1 				"/>
			</g>
			<g>
				<polygon class="st40" points="158.6,538.7 162.1,542.2 162.7,543.5 159.2,540 				"/>
			</g>
			<g>
				<polygon class="st25" points="218.7,480.2 222.1,483.7 222.5,484.4 219.1,481 				"/>
			</g>
			<g>
				<polygon class="st40" points="218.9,480.1 222.3,483.6 222.8,484.3 219.3,480.9 				"/>
			</g>
			<g>
				<polygon class="st28" points="219.1,481 222.5,484.4 222.7,485.4 219.3,481.9 				"/>
			</g>
			<g>
				<polygon class="st9" points="219.3,480.9 222.8,484.3 223,485.4 219.5,481.9 				"/>
			</g>
			<g>
				<polygon class="st61" points="219.3,481.9 222.7,485.4 222.5,487 219.1,483.5 				"/>
			</g>
			<g>
				<polygon class="st62" points="219.5,481.9 223,485.4 222.8,487 219.3,483.5 				"/>
			</g>
			<g>
				<polygon class="st23" points="159.2,540 162.7,543.5 164.2,545.6 160.7,542.1 				"/>
			</g>
			<g>
				<polygon class="st31" points="205.3,497.7 208.8,501.2 207.6,501.7 204.1,498.2 				"/>
			</g>
			<g>
				<polygon class="st3" points="205.4,497.9 208.9,501.4 207.8,501.9 204.3,498.4 				"/>
			</g>
			<g>
				<polygon class="st31" points="207.2,497.4 210.7,500.9 208.8,501.2 205.3,497.7 				"/>
			</g>
			<g>
				<polygon class="st3" points="207.2,497.7 210.7,501.2 208.9,501.4 205.4,497.9 				"/>
			</g>
			<g>
				<polygon class="st63" points="219.1,483.5 222.5,487 222.8,489.4 219.3,486 				"/>
			</g>
			<g>
				<polygon class="st34" points="219.3,483.5 222.8,487 223,489.4 219.6,485.9 				"/>
			</g>
			<g>
				<polygon class="st31" points="208.5,497.4 212,500.9 210.7,500.9 207.2,497.4 				"/>
			</g>
			<g>
				<polygon class="st3" points="208.5,497.6 212,501.1 210.7,501.2 207.2,497.7 				"/>
			</g>
			<g>
				<polygon class="st25" points="204.1,498.2 207.6,501.7 209.3,504.7 205.8,501.2 				"/>
			</g>
			<g>
				<polygon class="st23" points="204.3,498.4 207.8,501.9 209.5,504.6 206,501.1 				"/>
			</g>
			<g>
				<polygon class="st31" points="209.8,497.5 213.3,501 212,500.9 208.5,497.4 				"/>
			</g>
			<g>
				<polygon class="st3" points="209.8,497.7 213.2,501.2 212,501.1 208.5,497.6 				"/>
			</g>
			<g>
				<polygon class="st8" points="205.8,501.2 209.3,504.7 209.4,505.4 205.9,501.9 				"/>
			</g>
			<g>
				<polygon class="st9" points="206,501.1 209.5,504.6 209.6,505.4 206.2,501.9 				"/>
			</g>
			<g>
				<polygon class="st51" points="205.9,501.9 209.4,505.4 209.3,506.2 205.8,502.7 				"/>
			</g>
			<g>
				<polygon class="st57" points="206.2,501.9 209.6,505.4 209.6,506.2 206.1,502.7 				"/>
			</g>
			<g>
				<polygon class="st64" points="205.8,502.7 209.3,506.2 209,507.5 205.5,504 				"/>
			</g>
			<g>
				<polygon class="st4" points="206.1,502.7 209.6,506.2 209.2,507.5 205.7,504 				"/>
			</g>
			<g>
				<polygon class="st31" points="212.4,498.1 215.9,501.5 213.3,501 209.8,497.5 				"/>
			</g>
			<g>
				<polygon class="st3" points="212.4,498.3 215.9,501.8 213.2,501.2 209.8,497.7 				"/>
			</g>
			<g>
				<polygon class="st44" points="219.3,486 222.8,489.4 225.2,492.5 221.8,489.1 				"/>
			</g>
			<g>
				<polygon class="st65" points="205.5,504 209,507.5 208.9,508.9 205.5,505.4 				"/>
			</g>
			<g>
				<polygon class="st39" points="219.6,485.9 223,489.4 225.5,492.4 222,488.9 				"/>
			</g>
			<g>
				<polygon class="st19" points="205.7,504 209.2,507.5 209.2,508.9 205.7,505.4 				"/>
			</g>
			<g>
				<polygon class="st61" points="221.8,489.1 225.2,492.5 225.2,493.2 221.7,489.7 				"/>
			</g>
			<g>
				<polygon class="st18" points="222,488.9 225.5,492.4 225.4,493.2 221.9,489.8 				"/>
			</g>
			<g>
				<polygon class="st23" points="160.7,542.1 164.2,545.6 166.6,552.2 163.2,548.7 				"/>
			</g>
			<g>
				<polygon class="st66" points="205.5,505.4 208.9,508.9 209,510.1 205.6,506.6 				"/>
			</g>
			<g>
				<polygon class="st67" points="221.7,489.7 225.2,493.2 224.8,494.4 221.3,491 				"/>
			</g>
			<g>
				<polygon class="st31" points="214.1,498.2 217.6,501.7 215.9,501.5 212.4,498.1 				"/>
			</g>
			<g>
				<polygon class="st38" points="205.7,505.4 209.2,508.9 209.3,510.1 205.8,506.6 				"/>
			</g>
			<g>
				<polygon class="st3" points="214.1,498.4 217.6,501.9 215.9,501.8 212.4,498.3 				"/>
			</g>
			<g>
				<polygon class="st43" points="221.9,489.8 225.4,493.2 225,494.5 221.5,491 				"/>
			</g>
			<g>
				<polygon class="st61" points="221.3,491 224.8,494.4 224.7,495.2 221.2,491.7 				"/>
			</g>
			<g>
				<polygon class="st62" points="221.5,491 225,494.5 224.9,495.2 221.5,491.7 				"/>
			</g>
			<g>
				<polygon class="st28" points="205.6,506.6 209,510.1 209.3,511.3 205.9,507.8 				"/>
			</g>
			<g>
				<polygon class="st25" points="221.2,491.7 224.7,495.2 224.9,495.9 221.4,492.4 				"/>
			</g>
			<g>
				<polygon class="st40" points="163.2,548.7 166.6,552.2 167.3,553.4 163.8,549.9 				"/>
			</g>
			<g>
				<polygon class="st39" points="205.8,506.6 209.3,510.1 209.6,511.3 206.1,507.8 				"/>
			</g>
			<g>
				<polygon class="st23" points="221.5,491.7 224.9,495.2 225.2,495.8 221.7,492.3 				"/>
			</g>
			<g>
				<polygon class="st28" points="221.4,492.4 224.9,495.9 225.4,496.4 221.9,493 				"/>
			</g>
			<g>
				<polygon class="st39" points="221.7,492.3 225.2,495.8 225.6,496.3 222.1,492.8 				"/>
			</g>
			<g>
				<polygon class="st31" points="166.7,548.2 170.2,551.7 169.5,552.1 166.1,548.6 				"/>
			</g>
			<g>
				<polygon class="st31" points="164.6,550.4 168,553.9 167.3,553.4 163.8,549.9 				"/>
			</g>
			<g>
				<polygon class="st68" points="166.1,548.6 169.5,552.1 168.7,553.6 165.2,550.1 				"/>
			</g>
			<g>
				<polygon class="st3" points="166.7,548.5 170.2,552 169.7,552.3 166.2,548.8 				"/>
			</g>
			<g>
				<polygon class="st3" points="164.6,550.7 168.1,554.1 167.1,553.6 163.7,550.1 				"/>
			</g>
			<g>
				<polygon class="st31" points="165.2,550.1 168.7,553.6 168,553.9 164.6,550.4 				"/>
			</g>
			<g>
				<polygon class="st31" points="218.6,496.9 222.1,500.4 217.6,501.7 214.1,498.2 				"/>
			</g>
			<g>
				<polygon class="st3" points="222.3,493.4 225.8,496.9 225.4,496.5 221.9,493 				"/>
			</g>
			<g>
				<polygon class="st5" points="166.2,548.8 169.7,552.3 168.9,553.8 165.4,550.3 				"/>
			</g>
			<g>
				<polygon class="st3" points="165.4,550.3 168.9,553.8 168.1,554.1 164.6,550.7 				"/>
			</g>
			<g>
				<polygon class="st3" points="218.7,497.1 222.2,500.6 217.6,501.9 214.1,498.4 				"/>
			</g>
			<g>
				<polygon class="st31" points="167.4,548.4 170.9,551.9 170.2,551.7 166.7,548.2 				"/>
			</g>
			<g>
				<polygon class="st3" points="167.2,548.6 170.7,552.1 170.2,552 166.7,548.5 				"/>
			</g>
			<g>
				<polygon class="st25" points="222.3,493.4 225.8,496.9 226,497.2 222.5,493.7 				"/>
			</g>
			<g>
				<polygon class="st40" points="222.5,493.2 226,496.7 226.3,497.2 222.8,493.7 				"/>
			</g>
			<g>
				<polygon class="st69" points="222.5,493.7 226,497.2 226,497.7 222.5,494.2 				"/>
			</g>
			<g>
				<polygon class="st31" points="221.2,495.6 224.7,499.1 222.1,500.4 218.6,496.9 				"/>
			</g>
			<g>
				<polygon class="st32" points="222.5,494.2 226,497.7 225.5,498.4 222,495 				"/>
			</g>
			<g>
				<polygon class="st70" points="222,495 225.5,498.4 224.7,499.1 221.2,495.6 				"/>
			</g>
			<g>
				<polygon class="st62" points="222.8,493.7 226.3,497.2 226.2,497.8 222.7,494.3 				"/>
			</g>
			<g>
				<polygon class="st31" points="170.6,546.3 174.1,549.8 172.1,550.8 168.6,547.3 				"/>
			</g>
			<g>
				<polygon class="st3" points="221.4,495.8 224.9,499.3 222.2,500.6 218.7,497.1 				"/>
			</g>
			<g>
				<polygon class="st71" points="222.7,494.3 226.2,497.8 225.6,498.6 222.2,495.1 				"/>
			</g>
			<g>
				<polygon class="st47" points="222.2,495.1 225.6,498.6 224.9,499.3 221.4,495.8 				"/>
			</g>
			<g>
				<polygon class="st3" points="170.6,546.5 174.1,550 172.3,551 168.8,547.5 				"/>
			</g>
			<g>
				<polygon class="st22" points="167.3,548.4 170.8,551.9 171.7,552.8 168.3,549.3 				"/>
			</g>
			<g>
				<polygon class="st42" points="168.6,547.3 172.1,550.8 172.4,552.9 168.9,549.5 				"/>
			</g>
			<g>
				<polygon class="st31" points="168.9,549.5 172.4,552.9 171.7,552.8 168.3,549.3 				"/>
			</g>
			<g>
				<polygon class="st9" points="168.8,547.5 172.3,551 172.6,553.1 169.1,549.6 				"/>
			</g>
			<g>
				<polygon class="st3" points="169.1,549.6 172.6,553.1 171.7,553 168.2,549.5 				"/>
			</g>
			<g>
				<polygon class="st31" points="175.5,546 179,549.5 174.1,549.8 170.6,546.3 				"/>
			</g>
			<g>
				<polygon class="st3" points="175.5,546.2 179,549.7 174.1,550 170.6,546.5 				"/>
			</g>
			<g>
				<polygon class="st31" points="176.7,545.7 180.2,549.1 179,549.5 175.5,546 				"/>
			</g>
			<g>
				<polygon class="st3" points="176.8,545.9 180.3,549.4 179,549.7 175.5,546.2 				"/>
			</g>
			<g>
				<polygon class="st31" points="178.3,544.5 181.8,548 180.2,549.1 176.7,545.7 				"/>
			</g>
			<g>
				<polygon class="st3" points="178.4,544.8 181.9,548.3 180.3,549.4 176.8,545.9 				"/>
			</g>
			<g>
				<polygon class="st32" points="197.5,526.1 201,529.5 200.5,530.3 197,526.8 				"/>
			</g>
			<g>
				<polygon class="st31" points="198.1,525.6 201.6,529.1 201,529.5 197.5,526.1 				"/>
			</g>
			<g>
				<polygon class="st31" points="179.5,544.3 183,547.8 181.8,548 178.3,544.5 				"/>
			</g>
			<g>
				<polygon class="st3" points="179.5,544.5 183,548 181.9,548.3 178.4,544.8 				"/>
			</g>
			<g>
				<polygon class="st3" points="198.2,525.9 201.7,529.4 201.1,529.7 197.7,526.2 				"/>
			</g>
			<g>
				<polygon class="st13" points="197.7,526.2 201.1,529.7 200.7,530.4 197.2,526.9 				"/>
			</g>
			<g>
				<polygon class="st64" points="197,526.8 200.5,530.3 200.3,531 196.8,527.5 				"/>
			</g>
			<g>
				<polygon class="st31" points="198.8,525.5 202.3,529 201.6,529.1 198.1,525.6 				"/>
			</g>
			<g>
				<polygon class="st36" points="197.2,526.9 200.7,530.4 200.5,531 197.1,527.5 				"/>
			</g>
			<g>
				<polygon class="st3" points="198.8,525.8 202.3,529.2 201.7,529.4 198.2,525.9 				"/>
			</g>
			<g>
				<polygon class="st31" points="199.5,525.6 203,529.1 202.3,529 198.8,525.5 				"/>
			</g>
			<g>
				<polygon class="st3" points="199.5,525.8 202.9,529.3 202.3,529.2 198.8,525.8 				"/>
			</g>
			<g>
				<polygon class="st8" points="196.8,527.5 200.3,531 200.4,531.8 197,528.3 				"/>
			</g>
			<g>
				<polygon class="st31" points="180.8,544.5 184.3,548 183,547.8 179.5,544.3 				"/>
			</g>
			<g>
				<polygon class="st3" points="180.7,544.7 184.2,548.2 183,548 179.5,544.5 				"/>
			</g>
			<g>
				<polygon class="st9" points="197.1,527.5 200.5,531 200.7,531.8 197.2,528.3 				"/>
			</g>
			<g>
				<polygon class="st25" points="197,528.3 200.4,531.8 200.7,532.4 197.2,529 				"/>
			</g>
			<g>
				<polygon class="st23" points="197.2,528.3 200.7,531.8 200.9,532.3 197.4,528.8 				"/>
			</g>
			<g>
				<polygon class="st31" points="200.6,525.9 204.1,529.4 203,529.1 199.5,525.6 				"/>
			</g>
			<g>
				<polygon class="st3" points="200.6,526.2 204,529.6 202.9,529.3 199.5,525.8 				"/>
			</g>
			<g>
				<polygon class="st31" points="181.9,544.8 185.4,548.3 184.3,548 180.8,544.5 				"/>
			</g>
			<g>
				<polygon class="st3" points="181.8,545.1 185.3,548.6 184.2,548.2 180.7,544.7 				"/>
			</g>
			<g>
				<polygon class="st31" points="201.2,526 204.7,529.5 204.1,529.4 200.6,525.9 				"/>
			</g>
			<g>
				<polygon class="st3" points="201.3,526.3 204.8,529.7 204,529.6 200.6,526.2 				"/>
			</g>
			<g>
				<polygon class="st25" points="205.9,507.8 209.3,511.3 213.7,521.1 210.2,517.6 				"/>
			</g>
			<g>
				<polygon class="st40" points="206.1,507.8 209.6,511.3 213.9,521 210.4,517.5 				"/>
			</g>
			<g>
				<polygon class="st31" points="202.2,525.8 205.7,529.3 204.7,529.5 201.2,526 				"/>
			</g>
			<g>
				<polygon class="st31" points="183,545 186.5,548.5 185.4,548.3 181.9,544.8 				"/>
			</g>
			<g>
				<polygon class="st3" points="202.3,526 205.8,529.5 204.8,529.7 201.3,526.3 				"/>
			</g>
			<g>
				<polygon class="st3" points="183,545.3 186.5,548.8 185.3,548.6 181.8,545.1 				"/>
			</g>
			<g>
				<polygon class="st31" points="203.4,525.2 206.9,528.7 205.7,529.3 202.2,525.8 				"/>
			</g>
			<g>
				<polygon class="st3" points="203.6,525.4 207,528.9 205.8,529.5 202.3,526 				"/>
			</g>
			<g>
				<polygon class="st31" points="184.4,544.7 187.9,548.2 186.5,548.5 183,545 				"/>
			</g>
			<g>
				<polygon class="st31" points="205.7,523.7 209.2,527.2 206.9,528.7 203.4,525.2 				"/>
			</g>
			<g>
				<polygon class="st3" points="184.5,545 188,548.4 186.5,548.8 183,545.3 				"/>
			</g>
			<g>
				<polygon class="st31" points="185.4,544.2 188.9,547.6 187.9,548.2 184.4,544.7 				"/>
			</g>
			<g>
				<polygon class="st3" points="205.8,523.9 209.3,527.4 207,528.9 203.6,525.4 				"/>
			</g>
			<g>
				<polygon class="st28" points="197.2,529 200.7,532.4 202.4,534.4 198.9,530.9 				"/>
			</g>
			<g>
				<polygon class="st9" points="197.4,528.8 200.9,532.3 202.6,534.2 199.1,530.7 				"/>
			</g>
			<g>
				<polygon class="st3" points="185.6,544.4 189,547.9 188,548.4 184.5,545 				"/>
			</g>
			<g>
				<polygon class="st31" points="207.2,522.9 210.6,526.4 209.2,527.2 205.7,523.7 				"/>
			</g>
			<g>
				<polygon class="st70" points="189.1,541.1 192.5,544.5 192.1,545 188.6,541.5 				"/>
			</g>
			<g>
				<polygon class="st32" points="188.6,541.5 192.1,545 191.5,545.7 188,542.2 				"/>
			</g>
			<g>
				<polygon class="st31" points="188,542.2 191.5,545.7 188.9,547.6 185.4,544.2 				"/>
			</g>
			<g>
				<polygon class="st3" points="207.3,523.2 210.7,526.7 209.3,527.4 205.8,523.9 				"/>
			</g>
			<g>
				<polygon class="st47" points="189.1,541.3 192.6,544.8 192.2,545.1 188.8,541.6 				"/>
			</g>
			<g>
				<polygon class="st13" points="188.8,541.6 192.2,545.1 191.7,545.9 188.2,542.4 				"/>
			</g>
			<g>
				<polygon class="st3" points="188.2,542.4 191.7,545.9 189,547.9 185.6,544.4 				"/>
			</g>
			<g>
				<polygon class="st31" points="208.5,522.4 212,525.9 210.6,526.4 207.2,522.9 				"/>
			</g>
			<g>
				<polygon class="st44" points="198.9,530.9 202.4,534.4 202.9,535 199.4,531.5 				"/>
			</g>
			<g>
				<polygon class="st39" points="199.1,530.7 202.6,534.2 203.1,534.9 199.6,531.4 				"/>
			</g>
			<g>
				<polygon class="st31" points="190,541 193.5,544.4 192.5,544.5 189.1,541.1 				"/>
			</g>
			<g>
				<polygon class="st3" points="208.6,522.7 212.1,526.1 210.7,526.7 207.3,523.2 				"/>
			</g>
			<g>
				<polygon class="st3" points="190,541.2 193.5,544.7 192.6,544.8 189.1,541.3 				"/>
			</g>
			<g>
				<polygon class="st44" points="210.2,517.6 213.7,521.1 215.6,523.5 212.1,520 				"/>
			</g>
			<g>
				<polygon class="st39" points="210.4,517.5 213.9,521 215.8,523.4 212.3,519.9 				"/>
			</g>
			<g>
				<polygon class="st25" points="212.1,520 215.6,523.5 216,524.3 212.5,520.9 				"/>
			</g>
			<g>
				<polygon class="st31" points="211.6,521.8 215,525.3 212,525.9 208.5,522.4 				"/>
			</g>
			<g>
				<polygon class="st40" points="212.3,519.9 215.8,523.4 216.2,524.3 212.7,520.8 				"/>
			</g>
			<g>
				<polygon class="st3" points="211.6,522 215.1,525.5 212.1,526.1 208.6,522.7 				"/>
			</g>
			<g>
				<polygon class="st31" points="192.5,541.2 196,544.7 193.5,544.4 190,541 				"/>
			</g>
			<g>
				<polygon class="st58" points="212.5,520.9 216,524.3 215.8,524.9 212.4,521.4 				"/>
			</g>
			<g>
				<polygon class="st31" points="212.4,521.4 215.8,524.9 215,525.3 211.6,521.8 				"/>
			</g>
			<g>
				<polygon class="st3" points="192.4,541.5 195.9,545 193.5,544.7 190,541.2 				"/>
			</g>
			<g>
				<polygon class="st8" points="199.4,531.5 202.9,535 203.4,537.7 199.9,534.2 				"/>
			</g>
			<g>
				<polygon class="st15" points="212.7,520.8 216.2,524.3 216.1,525 212.6,521.5 				"/>
			</g>
			<g>
				<polygon class="st3" points="212.6,521.5 216.1,525 215.1,525.5 211.6,522 				"/>
			</g>
			<g>
				<polygon class="st9" points="199.6,531.4 203.1,534.9 203.6,537.6 200.2,534.1 				"/>
			</g>
			<g>
				<polygon class="st31" points="194.3,542 197.7,545.5 196,544.7 192.5,541.2 				"/>
			</g>
			<g>
				<polygon class="st3" points="194.1,542.2 197.6,545.7 195.9,545 192.4,541.5 				"/>
			</g>
			<g>
				<polygon class="st66" points="199.9,534.2 203.4,537.7 203.6,540.1 200.1,536.6 				"/>
			</g>
			<g>
				<polygon class="st38" points="200.2,534.1 203.6,537.6 203.8,540 200.3,536.5 				"/>
			</g>
			<g>
				<polygon class="st28" points="200.1,536.6 203.6,540.1 203.8,541 200.3,537.5 				"/>
			</g>
			<g>
				<polygon class="st39" points="200.3,536.5 203.8,540 204,540.9 200.6,537.4 				"/>
			</g>
			<g>
				<polygon class="st31" points="196.3,543.2 199.8,546.7 197.7,545.5 194.3,542 				"/>
			</g>
			<g>
				<polygon class="st3" points="196.2,543.4 199.7,546.9 197.6,545.7 194.1,542.2 				"/>
			</g>
			<g>
				<polygon class="st31" points="198.3,544.1 201.7,547.6 199.8,546.7 196.3,543.2 				"/>
			</g>
			<g>
				<polygon class="st3" points="198.3,544.3 201.7,547.8 199.7,546.9 196.2,543.4 				"/>
			</g>
			<g>
				<polygon class="st25" points="200.3,537.5 203.8,541 205.1,544.7 201.6,541.2 				"/>
			</g>
			<g>
				<polygon class="st23" points="200.6,537.4 204,540.9 205.3,544.6 201.8,541.1 				"/>
			</g>
			<g>
				<polygon class="st31" points="200,543.8 203.5,547.3 201.7,547.6 198.3,544.1 				"/>
			</g>
			<g>
				<polygon class="st3" points="199.9,544.1 203.4,547.6 201.7,547.8 198.3,544.3 				"/>
			</g>
			<g>
				<polygon class="st31" points="200.6,544.2 204.1,547.7 203.5,547.3 200,543.8 				"/>
			</g>
			<g>
				<polygon class="st3" points="200.5,544.5 204,547.9 203.4,547.6 199.9,544.1 				"/>
			</g>
			<g>
				<polygon class="st31" points="202.1,544.7 205.6,548.2 204.1,547.7 200.6,544.2 				"/>
			</g>
			<g>
				<polygon class="st42" points="201.6,541.2 205.1,544.7 205.6,548.2 202.1,544.7 				"/>
			</g>
			<g>
				<path class="st72" d="M228.8,446.8l-3.2,6l-0.8,0.9l-0.9,0.7l-0.9,0.4l-0.8,0.1l-0.7-0.1l-0.9,0.3l-7.3,6l-0.7,1.1l-0.3,1.2
					l-0.3,3.1l-0.2,1.2l0,0.8l0.2,0.5l0.7,0.4l1.5,0.6l0.8,0.4l2.4,1.9l1,1.2l0.5,0.8l0.2,0.8l-0.2,1.1l-0.9,1.7l0,0.7l0.2,0.6
					l0.7,0.9l0.4,0.8l0.2,1l-0.2,1.6l0.3,2.4l2.4,3.1l-0.1,0.8l-0.4,1.3l-0.1,0.7l0.2,0.6l0.4,0.5l0.4,0.4l0.3,0.5l-0.1,0.6
					l-0.5,0.8l-0.8,0.7l-2.7,1.3l-4.6,1.3l-1.7-0.1l-2.6-0.6l-1.3-0.1l-1.3,0.1l-1.8,0.3l-1.1,0.4l1.7,2.7l0.1,0.8l-0.1,0.9
					l-0.3,1.3l0,1.3l0.1,1.2l0.3,1.2l4.3,9.7l1.9,2.4l0.4,0.9l-0.1,0.8l-0.9,0.5l-3.1,0.6l-1.3,0.5l-1.4,0.7l-2.3,1.5l-1.3,0.6
					l-1,0.3l-0.7-0.1l-1.1-0.3l-0.6-0.1l-0.6,0.1l-0.6,0.4l-0.4,0.7l-0.1,0.6l0.1,0.8l0.2,0.5l1.7,1.9l0.5,0.6l0.5,2.8l0.2,2.4
					l0.2,0.9l1.3,3.7l0.5,3.8l-1.9-0.4l-0.6-0.4l-1.6,0.3l-2.1-0.9l-2.1-1.2l-1.7-0.8l-2.4-0.3l-0.9,0.1l-0.4,0.4l-0.5,0.8l-2.7,2
					l-1.1,0.6l-1.4,0.3l-1.2-0.2l-1.1-0.4l-1.2-0.2l-1.1,0.2l-1.6,1.1l-1.3,0.4l-4.9,0.3l-1.8,0.9l0.4,2.1l-1-0.1l-0.9-0.9l-0.5-0.1
					l-0.5,0.4l-0.9,1.5l-0.8,0.4l-0.9-0.5l-0.7-1.3l-2.5-6.6l-1.4-2l-0.7-1.3l-0.5-1.4l-0.2-1.3l0.3-1.3l0.5-1.1l0.1-1l-1.2-2.2
					l-0.7-4.3l-0.4-1.3l-0.3-0.6l-0.5-0.4l-0.8-0.3l-0.7-0.5l-0.3-0.8l-0.1-0.6l-0.6-1.2l-0.2-0.8l0.3-0.5l1.2-1.3l0.5-0.3l0.6,0.1
					l1.6,0.6l0.9,0.1l0.8-0.3l0.3-0.9l0.3-5.1l0.5-1.9l1.3-1.3l0.2-0.8l0.1-1.7l-0.1-0.8l-0.3-0.5l-0.5-0.4l-0.8-0.4l-1.7-0.5
					l-1.4,0.2l-2.8,1.1l-0.2-1.6l-0.7-2.7l-0.2-1.4l0.2-0.7l1-1.3l0.2-0.6l0-2.8l0.3-1.1l0.7-1.5l1-1.3l1.2-0.6l1.4,0.4l1,0.9l1,0.8
					l1.5,0.1l1.3-0.5l3-1.9l1.6-1.4l1.6-0.8l0.7-0.5l0.4-0.6l0.7-2.2l1.1-1.3l1.2-0.7l1.3-0.5l3.5-2.6l0.4-0.7l-0.2-3.9l-0.5-1.6
					l-0.2-6.4l0.3-0.7l0.5-0.9l0.2-0.8l-0.5-0.8l2.6-3.6l1-1.8l2.1-7.1l1.3-1.8l2.1-1.2l1.6-0.3l1.2,0.2l1,0.4l1.1,0.2l0.7-0.6
					l0.5-1.5l0.9-5.6l0-0.9l-1.1-1l-1-1.2l-0.5-1.1l-1.4-5.5l-0.2-2.8l0.3-1.4l1.3-2.4l0.3-1.2l-1.6-4.4l-0.4-0.7l-0.4-5.3l0.1-1.6
					l0.5-0.5l1.6-1.3l0.3-0.6l-0.2-1.2l-1.2-2.9l0.1-2.5l1-2.1l1.5-1.6l1.6-1.3l0.5-0.6l0.6-0.9l0.7-0.8l0.9-0.4l1.2-0.3l0.9-0.7
					l0.6-1l0.5-2.5l1-2.4l0.6-3.7l0.5-1.1l0.8-0.9l0.5-0.8l0.7-2.7l0.5-1.1l0.9-0.7l2-1.1l0.6,2.9l-0.4,7.4l0.1,2.1l0.3,1.6l1.6,4.3
					l0.4,2l-0.2,1.2l-0.7,1l-4.3,2.6l-1,0.8l-0.9,1.1l-0.8,2.1l0,1.4l0.5,1.1l0.9,0.7l1.2,0.6l7.9,2.8l1,0.6l1,0.9l0.8,1.1l0.8,1.8
					l0.9,6.7l0.5,1.7l0.7,1.3l2.9,3.6l1.8,1.7l1.9,2.1l1.1,1.8l0.5,1.2l0.1,1.1l-0.6,1.8l-1.1,3.3l-0.1,0.9l0,1.3l0.3,1l0.6,0.9
					l0.7,0.6l0.5,0.3L228.8,446.8z M225.4,452.7l3.2-5.6l-1-0.1l-0.6-0.3l-0.8-0.7l-0.6-1l-0.3-1l0-1.4l0.1-1l1.1-3.4l0.6-1.7
					l-0.1-1l-0.4-1.1l-1.1-1.8l-1.9-2.1l-1.8-1.7l-3-3.7l-0.7-1.3l-0.5-1.7l-0.9-6.7l-0.7-1.7l-0.7-1.1l-0.9-0.9l-1-0.6l-7.9-2.8
					l-1.2-0.6l-0.9-0.7l-0.5-1.2l0-1.5l0.8-2.2l0.9-1.2l1-0.9l4.3-2.5l0.7-0.9l0.2-1.1l-0.4-2l-1.6-4.3l-0.3-1.6l-0.1-2.1l0.4-7.4
					l-0.4-2.6l-1.8,1l-0.8,0.6l-0.5,1l-0.7,2.7l-0.5,0.9l-0.8,0.9l-0.5,1.1l-0.6,3.7l-1,2.4l-0.5,2.5l-0.7,1.1l-1,0.8l-1.2,0.3
					l-0.8,0.3l-0.6,0.7l-0.6,0.8l-0.5,0.7l-1.6,1.3l-1.5,1.6l-1,2l-0.1,2.4l1.2,2.9l0.2,1.3l-0.3,0.7l-1.6,1.3l-0.5,0.4l-0.3,0.7
					l0.5,6l0.4,0.7l1.6,4.4l-0.3,1.3l-1.3,2.4l-0.3,1.4l0.2,2.7l1.4,5.5l0.5,1.1l1,1.1l0.7,0.5l0.5,1.6l-0.9,5.6l-0.5,1.6l-0.8,0.7
					l-1.3-0.2l-1-0.4l-1.1-0.2l-1.5,0.3l-2,1.2l-1.2,1.7l-2.1,7.1l-1,1.9l-2.5,3.4l0.5,0.8l-0.2,1l-0.5,0.9l-0.3,0.7l0.2,6.3
					l0.5,1.6l0.2,4l-0.4,0.9l-3.6,2.7l-1.3,0.5l-1.2,0.6l-1,1.2l-0.7,2.2l-0.4,0.7l-0.7,0.5l-1.6,0.8l-1.6,1.4l-3,1.9l-1.4,0.5
					l-1.7-0.1l-1.1-0.8l-0.9-0.9l-1.2-0.4l-1.1,0.5l-0.9,1.3l-0.7,1.4L154,494l0,2.8l-0.2,0.7l-1,1.3l-0.2,0.6l0.2,1.3l0.7,2.7
					l0,1.3l2.7-1.1l1.5-0.2l1.8,0.5l0.8,0.4l0.6,0.4l0.4,0.6l0.2,0.9l-0.1,1.8l-0.2,0.9l-1.3,1.3l-0.5,1.9l-0.3,5.1l-0.3,1l-0.9,0.4
					l-1-0.1l-1.6-0.6l-0.5-0.1l-0.4,0.3l-1.2,1.2l-0.2,0.4l0.1,0.7l0.6,1.2l0.2,0.6l0.3,0.7l0.6,0.4l0.8,0.3l0.6,0.4l0.4,0.6
					l0.4,1.4l0.7,4.3l1.2,2.3l-0.1,1.2l-0.5,1.1l-0.3,1.2l0.2,1.3l0.4,1.4l0.7,1.3l1.4,2l2.5,6.7l0.6,1.2l0.7,0.4l0.6-0.3l0.8-1.4
					l0.6-0.4l0.7,0.1l0.9,0.9l0.6,0.1l-0.3-2l2-1.1l5-0.3l1.2-0.3l1.6-1.1l1.2-0.3l1.3,0.2l1.1,0.4l1.1,0.2l1.4-0.3l1-0.6l2.6-1.9
					l0.5-0.7l0.4-0.4l1-0.1l2.4,0.3l1.8,0.8l2.1,1.2l2,0.9l1.6-0.3l0.7,0.4l1.4,0.4l-0.3-3.4l-1.3-3.7l-0.2-0.9l-0.2-2.4l-0.3-2.4
					l-0.7-0.9l-1.7-1.9l-0.2-0.6l-0.2-0.8l0.2-0.7l0.5-0.7l0.6-0.4l0.7-0.2l0.7,0.1l1.1,0.3l0.6,0.1l0.9-0.2l1.2-0.5l2.3-1.5
					l1.5-0.7l1.4-0.5l3-0.6l0.8-0.4l0.1-0.6l-0.4-0.8l-1.9-2.4l-4.3-9.8l-0.3-1.2l-0.1-1.2l0-1.4l0.3-1.3l0.1-0.8l-0.1-0.7l-1.8-2.8
					l1.3-0.7l1.9-0.3l1.3-0.1l1.3,0.1l2.6,0.6l1.7,0.1l4.5-1.3l2.6-1.3l0.7-0.7l0.5-0.7l0.1-0.5l-0.2-0.4l-0.4-0.4l-0.5-0.5
					l-0.2-0.7l0.1-0.8l0.4-1.3l0.1-0.6l-2.4-3l-0.3-2.5l0.2-1.6l-0.2-1l-0.4-0.7l-0.7-0.9l-0.2-0.7l0-0.8l0.9-1.7l0.2-1l-0.2-0.7
					l-0.5-0.8l-1-1.1l-2.3-1.8l-0.8-0.4l-1.6-0.6l-0.7-0.5l-0.3-0.6l0-0.9l0.2-1.2l0.3-3.1l0.3-1.2l0.8-1.2l7.4-6.1l0.9-0.3l0.8,0.1
					l0.7,0l0.8-0.4l0.8-0.7L225.4,452.7"/>
			</g>
			<g>
				<polygon class="st73" points="208.1,375.4 208.5,378 208.1,385.4 208.2,387.6 208.4,389.2 210,393.5 210.4,395.5 210.2,396.6 
					209.5,397.5 205.3,400 204.3,400.9 203.4,402.1 202.5,404.2 202.5,405.7 203,406.9 204,407.7 205.2,408.2 213.1,411.1 
					214.1,411.7 215,412.5 215.8,413.6 216.5,415.3 217.4,422 218,423.7 218.7,425 221.6,428.7 223.4,430.4 225.3,432.5 
					226.4,434.3 226.8,435.4 226.9,436.4 226.3,438.2 225.3,441.5 225.2,442.5 225.2,443.9 225.5,445 226.1,445.9 226.9,446.6 
					227.5,446.9 228.6,447 225.4,452.7 224.6,453.6 223.8,454.3 223,454.6 222.2,454.7 221.5,454.6 220.6,454.9 213.2,461 
					212.4,462.1 212.1,463.4 211.8,466.5 211.6,467.7 211.5,468.6 211.8,469.1 212.5,469.7 214.1,470.2 214.9,470.7 217.3,472.5 
					218.2,473.7 218.7,474.4 218.9,475.1 218.7,476.2 217.8,477.8 217.8,478.6 218,479.3 218.7,480.2 219.1,481 219.3,481.9 
					219.1,483.5 219.3,486 221.8,489.1 221.7,489.7 221.3,491 221.2,491.7 221.4,492.4 221.9,493 222.3,493.4 222.5,493.7 
					222.5,494.2 222,495 221.2,495.6 218.6,496.9 214.1,498.2 212.4,498.1 209.8,497.5 208.5,497.4 207.2,497.4 205.3,497.7 
					204.1,498.2 205.8,501.2 205.9,501.9 205.8,502.7 205.5,504 205.5,505.4 205.6,506.6 205.9,507.8 210.2,517.6 212.1,520 
					212.5,520.9 212.4,521.4 211.6,521.8 208.5,522.4 207.2,522.9 205.7,523.7 203.4,525.2 202.2,525.8 201.2,526 200.6,525.9 
					199.5,525.6 198.8,525.5 198.1,525.6 197.5,526.1 197,526.8 196.8,527.5 197,528.3 197.2,529 198.9,530.9 199.4,531.5 
					199.9,534.2 200.1,536.6 200.3,537.5 201.6,541.2 202.1,544.7 200.6,544.2 200,543.8 198.3,544.1 196.3,543.2 194.3,542 
					192.5,541.2 190,541 189.1,541.1 188.6,541.5 188,542.2 185.4,544.2 184.4,544.7 183,545 181.9,544.8 180.8,544.5 179.5,544.3 
					178.3,544.5 176.7,545.7 175.5,546 170.6,546.3 168.6,547.3 168.9,549.5 168.3,549.3 167.4,548.4 166.7,548.2 166.1,548.6 
					165.2,550.1 164.6,550.4 163.8,549.9 163.2,548.7 160.7,542.1 159.2,540 158.6,538.7 158.1,537.3 158,536.1 158.3,534.9 
					158.7,533.8 158.9,532.7 157.6,530.4 156.9,526.1 156.5,524.7 156.1,524.1 155.5,523.7 154.7,523.4 154.1,522.9 153.8,522.2 
					153.7,521.6 153,520.3 152.9,519.6 153.1,519.2 154.3,518 154.7,517.8 155.1,517.9 156.7,518.5 157.7,518.6 158.6,518.2 
					159,517.2 159.3,512.1 159.8,510.2 161,509 161.3,508 161.4,506.3 161.2,505.4 160.9,504.8 160.3,504.4 159.5,504 157.7,503.5 
					156.2,503.7 153.5,504.8 153.4,503.5 152.7,500.7 152.5,499.4 152.7,498.8 153.7,497.5 153.9,496.8 154,494 154.3,492.9 
					154.9,491.4 155.9,490.2 156.9,489.7 158.1,490 159.1,490.9 160.1,491.7 161.8,491.9 163.2,491.4 166.2,489.5 167.8,488.1 
					169.4,487.3 170.1,486.8 170.6,486.2 171.3,483.9 172.4,482.7 173.5,482.1 174.8,481.6 178.4,478.9 178.8,478.1 178.6,474 
					178.1,472.5 177.9,466.1 178.2,465.5 178.7,464.6 178.9,463.7 178.4,462.8 180.9,459.4 181.9,457.6 184.1,450.5 185.3,448.7 
					187.3,447.5 188.8,447.2 189.9,447.4 190.9,447.8 192.2,448 193,447.3 193.5,445.6 194.4,440 194.4,439.1 193.2,437.9 
					192.3,436.8 191.8,435.7 190.5,430.2 190.3,427.5 190.6,426.2 191.9,423.8 192.2,422.5 190.6,418 190.1,417.4 189.8,412.1 
					189.9,410.7 190.3,410.2 191.9,409 192.3,408.3 192.1,406.9 190.9,404 191,401.6 192,399.6 193.5,398 195,396.7 195.6,396 
					196.1,395.2 196.8,394.5 197.6,394.2 198.8,393.9 199.8,393.1 200.5,392 201,389.5 202,387.2 202.6,383.5 203.1,382.4 
					203.8,381.6 204.4,380.7 205,378 205.5,377 206.3,376.3 				"/>
			</g>
			<g>
				<polygon class="st3" points="202.4,544.9 205.8,548.4 204,547.9 200.5,544.5 				"/>
			</g>
			<g>
				<polygon class="st22" points="201.8,541.1 205.3,544.6 205.8,548.4 202.4,544.9 				"/>
			</g>
		</g>
	</g>
</g>
<path class="st74" d="M292.1,776.9l-1,1.1l-0.9-0.1l-1-0.5l-3.6-1.5l-1.6-2.2l-1.2-0.2l-1-0.6l-0.4,1.6l0.3,1.4l-0.4,1.7l-1.5,0.6
	l-1.7-0.8l-0.7,0.4l0.5,1.4l1.2-0.2l1.2,0.4l1.8-0.3l-0.3,1l0.9,1.5l2.5,1.3l0.8-0.7l0.1-1l1.5,0.6l2.5,0.1l2-0.3l0.2-1l0.6-1.8
	l0.1-1l-0.3-1.1L292.1,776.9z M191.4,675.9l-0.2-0.8l-0.7-0.3l-0.2,0.1l-0.3,0l-0.4,0.2l0,0.8l-0.5,0.8l-0.6-0.2l-0.3-0.5l-0.4,0.3
	l-0.1,0.6l0.7,0.7l-0.1,0.3l0.1,0.2l0.3,0.1l0.3-0.2l0.2,0.1v0.4l0.3,0.2l0.8-0.1l1.4-0.9l0.3-1.2l-0.7-0.4L191.4,675.9z
	 M78.4,656.8l0.5,0.9l-0.3,0.9l1.1-1l0.8-0.6l-1.1-1.3L78.4,656.8z M98.2,667.9l-0.3-0.6H97l0.3,0.8l0.2,1.2l0.5,1.1l0.5,0.3
	l0.5,0.3l0.3-1.3l-0.5-1L98.2,667.9z M277,715.6l0.4-2.8l0-2.8l-0.3-2.8l-0.6-2.7l-1.7-4.1l-0.2-1.4l-0.3-1l-0.7-0.9l-0.5-1l0.1-1.5
	L273,694l-0.4-0.5l-0.6-0.2l-0.7,0.2l-0.9,2.2l-0.6,2.8l-0.5,8.6l0.7,6.7l-0.2,3.9l-0.2,0.9l-0.9,1.3l-0.3,0.8l0.1,0.6l0.9,2
	l0.1,0.7l0,0.7l0.2,0.5l0.8,0.2l0.5,0.3l0.2,0.7l-0.5,7l0.1,1.2l0.6,2l0.4,2.8l0.6-0.4l0.7-1.3l0.3-1.3l-0.3-2.5l0.1-1.2l0.8-1.4
	l0.5-1l0.5-3.2l0.1-2.5l-0.4-3.4l0.2-1.4L277,715.6z M360.8,791.6l0.3-0.9l-1-0.6l-0.9,0.1l-0.5,0.3l-0.1,0.3l-0.4,0.5l-0.6,0
	l0.1,0.2l0.1,0.2l-0.2,0.3l0.1,0.3l1.1-0.3l0.8-0.2L360.8,791.6z M363.6,794.6l-2.6,0.6l-0.7,0.5l-0.6,0.8l-0.4,1l-0.2,1l0.5,1.4
	l1.2,0.1l2.4-0.8l1.7-1l0.2-2.1L363.6,794.6z M294,763.9l0.7-1l0.1-0.7l-0.2-1.6l-0.2-0.7l-0.5-0.7l-0.8,0.2l-0.2,1.3l0.6,1.7
	l0.1,1.3L294,763.9z M361.3,501.3l0.5-1.2l0.2-1.3l0.1-1.3l-0.2-1.4l-0.4-1.6l-0.7-1.5l-0.9-1.2l-1.5-1.1l-7.1-3.3l-2-1.3l-4.2-3.5
	l-3.9-4.2l-1.2-1l-1.5-0.9l-3.4-1.6l-3.3-1l-37.3-7.1l-2.8-1.4l-9.5-7.3l-2.5-2.4l-2.4-2.7l-7.2-10.2l-1.4-1.2l-1.5-0.6l-1.5,0.2
	l-0.7,0.6l-0.5,0.7l-0.6,1.4l-0.3,0.6l-0.5,0.5l-1.4,0.2l-2.1-0.2l-9.3-2.6l-3.8-0.5l-2.2,0.1l-1.4,0.4l-5.7,2.6l-3.9,2.3l-2.4,1.1
	l-3.3,5.8l-0.8,0.9l-0.8,0.7l-0.8,0.4l-0.8,0l-0.7-0.1l-0.9,0.3l-7.3,6.1l-0.8,1.1l-0.3,1.2l-0.3,3.1l-0.2,1.2l0,0.8l0.2,0.5
	l0.7,0.5l1.6,0.6l0.8,0.4l2.4,1.9l1,1.2l0.5,0.8l0.2,0.8l-0.2,1.1l-0.9,1.7l0,0.7l0.2,0.7l0.7,0.9l0.4,0.8l0.2,1l-0.2,1.6l0.3,2.4
	l2.4,3.1l-0.1,0.7l-0.4,1.3l-0.1,0.7l0.2,0.6l0.5,0.5l0.4,0.4l0.2,0.4l-0.1,0.5l-0.5,0.8l-0.8,0.7l-2.7,1.3l-4.5,1.3l-1.7-0.1
	l-2.6-0.6l-1.3-0.1l-1.3,0.1l-1.9,0.3l-1.2,0.5l1.8,2.8l0.1,0.7l-0.1,0.8l-0.3,1.3l0,1.4l0.1,1.2l0.3,1.2l4.4,9.8l1.9,2.4l0.4,0.9
	l-0.1,0.7l-0.9,0.4l-3,0.6l-1.3,0.5l-1.4,0.7l-2.3,1.5l-1.3,0.6l-1,0.2l-0.7-0.1l-1.1-0.3l-0.7-0.1l-0.7,0.1l-0.6,0.4l-0.5,0.7
	l-0.2,0.7l0.2,0.8l0.2,0.6l1.7,1.9l0.5,0.6l0.2,0.3l0.3,2.4l0.2,2.4l0.2,0.9l1.3,3.7l0.5,3.8l0,0l0.2,0.1l0.2,0.4l1,3.4l0.1,1
	l-0.3,0.9l-1,1.3l-0.7,1.1l-0.9,3.5l-1.1,2l0.2,0.9l2,2.5l0.8,2.6l1.5,2.1l3.2,7.3l1.3,2l0.2,2.5l0.4,1.1l0.4-1.4l0.1-1.1l0.5-0.7
	l1.6-0.3l1.1,0.4l-0.3,1l-1.5,2.2l-0.2,0.8l0.2,1.2l0,0.6l-0.2,0.6l-0.6,1.1l-0.1,0.7l0.2,0.2l0.3,0.3l0.3,0.5l0.6,2.7l-0.2,1.3
	l-1.3,2.5l-0.3,1.3l0.2,0.6l1,0.9l0.2,0.7l0.1,0.7l0.3,1.1l0.1,0.6l-0.2,2.4l-1.2,4.4l-1,9.2l-0.4,1l-2.9,4.7l-0.2,0.9l-0.9,2
	l-0.4,0.4l-1.2,0.6l-0.3,0.3l-0.4,2.3l2.3,8.3l-0.4,2.2l-2.5,4.5l-0.9,2.2l-0.3,2.3l-0.4,1.2l-1,1.2l-0.6,0.4l-1.4,0.7l-0.6,0.4
	l-0.3,0.5l-0.6,2.1l-1,2.2l-0.3,1.3l-0.4,4.2l-0.6,2L195,667l0.5,2.6l1.4,2.4l2.4,3.1l0.7,1.2l0.5,0.6l0.3,0.7l-0.3,0.7L200,679
	l-0.3,0.6l0.2,1.4l0.6,0.9l1,0.5l1.5,0l-1-1.4l1.3-0.8l2-0.3l1,0.1l0.2,0.9l0.5,0.5l0.6,0.4l0.5,0.7l0.1,0.8l0,1.5l0.4,0.7l1.2,0.8
	l0.7-0.9l0.7-1.4l1.3-0.7l1.7,0.5l0.6,1.3l0.1,1.5l0.3,1.2l2,1.2l3.2,0.4l3.3-0.2l2.3-0.6l1.2-0.8l1.4-1.2l0.3-0.6l0.2-1.4l0.4-0.7
	l2.9-2.6l1.1-0.7l1.2-0.3l1.9-0.1l1.8,0.1l0.8,0.5l0.8,0.4l4.3,0.7l1,0l0.4,0.1l0.4,0.3l1.2-0.5l2.6-0.7l1.3-0.5l1.6-1.2l0.5-0.2
	l3.1-0.4l1.5-0.6l1.7-0.9l1.7-0.6l1.7,0.3l0.5,0.6l1.1,2l0.2,0.7l0.4,0.7l2.5,2.6l1-0.2l1.9,0.8l0.4-0.4l-0.3-1.2l-1.3-1.8l-0.3-0.6
	l-0.2-2.4l-3-10l-0.1-1.3l-0.5-1l-3-3.4l-0.6-1l-0.9-2.6l-0.6-1.1l-2.9-3.9l0.8-1l0.6-1.4l1.5-7.6l0.2-7.8l1.2-1.9l1.2-0.3l1.6-0.1
	l1.4-0.4l0.6-1.2l0.1-1.5l1.3-6.3l0.2-0.5l1.3-1l0.6-0.5l0.2-0.6l-0.4-1.3l-2-2.2l-0.8-1.2l-0.3-1.1l-0.3-1.6l0-1.6l0.4-1.1l0.3-1.1
	L266,609l-1.7-1.8l-0.3-2.4l1.6-3.7l0.1-2.3l-0.8-2l-0.1-0.9l0.1-0.7l0.4-1.3l0.1-0.7l0-2.6l-0.3-0.9l-1.5-2.3l-0.3-1l0.1-10.9
	l0.4-2.4l0.8-2.2l1.1-2.1l2.9-3.9l1.1-2.4l-0.2-2.4l-1.3-1.1l-0.2-0.4l0-5.4l-0.3-1.2l-1.2-2.9l-0.1-1.1l0.3-3.3l0.3-1l0-0.6
	l-0.1-0.7l-0.6-1.3l-0.2-0.6l0.5-2.4l0.4-1.1l-0.1-0.7l-0.2-0.7l-0.1-0.7l0.5-0.8l0.8-1.1l0.3-0.7l-1.2,0.2l-0.5-0.5l-0.4-0.9
	l-0.3-0.9l-0.1-0.6l-0.3-0.4l-2-1.2l-3.2-1.1l-1.5-0.7l-1.4-1.3l0.7-0.8l0.3-0.3l0.5-0.2l-0.7-1.2l-1-3.4l-0.9-0.7l-0.5-0.2
	l-0.4-0.6l-0.2-0.8l-0.1-0.8l-0.3-0.9l-1.2-1.1l-0.4-0.8l1.9-0.5l1.5-0.9l2.7-2.1l17.1-10l1.2-1l0.6-1.1l0.4-1.1l0.7-0.9l1.4-0.4
	l1.5-0.1l1.1-0.3l3.7-1.8l1.1-0.3l1.5-0.1l1-0.3l0.8-0.6l1-0.5l1.6,0l1,0.2l0.7,0.2l0.6,0.4l0.8,0.7l0.7,0.5l0.6,0l0.7-0.2l0.9-0.1
	l8.3,1.2l0.7,0.3l1,0.8l0.5,0.5l0,0.2l0.8,0.6l2.2,3.9l-0.2-0.1l-0.2-0.1l-0.2-0.1l-0.3-0.2l-1,1.6l-0.7,0.4l-1.1-0.3l-0.4,1.5
	l-1,0.4l-1,0.2l-0.4,0.8l0.2,0.6l0.4,0.6l0.6,0.4l0.7,0l0.3-0.4l0.5-1.3l0.6-0.5l0.6,0.7l0.5,1.7l0.4,0.7h0.4l0.8-0.7l0.7,1.4
	l0.4,2.1l-0.1,0.4l0,0l2.8-1.6l2.4-0.8l2.9-0.4l1.4-0.1l1.2,0.1l1.2,0.3l1.2,0.5l5,3.1l5.6,4.3l2.9,1.6l0.9,0.1l0.9-0.1l0.9-0.2
	l1.4-0.5l4.2-2.3l1.2-0.8l10.7-10.2L361.3,501.3z M309,791.2l-4.1,0.1l-6.1-0.5l-2.5-0.8l-1.3-0.2l-1.1,0.4l-0.4,0.5l-0.1,0.5
	l0.1,0.5l0.4,0.5l1.2,0.5l1.6,0.1l1.6-0.2l1.2-0.4l1.3,0.6l4.3,0.6l0.9,0.8l1,0.5l2.3-0.1l2.1-0.7l0.7-1.2l-1.2-1.1L309,791.2z"/>
<path class="st74" d="M398.8,548.8l-0.8-0.3l-1.1,0.7l-1,1.2l-0.4,1.4l0.6,1.1l0.8-0.6l1.4-0.5l1.4-0.3l0.6,0l-0.2-0.8l-0.6-1
	L398.8,548.8z M398.6,625.2l-0.3,0.8l0.6,0l2-1.5l0.4-0.5l0.1-0.9l-0.7-0.1l-1,0.7L398.6,625.2z M400,609l2.8-1l2.6-1.4l2.3,0.9
	l2.3,0.3l2.3-0.5l2.2-1.3l2.4-0.7l2.8,0.8l2,1.5l0,1.7l0.8,1.4l0.6,0.2l0.9-0.8l-0.3-0.4l-0.2-0.5l0.2-0.4l0.8,0l1.7,2l0.7,0.3
	l0.8-0.1l0.7-0.4l0.3-0.6l0-1.2l-0.1-0.5l-0.3-0.8l0-0.4l0.2-0.2l0.1-0.2l-0.3-0.4l-0.3-0.1l-0.9,0.1l-0.3-0.1l-0.5-0.6l-0.7-1.3
	l-0.4-0.6l-2.8-2.5l-0.7-1.3l2,0.2l1.6,0.9l2.5,2.4l4.7,3.2l1,1.2l0.8-0.9l0.4-0.9l0.5-0.6l1.3-0.3l0.9-0.5l0.4-1.2l-0.1-2.7
	l-0.7-2.7L437,597l1-2l0.1-1.2l-0.1-1.3l-1-3.8l-1.3-2.8l-1.9-2.3l-2.6-1.1L429,583l1,1.7l3.6,3.5l-1.8,0.5l-2.6,0l-2.7-0.5
	l-1.9-0.9l0,0.5l-0.1,0.6l-0.2,0.4l-0.2,0.2l-1.1-0.3l-0.9-1l-0.6-1.3l-0.2-1.2l0.2-2.7l-0.1-1.2l-0.5-1.1l-1-0.8l-1.3-0.6l-1.5-0.3
	l-3.3-0.2l-0.1-0.4l1-0.4l1.5-0.4l1.7-0.1l0.8-0.3l0.5-1l0.4-0.4l0.5-0.3l1.4-0.4l0.1-0.7l-0.4-0.7l-0.5-0.5l-0.6-0.3l-0.7-0.1
	l-4.7,0l-1.4-0.3l-1.3-0.9l-4-5.1l-1.2-2.6l-0.8-1l-1.5-0.4l-3,0.3l-1.5-0.1l-1.4-0.6l-0.8-0.9l-0.6-1l-0.7-0.8l-1-0.3l-1.5-0.2
	l-1.3-0.6l-1-0.8l-0.7-0.9l-1.3-2.3l-0.5-1.4l0.2-1l0.7-0.4l1.6-0.4l0.8-0.3l0.8-0.4l0.4-0.3l0.3-0.4l1.1-1.9l0.5-1.4l0.1-1.3
	l-0.6-1.1l-0.8-0.8l-0.7-0.8l-0.5-1l-0.2-1.2l0.9,0.3l0.5-0.3l0.3-0.6l0.2-0.7l1.1,0.5l1.1,0.3l1,0.4l0.7,0.9l-0.2,0.2l-0.3,0.6
	l1.3,0.1l1.1,0.6l0.5,0.8l-0.5,0.8l1.2,0.1l0.4-1.3l-0.2-1.7l-0.6-1.2l-0.9-0.6l-2.9-1.2l-0.9-0.2l-0.5-1.8l1.8-3.6l1.2-1.3l0,0l0,0
	l-3.2-3.7l-5.8-4.3l-1.3-0.7l-1.2-0.4l-1.1-0.2l-1.2-0.1l-3.9,0.3l-1.4-0.1l-16.5-6.2l-2.4-0.6l-7.6-0.2l-4.9-0.6l-4.2,2.3l-1.4,0.5
	L342,517l-0.9,0.1l-0.9-0.1l-2.9-1.6l-5.6-4.3l-5-3.1l-1.2-0.5l-1.2-0.3l-1.2-0.1l-1.4,0.1l-2.9,0.4l-2.4,0.8l-2.8,1.6l0,0l-0.2,1
	l-0.3,0.7l0.1,2.6l-0.2,0.8l-0.6,1.2l-0.1,0.9l-1,1.8l-0.3,1.1l0.6,0.5l0.5,0.3l0.3,0.8l0.3,1.6l0,1.6l-0.5,3.5l-0.5,1.1l-0.5,0.3
	l-0.8,0.3l-0.7,0.4l-0.3,0.5l-0.2,0.6l-0.5,0.5l-0.7,0.4l-0.7,0.1l-1.1,0.5l-0.8,1.2l-1.2,2.7l-1.3,1.3l-1.6,1.3l-1.3,1.4l-0.6,1.6
	l-0.1,0.7l-0.6,1.4l-0.2,0.8v0.7l0.5,1.9l1.3,2.6l14.5,12.3l3.8,4.2l1.1,0.5l1.6,0.2l2.7,0l1,0.5l0.7,1.2l-0.3,1.1l-0.7,1.5
	l-0.4,1.3l0.7,0.6l1.2-0.3l0.8-0.5l0.8-0.2l1.1,0.7l0.9,1l0.4,0.7l0.2,0.7l0.2,0.6l1,0.9l0.2,0.7l5.2,2l8.6,1.4l2.7,1.2l2.3,3
	l-0.7,5.1l-2.2,4.5l-2.2,1l0.5-0.6l0.2-0.7l-0.2-0.5H345l-0.7,0.3l-0.2,0.5l0,0.6l-0.3,1.9l0.3,5.1l-0.3,2.7l-0.6,2.7l-1.5,3.9
	l-1.2,5.2l-0.2,2.7l0.5,2.2l0.2,0.3l0.2,0l0.2,0l0.3,0.2l0.4,0.7l3.5,4.4l0.8,0.6l4,1.6l0.9,0.2l1.2,0.5l1.9,2.3l1.3,0.8h0.7
	l0.8-0.2l0.7-0.3l0.3-0.2l0.2-0.5l0.6,0l1.3,0.4l1.6-0.2l1.1-0.3l1-0.1l1.2,0.5l2,1.2l1.2,0.4l7.1,0.6l1.3-0.1l3-0.6l1.5-0.1
	l0.9-0.3l1.3-1.5l1.3-0.3v-0.5l-1.2-0.3l-0.3-0.1l-1.7-1.5l-1.6-1.8l-1.1-2.2l-0.2-2.9l0.6-2.4l1.2-2.8l1.5-2.5l1.4-1.5l0.6-0.2
	l2.5-0.3l0.4-0.2l1.2-0.9l1.6-0.4l0.7-0.4l1.1-0.8l0.6-0.3l0.5-0.1l4.5-0.3L400,609z M426.6,614.1l-0.4-0.3l-0.5-0.3l-0.6-0.2
	l-1.1,0.2l-0.6,0.8l-0.2,0.9l0.3,0.5l0.4,0.4l0.4,0l0.4-0.3l0,0.1l0.2,0.1l0.5,0.1l0.9,0.6l0.1-0.2l0.1-0.5l-0.1-0.4l0-0.3l-0.2-0.3
	l-0.1-0.3l0.3-0.3L426.6,614.1z M449,553.5l0.8,0.8l1.4,1.1l1.4,0.6l0.7-0.7l0.7-1l1.4,0.1l1.2-0.2l0-1.7l-0.5-1l-0.9-0.9l-1.1-0.4
	l-4,1.6l-0.8,0.2l-0.7,0.3l0,0.6L449,553.5z M413.7,685.4l-0.7-0.4l-2-0.4l-1.6,2.7l-0.7,0.7l-1,0.5l-0.5,0.4l0.5,0.3l1.1,0.2
	l0.9,0.3l2.3-0.3l1.4-0.8l1-1.3l-0.1-0.9L413.7,685.4z M379.8,655.5l-0.8-0.7l-0.8-1l-1.6,0.2l-0.9-1l-1-3.8l-0.4-0.5l-0.5-0.2
	l-0.7,0.3l-1,1.3l-0.5,0.3l-1.2,0l-0.6-0.6l0-1l0.4-1l-1.2,0.4l-1.2,0.7l-1.1,0.9l-0.8,1l1.3,1.3l0.6,0.7l0,0.6l-0.6,0.3l-1.8,0.3
	l-0.4,0.5l-0.1,0.8l-0.4,0.8l-0.5,0.8l-0.6,0.7l-0.3,0.8l0.1,1.8l-0.5,0.7l1.4,2.6l2.8,3.8l0.6,1.4l0.3,0.5l0.7,0.5l0.6,0.1l0.6,0
	l0.9,0.3l1.1,1.1l2,3l0.9,0.1l1-0.4l1.2,0.2h1.2l1-0.9l0.4-1.2l-0.1-10.5l-0.3-1.8l0.2-0.7l0.5-0.3l0.5-0.2l0.2-0.5l-0.2-1.6
	L379.8,655.5z M404.4,545.2l0.7,1.1l0.5,0.5l1.1-0.4l0.6-0.8l0.3-0.9l0.1-0.7l-0.2-0.3l-1.5-1.1l-0.3-0.5l-0.4-1.1l-0.3-0.4
	l-0.2-0.1l-0.2,0l-0.2,0.1l-0.2,0.2l-0.4,0.5l-0.2,0.8l-0.1,0.8l0,0.6L404.4,545.2z M338.5,586.5l-0.7,0.4l-1.1,0.3l-0.7-0.3
	l0.2-1.5l-0.2-0.1l-0.2,0.2l0,0.4l-0.1,0.2l0,0.5l-0.4,0.3l-0.6,0.1l-0.8-0.4l-0.2,0.2l0.2,0.9l0.8,0.5l0.1,0.6l-0.5,1.1l-0.1,0.6
	l0.2,0l0.6-0.4l0.6-0.2l1.4,0.6l0.5,0.1l0.1-0.4l-0.5-1.3l0.4-0.6h1l0.4-0.1l-0.2-0.3l0.1-0.3l0.4-0.2l0.3-0.3l-0.3-0.4L338.5,586.5
	z M460.4,580.8l-2-1.4l-1.4-0.2l-1.7,0.2l-1.6,0.5l-1.1,0.6l-1.1,0.2l-1.4-0.7l-1.4-0.9l-1-0.5l-1.3-0.3l-0.9,0.5l-1.2,1.6l-0.8,0.7
	l-1.7,1.1l-0.7,0.8l0.6,1.2l0.6,2.8l0.6,1.3l2.1,2.8l2.4,2.4l2.9,1.6l3.4,0.3l2.3-1.1l1.8-2.1l2.9-4.2l1-2.1l-0.2-2.5L460.4,580.8z
	 M410.9,680.2l0.2-0.5l0.1-1l0.8-1.8l-0.4-0.3l-1.8,0.6l-0.8,0.9l-0.1,1.3l0.6,0.8l0.8,0.3L410.9,680.2z M513,693.4l0-0.5l-0.4-0.2
	l-0.4,0l-1.1-0.8l-4.3-1.4l-1,0.1l-0.3,0.5l0.2,0.9l0.7,1.1l0.8,0.8l0.9,0.4l4.1-0.5L513,693.4z M499.7,679.2l-0.5-1.4l-1.7-0.6
	l-1-0.5l-0.8-1l-1.1-0.9l-1.9-0.2h-0.9l0.7,1.3l1,0.9l1.2,0.8l1.3,1l1.7,2.5l1,1.1l1.5,0.4l-0.4-1.5L499.7,679.2z M536.9,666
	l-0.4-0.6l-0.3-0.2l-0.6,0.1l0.1,0.8l0.7,0.6l0.4-0.2L536.9,666z M516.7,705.4l-0.8-1.6l-0.6-0.7l-3.5-2.2l-0.5-0.6l-0.6,1.6
	l-0.3,1.4l0.2,1.3l0.9,1.3l0.7,0.4l1.8,0.4l0.8,0.5l0.4,0.7l0.1,1.6l0.3,0.6l1.2,0.4l0.8-1l0.2-1.7l-0.6-1.5L516.7,705.4z
	 M451.3,633.4l0.1,0.4l0.3,0.2l0.4-0.2l0.3-0.6l0.1-1.7l-0.1-0.5l-1.8-0.3l-2.5,1l-0.3,0.4l0,0.3l0.6-0.1l0,0.2l-0.5,0.1l-0.7,0
	l-0.1,0.3l0.4,0.4l0.4,0.2l0.3,0.3l1.1-0.1l0.8,0.3l0.2,0.1l0.5,0.2l0.3-0.3l-0.1-0.4l0.1-0.3L451.3,633.4z M416,670.5l0.3,0.3
	l0.2,0.4l0.5,0l0.5-0.5l0.2-0.8l0.1-1.3l0.4-1.6l0.6-0.9l0.8,0.8l0.8-0.7l0.5-1.4l0.2-1.7l-0.1-1.5l-0.3-0.7l-0.3-0.4L419,660
	l-1.6-0.6l-0.6-0.5l1.7-0.4l0.5-0.4l0.3-0.6l0.1-0.8l-0.4-0.3l-0.8,0.1l-0.8,0l-0.4-0.6l0.2-1.4l2.7-5.2l1.2-1.5l4.3-4.2l0.7-1
	l0.3-0.8l0.3-0.6l0.7,0.1l0.8,0.3l0.5,0l0.4-0.6l0.1-0.7l0-1.4l-0.1-0.7l-0.3-1.1l-0.1-0.5l-0.2-0.3l-1-1.2l-0.2-0.7l0-4.6l-1.2-8.3
	l-0.6-1l-1.1-0.8l-1.4-0.2l-2.3,0.8l-3.8,2.1l-4.9,3.4l-2.1,1l-1.9,0.4l-4.5,0.4l-1.5,0.5l-1.1,1.3l-1.5,3.1l-1.2,1.3v0.4l1,1
	l0.9,1.7l0.7,2l0.5,2.5l0.9,1.5l0.4,3.3l0.3,1.2l0.5,0.9l-1.2,1.6l-0.2,0.3l-0.4,0.4l-1.8,0.4l-0.6,0.3l-0.6,1l-0.4,1.3l-0.4,4.8
	l-0.3,1.5l-0.6,1.4l-1.8,2.8l-0.4,1.3l0.1,1.2l0.7,1.1l-0.5,0.4l0.7,0.7l0.7,0.4l0.9,0.2l3.5,0l0.9-0.3l0.4-0.8l0.1-2l0.2-0.7
	l0.5-0.6l1-0.6h0.8l0.8,0.2h1.2v0.4l-2.5,1.2l-0.5,0.9l0.6,1.5l1.1,1l1.2,0.4l1.3-0.2l1.1-0.8l0.9-2.2l0-0.6l-0.2-1.4l0.1-0.7
	l0.9-1.3l0.6,0.3l0.5,0.9l0.5,0.6l0.4,1.5l-0.1,3.2l0.2,2.6l1.4-0.1l0.9-0.9L416,670.5z M487.1,661.3l-1.9-0.6l-2.2-0.3l-1.6-0.5
	l-1.4,0.4l0.2,1.7l2.5,4.8l0.9,1l1.3,0.5l2,0.2l1-0.6l0.3-1.5l-0.2-3.4L487.1,661.3z M454.6,626l0.2,0.6l0.1,0.7l0.2,0.6l0.6,0.3
	l0.3,0.2l0.7,1l0.2,0.3l0.3,2.6l0.6,1.3l1,0.3l0.6-1.6l-0.2-6.8l-0.4-2.2l-0.4-0.4l-0.5-0.2l-0.4-0.3l-0.2-0.6l0.1-0.7l0.6-1.3
	l0.1-0.6l-0.3-1.5l-0.7-1.4l-1.8-2.6l-1.1-1.2l-4.3-3.4l-1.1-1.1l-0.5-1.2l1.7-2.1l-1.1-0.4l-1.9,0.1l-1.5,0.4l-6.6,4.6l-0.9,0.8
	l-0.4,0.9l-0.3,1.3l-2.1,3.7l-1,2.7l-0.5,2.5l0.5,10.9l-0.3,0.9l-0.7,0.2l-0.8,0.1l-0.5,0.4l0,0.7l0.3,0.7l0.4,0.7l0.3,0.6l0.1,1.4
	l-0.2,1.6l-0.4,1.5l-0.7,1.1l-3.8,3l-0.6,1.2l1-0.2l0.9-0.4l0.8-0.2l0.6,0.3l0.3,1.1l-0.5,1.1l-1.2,1.8l-0.1,1l0,1.6l-0.4,0.9
	l-1.1,1.4l-0.1,0.8l0.8,0.8l-0.6,1l0.4,0.1l3.1-1.2l0.4,0.2l0,1.2l-0.8,1.3l-1.6,0.6l-1.8,0.3l-1.4,0.5l-0.8,0.8l-1.2,2.4l-0.9,1.2
	l-0.4,0.1l-0.5,0L422,665l-0.6,2l-1.9,2.3l-0.4,0.8l1.6,0.5l0.2,0.9l-0.7,0.9l-5.3,4.3l4.9,10l1.1,1l1.6,0l1-0.8l2.1-2.5l0.9-0.1
	l0.3,0.6l-0.2,1.6l0.2,0.7l0.5,0.5l0.3-0.3l0.2-0.6l0.9-1.1l0.1-0.4l0.2,0l0.9,0.8l0.2,0.5l0.1,1.6l0.2,0.3l1.6-0.3l1-0.8l1.5-2.5
	l3.3-4.2l1.5-2.8l-0.5-1.8l-0.6,0l-1.7,0.7l-0.7,0.2l-0.3-0.4l0.1-0.8l0.9-2.4l1.1-0.9l5.8-3.2l1.2-0.3l1,0.4l1.4,1.5l1.1,0.3
	l1.3-0.4l2.6-1.5l2.9-0.6l0.9-0.7l1.3-2l1.7-1.6l0.8-1l0.3-1.2l-0.6-1.2l-1.4-1.1l-2.7-1.5l-2.2-1l-0.8-0.7l-0.3-1.1l-2.4-0.7
	l-0.3-0.5l0-0.6l-0.2-0.6l-0.9-0.4l-1.8,0.3l-1.2,1.4l-1,1.5l-1.4,0.7l-1.2-0.5l-0.1-1.2l0.5-1.4l1.6-3l0.3-1l0.1-1.5l0-0.8
	l-0.5-1.7l-0.2-0.5l-0.3-0.5l-0.3-0.5l-0.1-0.7l0.2-0.8l0.6-1.2l0.9-1.1l1.7-1l0.2-1.3l-0.4-2.6l0.1-0.8l0.5-2.1l0.3-0.6l1.3-0.8
	l0.3-0.4l0-2.8l0.4-0.8l1,0.8l0.3-0.3l0.5-0.3l0.2-0.3l1.6,1.8l1.3-3.7L454.6,626z"/>
<path class="st74" d="M598.3,230.4l-3.1,1.3l-1.5,0.4l-0.6,0.4l-0.2,0.7l0.9,0.9l2.1-0.1l2.2-0.7l1.3-0.7l0.5-2l0.2-0.5l1-0.8
	l0.2-0.5l0.1-1.9l0.3-1.8v-1.3h-0.4L598.3,230.4z M596.2,229.7l2-1.6l-0.6-2.5l-1.7-1.3l-1.9-1.1l-1.4-1.6l-0.2-2.7l1-2.6l-0.3-0.7
	l-1.9-0.2l-4.5,0.5l-1.4,0l-1.3-0.4l-0.5-0.7l0-2.7l-0.6-0.7l-1.4,0.2l-1.4,0.6l-0.8,0.6l-0.1,0.6l0.1,2.2L579,216l-1.3-0.6
	l-0.3,0.3l-0.6,0.8l-6.8,4.9l-0.8,1L569,224l0.5,1.3l1,1.2l0.4,1.2l-1,1.3l-1.4,0.5l-2.8,0.3l-1.2,0.6l-1.7,1.9l-1,0.6l-1.7,0.3
	l-4.9-1l-0.7,0.4l-0.5,0.7l-3.7,2.6l-0.6,1.1l-0.5,1.8l0.1,1.7l1.2,0.7l2.7-0.1l1.1,0.3l0.7,1.1l-0.1,1.2l-0.6,1.5l-0.9,1.2l-1,0.5
	l-0.8-0.3l-0.4-0.6l-0.3-0.6l-0.5-0.3l-0.8,0.1l-0.5,0.4l-0.4,0.5l-0.6,0.4l-1.4,0.2l-4.5-0.2l-1.4,0.2l-1.3,0.4l-1.1,0.6l-0.8,0.6
	l-1.1,1.8l-1.1,4.4l-1,2.1l-1.7,1.3l-4.6,1.2l-2.2,1l-1.6,1.7l-0.9,0.7l-2.2,0.4l-7.7,2.6l-1.1,1.1l-2.7,0.8l-1,0.6l0.7,0.4l0.2,0.4
	l-0.2,0.5l-0.7,0.4l-0.6,0l-1.3-0.4l-0.7-0.1l-4.7,0.5l-9.6-1.3l-1.3-0.5l-2.7-1.4l-1.3-0.3l-1.1,0.3l-2.3,1l-0.9-0.2l-2.1-1.1
	l-5.1-1l-1.9-1.2l-0.8,0.4l-0.5-0.2l-0.4-0.4l-0.5-0.3l-1,0l-0.6,0.3l-0.5,0.3l-0.7,0.3l-0.7,0.1l-1.9,0l-0.7-0.1l-0.8-0.5l-0.2-0.5
	l0-0.6l-0.3-0.6l-1.3-0.8l-2,0.7l-1.2-0.6l-1.4-0.9l-0.3,0.9l0.3,1.4l0.3,0.7l-1,0.3l-2.8-1l-1.5,0.5l-1,0.1l0,0l0.1,0.4l1.6,2.6
	l1.7,1l0.8,0.3l3.2,1.6l0.8,0.6l0.4,0.6l0.1,0.4l0,1.8l1.5,3.2l0.7,0.6l1,0.7l2.2,1.2l1.5,1.9l7.8,3.4l1.5,1.6l1.4,1.9l1.1,4.1
	l0.3,2.1l-0.1,1.9l-0.5,2l-1.6,4l-0.8,1.5l0,0l0.6,0l7.2,0.6l0.9,0.4l2.2,1.6l0.7,0.3l0.4,0l1-1l0.7-0.4l2.3-0.4l2.4-0.9l1.4-0.1
	l0.8,0.2l0.9,0.3l0.8,0.2l0.6-0.2l1.1-0.6l1.2-0.5l2.3,0.1l0.7-0.1l2.8-0.9l1.4-0.3l4.4-0.2l0.7-0.2l1.2-0.8l0.7-0.3l0.5,0l1.9,0.5
	l2-1.8l0.8-0.5l2.8,1.1l3.4-0.3l8.3-1.6l1.9-1.5l1.6-0.3l1.3-0.4l1.5-0.8l1.7-0.5l1.8,0.5l1.2-2.2l0.8-0.9l1.3-0.5v-0.4l-1-0.5
	l0.2-1l2.8-3.4l0.3-0.3l0.5-0.1l1.5,0.1l0.3-0.2l0-1.2l-0.2-0.5l-0.5-0.5l-0.2-0.6l0.3-0.7l0.4-0.6l0.6-1.2l2.5-2l0.8-1.1l0-0.4l0-1
	l0.2-0.8l1-1.3l0.7-1.8l1-0.9l2.3-1.6l2.3-2.3l1.4-0.9l1.7-0.4l0.5-0.3l1.1-1.7l0.5-0.6l0.6-0.3l2.2-0.6l2.4-1.1l0.4-0.4l0.1-0.5
	l0.7-1.6l0.3-0.5l2.3-2.1l2.2-2.5l3.2-5.3l4.3-11.2l1.3-2.3l2-2.3l2.2-1.2L596.2,229.7z M608.1,187.5l-0.5,0l-0.6-0.1l-0.4-0.2
	l-0.3-0.1l-0.2,0.1l-0.3-0.3l-0.4-0.1l-0.2,0.5l0.2,0.4l0.2,0.2v0.3l-0.5,0.1l-0.4,0.4l-0.3,0.1l-0.4,0.5l-0.1,0.7l0.4,0.5l0.6,0.1
	l0.5-0.4l0.4-0.6l0.5-0.3l0.4,0l1.1-0.6l0.2-0.2l0.3,0l0.4,0.1l0.2-0.3l0.2-1l-0.2-0.5L608.1,187.5z M610.7,170.2l-1.2-0.3l-1.2,0
	l-1.1,0.4l-0.8,0.7l0.1,1.7l1.5,1.4l2.1,0.5l2-1l0.2-2.2l-0.4-0.7L610.7,170.2z M590,209.7l0.2,0.9l0.4,0.7l0.5,0.4l0.3,0l0.2-0.4
	l0.1-0.6l1.6-1.4l0-0.9l-0.3-0.4l-0.4-0.2l-0.8-0.5l-0.6-0.7l-0.6-0.6l-0.4,0.2l-0.2,0.8l-0.3,0.5l0.1,1.2L590,209.7z M606.8,150.6
	l0.2,0.9l0,1.2l0.3,1.2l0.7,0.8l1.3,0.1l0.7-0.4l0.2-0.7l-0.1-0.8l-0.2-0.7L609,151l-0.3-0.9l0.2-1.1l0.3-0.5l0.4-0.4l1.8-1.4
	l0.5-0.8l0-0.9l-0.5-0.9l-0.8-0.7l-1-0.4l-1.1,0l-1,0.5l-0.6,0.7l-1.3,2.4l-0.3,0.8l0.2,1.1L606.8,150.6z M563.4,214.5l1.1,0.4
	l0.9,0.1l0.3-0.3l0.1-0.4l-0.3-1l-0.2-0.4l-0.1-0.5l-0.4-0.8l-0.5-0.3l-0.3,0.8l-0.4,0.4l-1.1,0.3l0.3,0.7L563.4,214.5z M706.5,79.8
	l-1.5-1.8l-2.1-1.3l-2.5-0.6l-0.3,1.9l1.8,3.3l3.2,2.6l1.8-0.7l1.2-1l-0.9-1.4L706.5,79.8z M709.1,45.4l-0.8-2.3l0.3-1.6l0.4-1.4
	l0.7-1.4l0.4-1.3l-0.5-1.4l0,0l-0.2-1l-0.6-0.2l-0.8,0l-0.9-0.4l-0.5-0.8l-0.1-0.7l-0.2-0.6l-0.9-0.6l-1.4-0.3l-1.9,0l-1.7,0.3
	l-0.7,0.6l0.1,0.8l0.4,1.4l0.1,0.6l0,0.8l-0.1,0.5l-2.3,3.2l-0.6,1.7l0.1,1.9l0,0.8l0.2,0.8l0.3,0.6l0.6,1.6l-0.6,1.4l0.2,1.5
	l3.3,0.8l1.2,0.3l1,0.3l0.8,1.2l-3,2.4l-2.6,5.7l-2,1.2l-1,1.2l-0.8,1.7l0.8,1.9l2.6-0.5l3,1.2l2.7-1.6l0.8-1.3l-0.1-3.2l0.1-4.5
	l3.7-3.4l4-4.6l-1.5-1.6L709.1,45.4z M727.5,17.4l-0.6-0.5l-0.4,0.2l-0.2,0.2l0.1,1l0.9,0.8l0.7-0.8L727.5,17.4z M626,101.3
	l-0.2-0.5l-0.4-1.4l-0.2-1.5l-0.4,0l-0.8-0.2l-0.7-0.3l-0.2-0.2l-0.7-1.8l-0.5-0.5l-1.1-1l-0.3-0.3l-0.2-0.7l0-0.5l0.1-0.4l0.1-0.4
	l-0.4-1.1l-2.4-3.5l-1.5-1.6l-2.4-1.5l-2.4-0.4l-1.6,1.7l-0.1,1.4L610,88l0.6,1.1l0.8,0.9l3.5,2.8l1.6,0.8l0.3,0.3l0,2.1l-0.2,0.3
	l-0.3,0.6l-0.6,3.1l0.2,1.1l1.2,0.8l3.3,0.8l1.4,0.8l0.4,0.7l0.1,0.6l0.2,0.5l1,0.2l0.5-0.2l2.4-1.7l0.3-0.4l0.1-0.5l-0.2-0.5
	L626,101.3z M697.5,70.9l-3-3.1l-0.9-3l-1.9-1.1l-0.1,1.2l0.5,2.2l0.5,1.7l1.5,0.8l1.2,1.4l-0.3,2.1l0.6,2.7l0.6,2.7l1.2,0l-0.6-2.6
	l0.9-1.7l0.9-1.4l-0.1-1.3L697.5,70.9z M690-33.5l0.3,0.6l0.3-0.3l0.2-0.7l-0.3-0.1L690-33.5z"/>
<polygon class="st75" points="478.3,291.6 477.3,287.6 475.9,285.7 474.4,284.1 466.6,280.7 465.1,278.8 463,277.7 462,276.9 
	461.3,276.3 459.8,273.1 459.8,271.3 459.7,270.9 459.3,270.3 458.4,269.6 455.2,268 454.4,267.7 452.7,266.8 451.2,264.2 
	451,263.7 450.9,263.7 449.3,263.4 444.7,261.8 443.8,261.6 442.2,261.6 441.7,261.9 441.5,262.7 441.5,263.8 441.2,264.2 
	440.5,264.8 440.2,265.1 438.8,268.2 438,268.6 436.9,268.9 434.1,270.8 432.8,270.4 431.1,268.9 429.4,268.4 429.3,267.5 
	428.6,267.3 427.8,267.2 427.4,266.9 427.1,266.4 426.5,266 423.9,265.1 422.5,264.4 421.8,263.6 421.3,262.5 420.1,261.8 
	418.7,261.3 414.7,261 411.9,260.5 409.2,259.4 407.1,257.9 406.2,257.8 403.1,258.5 401.7,258.5 398.5,257.6 397.5,257.6 
	397.1,257.8 396.5,258.4 396.3,258.5 395.9,258.5 395.3,258.1 394.9,258.1 394.1,258.1 392.8,258.5 392.1,258.5 391.2,258.4 
	389.5,257.4 389.5,257.4 389.3,257.7 385.6,260 379.1,262.8 375.5,263.3 368.5,261 367.5,260.8 366.8,260.8 366.1,260.8 
	365.1,261.1 356.9,264.4 352.6,265.7 350.7,266.5 349.5,267 345.4,268 342.4,269 341.4,269.2 340.7,269.1 340.1,269 339.4,268.7 
	336.6,268.2 334.6,268 333.5,268.1 332.1,268.4 331.1,268.8 328.3,270.3 327.5,271 326.7,271.8 325.4,273.3 324.9,274.3 
	324.1,276.2 323.7,276.8 322.9,277.5 322.3,277.8 318.6,279.3 322.4,283.1 323.2,284.3 324.3,285.2 325.2,285.7 326.8,285.9 
	327.8,286.3 328.4,286.4 328.8,286.4 329.2,286.4 329.5,286.3 329.8,286.2 330.1,286.3 330.4,286.4 330.7,286.9 330.9,287.8 
	331.2,291.4 331,292.1 330.4,293.6 330.4,293.6 331,293.5 332.3,292.9 334.8,292.6 335.9,292.3 336.8,292.4 338,293.2 338.7,292.8 
	339.4,292.5 340.3,292.4 341.5,292.3 342.3,292.1 342.7,291.4 342.8,290.6 343.1,289.7 343.7,288.8 344.3,288.8 344.9,289.1 
	345.7,289.3 346.9,289.3 347.8,289.1 348.4,288.7 348.8,287.9 349.4,288.6 349.8,289.2 350.3,289.8 351.1,290.2 351.7,290.1 
	353.9,289.7 354.8,289.7 356.5,290.3 357.7,291.2 360.9,295.5 361.4,295.8 362.4,295.9 365.1,295.4 368.7,295.4 375,294.5 
	376.3,294.1 377.4,292.7 378.6,292.4 383.1,292.5 385.9,293.1 387.4,293.2 387.8,293.1 388.9,292.5 389.5,292.3 390.2,292.3 
	395.4,292.3 396.1,292.2 397.4,291.6 398.2,291.4 414.7,291.4 415.9,291.6 416.8,291.9 417.6,292.5 418.6,292.7 419.7,292.8 
	420.7,292.5 420.8,291.7 420.4,289.7 421.3,290.2 422.7,292 423.5,292.3 426.5,292.4 432.8,291.7 442.9,292.3 446.6,291.8 
	448.1,291.2 449,290.2 449.5,290.2 450.5,291.6 453.5,294.6 455.5,297.5 455.6,297.8 455.9,298.1 457.2,298 457.5,298.3 
	459.1,300.7 459.6,301.1 459.9,301.3 460.5,302.2 460.7,302.5 461.2,302.6 462.1,302.7 464.4,303.5 471.1,304.2 472.2,304 
	474.8,303.3 475.7,303.3 475.7,303.3 476.5,301.8 478.1,297.8 478.6,295.7 478.7,293.8 "/>
<path class="st74" d="M433.4,380.9l2.6,0.6l2.8-0.6l6.3-0.4l2.1-0.8l1.4,0l2.4-2.9l1.6,0.5l1.5,1.2l0.7,0.7l0.4,0.9l-0.1,0.7
	l-0.5,1.6l0.1,0.8l3.2,2.2l0.3,0.4l0.7,0.4l1.9,2.7l2.1,1.3l2.8,0.4l2.8-0.8l2.1-2.3l0.4-1.3l0.7-5.7l0.7-0.9l1.9-1.7l0.5-1.3
	l-0.3-2.6l1-2.2l-1.1-1.8l0.4-1.3l-0.7,0.1l-0.6-0.1l-0.4-0.4l-0.1-0.6l-0.1-0.4l-0.6-0.6l-0.1-0.3l0.1-0.3l0.8-0.9l-0.9-0.8
	l-4.2-1.4l-4.7-2.4l-2.3-0.8l-11.2-0.9l-1,0.1l-0.7,0.5l-0.8,1.5l-0.8,0.6l-0.9,0.3l-1.3,0.2l-1.2-0.1l-0.8-0.5l-1.5,0.3l-6,0.3
	l-0.2,0.3l-0.4,0.3l-0.5,0.1l-1.1-0.5l-0.4,0.2l-0.3,0.4l-0.4,0.3l-1.9,1.2l-0.9,0.2l-0.9-0.5l-1.2,0.5l-0.1,0.6l0.6,0.6l0.8,0.5
	l0.9,0.4l0.9,0.2l6,0.4l1,0.2l0.2,0.2l0.5,0.8l0.2,0.2l4.3,0.9l0,0.4l-1,0.9l-1.1,0.5l-1.1,0.3l-8.5,0.7l-3.3,1.1l-1.5,0.1l-1.2-0.5
	l-1.1-0.6l-1.8-0.5l-1.4-0.9l-0.9-0.2l-0.7,0.1l-0.5,0.3l-0.4,0.3l-0.4,0.2l-2.6,0.2l-4.8-1.2l-2.5,0.1l-2.8,0.4l-13.8,0.5l-1,0.3
	l-2.6,1.9l0.2,1.4l-0.5,2.1l-0.8,2.2l-0.9,1.4l-1.6,1.1l-1.3,0l-1.3-0.4l-1.6-0.3l-1.7,0.1l-1.3,0.3l-2.4,1.3l-2.6,0.8l-2.7-0.3
	l-2.8-0.7l-3.1-0.4h-5.9L356,383l-0.5-0.5l-0.7-0.9l-1.9-1.4l-0.2-0.9l-0.1-3.9l-0.3-0.1l-0.4-0.3l-0.6-0.3l-0.8-0.1l-0.6,0.1
	l-1.7,0.5l-0.5,0.3l-0.2,0.6l0.1,0.7l0,0.6l-0.5,0.3h-2.8l-1.4,0.2l-1,0.6l-3.3,3l-1.5,1.8l-3.8,5.6l-3.8,3l-1.8,2.1l-1,2.1l-0.7,1
	l-0.8,0.4l-1,0.4l-1.2,0.9l-1.1,1l-0.6,0.7l-0.5,1.2l-0.8,3l-0.3,2.4l-0.5,1.1l-2.5,3.6l-1.7,1.7l-2.2,1l-2.8-0.4l-0.7-0.5l-1.7-1.4
	l-0.7-0.3l-0.8,0.1l-1.3,0.3l-4.6,0.5l-1.5,0l-1.6-0.3l-0.8-0.3l-0.4-0.4l0.4-2.1l-0.2-0.3l-1.8,0.2l-4.6,1.1v0.4l-4.2,1.7l-1-0.6
	l-0.9-1.3l-0.7-1.5l-0.6-2.6l-0.8-1.3l-3.2-3.4l-0.5-0.8l0.1-0.9l0.5-1.6l0.1-0.8l0-0.6l0.1-0.5l0.5-0.6l0.3-0.6l-0.1-0.8l-0.3-0.7
	l-4.4-6l-0.7-1.5l-0.5-0.8l-0.9-0.3l-1.5-0.1l-0.7-0.2l-0.6-0.4l-0.8-1.3l-0.6-1.3l-0.9-1l-1.7-0.2l-1.3,0.6l-1.4,1.1l-1.5,0.7
	l-1.6-0.4l-3.2-2.1l-0.8-0.8l-10.6-14.8l-1.1-2.8l-1.1-6.2l-0.6-1.5l-0.1-0.7l0.2-0.7l0.6-1.3l0.1-0.7l-0.4-1.5l-1.9-2.3l-0.4-1.3
	l-1.5-8.3l-0.1-1.6l0.4-1.1l0.7-1.1l0.5-1.5l0.4-2.9l-0.2-1.6l0-0.7l0.4-0.6l2.3-1.8l0.9-1.2l0.6-1.5l0.7-2.9l0.3-2.9l0.4-1.3
	l0.9-1.3l0.3-0.5l0.5-2.3l0.3-0.6l1.7-2.3l3.9-4.1l4-5.5l2.9-2.9l1.7-1.2l0.7-0.6l0.8-0.9l0.9-0.8l1.1-0.3l1.2-0.2l5.3-2.5l1.1-0.3
	l12.1-0.1l1.3,0.4l2.2,2l1.4,0.7l0.6,0l1.2-0.4l0.8-0.1l0.6,0.2l0.3,0.5l0.2,0.5l0.3,0.2l2.1,0.3l0.5,0.2l0.3,0.4l0.3,1l0.3,0.4
	l1.1,0.6l1.1,0.1l4.3-0.5l2.2-1l1.2-0.1l1,0.4l1.9,1.5l1.1,0.3l2.5,0.4l0.6,0l0.8-0.3l0.4-0.4l0.7-1.1l1-1l1-0.5l1.1-0.2l1.4,0
	l1.4-0.3l2.7-1.1l1.7,0l0.7,0.3l1.6,0.9l0.7,0.2l0.2,0l0,0l0.6-1.5l0.1-0.8l-0.2-3.6l-0.2-0.9l-0.3-0.5l-0.3-0.1l-0.3,0l-0.3,0
	l-0.3,0.1l-0.4,0.1h-0.4l-0.5-0.1l-1.1-0.4l-1.6-0.3l-0.8-0.4l-1.1-1l-0.9-1.2l-3.8-3.8l3.7-1.5l0.6-0.4l0.8-0.6l0.4-0.6l0.8-1.9
	l0.6-1l1.2-1.5l0.8-0.8l0.8-0.7l2.7-1.5l1-0.4l1.4-0.3l1.1-0.1l1.9,0.1l2.9,0.6l0.7,0.2l0.6,0.1l0.7,0l1-0.2l3-1l4.1-1l1.2-0.5
	l1.9-0.9l4.3-1.3l8.2-3.3l1.1-0.3h0.6l0.7,0.1l1,0.2l7.1,2.3l3.6-0.5l6.5-2.8l3.6-2.3l0.2-0.3l-0.4-0.2l-0.9-0.3l-1.9-0.1l-4.2-1.5
	l-1.6-0.2l-1,0.3l-1.5,1.7l-1,0.6l-1.5,0.1l-1.4-0.5l-1-1l-0.9-2.9l-1.2-0.5l-20.2,2.4l-3,0l-2.7-0.7l-1.2-0.7l-3.3-2.4l-0.7-1
	l-0.2-0.6l-1.2-1.4l-0.3-0.8l-0.1-0.5l0-0.4l-0.1-0.6l-0.3-0.6l-0.6-0.9l-0.1-0.4l0.3-0.1l1.7-0.5l0.6-0.3l0.3-0.6l0-0.9l-0.2-0.8
	l-0.4-0.6l-0.9-0.4l-0.7,0.2l-1.3,1.1l-1.6,1l-1.2,0.4l-3,0l-1.3,0.2l-3.6,1.6l-5.6-2.7l-1.6-2l-1.7-0.8l-3.7-1.1l-1.3,0.3l-6.4-1.2
	l-1.2,0.2l-0.8,0.4l-1.3,1.4l-0.7,0.2l-0.2-0.8l0.2-1.9l-1.7,1.5l-0.7,0.3l-0.7,0l-1.5-0.2l-0.7,0.2l-0.9,1l-0.1,1.2l0.5,2.4
	l0.1,2.5l-0.1,1.1l-0.4,1.4l-0.2,0.1l-0.5,0.6l-0.5,0.7v0.3l-0.2,0.3l-0.1,0.7l0.3,4l-0.1,1l-0.6,1l-0.6,0.4l-1.4,0.4l-0.6,0.3
	l-0.5,0.6l-0.5,1.4l-0.4,0.6l-0.8,0.2l-0.8-0.4l-0.8-0.6l-0.6-0.2l-0.5,0.3l-1.4,1.5l-3,4.5l-1.1,2.7l0.8,1.5l-2,2.2l-1.1,1
	l-0.8,0.1l-1.1-1l-0.9-0.6l-1.1-0.3l-1.6-0.1l-0.4,0.2l-0.4,0.5l-0.5,0.3l-1.1-0.5l-2.1-0.4l-1.3-0.6l-1.1-0.8l-0.8-0.9l-0.5-1.1
	H264l-1.1,0.7l-0.4-1.1l0-2.9l0.5-2.9l-0.3-1.3l-1.5-0.8l-2.8,0.1l-1.5,1.6l-0.6,2.3l-0.8,6.5l-0.6,1.1l-1.4,1.1L252,273l-4.5,1.9
	l-0.7,0.2l-0.9,0.1l-1.7,0.4l-0.6,0.1l-1.2,0.5l-0.8,1.3l-0.5,1.6l-0.2,1.4l0.3,2.5l0.7,2.6l0.3,2.4l-0.9,2.2l-1.4,0.7l-3.3,0.2
	l-1.2,0.5l-0.7,0.4l-0.8,0.4l-0.8,0.5l-0.7,0.8l-0.2,0.6l-0.1,1.3l-0.2,0.7l-0.8,1.3l-1.7,2.3l-0.3,1.4l0.4,1.5l0.6,1.1l0.1,1
	l-1.1,1.1l-4.1,1.3l-0.6,0.7l0,1.2l0.2,0.8l0.4,0.8l5.2,5.8l1.3,2.2l-0.7,1.7l-1.4,5.5l-0.7,1.3l-1,1.5l-0.5,0.4l-0.7,0l-1.2-0.3
	l-1.4-0.6l-0.9-0.8l-1.5-2.1l-1.9-2.1l-1.2-1l-1.6-0.9l-0.3,0.4l-0.2,0.5l-0.1,0.6l0,0.7l-0.6-0.1l-0.6-0.2l-1.1-0.6l-0.5,1.8
	l0.8,2.1l1.3,1.9l1.2,1.2l1.7,0.9l2.1,0.5l2.2-0.1l2-0.8l0.5,1.1l0.4,1.9l0.1,1.8l-0.4,0.8l-0.8,0.8l-0.6,2l-1.6,14.8l0.3,1.3
	l0.9,2.1l0.2,0.8l0.3,2.2l0.7,2.4l1.6,3l0.2,0.8l0.3,0.6l1.6,1.7l0.5,1l0.1,0.7l-0.1,2.2l0.1,0.5l0.6,0.9l0.1,0.3l-0.1,1.6l-0.2,1.3
	l-1.1,2.6l-1.5-1l-1-1.6l-1.2-3.6l-2.5-4.8l-0.4-1.6l-1-2.4l-0.1-0.5l-0.6,0.3L219,366l-0.8,0.8l-1.5,0.7l-0.7,0.4l-0.3,0.6l0.2,0.4
	l1.6,1.6l-3.3,2.7l-2.1,0.8l-0.3,0.3l-0.8,1.5l-0.9,0.6l-0.5,0.3l0,0l0,0.2l0.4,2.7l-0.4,7.4l0.1,2.1l0.3,1.6l1.6,4.3l0.4,2
	l-0.2,1.1l-0.7,1l-4.3,2.5l-1,0.9l-0.9,1.2l-0.8,2.1l0,1.5l0.5,1.2l0.9,0.7l1.2,0.6l8,2.9l1,0.6l1,0.9l0.8,1.1l0.7,1.8l1,6.7
	l0.5,1.7l0.7,1.3l3,3.6l1.8,1.7l1.9,2.1l1.1,1.8l0.4,1.2l0.1,1.1l-0.6,1.8l-1.1,3.4l-0.1,1l0,1.4l0.3,1l0.6,0.9l0.7,0.6l0.6,0.3
	l1.2,0.1l2.4-1.1l3.9-2.3l5.7-2.6l1.4-0.4l2.2-0.1l3.8,0.5l9.3,2.6l2.1,0.2l1.4-0.2l0.5-0.5l0.3-0.6l0.6-1.4l0.5-0.7l0.7-0.6
	l1.5-0.2l1.5,0.6l1.4,1.2l7.2,10.2l2.4,2.7l2.5,2.4l9.5,7.3l2.8,1.4l37.3,7.1l3.3,1l3.4,1.6l1.5,0.9l1.2,1l3.9,4.2l4.2,3.5l2,1.3
	l7.1,3.3l1.5,1.1l0.9,1.2l0.7,1.5l0.4,1.6l0.2,1.4l-0.1,1.3l-0.2,1.3l-0.5,1.2l-0.9,1.5l-10.7,10.2l-1.2,0.8l4.9,0.6l7.6,0.2
	l2.4,0.6l16.5,6.2l1.4,0.1l3.9-0.3l1.2,0.1l1.1,0.2l1.2,0.4l1.3,0.7l5.8,4.3l3.2,3.7l0,0l1.3-1.3l1.7,1.3l0.2-0.2l0.3-0.2l0.4-0.1
	l0.5,0.1l0.7,0.4l0.4,0.3l-0.2,0.1l0.9,0l0.3-0.2l0-0.5l0.2-1.1l0-0.4l-0.1-1l0.1-0.4l0.4-0.3l1.1-0.3l0.4-0.2l0.5-1l0.1-0.7
	l-0.4-0.2l-0.7,0.5l-0.8-0.5l-0.5-0.6l-0.3-0.7l-0.2-0.9l-0.7,0.3l-0.9,0.5l-0.9,0.4l-0.6-0.1l-4.9-4.6l-1.8-1l-0.5-0.3l-0.6-2.4
	l1.6-2.4l1.2-2.4l-1.7-2.4l-1.4-0.6l-1.4-0.3l-2.6,0l-1-0.6l-0.5-1.3l-0.3-1.5l-0.3-1l-0.5-0.4l-0.6-0.2l-0.5-0.3l-0.2-0.7l-0.3-0.3
	l-0.6-0.2l-2.6-0.3l-1-0.4l-1.6-1.2l-3-3.3l-0.2-0.8l0.4-2.9l0-1.3l-0.7-1.4l-2.1-2.5l-0.8-2.3l-2.4-3.5L368,478l-0.5-0.9l-0.2-1.2
	l-0.5-1.4l-1.2-2.4l-1.7-2.2l-3.8-2.9l-1.9-2l-2.6-2l-2.8-0.2l-2.9,0.1l-2.9-1l-1.3-1.8l-1.3-4.8l-1.6-1.7l-1.4,0.2l-0.9-1l-0.8-1.2
	l-2.1-1.3l-1.5-3.4l-0.9-1.2l-0.9,0.5l-0.4,0.8l-0.2,0.9l-0.3,0.9l-0.4,0.6l-0.5,0.6l-0.7,0.5l-0.7,0.5v-2.9l-0.2-0.6l-0.6-0.6
	l-0.1-0.6l0.3-1.4l0.6-1.4l0.4-1.3l-0.3-1l-2.5,0.5l-0.6-1.9l1.1-2.2l2.4-0.3l0.5,0.4l0.7,1.1l0.5,0.2h3.1l1.7,0.5l0.3,0.8l0,1
	l0.8,1.2l2.4,0.7l0.3,0.1l0.7,0.2l0.5,0.4l1.3,1.6l0.3,0.5l0.4,0.4l0.9,0.4l0.7,0.1l4.5-0.2l2.3-0.4l2.1-0.8l1.8-1.3l1.4-1.7
	l1.1-1.8l1.7-4l0.7-2.3l0.6-1.2l0.8-0.5l0.7-0.2l0.8-0.4l1.1-0.8l0.6-0.1l0.4-1.2l2.7,0.4l1.2-0.2l1.6-0.7l0.8,0.1l1.3-0.5l2.2-1.3
	l0.3-0.3l0.3-0.4l0.3-0.4l0.5-0.2l0.7,0l1.2,0.4l0.7,0.1l1.4-0.3l2.8-1.2l1.3-0.2l1.1,0.4l0.8,0.6l0.8,0.3l1.1-0.6l2.2-1.9l5-3.2
	l4.3-2l0.9-0.9l1.6-2.1l4.9-4.2l0.3-0.4l0.9-1.4l0.2-0.6l0.3-0.6l0.6-0.5l1.2-0.7l2.9-4l1.1-1l2.6-1.2l0.8-0.8l0.7-3l0.9-1.1l2-1.4
	l0.7-0.3l0.8-0.2l0.6-0.3l0.3-0.8l0-0.6l0.1-0.6l0.2-0.5l0.4-0.5l1.7-1.8l0.6-0.9l2.9-6.1L433.4,380.9z M284.9,256.4l1.1-0.1l-1-1.1
	l-0.6-0.4l-0.7-0.3l-0.7-0.3l-0.7-0.1l-0.7,0.1l-0.7,0.3l1.7,0.3L284.9,256.4z M265.1,257.6l0.6-0.1l0.5-0.3l0.4-0.4l0.3-0.5l0.2-1
	l-0.3-1l-0.7-0.6l-1,0.4l-0.4,0.8l-0.3,1.2l0.1,1.1L265.1,257.6z M367.4,355.7l0.3,0.3l1.1-0.2l0.8-0.6l0.5-0.8l0.2-1.1l-0.4-0.6
	l-0.6-1.5l-0.4-0.6L366,349l-2.2,0.4l-1.5,0.9l-1.4,0.3l-1.8-1.5l-0.8,1.8l-0.5,0.4l-2.2,0.9l-0.8,0.5l-0.7,0.7l-2,2.8l-0.6,1.2
	l0,0.9l0.8,0.4l1.2-0.1l1.2-0.5l0.8-0.5l1.7-3.3l0.7-0.2l0.8,0.2l3,0.4l0.8,0.2l1,0.9l1,0.2l0.9-0.2l0.1-0.5l-0.8-1.5l0.9,0.4
	L367.4,355.7z M350.9,331.3h-2.4l-1.9,1.3l0.4,2.4l1.8,1.3l1.7-0.3l1.2-1.4l0.5-1.9L350.9,331.3z M373.6,349.8l1.4-0.8l1.5,0.6
	l1.4-0.2l1.1-0.9l0.7-1.3l0.1-1.2l-0.2-0.8l-0.5-0.5l-1-0.2l-1.1,0l-0.6-0.1l-1.8-0.8l-0.8-0.2l-2.7-0.2l-0.3,0.3l0.1,1.2l-0.1,0.3
	l-0.5,0l-0.5-0.2l-0.3-0.2l-0.1-0.1l-1.4-0.1l-0.7,0.2l-0.3,0.7l-0.2,0.9l-0.3,0.6l0,0.7l1,1.1l1.6,0.8l2.3,0.5L373.6,349.8z
	 M392.8,337.6l1,1.1l0.4,0.2l0.5,0l1-0.4l0.3,0l1.9,1.3l2.2,4.1l1.5,1.6l0.5-0.4l-0.5-0.9l-0.5-1.4l-0.2-1.4l0.3-1.2l-0.7-0.9
	l-1-0.7l-1.2-0.5l-2.8-0.8L395,337l-0.3-0.5l-0.4-0.1l-1.8-0.6l-0.6-0.4l-0.4,0.7l0.2,0.5L392.8,337.6z M412.4,355.3l0.8,0.2
	l0.6,0.4l0.6,0.2l0.8-0.5l0.1-0.2l1.5-0.1l0.7-0.2l0.3-0.2l-0.6-0.9l-0.5-0.2l-0.6,0.1l-0.4,0.2h-1.1l-0.5,0.3l-2.1,0.3l-0.3,0.5
	l0.4,0.3L412.4,355.3z M385.4,345.5l-0.4-0.6l-1.8-1.1l-0.3-0.4l-0.5-3.3l-1.2,0.3l-0.8,1.7l-0.4,2.1l0,1.6l0.7,2.8l1,0.6l0.3-0.4
	l0.1-0.8l0.3-0.5l0.9,0.1l0.5,0.4l0.6,0.2l1.1-0.5l0.4-0.7l-0.1-0.9L385.4,345.5z M388.1,338l0.9-1.6l-0.9-0.6l-1.3,1l-1,1.4
	l0.1,0.7l1.2,0.3l2.4,1.2l0.8-0.3h0.4l0.4,0.4l0.5,0.3l0.4-0.1l0.2-0.6l-0.2-0.4l-1-0.5l-0.2-0.2l-0.3-0.6l-0.7-0.3L389,338
	L388.1,338z M515,442.6l-1.2-2.3l-0.4-0.2l0.2-0.5l-0.4-0.3l-0.7,0.5v1.1l1.1,2.3l0.8,1l0.8,0.1l0-0.6L515,442.6z M489.3,445.2h-0.5
	v2.1l0.1,1l0.4,0.9h0.5l0-0.9l-0.5-2.5V445.2z M502.4,451.2l0.6-0.2l0.9,0.4l-0.3-0.6l-0.5-2.5l-0.3-0.7l-0.5-0.6l-3.9-3.5l-1.1,1.4
	l0.1,1.7l1,3.7l0.5,0.7l1,0.5l1.6,0.3l0.6-0.2L502.4,451.2z M494.9,445.6l-0.8-0.5l-0.9,0.8l-0.5,1.4l0.4,1.5l2-1.1l0.4-0.3l0-0.4
	l-0.5-0.8L494.9,445.6z M504.5,453.6l-0.2-0.9l-0.6-0.8l-0.5,0.3l-1,1.6l-0.4,0.9l0.7,0.4l1,0l0.3-0.1l0.8,1l0.4,0.3l0.2-0.7
	l-0.1-0.8L504.5,453.6z M454.2,437.1l-0.7-0.7l-0.1-0.3l-0.9-0.5l-1.1-0.3l-0.5,0.4l-0.1,0.8l-0.2,0.8l-1.1,2.5l-0.3,1.4l-0.2,3.3
	l0.4,0.6l0.8,0l0.8-0.4l0.4-0.7l0.3-0.9l0.7-0.9l0.9-0.7l0.8-0.4l0.7-1l-0.1-1.6L454.2,437.1z M470.1,430.9l-0.7-0.4l-0.3,0
	l-0.3,0.1l-1.8,1.2l-3.5,3.4l-0.6,1.4l0.6,1.1l1.4,0.2l1.1-0.9l1.6-2.3l0.6-0.5l1.3-0.7l0.6-0.5l0.3-0.7l-0.1-0.8L470.1,430.9z
	 M463.2,401l0,0.7l1.3,3.7l0.5,0.2l0.5-0.8l0.8-5.1l-0.6-0.6l-1.4,0.8L463.2,401z M485.5,426l-0.7-0.3l-0.6,0.3l-0.9-0.1l-0.8-1.3
	l-0.1-1.1l0.2-0.5l0.1-0.6l-1.1-3.1l-0.5-0.8l-0.6-0.3l-0.4,0.2l0.1,1l-0.3,0.4l-0.6,0.1l-0.7,0.2l-0.7,1l-0.6,1.3l-0.3,0.8
	l-0.1,0.3l0,0.5l0.2,0.4l0.4,0.2l0.4,0.3l0.1,0.7l-0.3,0.5l-0.4,0.5l-0.1,0.3l-0.2,0.3l0,1l-0.2,0.9l0.2,1.3l0.5,1.6l0.2,0.4
	l0.4,0.6l0.7,0.2l0.6-0.2l0.2-0.4l0.5,0.2l0.8,0.7l0.8,0.3l0.6-0.1l0.7,0.1l0.7-0.1l0.3-0.2l0.5-0.2l1-0.7l0.5-0.9l0-0.9l0.4-1.4
	l0.1-0.8l0-1l-0.4-0.8L485.5,426z M480.5,415.1l0.3-0.7l0.1-0.6l-0.1-2l0.3-1.3l0.9-2.3l0.1-1.3l-0.2-1.2l-0.8-0.8l-1.2-0.4
	l-1.3-0.1l-1.1-0.3l-1.5-1.5l-0.7-0.3l-0.9,0.4l-0.4,0.8l-0.5,0.5l-1-0.6l-0.2-0.5l-0.1-0.7l-0.2-0.6l-0.5,0.1l-0.5,0.2l-0.6,0
	l-1.2-0.1l-0.9,0.4l-0.5,0.9l-0.6,1.9l-1,1.3l-0.3,0.3l-0.8,0.4L465,407l-2,3.1l-1.1,1.4l-1.6,1.1l-0.3-1l0-2l-0.2-1l-0.4-0.5
	l-0.7-0.5l-0.6-0.6l-0.3-0.8l0.1-1.7l0.2-0.8l0.4-0.3l1-0.2l0.6-0.4l0.5-0.6l0.6-0.6l-3.1-4.4l-0.5-0.2l-0.3-0.4l-0.5-0.2l-0.9,0.4
	l-0.4,0.6l-0.1,0.7l-0.3,0.6l-0.9,0.3l-0.9-0.2l-0.6-0.5l-0.5-0.4l-0.4-0.2h-2.6l-3,0.4l-0.9,0.2l-1.4,1.1l-0.8,0.4l-0.9-0.1
	l-2.4-0.9l-1.5-0.2l-1,0.5l-4.3,5.7l-1,2.5l-0.7,2.8l-0.2,2.8l0.3,2.7l4.2,9l1.5,0.3l1.6-1l5-4.2l1.4-1.5l1.3-1.9l0.8-2l0.6-1
	l0.7-0.4l0.5-0.5l1.5-3.1l0.9-0.5l1.1-0.4l0.9-0.5l0.6-1.6l0.5,0l0.5,0.4l0.3,0.4l0.1,0.6l-0.1,2l1.5,8.5l-0.5,2.1l-3.2,1.9
	l-0.8,0.3L452,423l-0.2,0.6l0.1,0.7l0.4,0.6l0.5,0.3l2.2,0.6l0.5,0.6l0.4,0.6l0.6,0.2l2.5-1.7l0.8-0.1l0.3,0.7l0.2,1.5l0.5,0.3
	l0.5-0.6l0.1-1.4l-0.2-5.8l0.6-2.9l1.5-2.4l0.6-0.5l0.5-0.3l0.6-0.1l0.8,0l0.6,0.3l0.1,0.8l0,0.8l0.3,0.3l1.3,0.4l0.5,1l0.3,2.5
	l1.3-0.8l1.9,1.2l1.3-0.5l0.6-0.3l1.2-0.3l0.6-0.3l2.8-2.2L480.5,415.1z"/>
</svg>
