<svg id="Layer_1" data-name="Layer 1" xmlns="http://www.w3.org/2000/svg" viewBox="0 0 703 150.95"><title>govinsy</title><path d="M224,424.52A75.48,75.48,0,1,0,299.45,500,75.57,75.57,0,0,0,224,424.52Zm0,139.34A63.86,63.86,0,1,1,287.84,500,63.93,63.93,0,0,1,224,563.86Z" transform="translate(-148.5 -424.52)"/><path d="M187,463.05a52.25,52.25,0,1,0,73.89,0A52.25,52.25,0,0,0,187,463.05Zm65.68,65.69a40.64,40.64,0,1,1-34.54-68.95v11.78a29,29,0,1,0,30,12.42L224,508.21,215.77,500,240,475.78l8.33-8.33a39.37,39.37,0,0,1,4.4,3.81,38.36,38.36,0,0,1,3.81,4.4A40.69,40.69,0,0,1,252.71,528.74Z" transform="translate(-148.5 -424.52)"/><path d="M373.62,571a34,34,0,0,1-18.2-5,37.76,37.76,0,0,1-13.1-13.47,36.79,36.79,0,0,1-4.93-18.86V474.71a36.13,36.13,0,0,1,4.93-18.49,37.75,37.75,0,0,1,13.19-13.47,34.29,34.29,0,0,1,18.11-5,35.47,35.47,0,0,1,18.49,4.92A36.37,36.37,0,0,1,405.21,456,36.79,36.79,0,0,1,410,474.71v8.55c0,.49-.31.74-.93.74H388.3a.65.65,0,0,1-.74-.74V476.2a17.3,17.3,0,0,0-4-11.71,12.59,12.59,0,0,0-9.94-4.64,12.75,12.75,0,0,0-9.56,4.46,14.72,14.72,0,0,0-4.19,10.4V533.6A14.84,14.84,0,0,0,364,544.1a12.83,12.83,0,0,0,9.66,4.37,13,13,0,0,0,9.94-4.28,14.86,14.86,0,0,0,4-10.59v-9.1h-13a.82.82,0,0,1-.93-.93V502.76a.83.83,0,0,1,.93-.93h34.74c.5,0,.75.32.75.93V533.6a36.79,36.79,0,0,1-4.93,18.86A37.82,37.82,0,0,1,392,565.93,34.47,34.47,0,0,1,373.62,571Z" transform="translate(-148.5 -424.52)"/><path d="M457.6,571a34.17,34.17,0,0,1-18.3-5.11A39.39,39.39,0,0,1,426,552.28a36,36,0,0,1-5-18.68l.18-58.89a36,36,0,0,1,4.93-18.58,37.74,37.74,0,0,1,13.28-13.38,34.79,34.79,0,0,1,18.21-5,34.19,34.19,0,0,1,18.21,5,38.21,38.21,0,0,1,13.09,13.38,36,36,0,0,1,4.93,18.58L494,533.6a36.47,36.47,0,0,1-4.92,18.68,38.5,38.5,0,0,1-13.19,13.56A34.17,34.17,0,0,1,457.6,571Zm0-22.48a12.86,12.86,0,0,0,9.75-4.55,14.84,14.84,0,0,0,4.18-10.32l-.18-58.89a14.86,14.86,0,0,0-3.9-10.4A12.77,12.77,0,0,0,457.6,460a13.31,13.31,0,0,0-9.85,4.18,14.44,14.44,0,0,0-4.09,10.5V533.6a14.84,14.84,0,0,0,4.09,10.5A13,13,0,0,0,457.6,548.47Z" transform="translate(-148.5 -424.52)"/><path d="M525,569.09q-.75,0-.93-.93L498.47,440.52c-.12-.49.12-.74.74-.74h21a.89.89,0,0,1,.93.74l15.23,85.1,14.86-85.1a.89.89,0,0,1,.93-.74H573c.62,0,.87.25.74.74L548.45,568.16q-.19.93-.93.93Z" transform="translate(-148.5 -424.52)"/><path d="M585.6,569.09a.81.81,0,0,1-.92-.93l.18-127.64a.66.66,0,0,1,.74-.74h20.81a.66.66,0,0,1,.75.74l.18,127.64c0,.62-.25.93-.74.93Z" transform="translate(-148.5 -424.52)"/><path d="M625.36,569.09c-1,0-1.48-.43-1.48-1.3l-.19-126.52a1.32,1.32,0,0,1,1.49-1.49H641.9L673.3,513l-.93-71.71c0-1,.55-1.49,1.67-1.49h18.39c.74,0,1.12.5,1.12,1.49L693.73,568q0,1.11-.93,1.11H676.45l-32.14-68.37,1.3,66.88c0,1-.55,1.49-1.67,1.49Z" transform="translate(-148.5 -424.52)"/><path d="M741.48,571a34.17,34.17,0,0,1-18.3-5.11A38.42,38.42,0,0,1,710,552.28a36.38,36.38,0,0,1-4.93-18.68v-8.54a.82.82,0,0,1,.93-.93H726.8c.49,0,.74.31.74.93v8.54a14.8,14.8,0,0,0,4.09,10.5,13.18,13.18,0,0,0,19.69-.09,14.89,14.89,0,0,0,4.09-10.41q0-6.87-8.92-11.89l-9.29-5.2q-6.32-3.53-11.89-6.69a39,39,0,0,1-15.14-14.95,41.77,41.77,0,0,1-4.92-20.35,35.23,35.23,0,0,1,5-18.67,37.45,37.45,0,0,1,13.28-13.1,35.71,35.71,0,0,1,36,.1A37.37,37.37,0,0,1,772.78,456a35.45,35.45,0,0,1,4.93,18.48v15.24a.66.66,0,0,1-.75.74H756.15a.66.66,0,0,1-.74-.74l-.18-15.24a14.37,14.37,0,0,0-4.09-10.59,13.24,13.24,0,0,0-9.66-4.08,13,13,0,0,0-9.85,4.36,14.57,14.57,0,0,0-4.09,10.31,18.71,18.71,0,0,0,2.6,10.22q2.61,4.1,9.48,7.81c.62.37,1.83,1,3.62,1.95s3.75,2,5.85,3.15,4,2.2,5.67,3.07,2.69,1.43,3.07,1.67a44.23,44.23,0,0,1,14.67,12.73q5.38,7.51,5.39,18.48A37,37,0,0,1,759.78,566,35.14,35.14,0,0,1,741.48,571Z" transform="translate(-148.5 -424.52)"/><path d="M804.46,569.09c-.37,0-.56-.25-.56-.74l.19-52.77-24.9-75.06c-.12-.49.07-.74.56-.74h20.62a1,1,0,0,1,1.12.74l13.75,50,13.93-50a.88.88,0,0,1,.93-.74h20.81c.49,0,.68.25.55.74l-25.08,74.32.19,53.51a.66.66,0,0,1-.74.74Z" transform="translate(-148.5 -424.52)"/></svg>