<svg id="Layer_1" data-name="Layer 1" xmlns="http://www.w3.org/2000/svg" viewBox="0 0 660 660"><title>icon</title><path d="M1600,170c-182,0-330,148-330,330s148,330,330,330,330-148,330-330S1782,170,1600,170Zm0,609.23c-154,0-279.23-125.26-279.23-279.23S1446,220.77,1600,220.77,1879.23,346,1879.23,500,1754,779.23,1600,779.23Z" transform="translate(-1270 -170)"/><path d="M1438.45,338.45c-89.22,89.22-89.22,233.88,0,323.1s233.88,89.22,323.1,0,89.22-233.88,0-323.1S1527.67,249.23,1438.45,338.45Zm287.2,287.2c-69.29,69.28-182,69.28-251.3,0s-69.28-182,0-251.3a176.8,176.8,0,0,1,100.25-50.17l0,51.5A126.9,126.9,0,1,0,1705.88,430L1600,535.9,1564.1,500,1670,394.12l36.42-36.42a176.75,176.75,0,0,1,35.89,35.89C1794.39,463.13,1788.85,562.45,1725.65,625.65Z" transform="translate(-1270 -170)"/></svg>